<svg xmlns="http://www.w3.org/2000/svg" width="573" height="451" fill="none"><path fill="#fff" d="M440.118 401.245h-91.179l-7.457 5.74c-2.963 2.279-4.698 5.841-4.698 9.616v34.015h115.72v-35.999c0-7.383-5.547-13.372-12.386-13.372Z"/><path fill="#781B1C" d="M453.888 452H335.399v-35.399c0-4.18 1.957-8.185 5.243-10.714l7.826-6.026h91.659c7.596 0 13.771 6.617 13.771 14.756V452h-.01Zm-115.72-2.768h112.951v-34.615c0-6.607-4.937-11.987-11.001-11.987H349.41l-7.079 5.454c-2.603 2.002-4.163 5.186-4.163 8.517v32.631Z"/><path fill="#fff" d="M349.594 366.64H170.347l-15.183 11.489a14.752 14.752 0 0 0-5.851 11.775v60.712h200.281V366.64Z"/><path fill="#781B1C" d="M350.979 452H147.928v-62.096c0-5.03 2.391-9.847 6.406-12.873l15.552-11.766h181.093v86.744V452Zm-200.282-2.768H348.21v-81.208H170.809l-14.805 11.212a13.451 13.451 0 0 0-5.307 10.668v59.328Z"/><path fill="#fff" d="M170.541 390.171H50.751l-12.22 5.749a21.155 21.155 0 0 0-12.147 19.139v35.566h144.157v-60.454Z"/><path fill="#781B1C" d="M171.925 452H25v-36.95c0-8.692 5.085-16.693 12.949-20.385l12.497-5.878h121.479V452Zm-144.156-2.768h141.387v-57.676H51.064l-11.943 5.61c-6.894 3.239-11.352 10.262-11.352 17.884v34.182Z"/><path fill="#781B1C" d="M171.925 366.64h-2.769v69.211h2.769V366.64ZM51.941 391.095h-2.769v50.293h2.77v-50.293Z"/><path fill="#FFA300" d="M251.244 397.729v20.218c0 7.789-6.313 14.101-14.103 14.101-7.789 0-14.102-6.312-14.102-14.101v-20.218c0-7.78 6.313-14.092 14.102-14.101 7.781 0 14.094 6.312 14.103 14.101Zm-8.371 0a5.734 5.734 0 1 0-11.463 0v20.218a5.725 5.725 0 0 0 5.731 5.676 5.726 5.726 0 0 0 5.732-5.676v-20.218ZM256.754 394.628c0-6.063 4.938-11 11.002-11 6.064 0 11.001 4.937 11.001 11s-4.937 11-11.001 11c-6.064 0-11.002-4.928-11.002-11Zm8.011 38.832-5.86-4.798 38.118-46.519 5.861 4.798-38.119 46.519Zm-.553-38.832a3.544 3.544 0 1 0 7.089 0 3.544 3.544 0 0 0-7.089 0Zm40.813 26.42c0 6.063-4.938 11-11.002 11-6.064 0-11.001-4.937-11.001-11 0-6.062 4.928-10.999 11.001-10.999 6.073 0 11.002 4.937 11.002 10.999Zm-7.458 0a3.544 3.544 0 1 0-7.088.002 3.544 3.544 0 0 0 7.088-.002Z"/><path fill="#232323" d="M89.1 411.71v22.637h-4.708v-22.535H82.14v-4.707h2.354c2.547 0 4.605 2.068 4.614 4.615l-.009-.01ZM108.094 415.032v11.378a7.936 7.936 0 0 1-7.938 7.936 7.936 7.936 0 0 1-7.937-7.936v-11.378c0-4.383 3.553-7.927 7.937-7.936 4.384 0 7.928 3.553 7.938 7.936Zm-4.717.009a3.208 3.208 0 0 0-1.606-2.814 3.223 3.223 0 0 0-3.24 0 3.229 3.229 0 0 0-1.605 2.814v11.378a3.224 3.224 0 0 0 3.221 3.193 3.218 3.218 0 0 0 3.221-3.193v-11.378h.009ZM111.186 413.288a6.2 6.2 0 0 1 6.193-6.192 6.2 6.2 0 0 1 6.193 6.192 6.2 6.2 0 0 1-6.193 6.192 6.199 6.199 0 0 1-6.193-6.192Zm4.513 21.862-3.295-2.704 21.449-26.18 3.295 2.703-21.449 26.181Zm-.314-21.862c0 1.098.895 1.994 1.994 1.994a1.997 1.997 0 0 0 1.993-1.994 1.996 1.996 0 0 0-1.993-1.993 1.997 1.997 0 0 0-1.994 1.993Zm22.963 14.867a6.2 6.2 0 0 1-6.193 6.192 6.2 6.2 0 0 1-6.193-6.192 6.199 6.199 0 0 1 6.193-6.192 6.199 6.199 0 0 1 6.193 6.192Zm-4.19 0a1.997 1.997 0 0 0-1.994-1.993 1.996 1.996 0 0 0-1.993 1.993c0 1.098.895 1.993 1.993 1.993a1.997 1.997 0 0 0 1.994-1.993ZM381.953 432.649h7.845v3.626h-11.749v-1.808c0-.609.046-1.218.157-1.809.471-2.501 2.03-4.125 4.873-6.358 3.12-2.446 3.646-3.35 3.646-4.836a2.519 2.519 0 0 0-5.04 0h-3.627a6.145 6.145 0 0 1 6.147-6.146 6.144 6.144 0 0 1 6.147 6.146c0 3.396-2.086 5.371-5.03 7.687-2.077 1.625-2.981 2.584-3.36 3.507l-.009-.009ZM404.953 421.409v8.757a6.11 6.11 0 0 1-6.11 6.109 6.105 6.105 0 0 1-6.11-6.109v-8.757c0-3.368 2.732-6.1 6.11-6.109 3.369 0 6.101 2.731 6.11 6.109Zm-3.627 0c0-.895-.462-1.717-1.237-2.169a2.46 2.46 0 0 0-2.492 0 2.495 2.495 0 0 0-1.237 2.169v8.757a2.472 2.472 0 0 0 2.483 2.455 2.484 2.484 0 0 0 2.483-2.455v-8.757ZM407.334 420.071a4.769 4.769 0 0 1 4.763-4.762 4.774 4.774 0 0 1 4.762 4.762 4.774 4.774 0 0 1-4.762 4.762 4.774 4.774 0 0 1-4.763-4.762Zm3.471 16.823-2.538-2.077 16.511-20.154 2.538 2.076-16.511 20.155Zm-.24-16.823c0 .849.692 1.532 1.532 1.532a1.54 1.54 0 0 0 1.532-1.532 1.54 1.54 0 0 0-1.532-1.532 1.54 1.54 0 0 0-1.532 1.532Zm17.674 11.443a4.767 4.767 0 0 1-4.762 4.761 4.774 4.774 0 0 1-4.763-4.761 4.774 4.774 0 0 1 4.763-4.762 4.774 4.774 0 0 1 4.762 4.762Zm-3.23 0c0-.849-.692-1.532-1.532-1.532a1.54 1.54 0 0 0-1.532 1.532 1.54 1.54 0 0 0 1.532 1.532 1.54 1.54 0 0 0 1.532-1.532Z"/><path fill="#fff" d="M560.929 347.745a16.649 16.649 0 0 0 .001 19.394c.842 1.182-.607 2.63-1.788 1.788a16.652 16.652 0 0 0-19.395-.001c-1.181.842-2.63-.607-1.788-1.788a16.65 16.65 0 0 0-.001-19.395c-.842-1.181.606-2.63 1.788-1.788a16.652 16.652 0 0 0 19.394.002c1.181-.842 2.63.607 1.789 1.788ZM18.692 104.68a8.644 8.644 0 0 0 0 10.076c.445.613-.312 1.37-.926.926a8.645 8.645 0 0 0-10.076-.001c-.613.444-1.37-.313-.926-.926a8.644 8.644 0 0 0-.001-10.076c-.444-.614.313-1.371.926-.927a8.642 8.642 0 0 0 10.076.001c.614-.444 1.37.313.927.927ZM505.692 7.68a8.644 8.644 0 0 0 .001 10.076c.444.613-.313 1.37-.927.926a8.644 8.644 0 0 0-10.076 0c-.613.443-1.37-.314-.926-.927a8.645 8.645 0 0 0-.001-10.076c-.444-.614.313-1.37.926-.927a8.644 8.644 0 0 0 10.076.001c.614-.444 1.371.313.927.927ZM50.335 322.394l-1.52 2.12a8.644 8.644 0 0 0 0 10.076l1.521 2.121c.444.614-.313 1.371-.927.927l-2.12-1.521a8.645 8.645 0 0 0-10.076-.001l-2.121 1.521c-.614.443-1.37-.314-.927-.927l1.52-2.121a8.644 8.644 0 0 0 0-10.076l-1.521-2.121c-.444-.613.313-1.37.927-.926l2.12 1.52a8.642 8.642 0 0 0 10.076.001l2.121-1.52c.614-.444 1.37.313.927.927Z"/><path fill="#FFA300" d="M229.749 349.752c-13.245.453-24.902-.876-34.916-3.109v14.977s-.48 5.444 5.381 6.718c5.861 1.273 13.724 2.289 19.844 0 4.596.766 12.995 1.781 17.074-1.781 5.344.507 10.946.507 10.946-3.821V348.23c-6.285.784-12.441 1.319-18.329 1.522Z"/><path fill="#781B1C" d="M211.446 370.709c-3.396 0-7.217-.461-11.444-1.375-5.289-1.153-6.35-5.546-6.184-7.751v-16.205l1.237.277c11.029 2.464 22.695 3.497 34.657 3.091 5.611-.194 11.749-.701 18.237-1.513l1.145-.148v15.66c0 1.375-.471 2.501-1.394 3.341-2.123 1.929-6.147 1.901-10.254 1.532-3.258 2.556-8.925 3.137-17.296 1.781-2.474.886-5.39 1.329-8.713 1.329l.009-.019Zm-15.588-22.803v13.806c-.019.184-.305 4.568 4.577 5.629 8.141 1.772 14.62 1.781 19.272.037l.258-.092.268.046c8.067 1.338 13.53.821 16.235-1.541l.332-.286.434.036c3.387.323 7.485.508 9.109-.968.499-.453.729-1.034.729-1.837v-13.353c-6.128.738-11.943 1.209-17.277 1.393-11.685.406-23.093-.562-33.928-2.87h-.009Z"/><path fill="#FFA300" d="M199.319 347.564c4.31 2.667 10.651 6.036 14.13 5.251 5.602-1.273 6.11-1.532 6.11-1.532s10.623 3.286 13.715 1.643c3.092-1.643 4.846-3.082 4.846-3.082s5.63 2.971 9.958-1.615"/><path fill="#781B1C" d="M230.644 354.403c-1.477 0-3.323-.231-5.584-.683-2.483-.498-4.679-1.135-5.482-1.366-1.163.36-4.089 1.043-5.898 1.449-3.018.683-8.03-1.126-14.897-5.371l1.071-1.735c6.212 3.848 10.965 5.666 13.374 5.122 4.55-1.034 5.685-1.384 5.897-1.458l.388-.259.351.213c7.448 2.307 11.887 2.279 12.93 1.716 2.954-1.569 4.661-2.962 4.68-2.971l.526-.425.6.314c.203.101 5.011 2.538 8.74-1.412l1.477 1.403c-3.526 3.728-8.141 3.119-10.568 2.104-.748.553-2.289 1.624-4.495 2.796-.729.387-1.753.581-3.11.581v-.018Z"/><path fill="#232323" d="M111.998 231.761S91.379 159.468 99.27 130.953c7.892-28.515 29.027-38.436 29.027-38.436s11.971-12.984 101.332-33.092c89.369-20.108 118.009-7.76 118.009-7.76s22.917 6.367 33.863 24.435c10.946 18.078 12.986 18.328 26.221 70.771 13.235 52.444 14.509 78.153 14.509 78.153s6.618 41.241-12.22 60.334c-18.837 19.093-37.933 26.217-37.933 26.217l-18.838 7.641s-71.797 27.242-123.482 29.023c-51.686 1.781-79.181-23.68-79.181-23.68s-29.276-26.983-38.57-92.789l-.009-.009Z"/><path fill="#781B1C" d="M224.672 349.328c-24.366 0-42.843-6.063-54.316-11.351-13.327-6.137-20.185-12.421-20.471-12.679-.304-.277-7.531-7.023-15.995-21.963-7.78-13.732-18.053-37.245-22.88-71.362-.35-1.246-5.325-18.964-9.322-39.727-5.565-28.875-6.7-49.583-3.387-61.561 2.289-8.25 7.218-20.219 17.749-30.37 5.777-5.574 10.697-8.157 11.666-8.637 1.67-1.588 17.111-14.212 101.71-33.25 25.538-5.748 62.364-12.393 92.775-11.451 17.601.553 24.984 3.377 25.797 3.71.683.193 6.174 1.817 12.976 5.508 6.59 3.572 15.645 9.838 21.422 19.361a889.016 889.016 0 0 0 2.741 4.485c8.612 13.971 11.51 18.678 23.6 66.572 12.82 50.782 14.463 76.907 14.537 78.291.129.84 1.634 10.982.96 23.172-.646 11.757-3.507 27.897-13.466 37.983-18.561 18.807-37.657 26.218-38.294 26.458l-18.828 7.631c-.203.074-18.293 6.912-42.465 13.879-22.326 6.432-54.565 14.295-81.368 15.218-1.735.055-3.442.092-5.113.092l-.028-.009Zm91.502-300.404c-28.962 0-62.567 6.145-86.324 11.489-45.594 10.261-70.541 18.604-83.444 23.808-14.094 5.676-17.343 8.96-17.37 8.998l-.13.138-.175.083c-.055.028-5.261 2.52-11.343 8.407-5.602 5.426-13.125 14.922-17.13 29.392-4.024 14.534-.36 40.991 3.424 60.619 4.116 21.345 9.257 39.46 9.303 39.645l.028.138c2.631 18.641 8.685 46.021 22.594 70.614 8.316 14.7 15.589 21.501 15.663 21.575.064.065 6.968 6.368 20.028 12.366 11.269 5.177 29.433 11.12 53.384 11.12 1.652 0 3.331-.028 5.048-.083 26.59-.914 58.645-8.739 80.86-15.134 24.099-6.94 42.124-13.75 42.299-13.824l18.847-7.641c.194-.074 19.124-7.29 37.564-25.986 9.498-9.625 12.248-25.23 12.885-36.627.692-12.449-.923-22.729-.942-22.83v-.111c-.027-.259-1.439-26.245-14.49-77.95-12.017-47.58-14.647-51.853-23.36-66a999.1 999.1 0 0 1-2.75-4.494c-10.605-17.506-33.042-23.92-33.264-23.984l-.129-.046c-.074-.028-7.347-3.046-25.381-3.58a191.635 191.635 0 0 0-5.676-.084l-.019-.018Z"/><path fill="#fff" d="M422.231 225.015s-1.274-25.709-14.509-78.153c-5.934-23.495-9.617-36.516-12.857-45.356-15.108-13.935-45.778-13.095-62.216 10.538-18.801 27.048-12.257 76.815-2.834 92.097 9.424 15.282-7.642 25.461-7.642 25.461s-22.917 7.382-23.932-12.218c.508-20.367-8.15-43.788-8.15-43.788s-13.752-37.928-45.068-43.788c-31.315-5.859-54.482 8.398-72.821 26.984-18.339 18.585-15.275 46.842-15.275 46.842 6.876 75.098 36.66 105.902 36.66 105.902s31.824 35.131 83.509 25.202c51.686-9.93 99.043-29.788 99.043-29.788s8.915-2.797 29.276-18.835c6.636-5.223 11.675-13.335 15.45-21.899 4.633-18.76 1.348-39.192 1.348-39.192l.018-.009Z"/><path fill="#781B1C" d="M258.84 337.516a91.68 91.68 0 0 1-16.77-1.532c-9.174-1.698-18.108-4.799-26.572-9.228-14.278-7.466-22.179-16.02-22.649-16.528-.443-.461-7.725-8.176-15.93-25.036-7.615-15.669-17.444-42.514-21.007-81.466-.028-.277-.757-7.29.775-16.712 1.422-8.712 5.132-21.151 14.795-30.942 10.587-10.733 21.007-18.217 31.861-22.877 13.152-5.647 27.236-7.124 41.865-4.392 7.301 1.365 14.26 4.568 20.684 9.505 5.113 3.931 9.903 8.979 14.232 14.986 7.346 10.216 10.78 19.555 10.918 19.942.083.231 8.704 23.8 8.205 44.12.259 4.752 1.892 8.204 4.864 10.252 6.212 4.282 16.438 1.403 17.619 1.043.905-.572 7.781-5.121 9.488-12.153.942-3.858.166-7.844-2.298-11.84-5.131-8.324-8.879-25.257-9.322-42.136-.544-20.846 3.784-38.979 12.183-51.068 7.892-11.342 19.567-18.401 32.885-19.86 11.713-1.282 23.25 2.132 30.855 9.146l.184.166.083.231c3.221 8.776 6.95 21.944 12.894 45.457 12.82 50.783 14.463 76.917 14.537 78.292.184 1.2 3.128 21.28-1.376 39.543l-.018.083-.037.083c-4.439 10.049-9.737 17.552-15.755 22.286-19.742 15.54-28.75 18.724-29.553 18.991-1.634.683-48.649 20.118-99.199 29.826a97.58 97.58 0 0 1-18.459 1.781l.018.037Zm-27.882-208.04c-9.248 0-18.109 1.855-26.803 5.593-10.605 4.558-20.822 11.895-31.214 22.433-9.285 9.413-12.866 21.419-14.232 29.835-1.486 9.145-.766 16.112-.757 16.177 3.535 38.592 13.235 65.16 20.757 80.663 8.15 16.786 15.552 24.565 15.626 24.639l.018.028c.083.083 8.048 8.776 22.16 16.14 8.279 4.319 17.01 7.346 25.972 8.997 11.196 2.067 22.779 1.975 34.427-.258 50.984-9.791 98.368-29.53 98.839-29.724l.092-.037c.083-.028 9.054-2.999 28.953-18.668 5.741-4.513 10.827-11.729 15.118-21.428 4.495-18.327 1.348-38.5 1.311-38.703v-.111c-.028-.258-1.44-26.245-14.49-77.95-5.861-23.227-9.571-36.322-12.746-45.024-7.181-6.506-18.026-9.671-29.074-8.453-12.727 1.393-23.886 8.139-31.435 18.991-8.159 11.729-12.359 29.438-11.823 49.851.433 16.555 4.051 33.083 9.017 41.121 2.759 4.484 3.618 8.988 2.538 13.399-2.04 8.314-10.171 13.261-10.522 13.464l-.101.055-.111.037c-.489.157-12.128 3.82-19.521-1.273-3.525-2.437-5.463-6.423-5.74-11.859v-.074c.498-19.932-8.002-43.178-8.085-43.409-.037-.101-3.498-9.514-10.688-19.499-4.209-5.841-8.851-10.732-13.808-14.543-6.156-4.734-12.82-7.798-19.797-9.099-4.744-.886-9.359-1.329-13.881-1.329v.018Z"/><path fill="#232323" d="M83.986 291.329s3.055-7.89 6.618-23.679c3.562-15.79 9.423-33.351 23.932-35.898 14.509-2.547 19.862 15.273 19.862 15.273s10.199 27.592-1.523 52.369c-11.721 24.769-38.709 40.549-38.709 40.549s-13.235 8.656-21.135-2.796c-7.892-11.452 3.82-28.257 3.82-28.257s5.095-9.929 7.126-17.561h.01Z"/><path fill="#781B1C" d="M83.838 344.105c-4.753 0-8.74-2.169-11.638-6.377-3.415-4.965-3.821-11.646-1.172-19.333 1.864-5.408 4.569-9.468 4.956-10.022.415-.821 5.113-10.16 7.024-17.303l.037-.101c.027-.074 3.073-8.019 6.58-23.532 3.544-15.669 9.553-34.006 24.754-36.673 6.332-1.107 11.989 1.329 16.355 7.069 3.119 4.097 4.504 8.444 4.642 8.887.203.563 2.622 7.327 3.683 17.109 1.006 9.246.914 23.006-5.242 36.017-3.388 7.152-10.301 18.143-24.007 29.9-7.955 6.819-14.656 10.824-15.09 11.083-.323.212-3.646 2.297-7.974 3.036a17.58 17.58 0 0 1-2.898.249l-.01-.009Zm1.117-52.462c-2.049 7.65-6.987 17.312-7.19 17.718l-.073.12c-.111.166-11.214 16.361-3.812 27.093 3.027 4.393 7.236 6.165 12.515 5.27 4.043-.692 7.19-2.723 7.218-2.741l.046-.028c.267-.157 26.858-15.918 38.302-40.105 5.944-12.56 6.037-25.895 5.067-34.864-1.052-9.773-3.562-16.639-3.581-16.712l-.018-.065s-1.338-4.365-4.356-8.315c-3.923-5.131-8.759-7.235-14.352-6.256-14.011 2.454-19.715 20.062-23.12 35.113-3.388 15.005-6.369 23.033-6.646 23.762v.01Z"/><path fill="#fff" d="M84.955 343.044c5.049-.369 9.211-3.092 9.211-3.092s26.988-15.78 38.709-40.548c11.722-24.769 1.523-52.37 1.523-52.37s-.757-2.519-2.474-5.537c2.206 5.952 4.218 14.608 4.643 26.789 1.015 29.272-19.096 47.35-19.096 47.35s-12.22 11.452-22.659 21.889c-3.175 3.175-6.608 4.79-9.847 5.509l-.01.01Z"/><path fill="#781B1C" d="m85.03 344.059-.296-2.012c3.507-.775 6.654-2.538 9.35-5.233 10.327-10.326 22.556-21.796 22.686-21.916.064-.056 5.02-4.568 9.792-12.542 4.384-7.336 9.497-19.185 8.98-34.033-.36-10.335-1.901-19.241-4.577-26.476l1.836-.858c1.671 2.935 2.455 5.399 2.557 5.712.203.563 2.621 7.328 3.682 17.109 1.006 9.247.914 23.006-5.242 36.018-3.387 7.152-10.3 18.143-24.006 29.899-7.956 6.82-14.657 10.825-15.09 11.083-.37.24-4.56 2.87-9.673 3.239v.01Zm52.414-69.046c-.914 12.219-5.316 22.019-9.174 28.451-4.92 8.213-9.913 12.744-10.125 12.928-.102.093-11.51 10.797-21.579 20.81 7.254-4.845 26.203-18.835 35.386-38.251 3.84-8.12 5.243-16.564 5.483-23.947l.009.009Z"/><path fill="#232323" d="M447.695 188.868c-7.891-2.039-21.643-14.257-28.519-20.366-3.277-2.917-5.805-4.55-7.55-5.473 5.372 23.292 8.058 39.949 9.377 50.091 12.562 8.342 27.708 10.372 27.708 10.372s19.354.766 21.135-11.452c1.782-12.218-14.259-21.132-22.151-23.163v-.009Z"/><path fill="#781B1C" d="M449.412 224.517c-.434 0-.692-.009-.738-.009h-.093c-.627-.093-15.524-2.169-28.131-10.539l-.388-.258-.055-.462c-1.283-9.865-3.951-26.549-9.359-49.989l-.499-2.168 1.966 1.033c2.335 1.228 4.947 3.119 7.753 5.611 6.636 5.897 20.444 18.161 28.095 20.145 3.738.969 9.94 3.627 15.1 7.973 5.934 4.983 8.629 10.631 7.799 16.325-.794 5.435-4.938 9.283-11.98 11.147-4.034 1.062-7.882 1.191-9.461 1.191h-.009Zm-.609-2.049c1.043.028 18.45.305 20.037-10.584.914-6.276-3.35-11.333-7.097-14.479-4.587-3.858-10.494-6.571-14.306-7.558-8.131-2.095-21.662-14.129-28.935-20.588-1.892-1.689-3.692-3.073-5.353-4.153 4.993 21.963 7.541 37.789 8.805 47.414 11.786 7.669 25.907 9.81 26.849 9.948Z"/><path fill="#fff" d="M453.298 220.429c-10.873-2.455-26.535-17.211-35.23-26.153 1.385 7.752 2.317 14.027 2.935 18.835 12.562 8.342 27.708 10.372 27.708 10.372s8.399.333 14.638-2.934c-2.917.637-6.276.738-10.061-.12h.01Z"/><path fill="#781B1C" d="M449.44 224.517c-.434 0-.711-.009-.766-.009h-.093c-.627-.092-15.524-2.169-28.131-10.539l-.388-.258-.055-.461c-.748-5.731-1.735-12.052-2.926-18.789l-.582-3.267 2.317 2.381c8.39 8.629 24.043 23.458 34.722 25.867 3.313.747 6.543.784 9.617.12l7.411-1.624-6.719 3.515c-5.371 2.815-12.128 3.064-14.389 3.064h-.018Zm-.637-2.048c.415.009 3.452.064 7.042-.573a26.613 26.613 0 0 1-2.769-.479c-4.947-1.117-11.278-4.762-18.847-10.844-5.417-4.355-10.632-9.302-14.592-13.26a412.947 412.947 0 0 1 2.326 15.208c11.787 7.668 25.908 9.809 26.849 9.948h-.009Z"/><path fill="#F97575" d="M231.401 284.454c8.507 0 15.404-6.896 15.404-15.402s-6.897-15.402-15.404-15.402c-8.508 0-15.404 6.896-15.404 15.402s6.896 15.402 15.404 15.402Z"/><path fill="#781B1C" d="M231.401 285.478c-9.055 0-16.42-7.364-16.42-16.417 0-9.052 7.365-16.416 16.42-16.416 9.054 0 16.419 7.364 16.419 16.416 0 9.053-7.365 16.417-16.419 16.417Zm0-30.803c-7.929 0-14.389 6.45-14.389 14.386 0 7.937 6.451 14.387 14.389 14.387 7.937 0 14.389-6.45 14.389-14.387 0-7.936-6.452-14.386-14.389-14.386Z"/><path fill="#F97575" d="M402.627 236.218c6.189 0 11.205-6.441 11.205-14.387 0-7.946-5.016-14.387-11.205-14.387-6.188 0-11.204 6.441-11.204 14.387 0 7.946 5.016 14.387 11.204 14.387Z"/><path fill="#781B1C" d="M402.627 237.233c-6.737 0-12.22-6.912-12.22-15.402 0-8.489 5.483-15.401 12.22-15.401 6.738 0 12.22 6.912 12.22 15.401 0 8.49-5.482 15.402-12.22 15.402Zm0-28.764c-5.611 0-10.18 5.998-10.18 13.362 0 7.365 4.569 13.363 10.18 13.363 5.612 0 10.181-5.998 10.181-13.363 0-7.364-4.569-13.362-10.181-13.362Z"/><path fill="#D3D3D3" d="M365.986 167.339s3.037-14.368 14.998-9.016c11.962 5.353 12.451 37.116 12.451 37.116s.794 2.593-4.043 1.32c-4.836-1.274-5.851-.508-5.851-.508l-7.642 5.722s-2.289 1.771-5.095-2.741c-2.806-4.513-6.073-24.907-4.818-31.893ZM225.318 207.251s2.908-20.025 20.213-10.418c0 0 5.344 2.731 8.141 19.526 2.796 16.796 1.532 17.312 1.532 17.312s-.259 1.532-2.289 1.274c-2.031-.259-6.618-3.313-9.673-1.532-3.055 1.781-7.642 6.367-7.642 6.367s-3.563 1.634-4.836-2.491c0 0-7.836-23.366-5.446-30.038Z"/><path fill="#232323" d="M225.42 211.524s-1.495-10.539 7.144-13.418c8.638-2.879 12.967 3.23 12.967 3.23s4.836 6.617 5.602 18.835c1.274 6.109 1.016 10.437 1.016 10.437s.812 2.556-7.236.895c-4.993-1.403-7.79 2.925-7.79 2.925l-2.547 2.289s-2.289 2.039-3.185-1.652c-.895-3.691-4.965-11.84-5.98-23.55l.009.009Z"/><path fill="#781B1C" d="M233.228 238.304c-.221 0-.461-.027-.692-.111-1.015-.313-1.726-1.291-2.114-2.888-.23-.941-.683-2.215-1.255-3.83-1.587-4.448-3.987-11.175-4.744-19.849-.046-.333-.351-2.972.351-5.971 1.006-4.282 3.599-7.226 7.485-8.518 9.248-3.082 14.075 3.544 14.121 3.609.194.267 4.993 6.958 5.787 19.286 1.163 5.602 1.062 9.699 1.034 10.493a1.907 1.907 0 0 1-.48 1.541c-1.08 1.2-3.609 1.338-7.974.434l-.074-.019c-4.181-1.181-6.562 2.344-6.664 2.501l-.074.111-.101.092-2.548 2.289c-.11.101-.96.821-2.039.83h-.019Zm3.821-39.948c-1.237 0-2.621.203-4.162.719-7.744 2.584-6.47 12.209-6.461 12.301v.056c.738 8.425 3.092 15.014 4.642 19.37.6 1.67 1.071 2.99 1.32 4.032.231.951.545 1.357.739 1.422.221.073.618-.167.784-.296l2.437-2.196c1.181-1.726 4.411-4.457 8.805-3.239 4.494.923 5.722.387 5.962.231l.009-.194c0-.037.231-4.282-.997-10.17l-.018-.147c-.729-11.738-5.362-18.235-5.409-18.3-.129-.184-2.658-3.58-7.66-3.58l.009-.009Z"/><path fill="#232323" d="M365.405 170.44c.461-3.755 1.818-8.508 5.657-9.837 0 0 9.378-1.532 11.823 7.383 2.446 8.914 4.218 17.561 4.218 17.561s1.145 6.247.702 7.705c-.443 1.458-2.64 1.015-2.64 1.015s-4.605-2.473-7.319 0c-2.713 2.474-6.018 4.771-6.018 4.771s-1.43 3.581-6.156-21.197c-.461-2.445-.572-4.946-.267-7.41v.009Z"/><path fill="#781B1C" d="M371.588 200.247h-.129c-.858-.083-1.569-.812-2.686-4.3-1.153-3.599-2.538-9.625-4.107-17.903a24.788 24.788 0 0 1-.277-7.724c.711-5.795 2.908-9.486 6.332-10.668l.083-.027.083-.019c.102-.018 10.319-1.559 12.968 8.121 2.418 8.841 4.217 17.543 4.236 17.626.286 1.541 1.154 6.635.674 8.204-.49 1.605-2.317 2.021-3.812 1.716l-.148-.028-.129-.073s-4.015-2.105-6.147-.148c-2.418 2.215-5.252 4.245-5.962 4.743-.222.268-.554.48-.969.48h-.01Zm-5.177-29.678a22.728 22.728 0 0 0 .258 7.097c2.815 14.756 4.384 19.01 5.03 20.228.988-.711 3.415-2.492 5.455-4.365 2.916-2.676 7.393-.692 8.325-.231.351.037 1.227.074 1.347-.332.231-.757-.193-4.337-.729-7.226-.009-.064-1.799-8.702-4.199-17.478-2.068-7.567-9.645-6.782-10.586-6.663-3.277 1.2-4.468 5.528-4.892 8.961l-.009.009Z"/><path fill="#fff" d="M370.804 184.282c2.814 0 5.095-2.736 5.095-6.109 0-3.374-2.281-6.11-5.095-6.11-2.814 0-5.095 2.736-5.095 6.11 0 3.373 2.281 6.109 5.095 6.109Z"/><path fill="#781B1C" d="M370.804 185.297c-3.369 0-6.11-3.193-6.11-7.124 0-3.931 2.741-7.124 6.11-7.124s6.11 3.193 6.11 7.124c0 3.931-2.741 7.124-6.11 7.124Zm0-12.218c-2.243 0-4.07 2.279-4.07 5.094 0 2.815 1.827 5.094 4.07 5.094 2.243 0 4.07-2.279 4.07-5.094 0-2.815-1.827-5.094-4.07-5.094Z"/><path fill="#fff" d="M232.167 221.573a5.98 5.98 0 1 0 0-11.96 5.981 5.981 0 0 0 0 11.96Z"/><path fill="#781B1C" d="M232.167 222.597c-3.858 0-7.006-3.137-7.006-7.004a7.007 7.007 0 0 1 14.011 0 7.006 7.006 0 0 1-7.005 7.004Zm0-11.969a4.967 4.967 0 0 0-4.966 4.965 4.966 4.966 0 0 0 9.931 0 4.966 4.966 0 0 0-4.965-4.965Z"/><path fill="#FFA300" d="M304.6 225.015s1.782-11.203 10.439-13.491c8.657-2.289 14.767 7.89 14.767 7.89s1.532 3.562-3.055 5.601c0 0-18.588 5.851-22.151 0Z"/><path fill="#781B1C" d="M312.067 228.642c-3.655 0-6.913-.766-8.334-3.101l-.194-.323.055-.369c.019-.12.489-2.99 2.068-6.183 2.132-4.309 5.288-7.124 9.118-8.139 3.877-1.024 7.873.111 11.556 3.304 2.704 2.334 4.282 4.937 4.347 5.047l.065.12s1.864 4.513-3.581 6.931l-.111.037c-1.255.396-8.704 2.657-14.998 2.657l.009.019Zm-6.378-3.858c2.723 3.341 14.002 1.375 20.711-.719 3.259-1.477 2.668-3.719 2.502-4.19-.545-.858-6.138-9.339-13.595-7.364-7.024 1.864-9.212 10.345-9.618 12.273Z"/><path fill="#FFA300" d="M328.689 223.788c-.47.443-1.098.859-1.929 1.228 0 0-14.573 4.586-20.388 1.578 0 0-.489 4.789 5.87 8.61 6.369 3.82 10.697 2.796 10.697 2.796s7.384-2.796 6.11-14.258l-.36.046Z"/><path fill="#781B1C" d="M321.463 239.135c-1.948 0-5.409-.471-9.747-3.064-6.839-4.107-6.387-9.367-6.359-9.588l.074-.748 1.089-.221.323.166c4.439 2.307 15.561-.378 19.558-1.624.646-.296 1.19-.637 1.605-1.025l.24-.221 1.708-.212.111 1.024c1.347 12.098-6.433 15.199-6.766 15.319l-.129.037c-.064.018-.674.147-1.707.147v.01Zm-13.918-11.01c.369 1.523 1.55 4.005 5.223 6.202 5.464 3.276 9.332 2.787 9.876 2.694.702-.304 5.889-2.851 5.51-11.581a8.942 8.942 0 0 1-.987.507l-.111.037c-.563.176-12.792 3.978-19.521 2.132l.01.009Z"/><path fill="#F97575" d="M315.491 227.406c-.129 1.606.222 3.931 3.12 4.734 4.587 1.273 5.094-1.781 5.094-1.781s.702-2.446-.803-4.3c-2.067.498-4.734 1.052-7.411 1.347Z"/><path fill="#781B1C" d="M320.641 233.469c-.701 0-1.467-.12-2.307-.351-2.695-.748-4.098-2.861-3.858-5.805l.065-.839.83-.093c2.197-.24 4.652-.683 7.282-1.319l.628-.148.406.498c1.707 2.104 1.108 4.762 1.006 5.168a3.603 3.603 0 0 1-1.578 2.224c-.683.434-1.514.655-2.474.655v.01Zm-4.153-5.159c.055.96.461 2.316 2.4 2.852 1.384.387 2.473.359 3.138-.065.553-.351.673-.895.673-.904l.028-.111s.406-1.541-.277-2.87a62.126 62.126 0 0 1-5.953 1.098h-.009ZM220.187 351.062h-2.04v10.576h2.04v-10.576ZM239.283 349.789h-2.04v10.576h2.04v-10.576Z"/><path fill="#FFA300" d="M379.323 318.257c-.812-2.363-3.184-4.236-5.104-5.436-13.014 5.343-28.464 11.194-44.256 16.039 0 0-.129 13.796 6.239 13.777 16.604 2.058 21.062-2.224 21.062-2.224s5.861-.073 9.636-.71c3.775-.637 6.534-3.212 6.534-3.212s1.975 1.339 5.677-.055c3.701-1.393 2.63-4.356 2.63-4.356s-.96-9.625-2.409-13.833l-.009.01Z"/><path fill="#781B1C" d="M348.911 344.012c-3.175.314-7.356.323-12.783-.35-1.366-.019-2.584-.545-3.599-1.569-3.637-3.673-3.59-12.855-3.59-13.243v-.553l.59-.369.13-.037c13.669-4.19 28.528-9.579 44.172-16.002l.48-.194.443.277c2.021 1.255 4.624 3.304 5.538 5.971 1.412 4.097 2.344 12.938 2.446 13.971.194.748.775 3.968-3.277 5.5-1.707.646-3.304.849-4.753.6a5.832 5.832 0 0 1-1.126-.295c-1.034.821-3.452 2.501-6.525 3.017-3.323.554-8.113.692-9.442.72-.849.609-3.35 2.04-8.704 2.575v-.019Zm-17.923-14.405c.027.868.11 2.409.36 4.107.498 3.303 1.402 5.703 2.63 6.939.646.655 1.375.969 2.215.969h.129c15.709 1.957 20.195-1.91 20.241-1.947l.286-.277h.387c.056 0 5.824-.074 9.479-.692 3.434-.572 5.981-2.925 6.009-2.953l.59-.554.674.453c.055.027 1.652.996 4.744-.167 2.584-.968 2.141-2.731 2.031-3.072l-.037-.111-.019-.129c-.009-.093-.969-9.561-2.353-13.603-.665-1.919-2.594-3.534-4.246-4.623-15.247 6.247-29.747 11.508-43.13 15.642l.01.018Z"/><path fill="#FFA300" d="M337.467 326.773s11.177 1.966 14.518-.415l3.341-2.381s8.233 3.018 11.075.683c2.843-2.335 4.661-4.559 4.661-4.559s6.858 2.64 8.362-.839"/><path fill="#781B1C" d="M348.358 328.444c-4.467.443-10.208-.517-11.067-.664l.351-2.003c2.99.526 11.297 1.504 13.752-.24l3.784-2.694.508.184c2.972 1.089 8.334 2.279 10.079.849 2.713-2.233 4.504-4.392 4.522-4.42l.471-.572.683.267c1.541.591 6.156 1.809 7.06-.286l1.874.803c-.563 1.31-2.031 2.778-5.796 2.326a17.076 17.076 0 0 1-3.175-.711 39.443 39.443 0 0 1-4.338 4.162c-2.852 2.344-9.534.351-11.555-.332l-2.917 2.076c-.988.711-2.51 1.08-4.218 1.255h-.018Z"/><path fill="#781B1C" d="m356.295 324.674-2.029.203 1.054 10.523 2.03-.204-1.055-10.522ZM372.182 319.757l-2.029.203 1.054 10.523 2.029-.203-1.054-10.523Z"/><path fill="#FFA300" d="M279.985 61.99a88.188 88.188 0 0 1-29.184 7.595 13.322 13.322 0 0 1-13.992-9.91l-2.741-10.52c-.868-3.342 2.547-6.175 5.667-4.707l10.835 5.084 2.391-17.136c.498-3.58 5.058-4.78 7.264-1.92l10.401 13.556 6.747-9.394c2.012-2.796 6.378-1.984 7.245 1.348l2.741 10.529a13.31 13.31 0 0 1-7.383 15.475h.009Z"/><path fill="#781B1C" d="M266.067 68.385a89.834 89.834 0 0 1-15.155 2.584 14.67 14.67 0 0 1-15.45-10.944l-2.742-10.52a5.407 5.407 0 0 1 1.791-5.565 5.397 5.397 0 0 1 5.805-.738l9.138 4.29 2.132-15.28c.304-2.216 1.846-3.95 4.015-4.523 2.141-.563 4.356.176 5.722 1.957l9.266 12.07 5.667-7.88a5.415 5.415 0 0 1 5.427-2.179c2.105.388 3.738 1.92 4.283 3.987l2.741 10.53a14.66 14.66 0 0 1-8.15 17.08 89.933 89.933 0 0 1-14.49 5.14v-.009Zm-28.723-22.858a2.738 2.738 0 0 0-1.052.545 2.634 2.634 0 0 0-.886 2.74l2.741 10.52a11.902 11.902 0 0 0 12.543 8.878 86.678 86.678 0 0 0 28.723-7.484 11.905 11.905 0 0 0 6.608-13.87l-2.741-10.53a2.633 2.633 0 0 0-2.104-1.965 2.638 2.638 0 0 0-2.677 1.07l-7.836 10.908-11.537-15.032c-.683-.886-1.726-1.246-2.806-.96h-.009c-1.08.286-1.818 1.117-1.975 2.224l-2.649 19-12.543-5.887a2.687 2.687 0 0 0-1.809-.184l.009.027Z"/></svg>