<svg xmlns="http://www.w3.org/2000/svg" width="473" height="421" fill="none"><path fill="#fff" d="M418.673 373.431h-85.371l-6.982 5.378c-2.774 2.136-4.399 5.474-4.399 9.011v31.875H430.27v-33.734c0-6.918-5.194-12.53-11.597-12.53Z"/><path fill="#781B1C" d="M431.566 420.992H320.625V387.82c0-3.917 1.832-7.67 4.909-10.039l7.328-5.647h85.819c7.112 0 12.894 6.2 12.894 13.827v35.031h-.009Zm-108.348-2.594h105.756v-32.437c0-6.191-4.624-11.233-10.301-11.233h-84.93l-6.628 5.111c-2.437 1.876-3.897 4.86-3.897 7.981v30.578Z"/><path fill="#232323" d="M100.947 170.84s-3.915-83.862 29.874-109.605c37.09-28.26 68.044-29.419 68.044-29.419s26.616-3.087 72.105 0c45.49 3.088 85.077 4.748 108.548 25.623 23.47 20.874 24.066 81.959 24.066 81.959s2.135 69.75-1.426 94.897c0 0-1.659 33.448-21.336 52.904-19.677 19.457-56.663 25.147-101.944 25.856-45.282.709-99.811.951-124.223-7.117-24.413-8.068-31.292-14-38.404-24.913-7.112-10.913-15.287-110.193-15.287-110.193l-.017.008Z"/><path fill="#781B1C" d="M243.853 314.335c-36.39 0-71.086-1.41-89.501-7.489-24.602-8.129-31.619-14.113-38.904-25.294-7.164-10.99-15.106-106.57-15.443-110.634v-.035c-.008-.207-.95-21.324 2.273-45.321 1.892-14.112 4.831-26.452 8.737-36.682 4.908-12.867 11.381-22.422 19.227-28.398 10.638-8.102 27.636-19.102 48.22-25.458 12.047-3.718 19.651-4.124 20.317-4.15 1.149-.13 27.947-3.001 72.235 0l6.55.44c42.923 2.863 79.987 5.336 102.567 25.424 5.47 4.86 10.145 12.262 13.913 21.982 2.99 7.722 5.418 16.931 7.224 27.377 3.06 17.753 3.241 33.154 3.241 33.301.017.675 2.091 70.018-1.426 94.992-.043.691-.562 8.95-3.318 19.309-2.653 9.962-7.985 23.979-18.294 34.175-9.463 9.356-23.143 15.963-41.826 20.208-15.814 3.589-35.698 5.535-60.767 5.924-11.528.182-23.376.329-35.033.329h.008ZM101.889 170.779c.147 1.79 8.27 99.194 15.14 109.736 7.034 10.792 13.853 16.577 37.911 24.524 10.888 3.597 28.56 5.819 54.027 6.805 22.131.848 46.665.631 69.885.268 52.999-.83 84.238-8.725 101.288-25.587 9.998-9.893 15.192-23.556 17.784-33.276 2.826-10.584 3.267-18.92 3.267-18.998v-.086c3.508-24.775 1.443-94.032 1.426-94.732 0-.173-.182-15.444-3.224-33.05-2.782-16.154-8.607-37.642-20.524-48.235-22.096-19.656-58.857-22.103-101.426-24.948a8224.95 8224.95 0 0 0-6.55-.441c-44.859-3.044-71.665-.035-71.933 0h-.069c-.078 0-7.812.346-19.953 4.099-11.2 3.467-28.535 10.645-47.555 25.129-7.562 5.76-13.818 15.029-18.605 27.55-3.855 10.083-6.758 22.276-8.633 36.242-3.163 23.538-2.299 44.3-2.265 44.992l.009.008Z"/><path fill="#fff" d="M403.567 139.407s-.138-14.026-2.86-30.932c0 0-6.741-38.221-54.632-26.6-47.892 22.302-30.35 98.927-30.35 98.927s-4.027 17.32-17.784 17.32c-13.757 0-18.493-17.796-18.493-17.796s2.843-13.049 2.61-26.573c2.609-61.916-34.61-74.731-34.61-74.731s-27.739-17.554-69.461 3.32c-41.722 20.875-36.986 95.839-36.986 95.839s-1.184 59.78 25.13 81.848c26.313 22.059 45.636 38.783 120.904 36.768 75.268-2.014 94.712-9.572 109.593-36.102 4.9-14.061 5.513-26.409 5.513-26.409 3.561-25.147 1.426-94.897 1.426-94.897v.018Z"/><path fill="#781B1C" d="M275.179 297.93c-28.474 0-49.914-3.044-66.851-9.425-17.638-6.642-29.001-16.171-42.163-27.214l-.63-.527c-6.119-5.128-11.269-12.686-15.296-22.457-3.206-7.766-5.712-16.958-7.466-27.3-2.904-17.148-2.723-31.918-2.714-32.791-.06-.986-1.054-19.534 2.86-40.288 2.36-12.496 6.015-23.339 10.854-32.246 6.093-11.19 14.095-19.327 23.791-24.178 9.609-4.808 19.27-7.973 28.733-9.417 7.587-1.159 15.054-1.21 22.2-.165 11.597 1.695 18.45 5.69 19.357 6.244 1.115.406 9.964 3.874 18.606 14.406 5.288 6.451 9.393 14.217 12.193 23.106 3.483 11.052 4.952 23.876 4.355 38.092.216 12.469-2.203 24.68-2.583 26.521.276.917 1.486 4.713 3.931 8.449 3.664 5.595 8.236 8.422 13.585 8.422s9.791-2.749 13.222-8.171c2.298-3.632 3.353-7.325 3.586-8.215-.484-2.24-4.26-20.598-2.757-41.153.942-12.867 3.725-24.074 8.279-33.31C326 94.7 334.538 86.191 345.669 81.011l.086-.043.095-.026c16.384-3.978 29.822-2.638 39.941 3.986 11.857 7.757 15.14 20.114 15.737 22.847h.026l.086.536c2.67 16.585 2.869 30.603 2.869 31.061.035 1.15 2.083 70.113-1.426 95.009-.052.847-.821 13.031-5.556 26.634l-.026.077-.043.07c-4.045 7.212-8.184 12.556-13.015 16.801-5.271 4.627-11.7 8.19-19.651 10.879-15.563 5.266-38.074 7.843-77.722 8.907a435.36 435.36 0 0 1-11.9.164l.009.017ZM218.127 73.081c-3.819 0-7.691.303-11.605.9-9.247 1.418-18.701 4.522-28.103 9.226-9.333 4.67-17.058 12.53-22.961 23.374-4.752 8.725-8.339 19.379-10.663 31.667-3.967 20.996-2.852 39.709-2.835 39.899v.086c0 .147-.259 15.09 2.688 32.506 1.728 10.204 4.2 19.249 7.345 26.884 3.906 9.478 8.875 16.785 14.751 21.714l.631.528c13.032 10.921 24.274 20.355 41.609 26.884 18.986 7.152 43.779 10.057 78.034 9.14 39.44-1.055 61.796-3.605 77.161-8.811 14.708-4.972 23.574-12.478 31.585-26.738 4.77-13.741 5.427-25.942 5.435-26.063v-.087c3.509-24.774 1.444-94.031 1.426-94.732v-.017c0-.138-.164-14.112-2.834-30.715v-.061c-.035-.138-2.636-14.017-15.045-22.128-9.644-6.296-22.546-7.558-38.343-3.736-10.672 4.99-18.882 13.187-24.395 24.368-4.451 9.011-7.173 19.976-8.097 32.584-1.582 21.557 2.713 40.668 2.756 40.858l.052.217-.052.216c-.043.181-1.071 4.54-3.854 8.95-3.75 5.958-8.883 9.105-14.846 9.105-5.963 0-11.217-3.225-15.192-9.33-2.955-4.523-4.165-8.985-4.208-9.175l-.061-.225.052-.225c.026-.129 2.817-13.1 2.584-26.348v-.052c.587-13.974-.838-26.547-4.235-37.383-2.713-8.638-6.68-16.196-11.795-22.457-8.702-10.653-17.854-13.913-17.94-13.948l-.104-.035-.095-.06c-.069-.043-6.974-4.333-18.821-6.045a69.56 69.56 0 0 0-10.007-.709l-.018-.026Z"/><path fill="#D3D3D3" d="M222.724 134.279s12.384-2.422 12.92 13.464c.535 15.894 1.33 33.63-2.964 37.556-4.304 3.926-9.956 3.303-9.956 3.303s-11.838 1.159-12.919-5.301c0 0-1.616-12.66-1.348-24.507.268-11.847-2.152-25.588 14.267-24.507v-.008ZM367.514 140.972s10.629-1.306 11.52 7.566c.89 8.873 1.183 32.636 1.183 32.636s.588 11.32-6.351 11.008c-6.939-.302-14.613.217-15.503-3.701-.89-3.917-3.249-8.872-2.662-23.754.588-14.883.89-21.931 2.662-22.977 1.771-1.046 3.543-1.306 9.151-.787v.009Z"/><path fill="#232323" d="M221.022 137.989s10.906-2.136 11.381 11.864c.475 14.001 1.175 29.627-2.61 33.077-3.785 3.45-8.762 2.905-8.762 2.905s-10.431 1.021-11.381-4.669c0 0-1.426-11.147-1.184-21.584.233-10.438-1.893-22.536 12.565-21.585l-.009-.008Z"/><path fill="#781B1C" d="M219.19 186.856c-3.284 0-9.67-.64-10.482-5.543v-.035c-.017-.112-1.435-11.336-1.201-21.731.026-1.288.026-2.637.017-3.934-.035-6.097-.069-12.401 3.655-15.912 2.195-2.067 5.393-2.94 9.791-2.672.778-.121 4.744-.597 8.028 2.024 2.714 2.161 4.183 5.785 4.347 10.766l.061 1.695c.501 14.657.976 28.511-2.982 32.125-3.794 3.468-8.624 3.226-9.402 3.156-.251.018-.925.07-1.832.07v-.009Zm-8.607-5.828c.328 1.911 2.1 3.147 5.263 3.675 2.575.432 5.064.199 5.081.19h.19c.043 0 4.615.441 8.028-2.663 3.31-3.018 2.783-18.342 2.359-30.656l-.06-1.695c-.147-4.384-1.366-7.523-3.621-9.33-2.886-2.309-6.602-1.643-6.637-1.635l-.121.026h-.121c-3.897-.259-6.671.441-8.477 2.145-3.128 2.94-3.094 8.569-3.059 14.519 0 1.314.017 2.672-.017 3.995-.225 10.048 1.114 20.91 1.175 21.429h.017Z"/><path fill="#fff" d="M219.959 164.908a6.164 6.164 0 0 0 6.162-6.165 6.164 6.164 0 0 0-6.162-6.166 6.164 6.164 0 0 0-6.161 6.166 6.163 6.163 0 0 0 6.161 6.165Z"/><path fill="#781B1C" d="M219.959 165.86c-3.923 0-7.112-3.191-7.112-7.117s3.189-7.117 7.112-7.117 7.112 3.191 7.112 7.117-3.189 7.117-7.112 7.117Zm0-12.332a5.228 5.228 0 0 0-5.219 5.224 5.228 5.228 0 0 0 5.219 5.223 5.228 5.228 0 0 0 5.22-5.223 5.228 5.228 0 0 0-5.22-5.224Z"/><path fill="#232323" d="M365.164 143.679s8.538-1.185 9.247 6.883c.708 8.068.95 29.652.95 29.652s.475 10.282-5.098 10.005c-5.574-.276-11.736.199-12.444-3.363-.709-3.563-2.61-8.069-2.135-21.585.476-13.516.709-19.924 2.135-20.875 1.426-.951 2.843-1.184 7.345-.709v-.008Z"/><path fill="#781B1C" d="M370.487 191.17h-.268c-.855-.043-1.737-.069-2.592-.095-4.909-.138-9.981-.285-10.733-4.03a54.68 54.68 0 0 0-.441-1.919c-.838-3.407-2.1-8.561-1.711-19.89.553-15.842.795-20.46 2.558-21.636 1.72-1.15 3.422-1.34 7.873-.873.743-.078 4.519-.363 7.302 1.851 1.694 1.349 2.67 3.337 2.895 5.897.7 7.921.942 29.021.95 29.713.018.467.234 6.84-2.575 9.642-.899.891-1.987 1.34-3.249 1.34h-.009Zm-8.909-46.774c-1.694 0-2.472.277-3.241.787-.181.147-.657.951-1.02 5.171-.293 3.442-.466 8.518-.691 14.952-.389 11.068.838 16.058 1.651 19.37.172.7.337 1.366.466 1.998.45 2.265 4.572 2.386 8.927 2.507.864.026 1.763.052 2.636.095.829.044 1.512-.216 2.082-.786 1.876-1.868 2.092-6.573 2.014-8.233v-.034c0-.217-.242-21.645-.942-29.584-.182-2.023-.916-3.562-2.186-4.583-2.403-1.911-5.946-1.453-5.98-1.444l-.113.017h-.112c-1.486-.173-2.61-.242-3.491-.242v.009Z"/><path fill="#fff" d="M365.518 168.825a5.575 5.575 0 0 0 5.574-5.577 5.575 5.575 0 0 0-5.574-5.578 5.576 5.576 0 0 0-5.574 5.578 5.576 5.576 0 0 0 5.574 5.577Z"/><path fill="#781B1C" d="M365.518 169.777a6.523 6.523 0 0 1-6.516-6.52 6.523 6.523 0 0 1 6.516-6.521 6.523 6.523 0 0 1 6.516 6.521 6.523 6.523 0 0 1-6.516 6.52Zm0-11.147a4.63 4.63 0 0 0-4.623 4.627 4.63 4.63 0 0 0 4.623 4.626 4.63 4.63 0 0 0 4.623-4.626 4.63 4.63 0 0 0-4.623-4.627Z"/><path fill="#F97575" d="M202.175 226.114c8.247 0 14.933-6.69 14.933-14.943 0-8.252-6.686-14.942-14.933-14.942s-14.933 6.69-14.933 14.942c0 8.253 6.686 14.943 14.933 14.943Z"/><path fill="#781B1C" d="M202.175 227.066c-8.763 0-15.883-7.135-15.883-15.895 0-8.759 7.129-15.894 15.883-15.894s15.883 7.135 15.883 15.894c0 8.76-7.129 15.895-15.883 15.895Zm0-29.886c-7.717 0-13.991 6.278-13.991 14s6.274 14 13.991 14 13.99-6.278 13.99-14-6.273-14-13.99-14Z"/><path fill="#F97575" d="M383.536 229.322c6.481 0 11.735-6.69 11.735-14.943 0-8.252-5.254-14.942-11.735-14.942s-11.735 6.69-11.735 14.942c0 8.253 5.254 14.943 11.735 14.943Z"/><path fill="#781B1C" d="M383.536 230.274c-6.991 0-12.686-7.135-12.686-15.895 0-8.759 5.686-15.894 12.686-15.894s12.686 7.135 12.686 15.894c0 8.76-5.686 15.895-12.686 15.895Zm0-29.895c-5.945 0-10.785 6.278-10.785 14 0 7.723 4.84 14.001 10.785 14.001s10.785-6.278 10.785-14.001c0-7.722-4.84-14-10.785-14ZM103.151 294.515a9.52 9.52 0 0 1-1.633-.139c-8.27-1.4-14.501-7.921-18.52-19.361-4.597-13.118-6.256-32.817-4.925-58.551v-.035c.086-.968 2.238-23.849 9.402-34.832 6.49-9.961 11.882-12.054 15.252-12.054 4.373 0 18.865 2.456 21.57 34.079 2.826 32.955-1.391 58.111-1.435 58.361-.242 1.375-5.798 32.532-19.711 32.532Zm-23.185-77.939c-3.051 59.165 10.205 73.944 21.871 75.924.432.069.856.104 1.262.104 6.127 0 10.526-7.696 13.196-14.398 3.197-8.025 4.683-16.473 4.701-16.56.043-.242 4.208-25.181 1.408-57.877-2.566-30.015-15.71-32.341-19.677-32.341-2.376 0-7.319 1.453-13.67 11.19-2.844 4.358-5.315 11.596-7.147 20.935-1.357 6.909-1.91 12.651-1.944 13.014v.009Z"/><path fill="#fff" d="M79.076 216.507s2.428-23.487 10.508-34.4c8.08-10.913 14.284-11.622 16.436-11.622 2.152 0 20.213 0 23.445 33.215 3.232 33.214-1.616 58.119-1.616 58.119s-6.706 34.053-23.022 31.615c-16.323-2.439-28.983-21.887-25.751-76.927Z"/><path fill="#781B1C" d="M106.461 294.515c-.588 0-1.176-.043-1.772-.13-9.341-1.392-16.393-7.895-20.947-19.327-5.237-13.135-7.12-32.851-5.609-58.594v-.044c.104-.968 2.55-23.866 10.699-34.866 7.743-10.446 14.094-12.011 17.197-12.011 4.943 0 21.31 2.456 24.386 34.071 3.206 32.972-1.581 58.145-1.633 58.395-.069.355-1.737 8.717-5.462 16.932-4.632 10.238-10.43 15.574-16.859 15.574Zm-26.435-77.93c-2.748 46.808 5.876 73.061 24.948 75.915.51.078 1.011.112 1.504.112 14.181 0 20.385-30.655 20.446-30.975.052-.242 4.787-25.172 1.607-57.842-2.921-30.023-17.957-32.358-22.502-32.358-2.749 0-8.435 1.461-15.676 11.241-7.735 10.446-10.24 33.12-10.327 33.915v-.008Z"/><path fill="#232323" d="M79.015 216.507s2.135-23.487 9.246-34.4c7.113-10.913 12.565-11.622 14.458-11.622 1.892 0 17.784 0 20.627 33.215 2.843 33.214-1.425 58.119-1.425 58.119s-5.894 34.053-20.256 31.615c-14.354-2.439-25.502-21.887-22.659-76.927h.009Z"/><path fill="#781B1C" d="M103.151 294.515a9.52 9.52 0 0 1-1.633-.139c-8.27-1.4-14.501-7.921-18.52-19.361-4.597-13.118-6.256-32.817-4.925-58.551v-.035c.086-.968 2.238-23.849 9.402-34.832 6.49-9.961 11.882-12.054 15.252-12.054 4.373 0 18.865 2.456 21.57 34.079 2.826 32.955-1.391 58.111-1.435 58.361-.242 1.375-5.798 32.532-19.711 32.532Zm-23.185-77.939c-3.051 59.165 10.205 73.944 21.871 75.924.432.069.856.104 1.262.104 6.127 0 10.526-7.696 13.196-14.398 3.197-8.025 4.683-16.473 4.701-16.56.043-.242 4.208-25.181 1.408-57.877-2.566-30.015-15.71-32.341-19.677-32.341-2.376 0-7.319 1.453-13.67 11.19-2.844 4.358-5.315 11.596-7.147 20.935-1.357 6.909-1.91 12.651-1.944 13.014v.009Z"/><path fill="#232323" d="M404.207 200.777s-.052.173-.156.484c-.242 13.041-.795 25.208-1.901 33.042 0 0-1.659 33.448-21.336 52.905a54.79 54.79 0 0 1-5.436 4.704s5.324 5.845 13.386.865c8.063-4.981 30.903-35.273 15.451-92.008l-.008.008Z"/><path fill="#781B1C" d="M382.326 295.734c-1.417 0-2.627-.277-3.603-.623-2.532-.908-3.993-2.49-4.053-2.551l-.441-.484.277-.554.095-.216.198-.147a53.93 53.93 0 0 0 5.349-4.626c10.016-9.901 15.21-23.581 17.802-33.318 2.817-10.576 3.258-18.878 3.258-18.955v-.087c.994-6.952 1.625-18.03 1.901-32.929v-.138l1.167-3.693.847 3.113c3.603 13.222 5.375 25.968 5.271 37.867-.086 10.031-1.495 19.474-4.191 28.078-4.442 14.182-11.9 23.996-16.946 27.118-2.61 1.609-4.961 2.145-6.931 2.145Zm-5.479-3.771c1.642 1.263 5.756 3.503 11.407 0 3.422-2.109 11.191-10.281 16.134-26.071 2.636-8.423 4.018-17.684 4.105-27.525.086-9.849-1.132-20.278-3.63-31.105-.328 11.96-.916 21.065-1.771 27.119-.043.683-.562 8.95-3.318 19.309-2.653 9.962-7.985 23.979-18.295 34.175a56.237 56.237 0 0 1-4.632 4.081v.017Z"/><path fill="#FFA300" d="M175.386 329.312s-.709-13.758 3.793-14.943c4.503-1.184 10.69-2.257 23.601-1.841 12.91.415 25.449 3.943 27.471 8.344 1.115 2.422 1.184 8.103 1.029 12.721a7.11 7.11 0 0 1-7.112 6.866h-41.333a7.113 7.113 0 0 1-7.086-6.555l-.363-4.6v.008Z"/><path fill="#781B1C" d="M224.176 341.41h-41.332c-4.174 0-7.7-3.26-8.037-7.428l-.372-4.626c0-.147-.181-3.554.208-7.178.561-5.197 1.996-8.128 4.286-8.734 4.416-1.167 10.716-2.3 23.877-1.867 11.916.38 25.881 3.631 28.31 8.898.967 2.101 1.339 6.529 1.114 13.153a8.03 8.03 0 0 1-8.054 7.782Zm-47.839-12.158.362 4.583c.251 3.182 2.956 5.682 6.145 5.682h41.332a6.146 6.146 0 0 0 6.162-5.95c.216-6.148-.121-10.515-.942-12.297-.838-1.816-4.139-3.692-9.065-5.154-5.055-1.496-11.295-2.438-17.577-2.637-12.919-.415-19.038.683-23.332 1.807-2.584.683-3.362 8.57-3.085 13.966Z"/><path fill="#781B1C" d="M208.31 326.25c-3.137 0-6.896-.596-11.441-1.772-3.932 1.106-11.77.129-16.393-2.076l.812-1.712c4.589 2.188 12.228 2.871 15.27 1.894l.259-.087.268.069c9.869 2.586 15.676 2.37 19.418-.726l.345-.285.441.086c8.771 1.695 11.156.536 11.779-.043.285-.268.276-.493.267-.536a.1.1 0 0 0 .009.043l1.841-.441c.026.121.25 1.193-.7 2.188-1.711 1.79-6.127 2.041-13.127.726-2.316 1.782-5.228 2.664-9.056 2.664l.008.008Z"/><path fill="#FFA300" d="M269.502 316.263s1.745-3.209 5.617-3.148c3.871.061 21.18-.951 28.292.268 7.104 1.219 17.776 3.355 18.727 8.57.509 2.802.95 7.376.993 11.311.044 3.934-3.154 7.194-7.112 7.194H275.81c-3.673 0-6.758-2.801-7.086-6.459-.475-5.31-.735-12.738.786-17.736h-.008Z"/><path fill="#781B1C" d="M275.801 341.41a8.016 8.016 0 0 1-8.028-7.325c-.492-5.422-.743-12.962.83-18.099l.026-.095.043-.086c.086-.156 2.074-3.719 6.464-3.641.985.017 2.878-.043 5.28-.112 7.086-.208 17.802-.528 23.159.389 3.803.648 8.184 1.496 11.839 2.827 4.667 1.704 7.173 3.831 7.665 6.512.553 3.035.968 7.757 1.011 11.467a8.023 8.023 0 0 1-2.324 5.759 7.989 7.989 0 0 1-5.729 2.395h-40.21l-.026.009Zm-5.418-24.758c-1.443 4.843-1.193 12.055-.717 17.269a6.123 6.123 0 0 0 6.135 5.595h40.21a6.1 6.1 0 0 0 4.381-1.833 6.114 6.114 0 0 0 1.78-4.402c-.043-3.614-.441-8.198-.976-11.146-.891-4.878-12.842-6.936-17.949-7.809-5.168-.891-16.194-.562-22.779-.363-2.429.069-4.338.129-5.367.112-2.955-.043-4.45 2.136-4.727 2.577h.009Z"/><path fill="#781B1C" d="M300.265 326.432c-3.931 0-7.907-1.358-11.769-2.897-7.467 1.358-13.11.969-16.765-1.167l.959-1.643c2.264 1.323 6.836 2.559 15.736.89l.268-.052.26.104c6.636 2.655 13.083 4.678 19.002.355l.329-.234.397.069c3.025.519 6.464 1.047 9.005 1.038 1.227 0 3.327-.164 3.543-1.133l1.849.407c-.777 3.588-7.181 2.853-14.327 1.634-2.757 1.911-5.6 2.638-8.469 2.638l-.018-.009Z"/><path fill="#FFA300" d="M294.605 177.17c2.282-.709 4.753-.579 6.974.294s5.237 2.542 6.983 5.465c3.128 5.232 2.186 7.134 2.186 7.134l-.951 1.185s-4.269-1.427-6.403-1.185c-2.135.242-11.614 1.185-13.749.476-2.134-.709-6.144-.951-4.614-4.626 1.244-2.992 4.459-7.152 9.566-8.734l.008-.009Z"/><path fill="#781B1C" d="m310.134 192.355-.631-.207c-1.132-.381-4.415-1.323-5.997-1.142-1.184.13-11.657 1.263-14.155.433a18.962 18.962 0 0 0-1.114-.312c-1.53-.397-3.44-.89-4.192-2.404-.44-.882-.397-1.945.113-3.173 1.356-3.252 4.83-7.627 10.162-9.279 2.446-.761 5.151-.649 7.605.311 2.35.917 5.548 2.681 7.457 5.863 3.232 5.405 2.42 7.653 2.221 8.042l-.043.087-1.426 1.781Zm-6.204-3.268c1.832 0 4.355.7 5.548 1.063l.432-.536c.077-.389.242-2.205-2.143-6.192-1.625-2.724-4.442-4.254-6.516-5.067-2.057-.804-4.312-.899-6.352-.268-4.709 1.453-7.777 5.327-8.97 8.198-.285.692-.345 1.228-.164 1.6.372.743 1.806 1.115 2.964 1.418.441.112.856.225 1.236.346 1.581.527 9.022-.035 13.342-.519a4.87 4.87 0 0 1 .631-.035l-.008-.008Z"/><path fill="#FFA300" d="M303.411 190.063c-2.134.233-11.614 1.185-13.749.476-1.14-.381-2.826-.632-3.906-1.341-.069.502-.121.865-.121.865s2.368 12.098 12.565 10.913c10.197-1.185 11.614-9.728 11.614-9.728s-4.269-1.427-6.403-1.185Z"/><path fill="#781B1C" d="M296.826 202.005c-3.897 0-7.172-1.885-9.531-5.526-1.945-2.992-2.567-6.105-2.593-6.235l-.035-.155.026-.156s.052-.363.121-.865l.208-1.487 1.253.83c.613.407 1.59.657 2.454.882.441.113.856.225 1.236.346 1.581.528 9.022-.034 13.342-.519 2.273-.25 6.352 1.073 6.81 1.228l.769.26-.13.795c-.017.095-.414 2.378-2.151 4.817-1.599 2.24-4.684 5.05-10.292 5.699-.502.06-.994.086-1.478.086h-.009Zm-10.059-11.302c.303 1.055.951 2.966 2.143 4.791 2.265 3.459 5.35 4.989 9.169 4.539 7.579-.882 9.947-6.122 10.586-8.145-1.469-.433-3.871-1.03-5.15-.883-1.184.13-11.658 1.263-14.155.433-.32-.104-.7-.208-1.106-.311-.476-.122-.985-.26-1.478-.424h-.009ZM197.906 323.492h-1.893v9.858h1.893v-9.858ZM218.058 323.492h-1.892v9.858h1.892v-9.858ZM289.654 323.492h-1.893v9.858h1.893v-9.858ZM309.089 323.492h-1.893v9.858h1.893v-9.858Z"/><path fill="#fff" d="M333.916 341.003H166.087l-14.215 10.766a13.824 13.824 0 0 0-5.479 11.034v56.891h187.523v-78.691Z"/><path fill="#781B1C" d="M335.212 420.991H145.097v-58.188c0-4.713 2.238-9.226 5.997-12.063l14.562-11.025h169.556V421v-.009Zm-187.522-2.594h184.93V342.3h-166.1l-13.861 10.507a12.605 12.605 0 0 0-4.969 9.996v55.594Z"/><path fill="#fff" d="M166.269 363.054H54.109l-11.44 5.387a19.826 19.826 0 0 0-11.373 17.935v33.328h134.973V363.054Z"/><path fill="#781B1C" d="M167.565 420.992H30v-34.624c0-8.146 4.761-15.644 12.124-19.103l11.7-5.508h113.741v59.235Zm-134.973-2.594h132.381v-54.047H54.403l-11.182 5.258c-6.455 3.035-10.629 9.616-10.629 16.759v32.03Z"/><path fill="#781B1C" d="M167.566 341.003h-2.593v64.856h2.593v-64.856ZM55.225 363.919h-2.593v47.129h2.593v-47.129Z"/><path fill="#FFA300" d="M241.831 370.137v18.947c0 7.298-5.911 13.213-13.204 13.213-7.294 0-13.205-5.915-13.205-13.213v-18.947c0-7.29 5.911-13.205 13.205-13.213 7.285 0 13.195 5.915 13.204 13.213Zm-7.838 0a5.366 5.366 0 1 0-10.733 0v18.947a5.363 5.363 0 0 0 5.367 5.318 5.362 5.362 0 0 0 5.366-5.318v-18.947ZM246.99 367.231c0-5.681 4.623-10.307 10.301-10.307 5.677 0 10.301 4.626 10.301 10.307 0 5.682-4.624 10.308-10.301 10.308-5.678 0-10.301-4.618-10.301-10.308Zm7.501 36.389-5.488-4.497 35.69-43.592 5.488 4.497-35.69 43.592Zm-.519-36.389a3.32 3.32 0 0 0 3.319 3.321 3.32 3.32 0 0 0 0-6.641 3.32 3.32 0 0 0-3.319 3.32Zm38.214 24.758c0 5.682-4.624 10.308-10.301 10.308-5.678 0-10.301-4.626-10.301-10.308 0-5.681 4.615-10.308 10.301-10.308s10.301 4.627 10.301 10.308Zm-6.983 0a3.32 3.32 0 0 0-3.318-3.321 3.321 3.321 0 0 0 0 6.642 3.32 3.32 0 0 0 3.318-3.321Z"/><path fill="#232323" d="M90.016 383.237v21.212h-4.408v-21.117H83.5v-4.41h2.203c2.385 0 4.313 1.937 4.321 4.324l-.008-.009ZM107.8 386.35v10.662a7.434 7.434 0 0 1-7.432 7.437 7.434 7.434 0 0 1-7.432-7.437V386.35c0-4.108 3.327-7.428 7.432-7.437 4.105 0 7.423 3.329 7.432 7.437Zm-4.416.009a3.01 3.01 0 0 0-1.504-2.638 3.017 3.017 0 0 0-3.033 0 3.028 3.028 0 0 0-1.503 2.638v10.662a3.02 3.02 0 0 0 3.015 2.992 3.014 3.014 0 0 0 3.016-2.992v-10.662h.009ZM110.695 384.716c0-3.2 2.601-5.803 5.798-5.803a5.807 5.807 0 0 1 5.799 5.803 5.807 5.807 0 0 1-5.799 5.802 5.807 5.807 0 0 1-5.798-5.802Zm4.226 20.485-3.085-2.533 20.083-24.533 3.085 2.533-20.083 24.533Zm-.294-20.485a1.87 1.87 0 0 0 1.866 1.867 1.87 1.87 0 0 0 1.867-1.867 1.87 1.87 0 0 0-1.867-1.868 1.87 1.87 0 0 0-1.866 1.868Zm21.5 13.931a5.807 5.807 0 0 1-5.798 5.802 5.807 5.807 0 0 1-5.799-5.802c0-3.2 2.601-5.803 5.799-5.803a5.807 5.807 0 0 1 5.798 5.803Zm-3.923 0a1.87 1.87 0 0 0-1.867-1.868 1.87 1.87 0 0 0-1.866 1.868 1.87 1.87 0 0 0 1.866 1.868 1.87 1.87 0 0 0 1.867-1.868ZM364.213 402.858h7.346v3.399h-11.001v-1.695c0-.571.043-1.142.147-1.695.441-2.344 1.901-3.866 4.563-5.958 2.92-2.292 3.413-3.139 3.413-4.532a2.36 2.36 0 0 0-4.718 0h-3.396a5.755 5.755 0 1 1 11.51 0c0 3.183-1.953 5.033-4.71 7.204-1.944 1.522-2.791 2.421-3.145 3.286l-.009-.009ZM385.748 392.325v8.207a5.724 5.724 0 0 1-5.721 5.724 5.718 5.718 0 0 1-5.72-5.724v-8.207a5.729 5.729 0 0 1 5.72-5.724c3.155 0 5.712 2.559 5.721 5.724Zm-3.396 0c0-.839-.432-1.608-1.158-2.032a2.298 2.298 0 0 0-2.333 0 2.337 2.337 0 0 0-1.158 2.032v8.207a2.314 2.314 0 0 0 2.324 2.3 2.326 2.326 0 0 0 2.325-2.3v-8.207ZM387.978 391.071a4.466 4.466 0 0 1 4.459-4.462 4.471 4.471 0 0 1 4.459 4.462 4.471 4.471 0 0 1-4.459 4.462 4.47 4.47 0 0 1-4.459-4.462Zm3.249 15.765-2.377-1.946 15.46-18.886 2.377 1.946-15.46 18.886Zm-.225-15.765c0 .796.648 1.436 1.435 1.436.786 0 1.434-.649 1.434-1.436 0-.787-.648-1.435-1.434-1.435-.787 0-1.435.648-1.435 1.435Zm16.549 10.723a4.466 4.466 0 0 1-4.459 4.462 4.47 4.47 0 0 1-4.459-4.462 4.47 4.47 0 0 1 4.459-4.462 4.471 4.471 0 0 1 4.459 4.462Zm-3.025 0c0-.795-.648-1.435-1.434-1.435-.787 0-1.435.648-1.435 1.435s.648 1.436 1.435 1.436c.786 0 1.434-.649 1.434-1.436Z"/><path fill="#fff" d="M461.437 306.054a15.596 15.596 0 0 0-.006 18.166c.788 1.106-.569 2.464-1.675 1.676a15.596 15.596 0 0 0-18.167.006c-1.107.789-2.463-.568-1.675-1.675a15.596 15.596 0 0 0 .007-18.166c-.789-1.106.569-2.464 1.675-1.675a15.598 15.598 0 0 0 18.167-.007c1.107-.789 2.463.568 1.674 1.675ZM17.21 93.13a8.096 8.096 0 0 0-.004 9.438c.415.574-.294 1.284-.869.868a8.098 8.098 0 0 0-9.438.003c-.575.416-1.283-.293-.868-.867a8.097 8.097 0 0 0 .004-9.439c-.416-.574.294-1.283.868-.868a8.097 8.097 0 0 0 9.438-.003c.575-.416 1.284.293.868.868ZM439.416 28.386a8.096 8.096 0 0 0-.003 9.438c.415.574-.294 1.284-.868.868a8.098 8.098 0 0 0-9.439.003c-.575.416-1.283-.293-.868-.867a8.096 8.096 0 0 0 .004-9.439c-.416-.574.294-1.283.868-.868a8.096 8.096 0 0 0 9.438-.003c.575-.416 1.284.293.868.867ZM87.926 330.27l-1.987-1.425a8.095 8.095 0 0 0-9.438-.003l-1.986 1.423c-.575.416-1.284-.294-.869-.868l1.424-1.986a8.096 8.096 0 0 0-.003-9.438l-1.425-1.987c-.416-.575.293-1.284.868-.868l1.986 1.425a8.096 8.096 0 0 0 9.439.003l1.986-1.423c.574-.416 1.283.294.868.868l-1.424 1.986a8.096 8.096 0 0 0 .004 9.438l1.424 1.987c.416.575-.293 1.284-.867.868Z"/><path fill="#FFA300" d="M293.242 37.079a82.754 82.754 0 0 1-28.232 0c-5.971-1.038-10.344-6.226-10.344-12.288V14.604c0-3.234 3.768-4.998 6.248-2.931l8.616 7.177 6.204-14.977c1.297-3.122 5.713-3.14 7.035-.026l6.23 14.744 8.339-6.927c2.481-2.067 6.248-.294 6.248 2.931v10.196c0 6.07-4.364 11.259-10.344 12.288Z"/><path fill="#781B1C" d="M279.122 39.596c-4.787 0-9.583-.415-14.336-1.237a13.745 13.745 0 0 1-11.416-13.568V14.604a5.055 5.055 0 0 1 2.938-4.626 5.07 5.07 0 0 1 5.436.7l7.267 6.054 5.531-13.352c.804-1.937 2.601-3.148 4.701-3.156 2.074 0 3.906 1.193 4.718 3.121l5.548 13.136 6.991-5.811a5.051 5.051 0 0 1 5.436-.692 5.053 5.053 0 0 1 2.938 4.626V24.8c0 6.719-4.805 12.426-11.416 13.568a84.17 84.17 0 0 1-14.336 1.236v-.008Zm-20.627-27.517c-.363 0-.726.078-1.081.251a2.458 2.458 0 0 0-1.443 2.274v10.187a11.164 11.164 0 0 0 9.264 11.017 81.062 81.062 0 0 0 27.791 0 11.156 11.156 0 0 0 9.264-11.017V14.596c0-1.003-.544-1.85-1.443-2.274a2.469 2.469 0 0 0-2.679.345l-9.678 8.043-6.905-16.353c-.406-.96-1.27-1.54-2.316-1.54h-.009c-1.045 0-1.909.58-2.316 1.549l-6.878 16.603-9.973-8.302a2.48 2.48 0 0 0-1.59-.588h-.008Z"/></svg>