<svg width="52" height="52" fill="none" xmlns="http://www.w3.org/2000/svg"><mask id="a" style="mask-type:luminance" maskUnits="userSpaceOnUse" x="6" y="4" width="40" height="44"><path d="M45.091 4.566H6.909v42.856h38.182V4.566Z" fill="#fff"/></mask><g mask="url(#a)"><path d="M22.578 26.368H18.7c-.04 0-.06.02-.08.061-.098 1.798-.434 3.718-.91 5.294 0 .02 0 .04.02.06.02.02.04.02.06.02h1.326c.039 0 .059-.02.059-.04.376-1.212.672-2.788.791-4.122h1.266v4.102c0 .04.04.08.08.08h1.265c.04 0 .08-.04.08-.08v-5.314c0-.04-.04-.06-.08-.06Zm16.4 0h-1.266c-.04 0-.08.04-.08.081v4.102c-.276.08-.553.121-.87.121-.83 0-1.029-.263-1.029-1.394v-2.829c0-.04-.04-.08-.079-.08h-1.246c-.04 0-.08.04-.08.08v2.97c0 1.86.614 2.566 2.177 2.566.89 0 1.9-.242 2.493-.464.02-.02.04-.04.04-.06v-5.012c.019-.06-.02-.08-.06-.08Zm-26.826 0h-1.286c-.04 0-.06.02-.06.061-.197.808-.613 2.182-1.167 3.617l-1.286-3.617c-.02-.02-.04-.04-.059-.04H6.988c-.02 0-.04.02-.06.04-.019.02-.019.04.001.06l1.939 5.416c-.198.424-.376.767-.554 1.09-.139.243-.257.486-.376.728-.02.02-.02.04 0 .06.02.02.04.041.06.041h1.404c.02 0 .06-.02.06-.04a26.44 26.44 0 0 0 .81-1.778 51.878 51.878 0 0 0 1.979-5.537c0-.02 0-.04-.02-.06-.04-.04-.06-.04-.08-.04Zm4.61 4.183c0-.02-.02-.04-.04-.04h-.06c-.316.12-.89.201-1.286.201-.89 0-1.305-.242-1.305-1.616 0-1.111.138-1.616 1.305-1.616.337 0 .633.04 1.029.161.04 0 .06 0 .08-.04.138-.283.316-.627.514-1.05v-.061c0-.02-.02-.04-.04-.04a5.855 5.855 0 0 0-1.682-.264c-1.84 0-2.67.89-2.67 2.89 0 2.02.83 2.93 2.67 2.93.455 0 1.385-.101 1.82-.283.04-.02.06-.06.04-.101l-.376-1.071Zm12.047-4.183h-1.286c-.04 0-.06.02-.06.061-.197.828-.612 2.182-1.166 3.617l-1.286-3.617c-.02-.02-.04-.04-.06-.04h-1.305c-.02 0-.04.02-.06.04-.02.02-.02.04 0 .06l1.94 5.416c-.199.424-.377.767-.555 1.09a8.682 8.682 0 0 0-.376.748c-.02.02-.02.04 0 .06.02.021.04.041.06.041h1.404c.02 0 .06-.02.06-.04.237-.465.534-1.111.81-1.778.812-1.98 1.485-3.84 1.98-5.536 0-.02 0-.04-.02-.061-.04-.06-.06-.06-.08-.06Zm4.748 0h-3.739c-.04 0-.079.04-.079.081v5.314c0 .04.04.08.08.08h1.265c.04 0 .08-.04.08-.08v-4.102h1.958c.02 0 .06-.02.06-.04.158-.364.296-.747.454-1.131v-.061c-.04-.06-.059-.06-.079-.06Z" fill="#EF4058"/><path d="M13.655 18.204c-1.82 0-2.532.809-2.532 2.85 0 2.08.712 2.889 2.532 2.889 1.84 0 2.552-.808 2.552-2.89 0-2.06-.712-2.849-2.552-2.849Zm0 4.547c-.83 0-1.088-.223-1.088-1.677 0-1.536.277-1.677 1.088-1.677.831 0 1.108.141 1.108 1.677 0 1.454-.257 1.677-1.108 1.677Zm7.617-.223c0-.02-.02-.04-.04-.04h-.059c-.317.121-.89.202-1.286.202-.89 0-1.306-.242-1.306-1.616 0-1.112.139-1.617 1.306-1.617.336 0 .633.04 1.029.162.04 0 .059 0 .079-.04.138-.284.316-.627.514-1.051v-.06c0-.021-.02-.041-.04-.041a5.853 5.853 0 0 0-1.68-.263c-1.84 0-2.672.89-2.672 2.89 0 2.02.831 2.93 2.671 2.93.455 0 1.385-.102 1.82-.284.04-.02.06-.06.04-.1l-.376-1.072Zm-10.545-4.182H6.988c-.04 0-.079.04-.079.08v5.315c0 .04.04.08.08.08h1.265c.04 0 .08-.04.08-.08v-4.122h1.938c.02 0 .06-.02.06-.04.158-.364.296-.748.455-1.132v-.06c-.02-.02-.04-.041-.06-.041Z" fill="#1466AC"/><path d="M44.893 31.258v-.081c0-.04 0-.101.02-.142.06-.747.099-1.656.139-2.707v-.08c.02-.708.04-1.476.04-2.264 0-.788-.02-1.556-.04-2.263v-.08c-.04-1.031-.08-1.96-.14-2.708 0-.04 0-.101-.019-.142v-.08c0-.081-.02-.142-.02-.223v-.08c-.059-.789-.098-1.274-.118-1.314 0-.08-.02-.162-.02-.222v-.06a2.924 2.924 0 0 0-.08-.405c0-.02 0-.04-.02-.06-.335-1.637-1.225-3.436-2.333-4.79-.436-.524-.89-.99-1.365-1.353-.04-.04-.594-.445-1.465-1.07a62.864 62.864 0 0 0-4.095-2.668c-2.928-1.758-5.52-2.99-5.875-3.132-.02 0-.02-.02-.02-.02-.772-.343-1.701-.586-2.71-.687a5.854 5.854 0 0 0-.594-.04c-.198-.02-.376-.02-.554-.02h-.277c-1.345.04-2.591.282-3.58.747-.139.06-2.77 1.293-5.757 3.091l-.12.061c-3.066 1.839-5.46 3.657-5.558 3.738-.752.566-1.425 1.293-2.038 2.223-.138.202-.138.727.455.727h1.523c.653 0 .812-.404 1.543-.95.812-.606 2.414-1.818 5.342-3.596A65.667 65.667 0 0 1 22.22 7.86c.02 0 .04-.02.06-.02 0 0 .02 0 .02-.02 0 0 .02 0 .02-.02.02 0 .039-.02.039-.02.02 0 .04-.021.06-.021.237-.121.395-.182.395-.182.673-.303 1.622-.505 2.631-.525h.396c.297 0 .593.02.87.06.614.081 1.168.202 1.622.404.04.02.1.04.14.061 0 0 .019.02.078.04.455.202 2.908 1.395 5.579 2.99a63.655 63.655 0 0 1 5.341 3.597c.376.283.752.687 1.108 1.132.89 1.172 1.623 2.768 1.741 4 0 .02.06.506.119 1.334 0 .06 0 .101.02.162v.121c0 .08.02.141.02.222v.081c0 .04 0 .101.02.142 0 .1.02.202.02.303 0 .06 0 .12.019.181v.04c0 .082 0 .142.02.223v.162a65.48 65.48 0 0 1 0 7.233v.162c0 .08 0 .141-.02.222v.04c0 .061 0 .122-.02.182 0 .101-.02.202-.02.303 0 .061 0 .102-.02.142v.08c0 .082-.02.142-.02.223v.121c0 .06 0 .121-.019.162-.06.828-.119 1.334-.119 1.334-.118 1.232-.85 2.828-1.74 4a5.914 5.914 0 0 1-1.109 1.131c-.02 0-.534.405-1.384 1.01a70.347 70.347 0 0 1-3.957 2.587 63.275 63.275 0 0 1-5.579 2.99l-.079.041c-.04.02-.099.04-.139.06a6.836 6.836 0 0 1-1.622.405c-.277.04-.573.06-.87.06h-.396c-1.009-.02-1.958-.202-2.631-.525 0 0-.139-.06-.396-.182-.02-.02-.059-.02-.079-.04-.02-.02-.04-.02-.06-.04-.019 0-.019-.02-.039-.02s-.04-.021-.059-.021c-.02-.02-.04-.02-.08-.04h-.019c-1.009-.405-2.908-1.374-4.926-2.587-2.948-1.758-4.53-2.99-5.341-3.597-.732-.545-.89-.95-1.544-.95H8.75c-.593 0-.593.526-.455.728.613.93 1.286 1.657 2.038 2.223.099.08 2.512 1.9 5.559 3.738.158.101.316.202.494.283 2.83 1.657 5.263 2.788 5.401 2.869.97.444 2.236.707 3.581.748h.277c.178 0 .356 0 .534-.02.198 0 .396-.02.594-.041 1.009-.101 1.958-.343 2.71-.687 0 0 .02 0 .02-.02.336-.162 2.947-1.394 5.856-3.132a72.643 72.643 0 0 0 4.095-2.667c.87-.627 1.424-1.03 1.464-1.071.475-.364.93-.828 1.365-1.354 1.108-1.354 1.998-3.152 2.334-4.788 0-.02 0-.04.02-.061.02-.141.06-.283.08-.404v-.06c.019-.082.019-.162.019-.223 0-.04.06-.525.118-1.313v-.081c.04-.06.04-.121.04-.202Z" fill="url(#b)"/></g><defs><linearGradient id="b" x1="26.654" y1="4.566" x2="26.654" y2="47.419" gradientUnits="userSpaceOnUse"><stop offset=".398" stop-color="#1466AC"/><stop offset=".659" stop-color="#EF4058"/></linearGradient></defs></svg>