<svg width="52" height="52" fill="none" xmlns="http://www.w3.org/2000/svg"><g clip-path="url(#a)"><path d="M48.403 24.683 49 22.79l-1.975.062a4.68 4.68 0 0 1-2.558-.88c.088.011.177.018.266.021 1.21 0 2.381-.723 2.853-1.755l.85-1.867a15.509 15.509 0 0 1-2.042-.12c-.008 0-.776-.098-1.664-.996a3.151 3.151 0 0 0-3.272-.829c.048-.152.086-.306.113-.463.272-1.748-.863-3.08-.863-3.078l-1.484-1.822-.92 2.14c0 .007-.237.508-.653.753a3.965 3.965 0 0 0-1.092-2.013 4.916 4.916 0 0 0-3.547-1.47 4.527 4.527 0 0 0-.693.05l-1.791.35c.152-.604.396-1.18.726-1.71l.988-1.528-2.494.282-.794-1.668-1.524.79-1.426-1.39-1.416 1.39-1.54-.785-.794 1.669-2.486-.282.991 1.528c.329.529.573 1.104.725 1.707l-1.712-.339-.054-.005a4.55 4.55 0 0 0-.718-.048 4.927 4.927 0 0 0-3.543 1.47 3.967 3.967 0 0 0-1.096 2.013c-.413-.242-.643-.736-.643-.736l-.923-2.148-1.508 1.834c-.188.221-1.095 1.473-.848 3.05.028.155.066.309.114.46a3.164 3.164 0 0 0-3.273.829c-.885.895-1.649.996-1.642.996-.68.1-1.369.14-2.056.12l.845 1.867c.47 1.034 1.643 1.755 2.853 1.755.09 0 .178-.012.268-.02-.74.533-1.62.84-2.533.882l-2.014-.066.61 1.892c.307.976 1.33 2.59 3.288 2.765-.213.886-.68 1.879-1.726 2.306l-1.498.611.817 1.41c.46.76 1.543 1.65 3.085 1.65.324 0 .648-.034.965-.1.081.352.18.7.296 1.04.454 1.357.065 2.299.06 2.309l-.74 1.536 1.65.43c.375.095.76.142 1.145.142a3.582 3.582 0 0 0 1.366-.265c.211.379.472.727.776 1.037 1.058 1.076 2.556 1.62 4.456 1.62h.012l1.361-.016-2.8 1.152 2.126 1.017c.85.428 1.722.813 2.612 1.153l-.265.719.734.326c.064.029 1.474.655 3.818.792 0 0 .567.026.877.026.31 0 .87-.026.87-.026 2.329-.137 3.728-.755 3.794-.786l.734-.332-.268-.721a28.656 28.656 0 0 0 2.65-1.165l2.087-1.003-2.793-1.155 1.36.016c1.901 0 3.403-.545 4.459-1.622.302-.31.563-.658.776-1.035a3.562 3.562 0 0 0 1.362.264 4.868 4.868 0 0 0 1.134-.137l1.658-.436-.722-1.506c-.017-.039-.413-.982.046-2.337.114-.346.216-.694.295-1.04.32.067.646.1.972.1a3.617 3.617 0 0 0 3.087-1.665l.809-1.395-1.498-.61c-1.043-.428-1.513-1.421-1.725-2.306 1.934-.164 2.973-1.78 3.288-2.76h.002ZM21.614 11.528h-.02l.017-.021.003.021Z" fill="#fff"/><path d="M26.005 11.445c-1.587 0-2.775.517-3.034 1.122l3.034 1.187 3.036-1.187c-.258-.605-1.447-1.12-3.036-1.122ZM26.036 42.848h-.06a12.542 12.542 0 0 1-2.924-.376l-.768 2.057c.507.178 2.22.52 3.722.52 1.502 0 3.215-.34 3.72-.52l-.767-2.057c-.956.24-1.937.364-2.923.373v.003ZM31.844 40.803c-.567.32-1.846.801-2.588 1.024l.623 1.695a15.597 15.597 0 0 0 2.88-1.058l-1.291-.426.376-1.235ZM20.172 40.803l.382 1.235-1.294.426c.921.447 1.884.803 2.876 1.062l.622-1.696c-.738-.226-2.015-.705-2.586-1.024v-.003ZM26.005 9.478c1.196 0 2.369.283 3.27.781.098-.325.217-.644.356-.955l-.34.042-.359.036-.15-.32-.454-.956-.832.43-.323.164-.26-.251-.908-.886-.898.886-.259.252-.323-.164-.838-.427-.454.955-.155.32-.357-.035-.34-.042c.14.308.259.626.358.95.907-.5 2.073-.782 3.266-.782v.002ZM7.277 20.586c.158.001.316-.025.466-.077.92-.307 1.247-1.67 2.862-2.52a2.017 2.017 0 0 0-1.047-.312 1.73 1.73 0 0 0-1.263.565c-1.331 1.342-2.572 1.416-2.572 1.416.227.495.878.93 1.554.93v-.002ZM44.702 26.05h.078c1.689 0 2.261-1.792 2.261-1.792h-.032a6.14 6.14 0 0 1-4.594-2.305c-1.168-1.47-2.126-2.76-4.017-3.27l-.186-.031-.04-.188c-.053-.287.145-.554.594-.844 2.609-1.696.839-3.85.839-3.85s-.746 1.727-2.413 1.727h-.124a3.523 3.523 0 0 1-.556-.056l-.307-.06s.474-1.28-.672-2.455a3.476 3.476 0 0 0-2.523-1.038 2.84 2.84 0 0 0-.5.038c.576.748.992 1.984.327 2.748-.575.656-1.98.689-1.98 1.666 0 .415.392.899 1.093 1.334 2.113 1.317 4.208 3.064 5.08 5.407 1.088 2.92-.14 4.86-1.89 5.97.38.32.85.517 1.345.565.16.016.32.023.468.023 1.68 0 2.55-.78 2.55-.78a4.38 4.38 0 0 1-1.02 2.08c-.807.925-1.867 1.47-3.483 1.493 0 0-.052.744.665 1.387.453.404 1.515.538 1.515.538s-1.98.397-2.199 3.295c-.114 1.565-.52 2.107-.52 2.107h.036c4.596 0 4.477-3.906 4.477-3.906a2.212 2.212 0 0 0 1.602 1.457c.156.04.317.059.478.057.262-.001.523-.033.778-.095 0 0-.67-1.403 0-3.364.552-1.629.462-2.835.462-2.835s.62.927 2.155.936h.015a2.16 2.16 0 0 0 1.826-.954c-3.062-1.259-2.762-5.326-2.762-5.326s.398.293 1.174.322v-.001Zm-.922 4.247c-1.247-.608-2.034-2.224-2.225-2.807-.206 3.205-1.786 5.426-3.629 7.573a6.823 6.823 0 0 0-1.291 2.189c.15-.81.498-1.572 1.012-2.217 1.724-2.05 3.36-4.601 3.482-7.553a8.892 8.892 0 0 0-1.285-5.104c.461 1.428.4 3.184-1.188 4.823 0 0 3.154-3.745-1.256-7.584-1.766-1.46-3.696-2.362-4.69-3 3.592 1.16 5.345-.114 5.345-.114-1.147.985-2.632.968-3.553.826.25.121.51.248.794.396 3.02 1.624 5.742 4.305 6.21 8.017v-.029c.706 3.645 2.274 4.581 2.274 4.581v.003Z" fill="#fff"/><path d="M14.827 34.354s1.058-.132 1.516-.538c.715-.644.665-1.387.665-1.387-1.619-.022-2.677-.566-3.489-1.491a4.41 4.41 0 0 1-1.014-2.081s.87.78 2.55.78c.15 0 .307-.006.47-.022a2.476 2.476 0 0 0 1.347-.565c-1.753-1.111-2.98-3.052-1.893-5.972.872-2.34 2.966-4.088 5.08-5.405.701-.435 1.091-.918 1.091-1.334 0-.977-1.401-1.01-1.976-1.666-.667-.764-.249-2.003.326-2.748a2.789 2.789 0 0 0-.499-.038 3.486 3.486 0 0 0-2.52 1.038c-1.15 1.175-.673 2.456-.673 2.456l-.309.059c-.183.033-.369.052-.555.056h-.123c-1.67 0-2.412-1.725-2.412-1.725s-1.771 2.158.836 3.85c.454.29.645.557.594.843l-.042.188-.19.033c-1.887.51-2.848 1.802-4.015 3.271a6.12 6.12 0 0 1-4.59 2.304h-.034s.567 1.791 2.26 1.791h.081c.776-.028 1.175-.322 1.175-.322s.3 4.07-2.761 5.326a2.16 2.16 0 0 0 1.836.96h.016c1.536-.01 2.154-.936 2.154-.936s-.09 1.206.462 2.835c.666 1.961 0 3.364 0 3.364.252.061.51.093.77.095a2.228 2.228 0 0 0 2.079-1.514s-.126 3.9 4.476 3.9h.031s-.402-.546-.519-2.115c-.22-2.898-2.201-3.295-2.201-3.295v.005Zm-.738.705c-1.847-2.14-3.424-4.364-3.63-7.573-.19.58-.975 2.198-2.22 2.806 0 0 1.565-.936 2.267-4.581v.032c.466-3.712 3.187-6.396 6.217-8.026.277-.15.54-.277.794-.395-.921.14-2.407.158-3.554-.827 0 0 1.754 1.279 5.346.113-.995.639-2.925 1.541-4.69 3.001-4.412 3.844-1.256 7.584-1.256 7.584-1.588-1.64-1.65-3.391-1.184-4.828a8.87 8.87 0 0 0-1.284 5.105c.12 2.951 1.757 5.502 3.476 7.553a5.05 5.05 0 0 1 1.02 2.216 6.891 6.891 0 0 0-1.293-2.188l-.01.008ZM22.608 20.077a4.304 4.304 0 0 1 .27.317c.065.088.132.18.196.273l.043.063c.077.113.15.235.226.357.663 1.13 1.724 1.809 2.666 1.809.94 0 2.001-.678 2.667-1.809a6.19 6.19 0 0 1 .227-.362c.01-.017.023-.032.034-.05a5.14 5.14 0 0 1 .206-.284l.043-.055c.075-.09.15-.179.227-.26l.035-.036c.346-.36.784-.618 1.267-.749l-.234-.134h-.014l-.937-.536-.959-.544-2.56 1.38h-.007l-2.568-1.38-.956.544-.935.537h-.013l-.237.136c.483.128.922.385 1.268.744.016.014.026.029.042.042l.003-.003Zm2.36-.113h2.167v.737c-.256-.309-.75-.247-.75-.247v1.063s.018.521.203.748h-1.073c.187-.226.205-.748.205-.748v-1.063s-.494-.062-.751.247v-.737Z" fill="#fff"/><path d="M25.784 18.54v-4.312l-2.77-.93.73 4.182 2.04 1.06Zm-.595-3.253v.692l-.134-.061c-.201-.072-.387-.18-.548-.319-.567-.436-.578-.838-.578-.838l1.26.526ZM28.269 17.475l.728-4.182-2.77.935v4.31l2.042-1.063Zm-1.446-2.188 1.26-.526s-.01.403-.58.839c-.161.14-.347.247-.548.319l-.133.06v-.692ZM21.866 28.531c.246.08.504.12.763.119l.025-.077c.016-.05.03-.101.04-.153.04-.224.062-.45.067-.678a.958.958 0 0 1-.363-.38.478.478 0 0 0-.465-.314c-.252.02-.495.105-.706.244-.1.595.34 1.13.639 1.244v-.005ZM27.997 26.244c-.515.553-1.521 1.518-1.572 1.568l-.06.061-3.176-.05c-.002.26-.037.52-.103.772l-.026.1 3.786.68c.394-.273 1.474-1.058 1.898-1.364a1.81 1.81 0 0 1-.267-1.338 1.924 1.924 0 0 1-.48-.429Z" fill="#fff"/><path d="M28.425 22.453c-.734.72-1.437.987-2.065 1.049-.113.011-.227.019-.34.019h-.016a3.572 3.572 0 0 1-.687-.072c-.076.272-.059.562.049.824.132.291.402.507.793.65l.132.052v.14a1.307 1.307 0 0 0 1.04 1.215c.166-.169.316-.321.426-.452-.207-.482-.099-.972.2-1.212-.013.05-.143 1.253.831 1.701l.16.075-.044.172c-.015.05-.34 1.215.838 1.648l.208.079-.093.2c-.02.045-.484 1.102.606 1.7h2.364v-1.856c-.84-.103-1.196-.771-1.288-1.244a1.362 1.362 0 0 1-.9-.506 1.1 1.1 0 0 1-.063-1.27c0 .006 0 .636.392 1.025.204.212.477.343.77.37l.173.014.016.174c0 .037.098.89.898 1.024v-3.799c0-.588.174-1.179.381-1.725h-4.78v.005ZM22.067 24.191l-.064 2.417.278.042.68-2.319-.34-.713-.554.573ZM29.541 35.276c.023 0 .046.004.068.01.422.118.527 1.625 1.268 1.76.065.013.131.019.197.017a.583.583 0 0 0 .479-.25s-.372-.58-.65-.97c-.37-.51-.658-1.13-1.346-1.13a.689.689 0 0 0-.42.12c-.23-.15-.499-.23-.774-.233-.432 0-.768.197-.935.197h-.006l-1.54-.15c-.24-.022-.43-.262-.498-.356l-.025-.041c.002-.04.002-.08 0-.121-.051-1.243-1.021-1.78-1.371-1.788 0 0 .04-.238-.054-.328l-.34.408-1.114-.554.794.92-.672.746a.207.207 0 0 0-.04.25l.29.253.369-.226a.168.168 0 0 1 .093-.017c.102 0 .254.026.392.026.139 0 .28-.033.296-.173-.046.463-.478 1.265-.195 1.896l.207.487-1.361-.194-.637 1.065c-.197.354-.227.738-.038.946l.235.29s.334-.352.41-.58l-.108-.114a.226.226 0 0 1-.031-.295l.41-.666 1.604.375.085-.142a.468.468 0 0 1 .43-.233c.074.001.147.008.22.02.42.085.848.131 1.278.137.538 0 1.073-.096 1.36-.411.582.855 1.76.99 1.668 1.423l-.31 1.463c.205-.008.403-.022.59-.048l.295-1.522a7.96 7.96 0 0 0 .063-.388 2.853 2.853 0 0 1-.543-.65c-.209-.396-.095-.601-.29-1.116a.262.262 0 0 1 .201-.113h-.004Zm-6.005-2.137a.137.137 0 0 1-.126-.093.138.138 0 0 1 .14-.182.143.143 0 0 1 .1.045.14.14 0 0 1 .037.102.141.141 0 0 1-.147.128h-.004Z" fill="#fff"/><path d="M21.344 36.66s.532-.216.58-.372l-.07-.176a.24.24 0 0 1 .053-.31l.575-.394.96.183a.798.798 0 0 1-.156-.503l-.917-.19-.863.521a.828.828 0 0 0-.275.99l.113.25ZM28.131 39.139c.172-.007.361-.01.567-.01 0 0 .495-1.432.522-1.477a11.09 11.09 0 0 1-1.074-.565c.148.216.504.464.433.655l-.448 1.397Z" fill="#fff"/><path d="M32.832 30.657H19.18v5.087c0 2.08 1.52 3.38 3.762 3.38 1.875 0 2.368.073 3.062.758.48-.474.878-.651 1.693-.718l.02-.078.43-1.318-.729-.82a2.663 2.663 0 0 1-.907.106 7.522 7.522 0 0 1-1.35-.138.577.577 0 0 0-.143-.016c-.06 0-.065.006-.08.034l-.086.14-.157.256-.294-.067-1.31-.305-.178.293.027.031.16.173-.07.226c-.097.296-.41.642-.505.738l-.327.348-.297-.374-.227-.278c-.235-.26-.29-.661-.157-1.08a.019.019 0 0 1-.014 0l-.37.152-.168-.352-.113-.254a1.227 1.227 0 0 1 .415-1.493l1.055-.59 1.003.197c.024-.096.06-.437.09-.523a.487.487 0 0 0-.058-.007l-.577.212-.56-.383s-.22-.208-.02-.416l.539-.81-1.368-1.696 2.103.855.14-.172.283-.34.322.304a.61.61 0 0 1 .169.303c.58.226 1.617.882 1.708 1.954l-.325.131v.01a.4.4 0 0 0 .155.126l1.503.144c.039-.006.088-.023.14-.038.254-.095.522-.147.794-.154.27.001.538.062.783.178.11-.04.224-.063.34-.07h.073c.804 0 1.202.595 1.523 1.07.053.081.107.16.161.236.281.392.648.967.664.99l.165.256-.204.234a1.003 1.003 0 0 1-.794.389 1.43 1.43 0 0 1-.511-.1 5.252 5.252 0 0 1-.043.252l-.263 1.357c1.575-.384 2.574-1.561 2.574-3.244l.001-5.086ZM19.18 30.248h10.616a1.676 1.676 0 0 1-.387-1.68 1.826 1.826 0 0 1-.392-.252c-.415.303-1.682 1.217-2.012 1.444l-.07.049-4.166-.746h-.084a3.67 3.67 0 0 1-.406-.023.404.404 0 0 1-.61.252.4.4 0 0 1-.116-.108.391.391 0 0 1-.073-.304l.015-.088c-.43-.301-.826-.972-.65-1.677l.017-.074.06-.043c.01-.007.08-.055.187-.113l-.301-.047a.207.207 0 0 1-.145-.31.204.204 0 0 1 .21-.096l.72.114.066-2.517 1.074-1.124.67 1.396-.708 2.42.636.1a.204.204 0 0 1 .116.357.204.204 0 0 1-.149.048.14.14 0 0 1-.032 0l-.518-.084c.007.015.017.024.024.041a.566.566 0 0 0 .25.226l3.175.05c.135-.13.468-.452.81-.791a1.708 1.708 0 0 1-1.113-1.405 1.656 1.656 0 0 1-.907-.82 1.71 1.71 0 0 1-.077-1.107 3.693 3.693 0 0 1-1.324-.879h-4.783c.204.546.377 1.137.377 1.725v6.067Z" fill="#FFDD2D"/><path d="M23.553 32.863a.14.14 0 0 0-.14.075.138.138 0 0 0 .125.2.137.137 0 0 0 .107-.03.138.138 0 0 0-.092-.245ZM32.813 42.086l-.786-.292.216-.805.24-.877a18.763 18.763 0 0 1-3.352 1.305c-.557.158-.98.226-.98.226v.603c-.697.112-1.403.173-2.11.18h-.06a14.233 14.233 0 0 1-2.118-.18v-.6s-.423-.07-.979-.225a18.733 18.733 0 0 1-3.355-1.312l.236.877.226.805-.788.299-.874.324c1.003.478 2.392 1.177 3.663 1.522l-.3.811s1.613.728 4.3.735h.037c2.69-.007 4.3-.735 4.3-.735l-.3-.811c1.271-.345 2.662-1.044 3.662-1.522l-.878-.328Zm-13.555.379 1.294-.426-.38-1.236c.567.32 1.848.8 2.589 1.025l-.625 1.695c-.99-.26-1.953-.616-2.875-1.061l-.003.003Zm6.75 2.587c-1.503 0-3.219-.339-3.723-.52l.768-2.06c.957.239 1.938.364 2.924.373h.06c.986-.01 1.967-.135 2.924-.373l.765 2.057c-.504.179-2.218.52-3.719.52v.003Zm3.871-1.526-.623-1.695c.742-.226 2.017-.704 2.588-1.024l-.38 1.235 1.296.423c-.923.445-1.886.801-2.878 1.061h-.003ZM26.006 9.976c1.6 0 2.88.525 3.587 1.086a7.047 7.047 0 0 1 .928-2.359l-1.288.145-.67-1.417-1.301.658-1.256-1.23-1.253 1.23-1.293-.658-.68 1.417-1.286-.145c.45.724.764 1.523.928 2.359.708-.565 1.985-1.086 3.584-1.086Zm-3.282-.63.359.036.15-.32.454-.952.836.428.323.164.26-.253.907-.887.907.887.258.253.324-.164.821-.428.454.955.152.32.358-.035.34-.042a8.006 8.006 0 0 0-.352.95c-.908-.5-2.076-.782-3.271-.782-1.195 0-2.362.285-3.268.781a8.101 8.101 0 0 0-.354-.955l.342.044ZM44.78 26.598c2.07 0 2.763-2.085 2.791-2.174l.227-.735-.777.024a5.57 5.57 0 0 1-4.169-2.098l-.153-.19c-1.059-1.332-2.061-2.599-3.855-3.177.07-.062.146-.118.226-.168.952-.62 1.506-1.373 1.645-2.248.203-1.316-.643-2.364-.68-2.407l-.585-.705-.36.836c-.023.054-.629 1.393-1.902 1.393h-.094c-.089 0-.172-.008-.253-.016.044-.598-.066-1.524-.907-2.39a4.046 4.046 0 0 0-2.92-1.202c-.203 0-.406.014-.606.045l-.871.172.537.7c.422.54.803 1.537.35 2.06-.143.164-.441.299-.727.433-.587.268-1.387.64-1.387 1.583 0 .614.48 1.254 1.352 1.8 2.577 1.605 4.167 3.277 4.853 5.13 1.062 2.845-.323 4.467-1.669 5.322l-.603.384.527.48c.473.4 1.056.646 1.673.708.181.012.355.022.517.022a5.37 5.37 0 0 0 1.557-.226c-.127.22-.275.427-.441.617-.77.883-1.716 1.286-3.077 1.306l-.506.008-.04.503c0 .1-.043 1.033.849 1.826.143.124.302.227.474.307-.605.538-1.22 1.476-1.338 3.082-.099 1.342-.423 1.838-.427 1.843l-.559.846 1.01.013c1.67 0 2.95-.452 3.834-1.356.458-.475.8-1.047 1-1.675a2.716 2.716 0 0 0 1.762.641c.306-.003.61-.041.907-.113l.646-.17-.286-.586c-.02-.047-.56-1.243.02-2.951a9.628 9.628 0 0 0 .44-1.915c.512.259 1.08.39 1.655.382a2.75 2.75 0 0 0 2.334-1.23l.314-.542-.583-.239c-1.905-.782-2.327-2.887-2.405-4.017.194.038.391.061.59.069l.09-.005Zm1.51 4.457a2.16 2.16 0 0 1-1.837.959h-.013c-1.534-.008-2.155-.935-2.155-.935s.09 1.206-.464 2.835c-.666 1.961 0 3.364 0 3.364a3.378 3.378 0 0 1-.77.095 2.224 2.224 0 0 1-2.08-1.514s.12 3.9-4.476 3.9h-.035s.405-.546.524-2.115c.22-2.898 2.2-3.295 2.2-3.295s-1.057-.131-1.515-.538c-.715-.643-.665-1.387-.665-1.387 1.618-.021 2.676-.565 3.482-1.492.52-.59.873-1.309 1.02-2.08 0 0-.869.78-2.55.78-.147 0-.306-.008-.468-.024a2.472 2.472 0 0 1-1.345-.565c1.75-1.112 2.978-3.052 1.89-5.972-.873-2.34-2.97-4.089-5.079-5.407-.702-.435-1.093-.917-1.093-1.333 0-.977 1.405-1.009 1.981-1.667.665-.763.248-2.003-.329-2.748.166-.027.334-.04.502-.038a3.494 3.494 0 0 1 2.522 1.038c1.147 1.176.67 2.456.67 2.456l.31.06c.183.033.369.051.555.054h.124c1.667 0 2.412-1.726 2.412-1.726s1.77 2.168-.838 3.858c-.454.29-.648.557-.596.844l.041.188.186.031c1.892.51 2.848 1.801 4.017 3.27a6.12 6.12 0 0 0 4.594 2.305h.036s-.576 1.792-2.268 1.792h-.08c-.777-.027-1.174-.322-1.174-.322s-.304 4.069 2.76 5.33h.003Z" fill="#343434"/><path d="M41.506 25.715v.027c-.465-3.713-3.188-6.394-6.215-8.025a19.78 19.78 0 0 0-.794-.395c.923.142 2.407.159 3.554-.826 0 0-1.755 1.277-5.347.113.994.64 2.927 1.542 4.691 3.002 4.414 3.842 1.261 7.587 1.261 7.587 1.588-1.638 1.65-3.39 1.184-4.826.835 1.375 1.368 3.045 1.285 5.104-.121 2.95-1.758 5.502-3.481 7.552a5.08 5.08 0 0 0-1.013 2.218 6.803 6.803 0 0 1 1.293-2.189c1.846-2.14 3.423-4.365 3.629-7.573.19.582.977 2.2 2.225 2.808 0 0-1.564-.934-2.268-4.58l-.004.003ZM18.002 39.451s-.325-.5-.425-1.84c-.12-1.607-.733-2.544-1.34-3.083.173-.078.333-.182.475-.308.889-.791.851-1.725.846-1.825l-.035-.503-.509-.01c-1.36-.02-2.305-.423-3.075-1.305a4.114 4.114 0 0 1-.44-.616 5.355 5.355 0 0 0 1.556.226c.164 0 .334-.01.516-.021a3.067 3.067 0 0 0 1.674-.708l.528-.48-.604-.386c-1.351-.855-2.731-2.479-1.67-5.321.686-1.85 2.274-3.525 4.855-5.13.871-.546 1.347-1.187 1.347-1.8 0-.948-.794-1.32-1.384-1.583-.286-.134-.584-.269-.728-.435-.454-.52-.07-1.518.349-2.059l.54-.7-.873-.177a3.655 3.655 0 0 0-.606-.046 4.058 4.058 0 0 0-2.918 1.203c-.848.868-.96 1.793-.917 2.39-.083.007-.165.01-.252.015h-.092c-1.277 0-1.881-1.34-1.905-1.391l-.36-.838-.583.702c-.032.043-.882 1.093-.68 2.408.137.873.692 1.627 1.643 2.247.08.05.156.107.227.17-1.79.577-2.793 1.845-3.856 3.178l-.153.188a5.563 5.563 0 0 1-4.17 2.095l-.78-.024.237.735c.027.09.718 2.175 2.79 2.175h.1c.198-.008.396-.031.59-.07-.087 1.137-.508 3.238-2.413 4.023l-.581.238.315.543a2.74 2.74 0 0 0 2.343 1.23 3.563 3.563 0 0 0 1.65-.385c.08.652.227 1.293.439 1.915.58 1.708.04 2.904.018 2.951l-.293.597.648.17c.297.072.601.11.907.114a2.71 2.71 0 0 0 1.766-.648c.2.627.542 1.199.999 1.673.888.904 2.164 1.356 3.833 1.356l1.011-.014-.56-.836Zm-.489.308c-4.596 0-4.48-3.905-4.48-3.905a2.21 2.21 0 0 1-1.6 1.457c-.156.04-.317.058-.478.056a3.344 3.344 0 0 1-.763-.095s.668-1.403 0-3.364c-.55-1.629-.46-2.835-.46-2.835s-.618.927-2.155.935H7.56a2.168 2.168 0 0 1-1.84-.953c3.061-1.26 2.762-5.326 2.762-5.326s-.398.293-1.176.322h-.08c-1.69 0-2.262-1.791-2.262-1.791H5a6.14 6.14 0 0 0 4.592-2.306c1.17-1.47 2.127-2.76 4.015-3.27l.189-.03.042-.189c.05-.287-.145-.553-.594-.844-2.609-1.695-.836-3.85-.836-3.85s.742 1.725 2.412 1.725h.123c.186-.004.372-.022.555-.055l.309-.06s-.478-1.28.672-2.459A3.479 3.479 0 0 1 19 11.885c.167-.002.334.01.499.038-.575.747-.991 1.984-.327 2.748.575.657 1.977.688 1.977 1.667 0 .414-.39.898-1.092 1.333-2.112 1.318-4.207 3.067-5.078 5.406-1.088 2.921.14 4.86 1.893 5.973-.382.32-.852.516-1.348.565a4.833 4.833 0 0 1-.47.023c-1.679 0-2.549-.78-2.549-.78a4.416 4.416 0 0 0 1.014 2.084c.812.925 1.87 1.47 3.489 1.492 0 0 .05.744-.665 1.387-.46.405-1.516.538-1.516.538s1.982.397 2.2 3.295c.113 1.57.52 2.115.52 2.115l-.034-.01Z" fill="#343434"/><path d="M7.277 21.131c.218.002.436-.032.644-.102.578-.19.944-.644 1.331-1.116.387-.473.841-1.03 1.615-1.437l.794-.423-.739-.513a2.606 2.606 0 0 0-1.36-.41 2.294 2.294 0 0 0-1.658.728C6.758 19.016 5.73 19.11 5.692 19.11l-.794.047.33.727c.33.722 1.195 1.244 2.056 1.244l-.007.002Zm1.02-2.889a1.727 1.727 0 0 1 1.265-.565c.37.006.733.115 1.045.314-1.612.857-1.944 2.213-2.864 2.52-.15.051-.308.077-.466.076-.68 0-1.33-.433-1.554-.929 0 0 1.24-.077 2.572-1.416h.002ZM10.888 27.477a8.872 8.872 0 0 1 1.284-5.104c-.466 1.434-.402 3.19 1.184 4.828 0 0-3.156-3.745 1.257-7.584 1.765-1.46 3.695-2.362 4.689-3.001-3.592 1.16-5.345-.113-5.345-.113 1.145.986 2.631.968 3.553.825-.25.121-.512.248-.794.395-3.031 1.63-5.752 4.312-6.219 8.025v-.03C9.794 29.365 8.23 30.3 8.23 30.3c1.247-.608 2.03-2.225 2.222-2.808.207 3.205 1.786 5.426 3.628 7.573a6.863 6.863 0 0 1 1.296 2.189 5.063 5.063 0 0 0-1.021-2.218c-1.71-2.06-3.345-4.607-3.466-7.559ZM24.968 19.967v.737c.257-.309.753-.247.753-.247v1.063s-.019.521-.206.748h1.072c-.184-.226-.203-.748-.203-.748v-1.063s.495-.062.75.247v-.737h-2.166ZM24.507 15.6c.16.14.346.248.547.32l.135.06v-.693l-1.26-.525s.012.402.578.838ZM27.503 15.6c.567-.436.58-.838.58-.838l-1.26.525v.693l.132-.06a1.67 1.67 0 0 0 .548-.32Z" fill="#343434"/><path d="M29.771 12.777c0-1.052-1.787-1.998-3.76-1.998h-.013c-1.97 0-3.761.947-3.761 1.998l.04.259.793 4.48-.794.452-2.051 1.188h.007s-.46.233-.675.378c-.78.537-.944 1.319-.492 1.643a1.546 1.546 0 0 1 1.575-1.305c.686 0 1.209.351 1.633.878.112.135.215.278.307.427.12.192.238.362.356.525h-5.273c.387.772.755 1.59.755 2.479v11.562c0 2.799 2.173 4.135 4.524 4.135 1.814 0 2.062-.082 3.062.904.999-.99 1.247-.904 3.062-.904 2.352 0 4.522-1.336 4.522-4.135V24.18c0-.889.369-1.707.758-2.48h-5.274c.113-.16.235-.332.355-.524a4.43 4.43 0 0 1 .306-.427c.426-.529.948-.878 1.634-.878a1.548 1.548 0 0 1 1.575 1.305c.454-.324.288-1.106-.496-1.643a8.16 8.16 0 0 0-.67-.378h.006l-2.048-1.184-.788-.453.788-4.48.037-.262Zm-6.759.52 2.77.931v4.311l-2.04-1.065-.73-4.176Zm.574 9.156c.372.386.823.687 1.323.881-.1.367-.072.758.078 1.108.187.377.511.67.907.817a1.693 1.693 0 0 0 1.114 1.405c-.34.34-.68.665-.812.791l-3.176-.05a.558.558 0 0 1-.272-.267l.518.084h.033a.205.205 0 0 0 .204-.17.205.205 0 0 0-.17-.235l-.638-.099.707-2.419-.672-1.393-1.073 1.124-.066 2.516-.72-.113a.207.207 0 0 0-.246.17.206.206 0 0 0 .18.236l.303.047c-.113.06-.179.113-.188.113l-.061.043-.018.074c-.175.707.226 1.376.65 1.675l-.015.09a.397.397 0 0 0 .072.302.403.403 0 0 0 .266.164.44.44 0 0 0 .067 0 .408.408 0 0 0 .393-.314c.135.016.27.023.406.023h.085l4.165.756.07-.046c.333-.226 1.599-1.144 2.012-1.445.12.103.254.19.396.258a1.675 1.675 0 0 0 .39 1.676H19.18v-6.07c0-.588-.173-1.179-.378-1.725h4.784v-.007Zm5.149 5.55a174.86 174.86 0 0 1-1.899 1.364l-3.785-.679.025-.099c.066-.252.1-.511.103-.772l3.182.05.06-.06c.049-.049 1.057-1.017 1.572-1.568.134.166.294.31.474.424-.09.464.007.945.268 1.34Zm-6.338-.65a.97.97 0 0 0 .363.381 4.262 4.262 0 0 1-.068.679c-.01.051-.023.102-.04.152-.007.03-.016.056-.023.076a2.46 2.46 0 0 1-.764-.113c-.297-.113-.742-.649-.639-1.243.211-.14.454-.224.706-.245a.477.477 0 0 1 .465.314Zm-.394-.747.064-2.415.546-.574.34.712-.68 2.318-.27-.04ZM28.7 39.13c-.207 0-.397 0-.567.01l.453-1.389c.072-.192-.284-.44-.43-.655.347.206.706.395 1.073.565-.03.044-.524 1.47-.524 1.47H28.7Zm1.414-1.582-.294 1.52c-.187.026-.387.04-.592.048l.31-1.463c.093-.434-1.086-.565-1.667-1.423-.285.318-.82.411-1.361.411a6.91 6.91 0 0 1-1.278-.136 1.373 1.373 0 0 0-.22-.02.466.466 0 0 0-.436.233l-.086.143-1.597-.37-.399.654a.225.225 0 0 0 .03.294l.114.113c-.074.232-.407.581-.407.581l-.245-.289c-.19-.21-.159-.592.039-.946l.637-1.065 1.36.194-.211-.478c-.285-.63.147-1.433.194-1.895-.015.14-.144.17-.296.17s-.29-.024-.393-.024a.167.167 0 0 0-.093.017l-.367.226-.292-.255a.204.204 0 0 1 .04-.248l.674-.746-.794-.92 1.113.555.34-.408c.094.09.054.327.054.327.348.01 1.321.543 1.373 1.786v.121l.026.04c.069.095.259.34.5.358l1.537.15h.002c.168 0 .504-.196.934-.196.275.002.544.083.774.234a.695.695 0 0 1 .367-.122h.053c.69 0 .976.617 1.346 1.13.279.39.65.969.65.969a.575.575 0 0 1-.478.25.994.994 0 0 1-.198-.019c-.74-.134-.846-1.64-1.268-1.76a.236.236 0 0 0-.181.025.226.226 0 0 0-.082.086c.193.513.08.721.287 1.117.148.242.331.46.544.649 0 0-.032.226-.064.392v-.01Zm-8.26-1.434.07.175c-.047.153-.581.372-.581.372l-.113-.25a.824.824 0 0 1 .275-.988l.862-.523.916.192a.79.79 0 0 0 .157.503l-.96-.182-.576.39a.236.236 0 0 0-.05.306v.005Zm8.41 2.875.264-1.356.043-.252c.077.032.157.056.239.07.09.018.18.027.272.028a1.003 1.003 0 0 0 .794-.389l.203-.233-.171-.262a25.291 25.291 0 0 0-.663-.991c-.055-.076-.113-.153-.162-.236-.32-.474-.721-1.07-1.525-1.07h-.071a1.22 1.22 0 0 0-.34.068 1.835 1.835 0 0 0-.783-.178c-.271.007-.54.06-.794.154-.053.016-.102.033-.14.04l-1.502-.147a.384.384 0 0 1-.157-.127l.325-.13c-.09-1.071-1.134-1.731-1.71-1.954a.603.603 0 0 0-.168-.302l-.325-.303-.283.34-.14.171-2.102-.854 1.368 1.695-.54.81c-.199.207.017.414.017.414l.557.381.578-.214c.02 0 .039.006.057.007-.027.087-.064.429-.088.524l-1.003-.196-1.055.59a1.228 1.228 0 0 0-.407 1.493l.113.255.167.358.369-.153c.005 0 .01-.003.013-.006-.132.42-.08.818.158 1.081l.227.28.298.373.327-.349c.096-.094.408-.44.504-.737l.07-.226-.16-.174-.025-.03.179-.293 1.31.304.293.067.157-.256.082-.14c.016-.028.022-.034.082-.034.048 0 .095.006.142.016.448.087.904.133 1.36.138.307.017.614-.02.908-.107 0 0 .704.79.728.821l-.436 1.314-.02.08c-.815.064-1.213.242-1.693.718-.697-.685-1.19-.758-3.062-.758-2.242 0-3.761-1.302-3.761-3.38v-5.087h13.645v5.087c0 1.686-.997 2.863-2.572 3.246l.01.001Zm2.949-16.535c-.208.546-.382 1.138-.382 1.725v3.795c-.8-.133-.895-.987-.898-1.024l-.016-.174-.178-.015a1.216 1.216 0 0 1-.773-.366c-.392-.389-.393-1.017-.392-1.024a1.101 1.101 0 0 0 .064 1.27c.222.278.545.46.9.505.092.474.454 1.142 1.287 1.244v1.857H30.47c-1.089-.6-.629-1.656-.606-1.695l.093-.202-.209-.078c-1.178-.433-.855-1.598-.838-1.648l.05-.17-.16-.075c-.975-.447-.842-1.651-.83-1.695-.3.24-.408.73-.202 1.211-.113.127-.262.28-.425.447a1.315 1.315 0 0 1-1.039-1.215v-.142l-.132-.05c-.394-.145-.665-.362-.794-.654-.11-.26-.13-.55-.056-.822.112.027.226.044.34.054.116.012.231.019.348.019h.015c.116 0 .231-.007.346-.02.628-.06 1.332-.328 2.065-1.047h4.778v-.01Zm-3.682-3.831.933.537h.014l.233.134a2.76 2.76 0 0 0-1.266.748l-.037.035c-.077.083-.154.171-.227.261-.013.017-.027.037-.043.055a5.202 5.202 0 0 0-.239.334c-.077.113-.15.236-.227.363-.663 1.13-1.723 1.809-2.667 1.809-.943 0-2-.678-2.665-1.809a4.915 4.915 0 0 0-.227-.358 7.443 7.443 0 0 0-.29-.398 7.227 7.227 0 0 0-.22-.254c-.016-.013-.026-.027-.042-.041a2.734 2.734 0 0 0-1.268-.745l.24-.137h.01l.936-.534.959-.544 2.56 1.38h.007l2.56-1.38.966.544Zm-1.264-1.147-2.04 1.065v-4.312l2.767-.93-.727 4.177ZM26 13.755l-3.03-1.189c.259-.604 1.45-1.119 3.036-1.12 1.587-.003 2.78.516 3.036 1.12l-3.042 1.188Z" fill="#343434"/></g><defs><clipPath id="a"><path fill="#fff" transform="translate(3 5.648)" d="M0 0h46v40.692H0z"/></clipPath></defs></svg>