<svg width="196" height="173" viewBox="0 0 196 173" fill="none" xmlns="http://www.w3.org/2000/svg">
<path d="M65.7342 171.483C96.1934 170.662 120.804 166.964 120.704 163.223C120.603 159.481 95.8297 157.113 65.3705 157.933C34.9113 158.753 10.3007 162.451 10.4011 166.193C10.5015 169.934 35.275 172.303 65.7342 171.483Z" fill="#E5CF91"/>
<path d="M163.788 140.676C162.06 143.086 162.06 146.323 163.781 148.727C164.13 149.217 163.528 149.818 163.038 149.469C160.632 147.746 157.395 147.751 154.988 149.476C154.497 149.826 153.897 149.225 154.246 148.734C155.974 146.325 155.974 143.088 154.253 140.684C153.904 140.194 154.506 139.592 154.996 139.941C157.402 141.665 160.639 141.66 163.046 139.935C163.537 139.585 164.137 140.186 163.788 140.676Z" fill="white"/>
<path d="M11.8461 42.8599C12.0949 44.378 13.2853 45.5703 14.801 45.8195C15.111 45.8694 15.111 46.3141 14.801 46.3639C13.2853 46.6131 12.0949 47.8054 11.8461 49.3236C11.7964 49.6342 11.3524 49.6342 11.3026 49.3236C11.0538 47.8054 9.86347 46.6131 8.34776 46.3639C8.03773 46.3141 8.03773 45.8694 8.34776 45.8195C9.86347 45.5703 11.0538 44.378 11.3026 42.8599C11.3524 42.5493 11.7964 42.5493 11.8461 42.8599Z" fill="white"/>
<path d="M47.5645 8.2342L46.9327 9.11504C46.0351 10.3645 46.0337 12.0493 46.9293 13.2973L47.5597 14.1771C47.7436 14.4315 47.4292 14.746 47.1747 14.562L46.2949 13.9316C45.0469 13.0361 43.3621 13.0374 42.1127 13.935L41.2318 14.5669C40.9771 14.7513 40.6631 14.4373 40.8475 14.1825L41.4794 13.3017C42.377 12.0523 42.3783 10.3675 41.4828 9.11948L40.8524 8.23967C40.6684 7.9852 40.9828 7.67074 41.2373 7.85472L42.1171 8.48513C43.3651 9.38069 45.0499 9.37932 46.2993 8.48173L47.1802 7.84988C47.4349 7.66548 47.7489 7.97944 47.5645 8.2342Z" fill="white"/>
<path d="M123.625 11.4826L183.005 6.88968C183.005 6.88968 194.469 4.48589 194.469 17.6051C194.469 30.7243 194.469 30.7129 193.646 98.6284C193.646 98.6284 193.922 106.603 180.605 104.854C167.289 103.106 121.879 96.5467 121.879 96.5467C121.879 96.5467 117.948 96.5467 117.076 92.1723C116.203 87.798 114.894 30.9467 114.894 30.9467L114.676 19.9092C114.676 19.9092 113.585 11.4826 123.625 11.4826Z" fill="#232323"/>
<path d="M184.173 106.637C183.001 106.637 181.746 106.549 180.403 106.373C167.523 104.682 124.111 98.4139 121.753 98.0765C119.923 98.0266 116.436 96.8075 115.571 92.4715C114.683 88.0166 113.413 33.3084 113.359 30.9813L113.141 20.009C113.076 19.3573 112.862 15.8379 115.258 13.1044C117.08 11.0265 119.874 9.96451 123.56 9.953L182.799 5.37163C183.606 5.22211 188.421 4.50519 192.065 7.46487C194.676 9.58879 195.996 13.0009 195.996 17.6091C195.996 26.3655 195.722 53.3413 195.173 98.5365V98.6401C195.173 99.0848 195.081 101.814 192.697 103.984C190.752 105.752 187.893 106.641 184.165 106.641L184.173 106.637ZM123.625 13.0162C120.842 13.0162 118.81 13.7178 117.581 15.1018C115.897 17.0033 116.192 19.6908 116.195 19.7177L116.207 19.8749L116.425 30.9123C116.789 46.6845 117.883 88.3885 118.58 91.8696C119.177 94.8599 121.623 95.0018 121.898 95.0095L122.101 95.0248C122.557 95.09 167.653 101.604 180.808 103.333C185.371 103.931 188.762 103.386 190.603 101.749C192.119 100.404 192.123 98.7321 192.119 98.6631V98.6286V98.4982C192.667 53.3157 192.942 26.3552 192.942 17.6167C192.942 13.9785 192.004 11.3715 190.159 9.85716C187.403 7.59906 183.361 8.38498 183.319 8.39265L183.128 8.41949L123.69 13.0162H123.632H123.625Z" fill="#781B1C"/>
<path d="M123.625 11.4826L183.005 6.88968C183.005 6.88968 193.703 4.48589 193.703 17.6051C193.703 20.3156 193.612 31.6713 193.612 31.6713L114.894 30.9429L114.676 19.9054C114.676 19.9054 113.585 11.4787 123.625 11.4787V11.4826Z" fill="#FFA300"/>
<path d="M194.752 32.8326L113.769 32.0812L113.531 19.9817C113.474 19.4258 113.229 16.0022 115.552 13.3493C117.302 11.3557 120.004 10.3397 123.583 10.3282L182.848 5.74302C183.537 5.605 187.755 4.91109 191.055 7.5564C193.577 9.57681 194.856 12.9544 194.856 17.5971C194.856 20.2807 194.767 31.5598 194.764 31.6748L194.756 32.8249L194.752 32.8326ZM116.019 29.8039L192.475 30.5131C192.498 27.5534 192.555 19.7709 192.555 17.6048C192.555 13.6981 191.568 10.9225 189.616 9.35828C186.94 7.21519 183.292 8.00495 183.258 8.01262L183.093 8.03562L123.671 12.6323H123.625C120.712 12.6323 118.576 13.3838 117.275 14.8713C115.468 16.93 115.809 19.7325 115.813 19.7594L115.82 19.8859L116.016 29.8039H116.019Z" fill="#781B1C"/>
<path d="M127.337 21.3197C128.542 21.3197 129.519 20.3414 129.519 19.1345C129.519 17.9276 128.542 16.9492 127.337 16.9492C126.133 16.9492 125.156 17.9276 125.156 19.1345C125.156 20.3414 126.133 21.3197 127.337 21.3197Z" fill="white"/>
<path d="M127.337 22.0867C125.711 22.0867 124.39 20.7602 124.39 19.1346C124.39 17.5091 125.714 16.1826 127.337 16.1826C128.96 16.1826 130.285 17.5091 130.285 19.1346C130.285 20.7602 128.96 22.0867 127.337 22.0867ZM127.337 17.7161C126.557 17.7161 125.921 18.3525 125.921 19.1346C125.921 19.9167 126.557 20.5531 127.337 20.5531C128.118 20.5531 128.754 19.9167 128.754 19.1346C128.754 18.3525 128.118 17.7161 127.337 17.7161Z" fill="#781B1C"/>
<path d="M143.057 20.4457C144.262 20.4457 145.239 19.4673 145.239 18.2605C145.239 17.0536 144.262 16.0752 143.057 16.0752C141.853 16.0752 140.876 17.0536 140.876 18.2605C140.876 19.4673 141.853 20.4457 143.057 20.4457Z" fill="white"/>
<path d="M143.057 21.2126C141.431 21.2126 140.11 19.8861 140.11 18.2606C140.11 16.6351 141.434 15.3086 143.057 15.3086C144.68 15.3086 146.005 16.6351 146.005 18.2606C146.005 19.8861 144.68 21.2126 143.057 21.2126ZM143.057 16.8421C142.277 16.8421 141.641 17.4785 141.641 18.2606C141.641 19.0427 142.277 19.6791 143.057 19.6791C143.838 19.6791 144.474 19.0427 144.474 18.2606C144.474 17.4785 143.838 16.8421 143.057 16.8421Z" fill="#781B1C"/>
<path d="M160.523 19.5717C161.727 19.5717 162.704 18.5933 162.704 17.3864C162.704 16.1795 161.727 15.2012 160.523 15.2012C159.318 15.2012 158.341 16.1795 158.341 17.3864C158.341 18.5933 159.318 19.5717 160.523 19.5717Z" fill="white"/>
<path d="M160.522 20.3386C158.896 20.3386 157.575 19.0121 157.575 17.3866C157.575 15.7611 158.9 14.4346 160.522 14.4346C162.145 14.4346 163.47 15.7611 163.47 17.3866C163.47 19.0121 162.145 20.3386 160.522 20.3386ZM160.522 15.9643C159.742 15.9643 159.106 16.6007 159.106 17.3828C159.106 18.1648 159.742 18.8013 160.522 18.8013C161.303 18.8013 161.939 18.1648 161.939 17.3828C161.939 16.6007 161.303 15.9643 160.522 15.9643Z" fill="#781B1C"/>
<path d="M178.202 19.1342C179.407 19.1342 180.384 18.1558 180.384 16.9489C180.384 15.742 179.407 14.7637 178.202 14.7637C176.997 14.7637 176.02 15.742 176.02 16.9489C176.02 18.1558 176.997 19.1342 178.202 19.1342Z" fill="white"/>
<path d="M178.202 19.9011C176.575 19.9011 175.255 18.5746 175.255 16.9491C175.255 15.3236 176.579 13.9971 178.202 13.9971C179.825 13.9971 181.149 15.3236 181.149 16.9491C181.149 18.5746 179.825 19.9011 178.202 19.9011ZM178.202 15.5268C177.421 15.5268 176.786 16.1632 176.786 16.9453C176.786 17.7273 177.421 18.3638 178.202 18.3638C178.983 18.3638 179.618 17.7273 179.618 16.9453C179.618 16.1632 178.983 15.5268 178.202 15.5268Z" fill="#781B1C"/>
<path d="M178.202 17.4974C175.645 17.4974 173.716 13.7365 173.716 8.74871C173.716 3.76095 175.645 0 178.202 0C180.322 0 182.072 2.66065 182.558 6.61712C182.607 7.03884 182.309 7.41838 181.892 7.47205C181.471 7.52189 181.092 7.22286 181.038 6.80498C180.617 3.3814 179.262 1.53352 178.202 1.53352C176.809 1.53352 175.247 4.61972 175.247 8.74871C175.247 12.8777 176.805 15.9639 178.202 15.9639C178.623 15.9639 178.967 16.3089 178.967 16.7307C178.967 17.1524 178.623 17.4974 178.202 17.4974Z" fill="#781B1C"/>
<path d="M160.741 18.3714C158.184 18.3714 156.259 14.6105 156.259 9.62273C156.259 4.63497 158.188 0.874023 160.741 0.874023C162.861 0.874023 164.61 3.53467 165.096 7.49114C165.146 7.91286 164.848 8.29241 164.43 8.34608C164.009 8.39208 163.63 8.10072 163.577 7.679C163.156 4.25543 161.801 2.40754 160.741 2.40754C159.347 2.40754 157.79 5.49374 157.79 9.62273C157.79 13.7517 159.347 16.8379 160.741 16.8379C161.162 16.8379 161.506 17.183 161.506 17.6047C161.506 18.0264 161.162 18.3714 160.741 18.3714Z" fill="#781B1C"/>
<path d="M143.049 19.0275C140.726 19.0275 138.973 15.6423 138.973 11.1529C138.973 6.66356 140.726 3.27832 143.049 3.27832C144.982 3.27832 146.575 5.67444 147.011 9.2437C147.061 9.66541 146.762 10.045 146.345 10.0986C145.924 10.1485 145.545 9.84943 145.491 9.43155C145.136 6.54087 143.972 4.81184 143.049 4.81184C141.848 4.81184 140.504 7.52233 140.504 11.1529C140.504 14.7835 141.848 17.494 143.049 17.494C143.471 17.494 143.815 17.8391 143.815 18.2608C143.815 18.6825 143.471 19.0275 143.049 19.0275Z" fill="#781B1C"/>
<path d="M127.33 19.9013C125.094 19.9013 123.406 16.6579 123.406 12.3564C123.406 8.05491 125.094 4.81152 127.33 4.81152C129.19 4.81152 130.725 7.1118 131.146 10.5354C131.196 10.9571 130.897 11.3366 130.48 11.3903C130.059 11.4401 129.68 11.1449 129.626 10.7232C129.289 7.9859 128.195 6.34887 127.33 6.34887C126.201 6.34887 124.938 8.92135 124.938 12.3603C124.938 15.7992 126.201 18.3716 127.33 18.3716C127.751 18.3716 128.095 18.7167 128.095 19.1384C128.095 19.5601 127.751 19.9052 127.33 19.9052V19.9013Z" fill="#781B1C"/>
<path d="M114.894 30.9423C114.894 30.9423 122.097 81.234 106.6 93.2606C139.126 96.7608 183.664 102.005 183.664 102.005C183.664 102.005 191.522 79.4819 193.489 31.5941C139.785 31.5941 114.898 30.9385 114.898 30.9385L114.894 30.9423Z" fill="white"/>
<path d="M184.311 103.048L183.549 102.96C183.105 102.906 138.648 97.6732 106.496 94.2152L104.135 93.9621L106.01 92.5053C120.896 80.9579 114.018 31.5787 113.945 31.0803L113.784 29.957L114.917 29.9877C115.166 29.9954 140.408 30.6433 193.485 30.6433H194.48L194.438 31.6401C192.49 79.1215 184.64 102.101 184.563 102.327L184.311 103.052V103.048ZM108.82 92.5398C138.391 95.7372 177.038 100.269 182.99 100.966C184.299 96.7723 190.68 74.4136 192.486 32.5602C146.249 32.5525 121.386 32.0541 115.993 31.9314C116.953 39.346 121.451 79.3401 108.824 92.5436L108.82 92.5398Z" fill="#781B1C"/>
<path d="M114.894 30.9424C114.894 30.9424 116.858 76.645 101.36 88.6716C133.886 92.1718 181.042 97.635 181.042 97.635C181.042 97.635 191.522 79.4858 193.485 31.598C139.781 31.598 114.894 30.9424 114.894 30.9424Z" fill="white"/>
<path d="M181.555 98.6585L180.931 98.5857C180.46 98.532 133.408 93.0804 101.257 89.6223L98.895 89.3693L100.774 87.9124C115.706 76.3267 113.96 31.4369 113.941 30.9845L113.895 29.957L114.921 29.9839C115.17 29.9915 140.413 30.6394 193.489 30.6394H194.484L194.442 31.6362C192.49 79.2136 182.305 97.3627 181.873 98.1141L181.559 98.6585H181.555ZM103.614 87.9508C133.573 91.1865 174.83 95.9519 180.498 96.6075C182.171 93.2682 190.649 74.429 192.486 32.5563C145.936 32.5487 121.049 32.0426 115.886 31.9238C116.081 38.6751 116.502 75.0424 103.614 87.9469V87.9508Z" fill="#781B1C"/>
<path d="M114.511 30.9423C114.511 30.9423 114.676 70.0815 99.1743 82.1081C131.701 85.6083 176.675 91.0715 176.675 91.0715C176.675 91.0715 191.518 79.4819 193.485 31.5941C139.781 31.5941 114.511 30.9385 114.511 30.9385V30.9423Z" fill="white"/>
<path d="M176.954 92.076L176.564 92.03C176.116 91.9763 131.226 86.5247 99.0786 83.0666L96.717 82.8135L98.5964 81.3567C113.543 69.7595 113.562 31.3373 113.562 30.9501V29.9609L114.542 29.9878C114.795 29.9954 140.416 30.6434 193.493 30.6434H194.488L194.446 31.6401C192.486 79.4207 177.888 91.3514 177.268 91.8345L176.958 92.076H176.954ZM101.463 81.3912C131.724 84.6729 171.795 89.515 176.365 90.0709C177.283 89.2045 180.357 85.9649 183.568 78.6846C189.818 64.511 191.878 45.9708 192.486 32.5564C145.756 32.5487 120.559 32.0388 115.457 31.9238C115.411 34.6995 115.139 42.992 113.597 52.1739C111.262 66.0599 107.185 75.8744 101.459 81.3912H101.463Z" fill="#781B1C"/>
<path d="M158.616 41.8379V44.6749C158.616 45.6257 158.547 46.5727 158.417 47.512C157.786 52.1163 155.704 55.8006 153.675 59.3775C151.447 63.311 149.338 67.0221 149.338 71.822V74.659L143.67 73.8961V71.822C143.67 65.5231 146.364 60.7692 148.745 56.575C150.433 53.6 152.041 50.7515 152.668 47.512L140.535 47.0021V41.3242L158.616 41.8341V41.8379Z" fill="#232323"/>
<path d="M13.427 59.3054C13.427 59.3054 16.933 56.6485 24.0561 53.5317C31.1792 50.411 39.9022 46.5043 45.41 45.013C50.9179 43.5216 55.2928 42.2488 64.6244 41.321C73.9559 40.3933 83.1421 40.1096 83.1421 40.1096C83.1421 40.1096 102.487 38.8176 110.509 43.6827C118.528 48.5477 121.211 52.3739 125.038 63.5264C128.866 74.6827 132.579 96.3359 132.579 96.3359C132.579 96.3359 135.354 112.733 134.55 121.52C133.746 130.303 127.324 136.292 127.324 136.292C127.324 136.292 119.025 143.407 103.344 147.9C87.6662 152.394 71.0967 155.3 71.0967 155.3C71.0967 155.3 45.1842 160.077 34.2489 158.539C23.3136 157.002 15.3522 153.808 9.76019 136.434C4.16431 119.055 1.48885 97.302 1.48885 97.302C1.48885 97.302 -2.24685 77.5389 4.27148 68.2918C8.00717 62.6753 13.4346 59.3054 13.4346 59.3054H13.427Z" fill="#232323"/>
<path d="M50.6959 158.624C44.545 159.233 38.3367 159.54 34.1876 158.957C30.9763 158.505 28.5956 157.991 26.4598 157.282C23.88 156.427 21.6792 155.273 19.7386 153.763C15.3255 150.32 12.0261 144.857 9.35448 136.568C3.86576 119.523 1.1482 98.0079 1.06782 97.3715C1.01424 97.0763 0.126243 92.1843 0.0114166 86.2765C-0.149341 78.099 1.16734 71.9688 3.91935 68.0583C7.59763 62.5338 12.7954 59.2099 13.1897 58.9646C13.4806 58.746 16.9637 56.1851 23.8877 53.1525C24.4542 52.9033 25.0321 52.6503 25.6178 52.3934C32.4538 49.3954 40.2007 45.9949 45.299 44.6147L46.122 44.3923C51.2509 43.0007 55.6832 41.7969 64.5784 40.9113C73.7033 40.0065 82.8014 39.7113 83.1153 39.6998C83.3296 39.6844 88.1408 39.3854 93.8324 39.6614C101.652 40.0448 107.332 41.2793 110.72 43.3342C115.01 45.9373 117.605 48.1609 119.676 51.0095C121.716 53.8158 123.328 57.2892 125.425 63.4003C129.218 74.4607 132.946 96.0565 132.984 96.275C133.011 96.4399 135.759 112.829 134.959 121.567C134.726 124.12 133.846 128.076 130.975 132.439C129.26 135.046 127.668 136.545 127.599 136.606L127.588 136.618C127.503 136.691 125.437 138.451 121.418 140.781C117.716 142.928 111.596 145.98 103.455 148.311C87.9342 152.758 71.3302 155.691 71.1656 155.718C70.5111 155.837 60.6781 157.635 50.6959 158.628V158.624ZM64.6626 41.7393C55.8363 42.6173 51.4346 43.8096 46.3401 45.1936L45.5172 45.416C40.4801 46.7808 32.76 50.166 25.9508 53.1564C25.3651 53.4132 24.7872 53.6663 24.2207 53.9155C17.2354 56.9748 13.7102 59.6163 13.6758 59.6393L13.6452 59.6623C13.5916 59.6968 8.25214 63.0552 4.61214 68.526L4.60448 68.5337C1.3013 73.2186 0.738652 80.7558 0.845823 86.2573C0.964478 92.2495 1.88309 97.1759 1.89075 97.2258V97.2526C1.92137 97.4711 4.63127 119.17 10.1506 136.307C12.7648 144.431 15.9761 149.764 20.2515 153.099C22.7356 155.035 26.1536 156.983 34.3025 158.129C45.0464 159.636 70.7561 154.94 71.0164 154.89C71.1848 154.859 87.7466 151.938 103.225 147.502C118.432 143.143 126.757 136.219 127.04 135.982C127.27 135.763 133.36 129.882 134.129 121.486C134.921 112.856 132.192 96.574 132.162 96.413C132.123 96.1983 128.411 74.6639 124.637 63.6686C120.79 52.4586 118.111 48.7897 110.287 44.0435C106.222 41.5745 99.0762 40.7502 93.8018 40.4934C88.0528 40.2135 83.2148 40.5279 83.165 40.5317H83.1497C83.0579 40.5317 73.8717 40.8269 64.6626 41.7393Z" fill="#781B1C"/>
<path d="M27.1298 155.269C25.4495 155.434 22.6362 154.863 18.7819 151.201C16.4815 149.016 14.8816 146.727 14.8624 146.704C14.8471 146.681 13.163 144.366 11.6014 139.803C10.1584 135.594 8.52401 128.559 8.92208 118.932C9.0369 116.195 9.78711 113.542 11.0961 111.261C12.5276 108.765 15.184 105.694 19.7043 105.246C24.2285 104.797 27.6235 108.067 29.6789 110.889C31.8989 113.941 33.0701 117.138 33.0816 117.173C33.0969 117.219 34.6662 121.788 35.4547 128.038C36.1819 133.807 36.3695 142.234 33.1467 149.61C31.6118 153.122 29.587 155.027 27.1298 155.273V155.269ZM8.97184 118.936H9.02542C8.62736 128.547 10.2579 135.567 11.6971 139.765C13.2549 144.312 14.9313 146.62 14.9466 146.643C15.0117 146.735 21.354 155.737 27.1144 155.165C29.5296 154.924 31.5238 153.041 33.0433 149.564C36.2585 142.215 36.0671 133.807 35.3437 128.049C34.559 121.808 32.9897 117.249 32.9744 117.207C32.9629 117.176 31.7955 113.991 29.5832 110.95C27.547 108.152 24.1787 104.908 19.7043 105.353C15.2261 105.798 12.5965 108.842 11.1765 111.318C9.87514 113.588 9.12877 116.222 9.01394 118.944H8.96035L8.97184 118.936Z" fill="#606060"/>
<path d="M8.97173 118.937C9.08273 116.253 9.80231 113.619 11.1381 111.288C12.6998 108.563 15.3523 105.729 19.708 105.3C28.4157 104.434 33.0317 117.189 33.0317 117.189C33.0317 117.189 39.3319 135.334 33.0968 149.588C26.8655 163.838 14.9044 146.674 14.9044 146.674C14.9044 146.674 8.19857 137.558 8.97173 118.937Z" fill="#232323"/>
<path d="M27.164 155.634C21.1509 156.228 14.8738 147.353 14.5676 146.916C14.4604 146.766 12.8184 144.477 11.2567 139.923C9.80225 135.686 8.1564 128.602 8.55829 118.917C8.67312 116.123 9.44246 113.412 10.7821 111.077C12.8949 107.389 15.9684 105.246 19.6697 104.882C23.3862 104.514 26.9497 106.515 29.9735 110.671C32.2241 113.765 33.3762 116.912 33.4221 117.043C33.4412 117.092 35.022 121.697 35.8143 127.988C36.5454 133.804 36.7367 142.303 33.4795 149.753C31.8872 153.395 29.7629 155.373 27.1679 155.634H27.164ZM9.38887 118.952C8.99463 128.483 10.606 135.445 12.0299 139.608C13.5724 144.117 15.2259 146.406 15.2412 146.425C15.3101 146.521 21.5337 155.35 27.0798 154.802C29.3534 154.575 31.248 152.766 32.7102 149.419C35.887 142.15 35.6995 133.819 34.9837 128.115C34.2029 121.908 32.6451 117.372 32.6298 117.326C32.6221 117.299 31.4662 114.148 29.2807 111.15C26.4023 107.201 23.191 105.373 19.7424 105.714C16.2708 106.059 13.4958 108.003 11.494 111.495C10.2233 113.711 9.49221 116.291 9.38121 118.952H9.38887Z" fill="#781B1C"/>
<path d="M33.0277 117.189C33.0277 117.189 28.4155 104.434 19.704 105.3C19.26 105.342 18.8352 105.415 18.4294 105.503C26.3793 105.795 30.5858 117.43 30.5858 117.43C30.5858 117.43 36.8744 135.575 30.6585 149.826C29.2806 152.985 27.6232 154.599 25.874 155.201C28.4806 155.507 31.0872 154.181 33.0966 149.584C39.3279 135.334 33.0316 117.185 33.0316 117.185L33.0277 117.189Z" fill="white"/>
<path d="M27.1793 155.634C26.743 155.676 26.2913 155.672 25.8244 155.618L24.0063 155.404L25.7363 154.809C27.5276 154.192 29.0548 152.463 30.2758 149.664C33.445 142.395 33.2575 134.068 32.5417 128.36C31.7609 122.153 30.2069 117.618 30.1916 117.572C30.184 117.549 29.1314 114.67 27.1372 111.802C25.3268 109.199 22.3451 106.066 18.4142 105.921L15.1685 105.802L18.3377 105.097C18.774 105.001 19.2218 104.928 19.662 104.882C23.3786 104.514 26.942 106.515 29.9658 110.671C32.2164 113.765 33.3685 116.912 33.4144 117.043C33.4297 117.092 35.0143 121.697 35.8028 127.988C36.5339 133.804 36.7252 142.303 33.468 149.753C31.8719 153.402 29.7553 155.377 27.1717 155.634H27.1793ZM21.3844 105.714C23.6962 106.634 25.8894 108.535 27.8338 111.334C29.8854 114.29 30.9342 117.165 30.9801 117.284C30.9992 117.334 32.5762 121.938 33.3685 128.23C34.0995 134.045 34.2909 142.545 31.0413 149.99C30.1036 152.141 28.9744 153.717 27.6731 154.698C29.6902 154.234 31.382 152.463 32.714 149.415C35.8947 142.139 35.7033 133.804 34.9875 128.092C34.2144 121.95 32.6833 117.457 32.6374 117.326C32.5991 117.219 31.447 114.11 29.2883 111.15C26.8693 107.83 24.2168 106.009 21.3844 105.714Z" fill="#781B1C"/>
<path d="M43.8484 158.728C44.4263 160.84 45.6014 164.996 46.2712 166.315C47.1822 168.113 51.9016 167.12 51.9016 167.12C51.9016 167.12 63.8665 164.252 66.0559 160.993C66.5688 160.23 66.1286 158.501 65.1564 156.301C59.6217 157.171 51.1514 158.352 43.8484 158.728Z" fill="#FFA300"/>
<path d="M50.4967 167.752C48.9198 167.91 46.5965 167.879 45.8998 166.506C45.2224 165.172 44.0741 161.131 43.4464 158.839L43.3086 158.337L43.8253 158.31C51.0288 157.938 59.3652 156.788 65.0874 155.887L65.4051 155.837L65.5352 156.128C66.6988 158.754 66.9705 160.372 66.4002 161.223C64.1458 164.578 52.4909 167.403 51.9971 167.522H51.9857C51.8211 167.561 51.2431 167.676 50.4967 167.748V167.752ZM44.388 159.115C44.9468 161.135 46.03 164.919 46.6424 166.127C47.2663 167.357 50.6575 166.951 51.8096 166.713C51.955 166.679 54.8831 165.966 58.0294 164.885C62.2129 163.443 64.8692 162.021 65.7113 160.763C65.9218 160.453 66.0825 159.517 64.9037 156.765C59.3116 157.639 51.3733 158.728 44.388 159.119V159.115Z" fill="#781B1C"/>
<path d="M62.125 161.487C61.5662 160.076 57.1913 161.349 55.0441 162.925C49.1381 163.362 47.3201 165.597 46.7612 166.854C48.2655 167.882 51.8978 167.115 51.8978 167.115C51.8978 167.115 63.8627 164.247 66.0521 160.989C66.1822 160.793 66.2511 160.536 66.2664 160.222C65.1833 160.126 63.2427 160.563 62.125 161.483V161.487Z" fill="#FFA300"/>
<path d="M50.539 167.74C49.2874 167.863 47.5267 167.882 46.5239 167.204L46.2368 167.008L46.3784 166.69C46.9794 165.333 48.8855 162.998 54.8909 162.523C55.7713 161.902 57.0114 161.304 58.2477 160.916C59.0553 160.663 60.5633 160.28 61.5815 160.571C61.8647 160.652 62.0676 160.775 62.213 160.909C63.4225 160.107 65.2023 159.716 66.3009 159.816L66.6989 159.851L66.6798 160.249C66.6606 160.644 66.565 160.974 66.3965 161.231C64.1421 164.585 52.4872 167.411 51.9935 167.53H51.982C51.9207 167.545 51.3313 167.668 50.539 167.744V167.74ZM47.3162 166.682C48.564 167.208 50.9217 166.897 51.8059 166.709C51.9514 166.675 54.8794 165.962 58.0257 164.88C62.2092 163.439 64.8655 162.017 65.7076 160.759C65.7305 160.721 65.7535 160.679 65.7726 160.633C64.7124 160.671 63.2465 161.104 62.3891 161.81L61.9489 162.174L61.7384 161.641C61.7193 161.595 61.6657 161.457 61.3557 161.369C60.1423 161.02 57.0229 161.99 55.2928 163.263L55.1971 163.332L55.0785 163.339C49.9227 163.723 48.0205 165.467 47.32 166.679L47.3162 166.682Z" fill="#781B1C"/>
<path d="M53.9732 158.418L53.1831 158.687L54.6627 163.05L55.4528 162.781L53.9732 158.418Z" fill="#781B1C"/>
<path d="M61.4139 157.703L60.6155 157.946L61.7264 161.611L62.5248 161.368L61.4139 157.703Z" fill="#781B1C"/>
<path d="M91.7464 150.941C86.5256 152.199 81.7182 153.226 78.0591 153.966L78.7174 161.465C78.7174 161.465 78.4457 164.011 82.3038 163.834C86.162 163.662 88.7954 163.819 89.1054 162.738C90.0087 163.382 94.5673 162.93 95.8228 161.86C97.6255 162.101 99.2446 161.519 99.0991 160.066L98.6934 155.964C98.6934 155.964 99.0073 152.525 91.7464 150.938V150.941Z" fill="#FFA300"/>
<path d="M87.0615 164.045C86.2998 164.122 85.3774 164.149 84.3018 164.183C83.6741 164.202 83.0234 164.221 82.3191 164.256C80.7766 164.325 79.6475 163.988 78.9585 163.259C78.2849 162.542 78.2849 161.687 78.2964 161.473L77.6074 153.632L77.971 153.56C82.6521 152.613 87.249 151.597 91.6431 150.539L91.7349 150.516L91.8268 150.535C98.9881 152.103 99.1183 155.496 99.103 155.96L99.5049 160.031C99.5661 160.637 99.3785 161.166 98.9652 161.568C98.3451 162.167 97.2198 162.439 95.9338 162.301C94.9348 163.01 92.9751 163.29 92.3703 163.363C91.8344 163.428 90.2154 163.581 89.2738 163.282C88.8949 163.735 88.1447 163.938 87.0538 164.049L87.0615 164.045ZM78.5069 154.3L79.1346 161.469V161.511C79.127 161.534 79.0772 162.17 79.5786 162.696C80.0877 163.228 81.0216 163.478 82.2847 163.42C82.9928 163.389 83.6473 163.366 84.2789 163.347C86.4682 163.278 88.5351 163.217 88.7073 162.627L88.8719 162.059L89.3504 162.4C89.6259 162.6 90.7512 162.711 92.2861 162.531C93.7788 162.354 95.0611 161.967 95.5587 161.545L95.7003 161.427L95.884 161.45C96.9787 161.595 97.9432 161.411 98.4025 160.967C98.6322 160.744 98.7279 160.464 98.6934 160.112L98.2839 155.971V155.933C98.2877 155.906 98.3298 155.174 97.5719 154.246C96.8524 153.364 95.2601 152.153 91.7617 151.374C87.5017 152.398 83.0464 153.383 78.5184 154.307L78.5069 154.3Z" fill="#781B1C"/>
<path d="M98.3298 154.637C97.7135 153.495 96.0792 151.888 91.7502 150.941C86.6634 152.164 81.9746 153.173 78.3538 153.909C80.9067 155.565 85.7945 158.183 88.4355 155.979C92.6803 157.566 94.5175 154.971 94.5175 154.971C94.5175 154.971 97.591 155.672 98.3336 154.637H98.3298Z" fill="#FFA300"/>
<path d="M91.6202 156.883C90.7666 156.968 89.7332 156.872 88.5045 156.446C85.6492 158.543 80.7997 155.994 78.1242 154.257L77.2668 153.701L78.2658 153.498C82.8474 152.567 87.3525 151.57 91.6508 150.535L91.7427 150.512L91.8345 150.531C96.2898 151.505 98.0237 153.192 98.6935 154.434L98.816 154.664L98.6629 154.875C97.8935 155.944 95.5549 155.599 94.6669 155.423C94.2842 155.841 93.3005 156.711 91.6163 156.88L91.6202 156.883ZM88.3476 155.499L88.5734 155.584C92.4431 157.033 94.1004 154.821 94.1693 154.725L94.3301 154.503L94.598 154.56C96.2132 154.928 97.3232 154.798 97.7864 154.549C97.0936 153.506 95.4783 152.199 91.7465 151.367C87.7888 152.317 83.6589 153.238 79.4524 154.104C81.8178 155.515 85.9592 157.489 88.1562 155.653L88.3438 155.496L88.3476 155.499Z" fill="#781B1C"/>
<path d="M89.0392 157.899L88.209 157.982L88.6884 162.785L89.5187 162.702L89.0392 157.899Z" fill="#781B1C"/>
<path d="M95.6947 156.657L94.8647 156.743L95.3997 161.91L96.2296 161.824L95.6947 156.657Z" fill="#781B1C"/>
<path d="M132.575 96.3401C132.575 96.3401 128.862 74.6869 125.035 63.5305C124.15 60.9504 123.327 58.7651 122.482 56.8636C119.844 54.0802 116.89 52.6962 113.644 53.7007C98.7125 58.3319 105.158 85.3755 108.117 92.0041C109.675 95.489 109.039 98.0346 108.086 99.6602C108.572 101.132 108.974 103.456 106.758 103.674C102.888 104.058 101.231 101.251 100.672 99.9362C99.0301 98.9854 97.679 97.6244 97.7671 95.7459C97.8092 94.8372 97.7671 93.9286 97.6905 93.02C95.7691 71.0179 86.6978 63.9292 86.6978 63.9292C86.6978 63.9292 74.0209 49.0388 55.1319 63.3963C36.243 77.7539 44.0167 103.406 44.0167 103.406C44.0167 103.406 46.5429 120.458 58.3509 130.959C73.3396 146.072 90.334 144.006 112.224 139.838C125.471 137.316 131.162 130.833 133.589 126.106C134.048 124.687 134.393 123.154 134.542 121.524C135.346 112.741 132.571 96.3401 132.571 96.3401H132.575Z" fill="white"/>
<path d="M95.593 142.871C91.1339 143.316 86.8088 143.442 82.6636 143.044C72.9301 142.108 65.1142 138.366 58.0677 131.262C51.9092 125.784 48.3074 118.523 46.3707 113.393C44.365 108.083 43.6761 103.893 43.6148 103.498C43.4732 103.011 41.6781 96.6663 42.08 88.7649C42.325 83.9496 43.3239 79.4986 45.0502 75.5383C47.2089 70.5812 50.5197 66.3832 54.887 63.0631C59.2504 59.7469 63.6521 57.7112 67.9734 57.0096C71.445 56.446 74.8668 56.7412 78.1432 57.8837C83.5133 59.7546 86.6557 63.2357 86.9963 63.6267C87.3025 63.8759 89.4613 65.72 91.8459 70.0215C94.1539 74.185 97.1126 81.5458 98.1116 92.9859C98.2034 94.0555 98.2302 94.9411 98.1919 95.7654C98.123 97.2184 99.0302 98.4989 100.89 99.5762L101.009 99.6452L101.063 99.7717C101.679 101.221 103.233 103.602 106.724 103.257C107.244 103.203 107.6 103.023 107.811 102.697C108.17 102.141 108.132 101.106 107.696 99.787L107.638 99.6068L107.734 99.442C109.261 96.8312 108.584 94.044 107.742 92.1654C105.659 87.4997 101.128 70.6234 105.751 60.3833C107.382 56.7719 109.996 54.3873 113.521 53.2946C116.683 52.3132 119.802 53.4135 122.788 56.5687L122.838 56.6224L122.868 56.6876C123.668 58.4933 124.483 60.621 125.433 63.389C129.226 74.4495 132.954 96.0452 132.992 96.2638C133.019 96.4286 135.767 112.818 134.967 121.555C134.825 123.108 134.496 124.68 133.995 126.229L133.983 126.259L133.968 126.29C131.415 131.259 125.586 137.715 112.308 140.241C106.613 141.326 101.009 142.327 95.5969 142.863L95.593 142.871ZM69.3781 57.669C68.9456 57.7112 68.5131 57.7687 68.0767 57.8415C63.9009 58.5239 59.6293 60.506 55.3846 63.7302C51.136 66.9583 47.917 71.0374 45.8157 75.8603C44.1316 79.7248 43.1517 84.0723 42.9106 88.784C42.4972 96.8312 44.3995 103.226 44.4186 103.291L44.4301 103.352C44.4378 103.395 45.0846 107.65 47.1553 113.125C49.0615 118.162 52.5981 125.293 58.6303 130.653L58.6495 130.672C65.5544 137.634 73.2095 141.303 82.7401 142.219C91.8076 143.09 101.824 141.399 112.147 139.436C125.065 136.979 130.73 130.753 133.206 125.953C133.685 124.473 133.995 122.974 134.129 121.494C134.921 112.872 132.196 96.605 132.161 96.421C132.119 96.1718 128.407 74.6642 124.637 63.6766C123.706 60.9699 122.91 58.8805 122.126 57.1093C119.393 54.2454 116.58 53.2371 113.762 54.1112C110.475 55.131 108.033 57.3623 106.505 60.7475C104.117 66.0305 104.385 73.0808 105.028 78.0648C105.778 83.8768 107.351 89.2824 108.496 91.8472C110.103 95.451 109.433 98.0963 108.538 99.7218C108.875 100.811 109.112 102.229 108.503 103.168C108.151 103.709 107.577 104.023 106.8 104.104C102.758 104.506 100.971 101.639 100.347 100.243C98.2761 99.0088 97.2695 97.4944 97.3537 95.7385C97.392 94.9488 97.3652 94.1015 97.2771 93.0702C96.2935 81.8142 93.3998 74.5837 91.1416 70.4969C88.6996 66.0765 86.4643 64.29 86.4413 64.2708L86.4069 64.244L86.3801 64.2133C86.3495 64.1788 83.1956 60.5367 77.8255 58.6735C75.0926 57.7265 72.2564 57.393 69.3743 57.6805L69.3781 57.669Z" fill="#781B1C"/>
<path d="M76.0956 101.689C76.0956 101.689 74.4268 100.699 72.8804 92.4645C71.9695 87.6185 72.0231 84.816 72.2183 83.3324C72.3905 82.048 73.1637 80.9056 74.3311 80.342C75.5521 79.7554 77.462 79.6136 79.594 82.0404C81.7259 84.4672 83.2569 94.2778 83.7737 98.127C83.9459 99.4113 83.345 100.688 82.2273 101.332C80.9872 102.049 79.0122 102.551 76.0956 101.685V101.689Z" fill="#D3D3D3"/>
<path d="M119.6 86.5755C119.6 86.5755 116.985 75.8141 120.591 75.2467C124.2 74.6793 125.341 80.3916 125.341 80.3916C125.341 80.3916 127.304 88.8681 127.66 93.645C128.016 98.4219 122.773 96.2137 122.773 96.2137C122.773 96.2137 121.337 94.8028 119.6 86.5755Z" fill="#D3D3D3"/>
<path d="M125.854 93.4958C125.854 93.4958 124.652 81.3465 121.842 78.3753C120.939 77.4169 119.879 77.2827 118.853 77.5357C118.206 80.8558 119.596 86.5796 119.596 86.5796C120.824 92.3916 121.9 94.8031 122.428 95.7155C123.117 95.7577 123.756 95.7654 124.242 95.704C126.263 95.451 125.854 93.4996 125.854 93.4996V93.4958Z" fill="#232323"/>
<path d="M124.17 96.1292C123.714 96.1752 123.121 96.1752 122.401 96.1292L122.179 96.1139L122.068 95.9183C121.525 94.9752 120.426 92.5178 119.194 86.6674C119.117 86.353 117.797 80.7979 118.447 77.451L118.497 77.1903L118.754 77.1251C120.07 76.7954 121.245 77.1251 122.145 78.0835C124.989 81.0931 126.194 92.7171 126.263 93.434C126.294 93.6027 126.424 94.5113 125.904 95.2436C125.555 95.7305 125.016 96.0218 124.292 96.1139C124.254 96.1177 124.212 96.1215 124.17 96.1292ZM122.685 95.3088C123.312 95.3394 123.821 95.3318 124.193 95.2858C124.675 95.2244 125.023 95.0481 125.23 94.7605C125.578 94.2698 125.448 93.5874 125.448 93.5797L125.44 93.5337C125.429 93.4149 124.219 81.4918 121.544 78.6586C120.901 77.98 120.139 77.7232 119.221 77.8842C118.719 81.1122 119.994 86.422 120.009 86.4795V86.491C121.146 91.8622 122.137 94.2813 122.688 95.3088H122.685Z" fill="#781B1C"/>
<path d="M74.5375 117.81C77.8183 117.81 80.4779 115.146 80.4779 111.86C80.4779 108.574 77.8183 105.91 74.5375 105.91C71.2568 105.91 68.5972 108.574 68.5972 111.86C68.5972 115.146 71.2568 117.81 74.5375 117.81Z" fill="#F97575"/>
<path d="M75.1653 118.193C71.6784 118.538 68.559 115.981 68.2145 112.488C67.87 108.996 70.423 105.871 73.9099 105.526C77.3968 105.181 80.5162 107.738 80.8607 111.231C81.2052 114.724 78.6522 117.848 75.1653 118.193ZM73.9941 106.354C70.9627 106.657 68.7427 109.368 69.0451 112.404C69.3474 115.44 72.0535 117.664 75.0849 117.361C78.1164 117.058 80.3364 114.348 80.034 111.311C79.7316 108.275 77.0255 106.052 73.9941 106.354Z" fill="#781B1C"/>
<path d="M131.28 110.323C132.912 110.161 133.973 107.379 133.649 104.109C133.326 100.839 131.74 98.319 130.108 98.481C128.475 98.643 127.414 101.425 127.738 104.695C128.062 107.966 129.647 110.485 131.28 110.323Z" fill="#F97575"/>
<path d="M131.331 110.724C129.44 110.912 127.687 108.278 127.335 104.724C126.983 101.17 128.189 98.2413 130.075 98.0534C131.962 97.8655 133.719 100.499 134.071 104.053C134.424 107.607 133.218 110.536 131.331 110.724ZM130.156 98.8853C128.931 99.008 127.836 101.35 128.162 104.64C128.487 107.933 130.022 110.015 131.247 109.892C132.472 109.769 133.566 107.427 133.241 104.138C132.916 100.848 131.381 98.7627 130.156 98.8853Z" fill="#781B1C"/>
<path d="M75.6132 82.0216C74.1511 81.7877 73.0564 82.3283 72.245 83.1602C72.2335 83.2177 72.2258 83.2752 72.2182 83.3327C72.0191 84.8164 71.9656 87.6151 72.8803 92.4648C74.1779 99.3733 75.5635 101.183 75.973 101.585C79.2992 101.9 81.8828 101.214 81.6301 98.2155C80.9603 90.222 78.7059 84.2643 78.7059 84.2643C78.7059 84.2643 77.9672 82.52 75.6132 82.0177V82.0216Z" fill="#232323"/>
<path d="M78.3613 102.022C77.6494 102.091 76.8418 102.083 75.9309 101.999L75.7854 101.984L75.6782 101.88C75.1424 101.355 73.753 99.3958 72.4669 92.5372C71.5483 87.6529 71.5981 84.8044 71.8047 83.2747C71.8124 83.2134 71.8239 83.152 71.8354 83.0907L71.8583 82.9642L71.9502 82.8645C72.9875 81.7987 74.2429 81.377 75.6821 81.6032H75.705C78.2427 82.1476 79.0618 84.0185 79.0962 84.099L79.1039 84.1143C79.1269 84.1757 81.3851 90.2139 82.0549 98.1767C82.1506 99.3306 81.8636 100.251 81.2014 100.906C80.5813 101.52 79.6321 101.892 78.3728 102.018L78.3613 102.022ZM76.1682 101.182C78.346 101.37 79.8388 101.079 80.6043 100.316C81.0904 99.8329 81.2894 99.1581 81.2129 98.2495C80.5698 90.5589 78.4188 84.6932 78.3192 84.421C78.2657 84.3022 77.5805 82.8683 75.5366 82.4313C74.4113 82.2549 73.4621 82.5616 72.6353 83.3629C72.6353 83.3706 72.6353 83.3821 72.6315 83.3897C72.4363 84.8581 72.3904 87.6107 73.2898 92.3876C73.841 95.3167 74.4649 97.6476 75.1462 99.3076C75.6017 100.423 75.9729 100.952 76.172 101.186L76.1682 101.182Z" fill="#781B1C"/>
<path d="M76.6049 93.4347C77.7934 93.3167 78.6437 92.0767 78.504 90.665C78.3643 89.2533 77.2876 88.2045 76.099 88.3225C74.9105 88.4405 74.0603 89.6805 74.1999 91.0923C74.3396 92.504 75.4164 93.5527 76.6049 93.4347Z" fill="white"/>
<path d="M76.6544 93.8408C75.2383 93.9827 73.956 92.7635 73.7953 91.1265C73.6345 89.4895 74.6526 88.0403 76.0688 87.9023C77.485 87.7643 78.7673 88.9796 78.928 90.6166C79.0888 92.2536 78.0706 93.7028 76.6544 93.8408ZM76.1492 88.7342C75.1923 88.8301 74.5072 89.8652 74.6258 91.046C74.7445 92.2268 75.6172 93.1086 76.5741 93.0127C77.531 92.9169 78.2161 91.8818 78.0974 90.7009C77.9788 89.5201 77.1061 88.6384 76.1492 88.7342Z" fill="#781B1C"/>
<path d="M122.294 87.917C123.087 87.774 123.544 86.6311 123.317 85.3641C123.089 84.0971 122.262 83.186 121.469 83.329C120.676 83.472 120.218 84.615 120.446 85.8819C120.674 87.1489 121.501 88.06 122.294 87.917Z" fill="white"/>
<path d="M122.26 88.3432C121.766 88.3931 121.268 88.1707 120.851 87.7107C120.449 87.2698 120.162 86.6449 120.036 85.9586C119.764 84.4404 120.361 83.1063 121.395 82.9222C122.428 82.7344 123.454 83.7772 123.726 85.2954C123.997 86.8135 123.4 88.1477 122.367 88.3317C122.333 88.3394 122.294 88.3432 122.26 88.3471V88.3432ZM121.578 83.735C121.578 83.735 121.556 83.735 121.54 83.7388C121.054 83.827 120.652 84.6973 120.855 85.8053C120.951 86.3343 121.173 86.8212 121.464 87.1433C121.609 87.3004 121.9 87.5611 122.218 87.5036C122.704 87.4155 123.106 86.5452 122.903 85.4372C122.708 84.3561 122.057 83.6852 121.575 83.735H121.578Z" fill="#781B1C"/>
<path d="M103.087 93.7446C103.317 93.6526 103.566 93.6181 103.815 93.6334C104.883 93.7139 108.082 94.2545 109.223 97.8736C109.284 98.4985 108.611 98.0384 107.99 98.0998C107.37 98.1611 100.837 99.8595 100.102 98.7783C99.4091 97.7624 101.101 94.5535 103.091 93.7446H103.087Z" fill="#FFA300"/>
<path d="M102.555 99.4911C100.917 99.6521 100.079 99.4911 99.7536 99.0119C99.4742 98.6017 99.4474 97.9844 99.6771 97.2215C100.098 95.8183 101.384 93.9858 102.927 93.357C103.21 93.242 103.524 93.1922 103.841 93.219C104.886 93.2957 108.389 93.8516 109.617 97.7506L109.629 97.7927V97.8349C109.659 98.1071 109.594 98.318 109.437 98.4598C109.185 98.6898 108.848 98.6285 108.549 98.571C108.369 98.5365 108.186 98.502 108.029 98.5173C107.933 98.5288 107.543 98.6093 107.133 98.6975C105.17 99.1192 103.673 99.3838 102.555 99.4949V99.4911ZM103.244 94.1315C102.004 94.6375 100.841 96.2554 100.477 97.4669C100.328 97.9576 100.316 98.3601 100.443 98.548C100.454 98.5633 100.733 98.8969 103.019 98.6055C104.408 98.4291 105.943 98.0994 106.957 97.8809C107.527 97.7582 107.807 97.7007 107.945 97.6854C108.224 97.6585 108.488 97.7084 108.702 97.7467C108.714 97.7467 108.725 97.7506 108.741 97.7544C107.642 94.6644 104.921 94.1353 103.78 94.0509C103.589 94.0356 103.405 94.0663 103.241 94.1315H103.244Z" fill="#781B1C"/>
<path d="M107.217 98.2529C105.66 98.5865 102.284 99.3302 100.779 99.0925L100.439 99.288C100.439 99.288 101.729 104.176 106.758 103.678C110.023 103.352 107.6 98.4561 107.6 98.4561L107.213 98.2529H107.217Z" fill="#FFA300"/>
<path d="M106.8 104.092C104.018 104.368 102.326 103.072 101.392 101.934C100.393 100.718 100.052 99.4456 100.037 99.392L99.9565 99.0814L100.703 98.6559L100.848 98.6789C102.222 98.8936 105.426 98.2073 106.961 97.8776L107.279 97.8086L107.918 98.1421L107.979 98.2648C108.04 98.3913 109.499 101.374 108.58 103.034C108.239 103.651 107.642 104.004 106.804 104.088L106.8 104.092ZM100.959 99.5338C101.354 100.6 102.827 103.647 106.72 103.26C107.279 103.207 107.646 103 107.849 102.631C108.408 101.623 107.681 99.599 107.29 98.7594L107.16 98.6904H107.137C105.514 99.0431 102.563 99.6756 100.963 99.5338H100.959Z" fill="#781B1C"/>
<path d="M104.523 99.0736C104.523 99.0736 102.885 99.4455 103.826 100.507C104.768 101.569 106.261 101.838 106.655 101.589C107.049 101.339 107.267 100.373 105.908 99.3573C105.235 98.9011 104.519 99.0775 104.519 99.0775L104.523 99.0736Z" fill="#F97575"/>
<path d="M106.417 102.083C105.61 102.164 104.324 101.688 103.52 100.784C103.076 100.285 103.084 99.8712 103.168 99.6105C103.386 98.9242 104.328 98.6942 104.435 98.6674C104.527 98.6444 105.361 98.4757 106.15 99.0086L106.165 99.0201C107.256 99.8367 107.39 100.615 107.374 101.002C107.359 101.405 107.175 101.754 106.881 101.941C106.758 102.018 106.601 102.064 106.417 102.083ZM104.619 99.4802C104.343 99.5453 104.006 99.7178 103.96 99.8635C103.937 99.9364 104.006 100.074 104.144 100.228C104.978 101.163 106.234 101.332 106.444 101.232C106.479 101.209 106.536 101.121 106.544 100.971C106.551 100.791 106.483 100.304 105.675 99.6987C105.17 99.3613 104.634 99.4802 104.626 99.484H104.619V99.4802Z" fill="#781B1C"/>
</svg>
