<svg width="169" height="195" viewBox="0 0 169 195" fill="none" xmlns="http://www.w3.org/2000/svg">
<g clip-path="url(#clip0_1_10716)">
<path d="M84.887 197.834C115.522 197.001 140.275 193.245 140.174 189.446C140.073 185.646 115.156 183.241 84.5212 184.074C53.886 184.907 29.1332 188.662 29.2342 192.462C29.3352 196.262 54.2518 198.666 84.887 197.834Z" fill="#E5CF91"/>
<path d="M29.4853 122.405C29.4853 122.405 28.3348 95.1031 33.5663 84.3058C38.7978 73.5085 44.2391 68.7484 59.4126 66.3153C74.5862 63.8823 106.072 65.3641 111.78 66.3153C111.78 66.3153 131.042 67.1074 137.529 82.7709C144.016 98.4344 142.03 123.197 142.03 123.197C142.03 123.197 143.39 151.242 136.903 164.999C130.416 178.757 114.928 179.499 114.928 179.499C114.928 179.499 82.0174 182.888 56.9281 179.499C33.7237 178.018 31.3178 153.994 31.3178 153.994C31.3178 153.994 30.2723 139.388 29.4853 122.405Z" fill="#232323"/>
<path d="M83.2128 181.424C74.811 181.424 65.3936 181.068 56.8868 179.92C51.5242 179.575 46.8173 177.998 42.8975 175.235C39.7608 173.022 37.1226 170.051 35.0577 166.401C31.5501 160.205 30.9243 154.285 30.9018 154.039V154.027C30.8905 153.88 29.845 139.224 29.0693 122.428C29.0693 122.356 28.7845 115.488 29.148 107.386C29.6351 96.4784 30.9992 88.6524 33.1915 84.1197C36.0808 78.162 38.8689 74.4859 42.519 71.833C46.4651 68.964 51.6553 67.1335 59.3489 65.8981C63.1263 65.2917 72.0229 64.3215 89.1563 64.6247C99.6643 64.8104 108.917 65.4167 111.829 65.8943C112.26 65.9132 116.903 66.1785 122.374 68.2743C125.683 69.5439 128.599 71.2228 131.038 73.2655C134.096 75.8275 136.412 78.9693 137.919 82.6075C141.295 90.7557 142.344 101.371 142.633 108.841C142.933 116.648 142.487 122.742 142.449 123.204C142.472 123.693 142.768 130.583 142.318 138.963C141.887 146.967 140.662 158.014 137.281 165.181C135.775 168.376 133.661 171.139 131.001 173.394C128.876 175.194 126.399 176.679 123.637 177.801C119.024 179.677 115.239 179.905 114.958 179.92C114.605 179.954 106.406 180.78 95.3509 181.189C91.7721 181.322 87.6349 181.42 83.2128 181.42V181.424ZM31.7337 153.959C31.7562 154.164 32.4158 160.042 35.7997 166.011C37.8046 169.543 40.3567 172.42 43.3921 174.557C47.1846 177.225 51.749 178.749 56.9542 179.082H56.9842C81.7363 182.425 114.557 179.116 114.887 179.082H114.909C114.946 179.082 118.788 178.874 123.356 177.009C126.028 175.918 128.426 174.481 130.48 172.738C133.043 170.563 135.078 167.898 136.528 164.821C139.155 159.246 140.872 150.294 141.486 138.929C141.951 130.318 141.621 123.292 141.617 123.223V123.197V123.17C141.621 123.11 142.108 116.902 141.797 108.871C141.512 101.473 140.474 90.9717 137.147 82.941C135.696 79.4354 133.463 76.4073 130.517 73.9325C128.153 71.9467 125.319 70.317 122.1 69.0777C116.599 66.963 111.814 66.7432 111.765 66.7394H111.712C106.361 65.8412 74.7773 64.2798 59.4763 66.7356C51.9176 67.9484 46.8398 69.7334 43.0024 72.5227C39.4723 75.0885 36.7628 78.6699 33.9372 84.4949C31.2653 90.0053 30.3097 100.007 29.9762 107.424C29.6164 115.443 29.8937 122.246 29.8975 122.386C30.6657 139.027 31.7 153.565 31.7262 153.959H31.7337Z" fill="#781B1C"/>
<path d="M30.7407 113.624C30.7407 113.624 31.0555 99.7605 40.8926 95.7395C50.7297 91.7185 56.276 92.9881 56.276 92.9881C56.276 92.9881 71.5545 93.7271 76.5761 108.333C81.5977 122.939 78.3561 135.109 78.3561 135.109C78.3561 135.109 78.8321 141.953 86.1809 141.953C86.1809 141.953 93.4247 142.196 93.3198 135.211C91.4348 128.12 90.5991 111.93 99.7018 100.5C108.804 89.0693 126.388 93.621 128.898 94.8906C131.409 96.1602 139.05 99.5483 140.306 109.599C141.561 119.653 141.141 137.219 141.141 137.219C141.141 137.219 141.141 159.549 131.724 167.697C122.307 175.846 112.994 177.221 112.994 177.221C112.994 177.221 107.553 178.809 88.7179 178.809C69.8831 178.809 60.1509 178.385 52.0938 175.421C44.0367 172.458 34.5144 165.473 32.0036 150.977C29.4928 136.477 30.7482 113.62 30.7482 113.62L30.7407 113.624Z" fill="white"/>
<path d="M88.7141 179.238C69.3284 179.238 59.9335 178.764 51.9439 175.827C45.5357 173.47 34.3645 167.118 31.5838 151.057C29.1067 136.765 30.2947 114.117 30.3209 113.609C30.3247 113.385 30.4334 109.99 31.73 106.056C33.4801 100.742 36.5942 97.0398 40.7352 95.3457C50.2763 91.4459 55.7888 92.4503 56.3322 92.564C56.7556 92.5905 60.4244 92.8558 64.7153 94.7962C67.3423 95.9824 69.6545 97.5552 71.5807 99.4691C73.994 101.864 75.8078 104.798 76.9733 108.19C79.589 115.796 79.9375 122.731 79.7689 127.207C79.6003 131.706 78.9107 134.624 78.7796 135.135C78.8133 135.454 79.0119 136.905 79.8851 138.33C81.1817 140.449 83.299 141.525 86.1808 141.525H86.1958C86.2258 141.525 89.3737 141.601 91.3261 139.657C92.3904 138.599 92.9188 137.121 92.9001 135.264C92.4429 133.521 91.0975 127.472 91.9744 119.43C92.7914 111.919 95.3509 105.279 99.3757 100.227C104.292 94.0571 111.544 92.6208 116.764 92.5033C122.419 92.3707 127.579 93.7426 129.086 94.5044C129.191 94.5574 129.307 94.6143 129.43 94.6787C132.181 96.0506 139.489 99.6889 140.718 109.543C141.962 119.514 141.561 137.049 141.557 137.227C141.557 137.273 141.542 142.912 140.373 149.476C139.684 153.338 138.735 156.764 137.551 159.66C136.06 163.305 134.19 166.117 131.99 168.02C127.081 172.268 122.198 174.656 118.971 175.91C115.625 177.21 113.361 177.593 113.076 177.635C112.589 177.771 106.912 179.23 88.7104 179.23L88.7141 179.238ZM53.8438 93.2196C53.3792 93.2196 52.847 93.2348 52.2512 93.2802C49.9015 93.4508 46.0528 94.0837 41.05 96.1302C38.3293 97.2406 34.6455 99.9087 32.5319 106.302C31.2541 110.168 31.1604 113.601 31.1604 113.636V113.651C31.1491 113.878 29.9349 136.629 32.4083 150.913C35.1177 166.553 45.9891 172.738 52.2324 175.035C60.1021 177.93 69.4334 178.397 88.7141 178.397C107.995 178.397 112.822 176.843 112.878 176.824L112.934 176.812C113.028 176.797 122.247 175.353 131.454 167.383C136.225 163.256 138.492 155.297 139.552 149.347C140.71 142.855 140.725 137.28 140.725 137.227C140.729 137.042 141.13 119.567 139.89 109.66C139.388 105.631 137.769 102.232 135.082 99.5562C132.867 97.3467 130.484 96.1605 129.059 95.4518C128.932 95.3912 128.816 95.3305 128.711 95.2775C127.609 94.7204 122.73 93.231 116.783 93.3636C111.742 93.4773 104.742 94.8568 100.028 100.773C96.1042 105.7 93.6083 112.188 92.8064 119.536C91.937 127.51 93.2898 133.472 93.7245 135.109L93.7395 135.158V135.211C93.7732 137.334 93.1549 139.039 91.9107 140.274C89.726 142.442 86.4057 142.385 86.1771 142.382C82.1935 142.382 80.1586 140.411 79.1581 138.755C78.0788 136.973 77.9439 135.215 77.9401 135.139V135.067L77.9551 134.999C77.9626 134.969 78.7608 131.925 78.937 127.154C79.1019 122.754 78.7533 115.944 76.1863 108.474C75.0658 105.211 73.3232 102.391 71.0111 100.091C69.1598 98.2487 66.9375 96.7328 64.4042 95.5845C60.0759 93.6213 56.2985 93.4129 56.261 93.4129H56.2235L56.186 93.4015C56.1748 93.4015 55.3653 93.2234 53.8476 93.2234L53.8438 93.2196Z" fill="#781B1C"/>
<path d="M128.315 152.137C130.729 149.696 130.896 145.909 128.689 143.677C126.482 141.445 122.737 141.614 120.323 144.055C117.91 146.495 117.743 150.283 119.95 152.515C122.157 154.747 125.902 154.578 128.315 152.137Z" fill="#F97575"/>
<path d="M123.79 154.504C122.261 154.504 120.774 153.947 119.653 152.814C118.503 151.651 117.911 150.063 117.986 148.346C118.061 146.64 118.784 145.011 120.028 143.756C122.599 141.156 126.62 140.986 128.984 143.377C130.135 144.541 130.727 146.129 130.652 147.846C130.577 149.551 129.85 151.181 128.61 152.435C127.253 153.807 125.496 154.501 123.787 154.501L123.79 154.504ZM124.847 142.532C123.356 142.532 121.812 143.146 120.616 144.351C119.522 145.458 118.885 146.887 118.821 148.38C118.758 149.858 119.263 151.219 120.245 152.211C122.284 154.273 125.773 154.106 128.018 151.833C129.112 150.726 129.749 149.297 129.813 147.804C129.876 146.326 129.37 144.965 128.389 143.972C127.433 143.006 126.159 142.528 124.843 142.528L124.847 142.532Z" fill="#781B1C"/>
<path d="M52.0898 152.513C54.2967 150.281 54.1294 146.493 51.7161 144.052C49.3028 141.612 45.5574 141.443 43.3505 143.675C41.1436 145.907 41.3108 149.694 43.7241 152.135C46.1374 154.575 49.8828 154.745 52.0898 152.513Z" fill="#F97575"/>
<path d="M48.2489 154.505C46.5438 154.505 44.7825 153.808 43.4259 152.439C42.1855 151.185 41.4585 149.555 41.3835 147.85C41.3086 146.133 41.9007 144.545 43.0512 143.382C45.4158 140.99 49.4369 141.157 52.0076 143.761C53.248 145.015 53.9751 146.645 54.05 148.35C54.125 150.067 53.5329 151.655 52.3824 152.818C51.2656 153.948 49.7779 154.509 48.2452 154.509L48.2489 154.505ZM47.1884 142.533C45.873 142.533 44.5989 143.01 43.6433 143.977C42.6614 144.97 42.1555 146.334 42.2192 147.808C42.2867 149.301 42.9237 150.73 44.0143 151.837C46.259 154.107 49.7479 154.277 51.7865 152.216C52.7684 151.223 53.2743 149.858 53.2106 148.384C53.1431 146.891 52.506 145.462 51.4155 144.356C50.2201 143.147 48.6761 142.536 47.1846 142.536L47.1884 142.533Z" fill="#781B1C"/>
<path d="M60.4093 127.487V124.311C60.4093 124.311 60.3606 120.188 58.9441 119.127C57.5275 118.066 54.0761 118.172 54.0761 118.172C54.0761 118.172 50.1 118.066 49.7852 120.184C49.4704 122.303 49.2606 125.369 49.2606 128.969C49.2606 132.57 49.1556 137.117 51.0406 138.918C52.9256 140.718 57.3701 139.676 57.3701 139.676C57.3701 139.676 60.0458 139.255 60.3044 135.806C60.563 132.357 60.4093 127.487 60.4093 127.487Z" fill="#D3D3D3"/>
<path d="M54.8068 119.21C54.8068 119.21 58.1046 118.649 59.0452 120.445C59.9858 122.242 59.8659 124.891 59.8659 124.891C59.8659 124.891 60.0908 133.463 59.5699 135.051C59.049 136.639 58.8391 138.121 56.8492 138.121H53.855C53.855 138.121 51.7226 138.333 51.0931 136.639C50.4635 134.945 50.4635 128.173 50.4635 128.173C50.4635 128.173 50.1487 120.764 51.614 119.919C53.0792 119.073 54.8068 119.21 54.8068 119.21Z" fill="#232323"/>
<path d="M53.6301 138.553C53.3903 138.553 53.0155 138.531 52.607 138.424C51.6702 138.182 51.0106 137.613 50.7033 136.787C50.0625 135.059 50.0475 128.567 50.0475 128.18C50.04 128.033 49.9726 126.225 50.0737 124.338C50.2724 120.62 50.9319 119.824 51.4078 119.547C52.8394 118.721 54.4695 118.763 54.7881 118.782C55.2415 118.713 58.4006 118.308 59.4162 120.245C60.3718 122.071 60.2969 124.641 60.2856 124.891C60.3118 125.842 60.4955 133.577 59.9671 135.18C59.9109 135.355 59.8547 135.529 59.8022 135.7C59.3712 137.094 58.9215 138.538 56.8492 138.538H53.8699C53.8325 138.538 53.7463 138.546 53.6263 138.546L53.6301 138.553ZM54.5332 119.627C54.0311 119.627 52.8469 119.695 51.8238 120.286C51.2242 120.631 50.6958 123.739 50.8832 128.154V128.173C50.8832 130.034 50.9919 135.161 51.4865 136.492C51.9924 137.856 53.7425 137.708 53.8137 137.701H53.8549H56.8492C58.2432 137.701 58.5468 136.931 59.004 135.453C59.0564 135.279 59.1127 135.101 59.1726 134.919C59.5811 133.676 59.5099 127.267 59.4499 124.906V124.891V124.876C59.4499 124.849 59.5549 122.321 58.6779 120.65C58.2807 119.892 57.3026 119.65 56.5531 119.581C55.6725 119.502 54.8855 119.631 54.878 119.631L54.8255 119.638H54.7731C54.7731 119.638 54.6794 119.627 54.5295 119.627H54.5332Z" fill="#781B1C"/>
<path d="M54.8069 130.08C56.2226 130.08 57.3702 128.919 57.3702 127.488C57.3702 126.056 56.2226 124.896 54.8069 124.896C53.3913 124.896 52.2437 126.056 52.2437 127.488C52.2437 128.919 53.3913 130.08 54.8069 130.08Z" fill="white"/>
<path d="M54.807 130.504C53.1618 130.504 51.824 129.151 51.824 127.487C51.824 125.824 53.1618 124.471 54.807 124.471C56.4521 124.471 57.79 125.824 57.79 127.487C57.79 129.151 56.4521 130.504 54.807 130.504ZM54.807 125.316C53.6228 125.316 52.6634 126.29 52.6634 127.484C52.6634 128.677 53.6265 129.651 54.807 129.651C55.9874 129.651 56.9505 128.677 56.9505 127.484C56.9505 126.29 55.9874 125.316 54.807 125.316Z" fill="#781B1C"/>
<path d="M111.465 127.487V124.311C111.465 124.311 111.514 120.188 112.93 119.127C114.347 118.066 117.798 118.172 117.798 118.172C117.798 118.172 121.774 118.066 122.089 120.184C122.404 122.299 122.614 125.369 122.614 128.969C122.614 132.57 122.719 137.117 120.834 138.918C118.949 140.718 114.504 139.676 114.504 139.676C114.504 139.676 111.828 139.255 111.57 135.806C111.311 132.357 111.465 127.487 111.465 127.487Z" fill="#D3D3D3"/>
<path d="M117.068 119.21C117.068 119.21 113.77 118.649 112.829 120.445C111.889 122.242 112.008 124.891 112.008 124.891C112.008 124.891 111.784 133.463 112.305 135.051C112.825 136.639 113.035 138.121 115.025 138.121H118.019C118.019 138.121 120.152 138.333 120.781 136.639C121.411 134.945 121.411 128.173 121.411 128.173C121.411 128.173 121.726 120.764 120.26 119.919C118.795 119.073 117.068 119.21 117.068 119.21Z" fill="#232323"/>
<path d="M118.248 138.553C118.128 138.553 118.046 138.549 118.004 138.546H115.025C112.953 138.546 112.503 137.102 112.072 135.707C112.02 135.537 111.967 135.362 111.907 135.188C111.379 133.585 111.562 125.85 111.589 124.898C111.577 124.648 111.502 122.079 112.458 120.252C113.474 118.315 116.629 118.717 117.086 118.789C117.405 118.77 119.035 118.729 120.466 119.555C120.946 119.831 121.602 120.627 121.801 124.345C121.902 126.229 121.834 128.04 121.827 128.188C121.827 128.575 121.816 135.063 121.171 136.795C120.864 137.621 120.204 138.189 119.267 138.432C118.859 138.538 118.484 138.561 118.244 138.561L118.248 138.553ZM115.924 119.551C115.737 119.551 115.531 119.559 115.325 119.577C114.575 119.646 113.597 119.888 113.2 120.646C112.323 122.318 112.428 124.849 112.428 124.872V124.887V124.902C112.364 127.267 112.293 133.672 112.705 134.915C112.765 135.093 112.822 135.271 112.874 135.449C113.331 136.927 113.635 137.697 115.029 137.697H118.064C118.135 137.704 119.886 137.852 120.391 136.492C120.886 135.161 120.991 130.037 120.991 128.173V128.154C121.178 123.739 120.65 120.631 120.05 120.286C118.72 119.517 117.116 119.631 117.097 119.634H117.045L116.993 119.631C116.978 119.631 116.52 119.555 115.917 119.555L115.924 119.551Z" fill="#781B1C"/>
<path d="M117.067 130.08C118.483 130.08 119.631 128.919 119.631 127.488C119.631 126.056 118.483 124.896 117.067 124.896C115.652 124.896 114.504 126.056 114.504 127.488C114.504 128.919 115.652 130.08 117.067 130.08Z" fill="white"/>
<path d="M117.067 130.504C115.422 130.504 114.084 129.151 114.084 127.487C114.084 125.824 115.422 124.471 117.067 124.471C118.713 124.471 120.05 125.824 120.05 127.487C120.05 129.151 118.713 130.504 117.067 130.504ZM117.067 125.316C115.883 125.316 114.924 126.29 114.924 127.484C114.924 128.677 115.887 129.651 117.067 129.651C118.248 129.651 119.211 128.677 119.211 127.484C119.211 126.29 118.248 125.316 117.067 125.316Z" fill="#781B1C"/>
<path d="M85.896 134.544C85.896 134.544 82.5757 134.419 80.4846 138.546C80.1698 139.183 81.2154 140.241 81.2154 140.241C81.2154 140.241 81.8599 140.828 83.1603 140.851C83.7337 140.862 84.8392 140.862 85.896 140.862H85.866C86.9228 140.862 88.0283 140.862 88.6017 140.851C89.902 140.828 90.5466 140.241 90.5466 140.241C90.5466 140.241 91.5921 139.183 91.2774 138.546C89.1863 134.419 85.866 134.544 85.866 134.544H85.896Z" fill="#FFA300"/>
<path d="M86.6531 141.282C86.4132 141.282 86.1546 141.282 85.8811 141.282C84.5582 141.282 83.6401 141.282 83.1529 141.271C81.7139 141.244 80.9681 140.581 80.9382 140.551L80.9232 140.536C80.7133 140.323 79.6865 139.217 80.1137 138.353C82.2235 134.195 85.5101 134.112 85.8848 134.119C86.2633 134.116 89.5499 134.195 91.6559 138.349C92.0869 139.217 91.0564 140.323 90.8465 140.536L90.8315 140.551C90.8015 140.577 90.0558 141.244 88.6167 141.271C88.2308 141.279 87.5749 141.282 86.6606 141.282H86.6531ZM85.8961 140.437C87.2077 140.437 88.1146 140.437 88.5943 140.426C89.6436 140.407 90.1869 139.99 90.2619 139.929C90.6404 139.539 91.0039 138.936 90.9065 138.736C89.0252 135.021 86.1621 134.965 85.8998 134.968H85.8698C85.6038 134.961 82.7444 135.021 80.8595 138.739C80.762 138.936 81.1218 139.539 81.504 139.929C81.5677 139.982 82.1111 140.407 83.1717 140.426C83.6513 140.433 84.5582 140.437 85.8698 140.437H85.8998H85.8961Z" fill="#781B1C"/>
<path d="M90.543 140.241C90.543 140.241 89.8984 140.828 88.5981 140.851C88.0284 140.862 86.9304 140.862 85.8774 140.862C84.8243 140.862 83.7263 140.862 83.1567 140.851C81.8563 140.828 81.2118 140.241 81.2118 140.241C81.2118 140.241 81.0994 140.127 80.9607 139.956C80.9907 140.801 81.268 141.942 82.306 142.992C82.306 142.992 83.1005 144.155 85.8849 144.155C88.6693 144.155 89.4637 142.992 89.4637 142.992C90.513 141.931 90.7866 140.783 90.8128 139.934C90.6667 140.119 90.5467 140.241 90.5467 140.241H90.543Z" fill="#FFA300"/>
<path d="M85.8885 144.58C84.6669 144.58 83.6475 144.367 82.8606 143.951C82.3359 143.67 82.0774 143.378 81.9949 143.272C80.8519 142.105 80.5746 140.831 80.5446 139.971L80.5034 138.709L81.2904 139.691C81.3878 139.816 81.474 139.903 81.5002 139.933C81.5677 139.99 82.1111 140.411 83.1641 140.43C83.6438 140.437 84.5544 140.441 85.8773 140.441C87.2002 140.441 88.1108 140.441 88.5905 140.43C89.6398 140.411 90.1906 139.986 90.2581 139.933C90.2881 139.903 90.378 139.804 90.4867 139.672L91.2699 138.683L91.2324 139.948C91.2062 140.816 90.9326 142.097 89.7822 143.276C89.6997 143.382 89.4412 143.674 88.9165 143.954C88.1295 144.371 87.1102 144.583 85.8885 144.583V144.58ZM81.5377 140.926C81.7251 141.574 82.0848 142.166 82.6057 142.692L82.632 142.719L82.6545 142.749C82.6545 142.749 83.4077 143.731 85.8885 143.731C88.3694 143.731 89.1189 142.753 89.1264 142.742L89.1488 142.711L89.1713 142.688C89.7559 142.097 90.0745 141.472 90.2394 140.915C89.8684 141.085 89.325 141.256 88.613 141.271C88.1295 141.279 87.2114 141.282 85.8848 141.282C84.5582 141.282 83.6401 141.282 83.1566 141.271C82.4521 141.26 81.9125 141.093 81.5452 140.922L81.5377 140.926Z" fill="#781B1C"/>
<path d="M151.136 126.058C151.136 126.058 149.566 122.568 146.74 121.294C145.196 120.601 143.401 121.423 142.089 122.314C142.056 122.886 142.03 123.2 142.03 123.2C142.03 123.2 143.015 143.514 139.309 158.044C139.507 161.505 140.152 165.707 141.996 167.648C145.417 171.244 148.831 167.648 148.831 167.648C148.831 167.648 152.388 165.109 153.853 149.764C155.318 134.418 151.132 126.058 151.132 126.058H151.136Z" fill="#232323"/>
<path d="M145.29 169.672C143.997 169.672 142.786 169.088 141.696 167.944C140.118 166.284 139.174 162.96 138.893 158.071V158.007L138.904 157.942C142.55 143.643 141.621 123.428 141.613 123.227V123.201V123.174C141.613 123.174 141.64 122.86 141.673 122.295L141.685 122.087L141.857 121.969C143.783 120.662 145.533 120.294 146.909 120.916C149.805 122.219 151.406 125.645 151.511 125.88C151.593 126.047 152.605 128.139 153.452 132.073C154.246 135.76 155.033 141.828 154.269 149.809C152.863 164.525 149.517 167.641 149.108 167.97C148.891 168.19 147.351 169.672 145.29 169.676V169.672ZM139.732 158.086C140.002 162.668 140.89 165.875 142.299 167.356C143.225 168.33 144.229 168.823 145.286 168.827H145.29C147.104 168.827 148.516 167.372 148.531 167.356L148.558 167.326L148.591 167.303C148.591 167.303 149.453 166.633 150.476 164.135C152.185 159.962 153.032 153.997 153.441 149.722C154.19 141.87 153.422 135.908 152.646 132.285C151.807 128.363 150.772 126.267 150.765 126.248L150.757 126.233C150.739 126.191 149.213 122.867 146.571 121.681C145.249 121.086 143.656 121.795 142.498 122.549C142.475 122.909 142.457 123.129 142.453 123.205C142.49 124.069 143.334 143.905 139.736 158.083L139.732 158.086Z" fill="#781B1C"/>
<path d="M142.03 123.2C142.03 123.2 143.015 143.514 139.309 158.044C139.507 161.504 140.152 165.707 141.996 167.648C142.078 167.735 142.161 167.818 142.243 167.894C142.648 167.091 142.963 165.844 143.071 163.941C143.416 157.999 145.758 130.909 142.326 122.15C142.243 122.203 142.164 122.257 142.086 122.31C142.052 122.882 142.026 123.196 142.026 123.196L142.03 123.2Z" fill="white"/>
<path d="M142.367 168.592L141.958 168.205C141.861 168.11 141.775 168.027 141.696 167.944C140.808 167.008 140.111 165.518 139.627 163.517C139.256 161.986 139.009 160.156 138.889 158.071V158.007L138.9 157.942C142.547 143.643 141.617 123.428 141.61 123.227V123.201V123.174C141.61 123.174 141.636 122.86 141.67 122.295L141.681 122.086L141.853 121.969C141.936 121.912 142.018 121.859 142.105 121.802L142.532 121.529L142.719 122.003C145.814 129.894 144.308 151.928 143.667 161.334C143.592 162.448 143.532 163.328 143.495 163.972C143.39 165.757 143.098 167.14 142.622 168.091L142.367 168.596V168.592ZM139.732 158.086C139.991 162.46 140.812 165.579 142.112 167.144C142.401 166.333 142.584 165.253 142.659 163.923C142.697 163.275 142.757 162.392 142.832 161.277C143.379 153.292 144.765 132.948 142.479 124.019C142.61 127.999 142.966 145.333 139.732 158.09V158.086Z" fill="#781B1C"/>
<path d="M20.4314 126.059C20.4314 126.059 22.0016 122.569 24.8272 121.295C26.3711 120.602 28.1662 121.424 29.4778 122.315C29.5115 122.887 29.5377 123.201 29.5377 123.201C29.5377 123.201 28.5522 143.515 32.2584 158.045C32.0598 161.505 31.4152 165.708 29.5715 167.649C26.15 171.245 22.7361 167.649 22.7361 167.649C22.7361 167.649 19.1797 165.11 17.7144 149.765C16.2492 134.419 20.4351 126.059 20.4351 126.059H20.4314Z" fill="#232323"/>
<path d="M26.2736 169.672C24.2125 169.672 22.6723 168.187 22.4549 167.967C22.0427 167.637 18.6999 164.522 17.2946 149.806C16.5339 141.824 17.3209 135.753 18.1116 132.069C18.9585 128.139 19.9703 126.047 20.0528 125.877C20.1615 125.642 21.7579 122.212 24.6547 120.912C26.0338 120.294 27.7801 120.658 29.7063 121.965L29.8787 122.083L29.8899 122.291C29.9236 122.852 29.9499 123.167 29.9499 123.171V123.197V123.224C29.9386 123.425 29.0093 143.64 32.6593 157.939L32.6743 158.003V158.068C32.3895 162.96 31.4451 166.28 29.8674 167.94C28.7769 169.089 27.5665 169.668 26.2736 169.668V169.672ZM20.8023 126.248C20.791 126.267 19.7605 128.363 18.921 132.285C18.1453 135.905 17.3771 141.87 18.1266 149.722C19.5581 164.7 22.9421 167.277 22.9758 167.304L23.0095 167.326L23.0358 167.357C23.0358 167.357 24.4598 168.827 26.2736 168.827H26.2773C27.3341 168.827 28.3385 168.331 29.2641 167.357C30.6731 165.875 31.5613 162.669 31.8311 158.087C28.2335 143.909 29.073 124.073 29.1142 123.209C29.1067 123.133 29.0917 122.913 29.0692 122.553C27.9112 121.799 26.3186 121.086 24.9957 121.685C22.3462 122.875 20.8285 126.203 20.8135 126.237L20.806 126.252L20.8023 126.248Z" fill="#781B1C"/>
<path d="M29.534 123.2C29.534 123.2 28.5484 143.514 32.2547 158.044C32.0561 161.504 31.4115 165.707 29.5677 167.648C29.4853 167.735 29.4028 167.818 29.3204 167.894C28.9157 167.091 28.6009 165.844 28.4922 163.941C28.1474 157.999 25.8053 130.909 29.238 122.15C29.3204 122.203 29.3991 122.257 29.4778 122.31C29.5115 122.882 29.5378 123.196 29.5378 123.196L29.534 123.2Z" fill="white"/>
<path d="M29.1966 168.592L28.9418 168.088C28.4659 167.14 28.1698 165.753 28.0686 163.968C28.0312 163.324 27.9712 162.444 27.8963 161.33C27.2554 151.924 25.749 129.89 28.8444 121.999L29.0317 121.525L29.459 121.798C29.5452 121.851 29.6276 121.908 29.71 121.965L29.8824 122.083L29.8937 122.291C29.9274 122.852 29.9536 123.166 29.9536 123.17V123.197V123.223C29.9424 123.424 29.013 143.639 32.6631 157.938L32.678 158.003V158.067C32.5544 160.152 32.307 161.982 31.936 163.513C31.4526 165.518 30.7593 167.007 29.8674 167.94C29.7887 168.023 29.7025 168.11 29.6051 168.201L29.1966 168.588V168.592ZM29.0842 124.015C26.7945 132.94 28.1848 153.284 28.7319 161.273C28.8069 162.391 28.8669 163.271 28.9043 163.923C28.983 165.253 29.1667 166.333 29.4515 167.144C30.7518 165.579 31.5725 162.46 31.8311 158.086C28.5933 145.329 28.9493 127.995 29.0842 124.015Z" fill="#781B1C"/>
<path d="M56.9279 179.503C56.467 179.473 56.0135 179.435 55.5676 179.386C55.354 179.901 55.1778 180.599 55.1778 181.512V186.355C55.1778 186.355 54.8631 189.239 57.2689 189.239H61.5935C61.5935 189.239 62.8152 190.085 65.8507 190.085C68.8861 190.085 69.8267 189.239 69.8267 189.239C69.8267 189.239 77.4641 190.615 77.4641 187.545V180.951C70.5687 180.811 63.4823 180.386 56.9279 179.503Z" fill="#FFA300"/>
<path d="M65.8469 190.509C63.2124 190.509 61.8671 189.884 61.4736 189.664H57.2651C56.5044 189.664 55.8936 189.414 55.4551 188.917C54.6419 187.996 54.7356 186.556 54.7543 186.336V181.516C54.7543 180.67 54.8967 179.901 55.1778 179.227L55.2977 178.938L55.605 178.973C56.0697 179.022 56.5119 179.06 56.9466 179.086H56.9766C62.9163 179.89 69.808 180.379 77.4678 180.534L77.8763 180.542V187.553C77.8763 188.155 77.6439 188.659 77.1792 189.054C75.4704 190.501 70.891 189.853 69.9204 189.694C69.5082 189.959 68.3464 190.516 65.8431 190.516L65.8469 190.509ZM55.8449 179.84C55.68 180.341 55.5938 180.902 55.5938 181.512V186.401C55.5938 186.401 55.4664 187.659 56.0809 188.352C56.3583 188.663 56.7443 188.815 57.2651 188.815H61.7172L61.8258 188.891C61.8258 188.891 63.0138 189.664 65.8469 189.664C68.68 189.664 69.5419 188.925 69.5494 188.921L69.6993 188.785L69.8941 188.826C71.3294 189.084 75.3355 189.508 76.6434 188.398C76.9132 188.171 77.0406 187.898 77.0406 187.549V181.368C69.5232 181.201 62.7402 180.716 56.8829 179.928C56.5419 179.905 56.1971 179.878 55.8411 179.844L55.8449 179.84Z" fill="#781B1C"/>
<path d="M56.9282 179.503C56.6509 179.484 56.381 179.461 56.1112 179.438C55.8114 180.34 55.5379 181.974 57.1643 182.573C59.4652 183.418 61.7699 181.936 61.7699 181.936C61.7699 181.936 63.6549 183.524 65.8509 183.524C68.0469 183.524 70.5615 182.042 70.5615 182.042C70.5615 182.042 75.6131 183.816 77.1983 180.943C70.3891 180.795 63.4001 180.375 56.9319 179.499L56.9282 179.503Z" fill="white"/>
<path d="M65.8471 183.944C63.9621 183.944 62.3244 182.879 61.7323 182.44C61.0353 182.819 59.0491 183.713 57.018 182.967C55.5865 182.44 55.1106 181.106 55.7101 179.302L55.8151 178.983L56.1449 179.014C56.4484 179.04 56.707 179.063 56.9543 179.078H56.9843C62.8491 179.874 69.6545 180.355 77.2057 180.518L77.9027 180.533L77.5654 181.147C76.8347 182.474 75.3469 183.111 73.2633 182.989C72.0716 182.921 71.0186 182.625 70.6064 182.497C69.9955 182.834 67.8332 183.941 65.8508 183.941L65.8471 183.944ZM61.7998 181.413L62.0359 181.61C62.0359 181.61 63.8347 183.099 65.8508 183.099C67.867 183.099 70.3253 181.689 70.3478 181.674L70.5127 181.576L70.6963 181.64C70.7375 181.655 74.5899 182.974 76.355 181.344C69.1111 181.163 62.5643 180.685 56.8869 179.919C56.7332 179.908 56.5796 179.897 56.4109 179.885C56.0999 181.068 56.3997 181.837 57.3066 182.171C59.3827 182.932 61.5225 181.591 61.545 181.576L61.8035 181.413H61.7998Z" fill="#781B1C"/>
<path d="M114.943 179.397C115.404 179.366 115.857 179.329 116.303 179.279C116.517 179.795 116.693 180.492 116.693 181.405V186.249C116.693 186.249 117.008 189.133 114.602 189.133H110.277C110.277 189.133 109.055 189.978 106.02 189.978C102.984 189.978 102.044 189.133 102.044 189.133C102.044 189.133 94.4065 190.509 94.4065 187.439C94.4065 185.036 94.4065 182.035 94.4065 180.845C101.302 180.704 108.388 180.28 114.943 179.397Z" fill="#FFA300"/>
<path d="M106.02 190.402C103.517 190.402 102.355 189.845 101.943 189.58C100.972 189.739 96.3927 190.387 94.6838 188.939C94.2229 188.549 93.9868 188.045 93.9868 187.439V180.427L94.3953 180.42C102.051 180.264 108.947 179.775 114.887 178.976H114.916C115.355 178.945 115.793 178.908 116.258 178.858L116.565 178.824L116.685 179.112C116.966 179.787 117.109 180.556 117.109 181.401V186.222C117.127 186.442 117.225 187.882 116.408 188.803C115.97 189.299 115.359 189.55 114.598 189.55H110.39C110 189.769 108.651 190.395 106.016 190.395L106.02 190.402ZM102.171 188.678L102.321 188.814C102.321 188.814 103.239 189.553 106.02 189.553C108.801 189.553 110.034 188.788 110.045 188.78L110.15 188.708H110.277H114.602C115.123 188.708 115.509 188.557 115.786 188.246C116.4 187.556 116.277 186.305 116.277 186.294V186.249V181.405C116.277 180.795 116.194 180.234 116.026 179.734C115.67 179.768 115.329 179.794 114.984 179.817C109.123 180.609 102.344 181.091 94.8262 181.257V187.439C94.8262 187.791 94.9537 188.06 95.2235 188.287C96.5314 189.398 100.541 188.973 101.973 188.716L102.171 188.682V188.678Z" fill="#781B1C"/>
<path d="M114.943 179.397C115.22 179.378 115.49 179.356 115.76 179.333C116.059 180.235 116.333 181.868 114.707 182.467C112.406 183.312 110.101 181.831 110.101 181.831C110.101 181.831 108.216 183.418 106.02 183.418C103.824 183.418 101.309 181.937 101.309 181.937C101.309 181.937 96.2578 183.71 94.6726 180.838C101.482 180.69 108.471 180.269 114.939 179.394L114.943 179.397Z" fill="white"/>
<path d="M106.02 183.839C104.041 183.839 101.879 182.732 101.264 182.395C100.298 182.698 95.8792 183.899 94.3053 181.042L93.968 180.428L94.665 180.413C102.216 180.25 109.022 179.765 114.886 178.973H114.916C115.164 178.954 115.419 178.935 115.726 178.908L116.056 178.878L116.161 179.196C116.76 181 116.281 182.334 114.853 182.861C112.822 183.608 110.835 182.713 110.138 182.334C109.546 182.77 107.909 183.839 106.024 183.839H106.02ZM101.354 181.47L101.519 181.569C101.542 181.584 103.963 182.994 106.016 182.994C108.07 182.994 109.812 181.519 109.831 181.504L110.067 181.307L110.326 181.474C110.348 181.489 112.488 182.831 114.564 182.069C115.471 181.735 115.771 180.97 115.46 179.784C115.291 179.799 115.138 179.81 114.984 179.818C109.306 180.583 102.763 181.061 95.5157 181.243C97.277 182.869 101.129 181.55 101.174 181.538L101.354 181.474V181.47Z" fill="#781B1C"/>
<path d="M12.6815 172.816C10.9707 175.194 10.9555 178.379 12.637 180.736C12.9781 181.216 12.3831 181.811 11.9027 181.47C9.54322 179.786 6.3587 179.806 3.98279 181.514C3.49852 181.861 2.91025 181.273 3.25672 180.788C4.96755 178.41 4.9828 175.225 3.30126 172.868C2.9602 172.388 3.55512 171.793 4.03553 172.134C6.39504 173.818 9.57954 173.798 11.9555 172.09C12.4397 171.743 13.028 172.331 12.6815 172.816Z" fill="white"/>
<path d="M156.746 103.545C155.857 104.778 155.848 106.436 156.723 107.659C156.903 107.909 156.592 108.219 156.342 108.04C155.119 107.165 153.461 107.174 152.228 108.063C151.976 108.245 151.669 107.938 151.851 107.686C152.74 106.453 152.75 104.796 151.874 103.572C151.695 103.323 152.006 103.012 152.255 103.191C153.479 104.067 155.136 104.057 156.37 103.168C156.621 102.986 156.928 103.293 156.746 103.545Z" fill="white"/>
<path d="M9.31042 34.0777L8.68464 34.9472C7.79566 36.1807 7.78634 37.8382 8.6615 39.0618L9.27754 39.9243C9.45734 40.1738 9.14648 40.4847 8.89701 40.3049L8.03442 39.6888C6.81089 38.8137 5.15335 38.823 3.91989 39.712L3.05033 40.3378C2.79881 40.5204 2.49143 40.213 2.67404 39.9615L3.29982 39.0919C4.1888 37.8585 4.19812 36.2009 3.32296 34.9774L2.70692 34.1148C2.52712 33.8653 2.83798 33.5545 3.08745 33.7343L3.95004 34.3503C5.17358 35.2255 6.83111 35.2161 8.06457 34.3272L8.93414 33.7014C9.18565 33.5188 9.49304 33.8262 9.31042 34.0777Z" fill="white"/>
<path d="M54.8967 113.078C49.6277 113.078 45.0108 115.898 42.44 120.127C42.9534 120.578 43.2795 121.241 43.2795 121.984C43.2795 123.345 42.189 124.448 40.8436 124.448C40.7874 124.448 40.7349 124.444 40.6787 124.44C40.4202 125.539 40.2815 126.684 40.2815 127.859C40.2815 136.022 46.8246 142.639 54.8967 142.639C62.9687 142.639 69.5118 136.022 69.5118 127.859C69.5118 125.172 68.8036 122.655 67.5669 120.484C67.3683 120.135 67.2896 119.297 66.9298 119.464C56.7741 124.069 65.9742 118.179 65.4233 117.603C64.7863 116.932 64.0855 116.326 63.3322 115.788C63.0812 115.606 62.7214 115.003 62.5565 115.269C58.2731 122.174 61.4735 114.64 60.9001 114.382C59.0676 113.548 57.0365 113.082 54.8967 113.082V113.078Z" fill="#232323"/>
<path d="M40.2815 127.48C40.2815 127.48 34.6603 129.375 26.4159 125.964C18.1714 122.553 23.0431 128.996 23.0431 128.996C23.0431 128.996 35.7846 132.028 41.7805 130.133C47.7765 128.238 40.2815 127.48 40.2815 127.48Z" fill="#232323"/>
<path d="M66.1391 126.343C66.1391 126.343 100.616 120.658 130.596 79.7275L136.592 80.8645C136.592 80.8645 107.361 116.11 65.0149 129.375C63.5159 127.101 66.1391 126.343 66.1391 126.343Z" fill="#232323"/>
<path d="M130.221 48.2715C127.598 23.2584 114.856 3.17219 88.6241 1.65625C96.4938 19.4686 84.5019 24.0164 84.5019 24.0164C84.5019 24.0164 72.5099 19.4686 80.3797 1.65625C67.4059 2.40664 57.7299 7.69728 50.947 15.8834C50.5272 16.3912 49.5304 16.8005 49.7215 17.4372C53.0231 28.5642 48.1663 19.605 47.4543 20.7495C42.6763 28.4392 39.8657 37.9328 38.7826 48.2677C36.1594 73.2807 13.2998 65.701 1.68262 64.1851C4.6806 94.125 24.917 92.609 24.917 92.609C52.2736 80.1025 84.5019 81.6184 84.5019 81.6184C84.5019 81.6184 116.73 80.1025 144.087 92.609C144.087 92.609 164.323 94.125 167.321 64.1851C155.704 65.701 132.844 73.2807 130.221 48.2677V48.2715Z" fill="#232323"/>
<path d="M144.578 94.14C144.225 94.14 144.015 94.1249 143.978 94.1249L143.712 94.1059L143.468 93.996C116.771 81.7927 84.8877 83.1229 84.5692 83.1381H84.5017H84.4305C84.112 83.1229 52.2284 81.7889 25.5314 93.996L25.2878 94.1059L25.0217 94.1249C24.7969 94.14 19.4155 94.5001 13.6369 90.9225C8.39044 87.6745 1.79863 80.4283 0.187215 64.3442L-0.00390625 62.4417L1.86983 62.688C3.33884 62.8813 4.97274 63.1655 6.70408 63.4649C14.7012 64.8596 24.6582 66.5916 31.014 61.733C34.5591 59.0232 36.6127 54.5664 37.291 48.1122C38.449 37.0572 41.4432 27.5788 46.1838 19.946C46.4686 19.4874 46.9333 19.1956 47.4579 19.1426C47.9338 19.0933 48.3461 19.2297 48.7433 19.4874C48.6159 19.0213 48.466 18.4869 48.2823 17.8768C47.8589 16.4518 49.0094 15.546 49.5003 15.1594C49.6015 15.0798 49.7551 14.9586 49.8001 14.9093C57.31 5.84396 67.5669 0.879247 80.2933 0.144015L82.7516 0L81.7473 2.27391C79.0379 8.40211 78.4833 13.4843 80.0909 17.3727C81.3201 20.3477 83.5011 21.8068 84.5017 22.3412C85.5098 21.7993 87.7096 20.3288 88.935 17.3159C90.5127 13.4313 89.9505 8.37179 87.2561 2.27391L86.2518 0L88.7101 0.144015C101.568 0.886827 111.907 5.95008 119.432 15.1897C126.058 23.3266 130.303 34.7075 131.712 48.1122C132.391 54.5664 134.441 59.0232 137.989 61.733C144.345 66.5916 154.298 64.8558 162.299 63.4649C164.031 63.1655 165.665 62.8775 167.134 62.688L169.007 62.4417L168.816 64.3442C167.205 80.4283 160.613 87.6745 155.367 90.9225C150.633 93.852 146.166 94.1438 144.581 94.1438L144.578 94.14ZM144.431 91.1082C145.447 91.1233 149.599 90.9831 153.935 88.2468C160.175 84.3092 164.188 76.6309 165.601 65.9738C164.713 66.1178 163.772 66.2808 162.802 66.4513C154.684 67.865 143.566 69.8016 136.176 64.1509C131.99 60.9523 129.486 55.6616 128.726 48.4306C127.38 35.6209 123.367 24.7895 117.116 17.115C110.614 9.13355 101.815 4.51372 90.9399 3.36539C93.1471 9.28894 93.3945 14.3863 91.6781 18.5438C89.5608 23.6677 85.2137 25.3655 85.0264 25.4337L84.5017 25.6346L83.9771 25.4337C83.7934 25.3655 79.4426 23.6639 77.3253 18.5438C75.6052 14.3863 75.8563 9.28894 78.0635 3.36539C67.3083 4.50235 58.5804 9.03502 52.0973 16.8573C51.8612 17.1453 51.5839 17.3613 51.344 17.5508C51.3365 17.5546 51.3328 17.5622 51.3253 17.566C52.6032 21.9508 52.7718 23.5843 51.4452 24.365C50.1224 25.1419 48.9981 23.9519 48.0088 22.8983C47.9938 22.8794 47.9751 22.8642 47.9563 22.8415C43.9053 29.8565 41.3233 38.4557 40.2777 48.4268C39.5207 55.6578 37.0137 60.9485 32.8277 64.1471C25.434 69.7978 14.319 67.8612 6.20192 66.4476C5.23132 66.277 4.2907 66.1141 3.40255 65.97C4.81535 76.6271 8.8289 84.3054 15.0684 88.243C19.4005 90.9755 23.5565 91.1195 24.5721 91.1044C51.2728 79.0033 82.8004 80.0342 84.5017 80.1024C86.2068 80.0342 117.734 79.0033 144.431 91.1044V91.1082Z" fill="#781B1C"/>
<path d="M145.649 89.7555C142.408 89.7555 140.025 88.9596 139.983 88.9445C114.804 77.4347 84.8167 79.4433 84.5169 79.4661C84.1871 79.4433 53.8288 77.4309 28.6644 88.9369C28.5745 88.9672 21.1882 91.5254 14.7913 87.421C9.66473 84.1314 6.58056 77.5939 5.61746 67.9942L5.59497 67.7554L5.82731 67.7857C6.76418 67.907 7.7835 68.0624 8.86277 68.2291C16.2603 69.3623 26.3897 70.9161 33.5474 65.4171C37.9807 62.0138 40.7238 56.2077 41.6982 48.1656C42.8412 38.7365 44.8685 31.1454 47.9077 24.9641C48.0014 24.7708 48.1626 24.6534 48.3687 24.6306C49.7178 24.4904 53.439 28.7578 54.7844 30.3647C54.3009 27.3934 52.7495 17.2669 53.8288 16.0655C59.5924 9.65311 67.256 5.88599 77.2617 4.54818L77.5953 4.5027L77.4604 4.81347C73.7091 13.3027 75.8414 19.268 78.2886 22.7774C80.7244 26.2716 83.951 28.1021 84.5019 28.3977C85.064 28.1021 88.3805 26.2716 90.9026 22.7774C93.4359 19.268 95.6693 13.3027 91.9181 4.81347L91.7757 4.49512L92.1167 4.55197C112.747 7.9022 124.911 22.9858 127.298 48.1732C128.033 55.9273 130.596 61.5969 134.917 65.0229C142.314 70.8934 153.504 69.2486 160.909 68.1609C161.846 68.0245 162.73 67.8918 163.544 67.7857L163.776 67.7554L163.754 67.9942C162.809 77.4309 159.721 83.9116 154.58 87.258C151.567 89.2174 148.314 89.7555 145.642 89.7555H145.649ZM6.01469 68.1988C6.98903 77.5484 10.0095 83.9078 14.9899 87.1064C21.2332 91.1161 28.4508 88.6186 28.522 88.592C53.7576 77.0557 84.2096 79.0719 84.5131 79.0947C84.7867 79.0719 114.868 77.0557 140.118 88.5996C140.178 88.6186 147.872 91.1805 154.385 86.9434C159.38 83.6917 162.401 77.3892 163.36 68.2026C162.614 68.3011 161.812 68.4186 160.965 68.5437C153.497 69.6427 142.209 71.2989 134.688 65.3299C130.285 61.8356 127.673 56.0751 126.927 48.2187C124.57 23.361 112.634 8.42141 92.3978 4.99159C96.0291 13.4809 93.7581 19.4764 91.1949 23.0237C88.3843 26.9121 84.618 28.7767 84.5806 28.7919L84.4981 28.8336L84.4157 28.7919C84.2695 28.7199 69.9691 21.341 76.9769 4.98022C67.226 6.34457 59.7385 10.0586 54.1023 16.3308C53.2929 17.2328 54.3534 25.597 55.264 30.9976L55.384 31.6987L54.9343 31.1492C52.8732 28.6176 49.433 24.8997 48.4099 25.0134C48.3312 25.021 48.2787 25.0589 48.2413 25.1385C45.2245 31.2818 43.2047 38.8312 42.0692 48.2187C41.0836 56.3669 38.2917 62.2563 33.7723 65.7278C26.4872 71.3217 16.2678 69.7564 8.80281 68.6119C7.81722 68.4603 6.87661 68.3163 6.01094 68.2026L6.01469 68.1988Z" fill="white"/>
<path d="M95.1822 56.2302C94.5714 53.3953 93.2111 51.4132 91.6521 50.0299C87.4849 46.3273 81.1442 46.3273 76.977 50.0299C75.418 51.417 74.0577 53.3991 73.4469 56.2302C73.1246 57.7347 73.0122 59.0119 73.0496 60.0958C73.1621 63.4423 75.9127 66.0838 79.2255 66.0838H80.6795C81.1479 66.0838 81.5114 66.4855 81.474 66.9554L81.4402 67.3572C81.414 67.6717 81.6426 67.9446 81.9536 67.9711C82.2647 67.9977 82.5345 67.7665 82.5607 67.4519L82.6732 66.08H82.9992V67.4064C82.9992 67.721 83.2503 67.9749 83.5613 67.9749C83.8724 67.9749 84.1234 67.721 84.1234 67.4064V66.08H84.4982V67.4064C84.4982 67.721 84.7493 67.9749 85.0603 67.9749C85.3713 67.9749 85.6224 67.721 85.6224 67.4064V66.08H85.9447L86.0646 67.4557C86.0909 67.7665 86.3644 67.9977 86.6755 67.9711C86.9865 67.9446 87.2114 67.6679 87.1851 67.3534L87.1252 66.6598C87.0989 66.3491 87.3388 66.08 87.6498 66.08H89.3999C92.7127 66.08 95.4633 63.4423 95.5757 60.092C95.6132 59.0081 95.5008 57.7271 95.1785 56.2264L95.1822 56.2302ZM82.898 60.922C82.3284 62.8245 80.8257 64.0486 79.5365 63.6545C78.2474 63.2603 77.6665 61.3995 78.2324 59.497C78.802 57.5945 80.3048 56.3704 81.5939 56.7645C82.883 57.1587 83.4639 59.0195 82.898 60.922ZM85.0078 64.9355C84.798 64.9999 84.5319 64.7535 84.3146 64.3518C84.0972 64.7573 83.8311 64.9999 83.6213 64.9355C83.329 64.8445 83.2653 64.1851 83.4826 63.4612C83.6325 62.9647 83.8724 62.5706 84.1047 62.3963C84.1384 62.3546 84.1759 62.3242 84.2246 62.3091C84.2434 62.3015 84.2658 62.3091 84.2846 62.3091C84.2958 62.3091 84.3071 62.3091 84.3146 62.3091C84.3258 62.3091 84.337 62.3091 84.3445 62.3091C84.3633 62.3091 84.3858 62.3091 84.4045 62.3091C84.4495 62.3242 84.4907 62.3546 84.5244 62.3963C84.7568 62.5668 84.9966 62.9609 85.1465 63.4574C85.3639 64.1813 85.3001 64.8445 85.0078 64.9317V64.9355ZM89.0888 63.6545C87.7997 64.0486 86.297 62.8245 85.7274 60.922C85.1577 59.0195 85.7423 57.1549 87.0315 56.7645C88.3206 56.3704 89.8234 57.5945 90.393 59.497C90.9626 61.3995 90.378 63.2641 89.0888 63.6545Z" fill="white"/>
<path d="M95.5793 52.8192C95.5793 52.8192 99.3268 51.6822 99.7016 50.5453C100.076 49.4083 100.076 46.7554 102.325 47.1344C104.573 47.5134 102.325 50.8522 102.325 50.8522L104.39 52.8192C104.39 52.8192 105.885 55.2826 104.011 55.2826C102.137 55.2826 100.267 53.3687 100.267 53.3687L96.5162 54.5246L95.5793 52.8192Z" fill="white"/>
<path d="M73.102 52.8192C73.102 52.8192 69.3546 51.6822 68.9798 50.5453C68.6051 49.4083 68.6051 46.7554 66.3566 47.1344C64.1081 47.5134 66.3566 50.8522 66.3566 50.8522L64.2917 52.8192C64.2917 52.8192 62.7965 55.2826 64.6702 55.2826C66.544 55.2826 68.4139 53.3687 68.4139 53.3687L72.1652 54.5246L73.102 52.8192Z" fill="white"/>
<path d="M73.102 63.9615C73.102 63.9615 69.3546 65.0984 68.9798 66.2354C68.6051 67.3723 68.6051 70.0252 66.3566 69.6462C64.1081 69.2673 66.3566 65.9284 66.3566 65.9284L64.2917 63.9615C64.2917 63.9615 62.7965 61.498 64.6702 61.498C66.544 61.498 68.4139 63.4119 68.4139 63.4119L72.1652 62.256L73.102 63.9615Z" fill="white"/>
<path d="M95.5793 63.9615C95.5793 63.9615 99.3268 65.0984 99.7016 66.2354C100.076 67.3723 100.076 70.0252 102.325 69.6462C104.573 69.2673 102.325 65.9284 102.325 65.9284L104.39 63.9615C104.39 63.9615 105.885 61.498 104.011 61.498C102.137 61.498 100.267 63.4119 100.267 63.4119L96.5162 62.256L95.5793 63.9615Z" fill="white"/>
</g>
<defs>
<clipPath id="clip0_1_10716">
<rect width="169" height="196" fill="white"/>
</clipPath>
</defs>
</svg>
