<svg width="216" height="195" viewBox="0 0 216 195" fill="none" xmlns="http://www.w3.org/2000/svg">
<path d="M205.212 170.863C203.196 173.677 203.2 177.46 205.215 180.272C205.623 180.845 204.92 181.548 204.347 181.14C201.532 179.122 197.749 179.124 194.937 181.137C194.364 181.546 193.661 180.843 194.07 180.27C196.086 177.455 196.082 173.672 194.068 170.86C193.659 170.287 194.362 169.584 194.935 169.993C197.75 172.01 201.534 172.008 204.345 169.995C204.918 169.587 205.621 170.29 205.212 170.863Z" fill="white"/>
<path d="M18.617 44.2714C17.5694 45.7307 17.5698 47.7001 18.6182 49.1599C18.8335 49.4576 18.4664 49.8247 18.1687 49.6094C16.7089 48.561 14.7395 48.5606 13.2802 49.6082C12.9826 49.8234 12.6153 49.4561 12.8305 49.1585C13.8781 47.6992 13.8777 45.7299 12.8293 44.27C12.614 43.9724 12.9812 43.6052 13.2788 43.8205C14.7387 44.8689 16.708 44.8693 18.1673 43.8217C18.4649 43.6065 18.8322 43.9738 18.617 44.2714Z" fill="white"/>
<path d="M113.617 60.2714C112.569 61.7307 112.57 63.7001 113.618 65.1599C113.833 65.4576 113.466 65.8247 113.168 65.6094C111.709 64.561 109.739 64.5606 108.28 65.6082C107.982 65.8234 107.615 65.4561 107.83 65.1585C108.878 63.6992 108.877 61.7299 107.829 60.27C107.614 59.9724 107.981 59.6052 108.279 59.8205C109.738 60.8689 111.708 60.8693 113.167 59.8217C113.465 59.6065 113.832 59.9738 113.617 60.2714Z" fill="white"/>
<path d="M177.26 75.3224V152.686C177.26 188.855 146.808 218.176 109.243 218.176C71.6774 218.176 41.2258 188.855 41.2258 152.686V75.3224C41.2688 39.1691 71.6946 9.86954 109.243 9.82812C146.791 9.86954 177.217 39.1691 177.26 75.3224ZM136.877 75.3266C136.968 65.7643 131.716 56.8979 123.131 52.0857C114.546 47.2777 103.94 47.2777 95.3547 52.0857C86.7698 56.8979 81.5225 65.7643 81.6128 75.3266V152.698C81.7505 167.296 94.0773 179.061 109.243 179.061C124.408 179.061 136.74 167.296 136.873 152.698V75.3266H136.877Z" fill="#FFA300"/>
<path d="M109.243 219C71.2643 219 40.3655 189.249 40.3655 152.686V75.3225C40.3827 57.6144 47.5569 40.9707 60.559 28.4474C73.5654 15.9284 90.8557 9.02071 109.243 9C127.634 9.02071 144.92 15.9284 157.927 28.4474C170.929 40.9665 178.103 57.6144 178.12 75.3184V152.682C178.12 189.249 147.221 218.996 109.243 218.996V219ZM109.243 10.6565C91.3159 10.6772 74.4557 17.4109 61.7805 29.6194C49.1009 41.8279 42.1074 58.0576 42.0902 75.3225V152.686C42.0902 188.338 72.2149 217.343 109.247 217.343C146.279 217.343 176.404 188.338 176.404 152.686V75.3225C176.387 58.0576 169.393 41.8279 156.714 29.6194C144.034 17.4109 127.178 10.6772 109.247 10.6565H109.243ZM109.243 179.89C93.6729 179.89 80.8944 167.694 80.7525 152.706V75.3267C80.6579 65.5036 86.0901 56.3182 94.9202 51.3694C103.755 46.4247 114.727 46.4247 123.561 51.3694C132.395 56.3182 137.823 65.4994 137.733 75.3308V152.698C137.591 167.694 124.813 179.89 109.243 179.89ZM109.243 49.3153C104.589 49.3153 99.9395 50.4749 95.789 52.8023C87.488 57.4529 82.3869 66.0792 82.4772 75.3184V152.698C82.6105 166.774 94.6191 178.233 109.247 178.233C123.875 178.233 135.888 166.774 136.017 152.69V75.3184C136.103 66.0834 131.002 57.4529 122.701 52.8023C118.55 50.479 113.896 49.3153 109.247 49.3153H109.243Z" fill="#781B1C"/>
<path d="M60.4034 127.655C60.4034 127.655 59.4002 104.166 63.9549 94.882C68.5097 85.5977 73.2436 81.5017 86.4511 79.4066C99.6586 77.3116 127.059 78.5874 132.03 79.4066C132.03 79.4066 148.794 80.0916 154.441 93.5614C160.089 107.036 158.356 128.335 158.356 128.335C158.356 128.335 159.538 152.459 153.895 164.295C148.247 176.131 134.771 176.767 134.771 176.767C134.771 176.767 106.126 179.681 84.2924 176.767C64.0983 175.491 62.0023 154.827 62.0023 154.827C62.0023 154.827 61.0931 142.266 60.4079 127.655H60.4034Z" fill="#232323"/>
<path d="M107.165 178.423C99.8511 178.423 91.6597 178.118 84.2521 177.129C79.5853 176.833 75.4874 175.477 72.0746 173.1C69.3427 171.197 67.0496 168.641 65.2492 165.499C62.1993 160.167 61.6529 155.078 61.6305 154.863V154.854C61.6215 154.728 60.7124 142.118 60.0361 127.672C60.0361 127.614 59.7898 121.701 60.1033 114.735C60.5287 105.352 61.7111 98.6196 63.6235 94.725C66.136 89.5994 68.5634 86.439 71.7432 84.156C75.1783 81.6849 79.6973 80.1137 86.3928 79.0527C89.6802 78.5335 97.4237 77.6964 112.333 77.956C121.478 78.1171 129.531 78.6364 132.066 79.0483C132.442 79.0662 136.482 79.29 141.243 81.094C144.122 82.1863 146.662 83.6322 148.785 85.387C151.445 87.5895 153.46 90.2933 154.773 93.4224C157.711 100.433 158.624 109.565 158.875 115.989C159.135 122.703 158.745 127.945 158.718 128.344C158.736 128.765 158.996 134.691 158.602 141.899C158.226 148.784 157.16 158.287 154.217 164.451C152.905 167.2 151.069 169.573 148.753 171.515C146.904 173.064 144.749 174.34 142.344 175.307C138.327 176.923 135.035 177.12 134.789 177.129C134.484 177.16 127.35 177.868 117.725 178.221C114.613 178.338 111.007 178.423 107.16 178.423H107.165ZM62.3605 154.796C62.3784 154.975 62.9562 160.029 65.8986 165.159C67.6408 168.198 69.8667 170.669 72.5046 172.509C75.8054 174.806 79.7779 176.117 84.3103 176.399H84.3371C105.879 179.278 134.444 176.431 134.731 176.399H134.749C134.78 176.399 138.126 176.22 142.098 174.618C144.422 173.677 146.51 172.442 148.297 170.942C150.527 169.071 152.296 166.779 153.559 164.134C155.847 159.339 157.339 151.635 157.872 141.863C158.275 134.454 157.988 128.411 157.984 128.353V128.33V128.308C157.984 128.254 158.414 122.918 158.141 116.006C157.894 109.645 156.99 100.612 154.092 93.7044C152.829 90.6917 150.885 88.0819 148.323 85.9555C146.263 84.25 143.8 82.8444 141.001 81.7789C136.213 79.9615 132.048 79.769 132.008 79.769H131.963C127.305 78.9945 99.8198 77.6516 86.5003 79.769C79.9212 80.812 75.5008 82.3475 72.1642 84.7469C69.0919 86.9538 66.7316 90.0337 64.2774 95.0474C61.9529 99.788 61.1199 108.392 60.8288 114.771C60.5153 121.669 60.7571 127.52 60.7616 127.641C61.4289 141.952 62.3291 154.46 62.356 154.8L62.3605 154.796Z" fill="#781B1C"/>
<path d="M61.5006 120.097C61.5006 120.097 61.7738 108.172 70.3369 104.711C78.9001 101.251 83.7235 102.343 83.7235 102.343C83.7235 102.343 97.0206 102.979 101.392 115.545C105.763 128.106 102.941 138.576 102.941 138.576C102.941 138.576 103.358 144.467 109.753 144.467C109.753 144.467 116.059 144.678 115.965 138.67C114.326 132.573 113.596 118.642 121.519 108.812C129.441 98.9814 144.745 102.894 146.93 103.986C149.116 105.078 155.767 107.993 156.86 116.641C157.952 125.29 157.59 140.403 157.59 140.403C157.59 140.403 157.59 159.611 149.394 166.622C141.198 173.632 133.092 174.814 133.092 174.814C133.092 174.814 128.358 176.179 111.961 176.179C95.5651 176.179 87.096 175.816 80.0869 173.265C73.0734 170.718 64.7879 164.706 62.6023 152.239C60.4167 139.767 61.5095 120.106 61.5095 120.106L61.5006 120.097Z" fill="white"/>
<path d="M111.952 176.538C95.0813 176.538 86.9033 176.13 79.9525 173.601C74.3721 171.573 64.6535 166.107 62.2305 152.293C60.0763 140 61.1109 120.518 61.1332 120.08C61.1377 119.887 61.2318 116.968 62.3604 113.584C63.8831 109.014 66.5927 105.826 70.198 104.372C78.5014 101.019 83.298 101.883 83.7727 101.981C84.14 102.003 87.3333 102.232 91.0684 103.902C93.357 104.922 95.3679 106.279 97.0429 107.921C99.1434 109.981 100.72 112.505 101.737 115.424C104.012 121.969 104.316 127.932 104.168 131.786C104.021 135.654 103.421 138.165 103.309 138.608C103.34 138.881 103.51 140.13 104.271 141.357C105.4 143.179 107.245 144.105 109.749 144.105H109.762C109.789 144.105 112.526 144.172 114.227 142.498C115.155 141.589 115.616 140.318 115.598 138.72C115.199 137.22 114.03 132.019 114.792 125.102C115.504 118.643 117.73 112.931 121.232 108.584C125.509 103.275 131.824 102.039 136.365 101.941C141.287 101.829 145.779 103.006 147.092 103.664C147.186 103.709 147.284 103.758 147.392 103.812C149.788 104.989 156.147 108.123 157.218 116.597C158.302 125.174 157.952 140.26 157.948 140.412C157.948 140.452 157.934 145.305 156.918 150.95C156.318 154.271 155.494 157.217 154.463 159.706C153.165 162.839 151.539 165.261 149.627 166.895C145.354 170.548 141.104 172.603 138.296 173.682C135.385 174.801 133.414 175.127 133.163 175.168C132.738 175.284 127.798 176.542 111.957 176.542L111.952 176.538ZM81.6051 102.55C81.202 102.55 80.7362 102.563 80.2167 102.603C78.1744 102.751 74.8244 103.297 70.4667 105.056C68.102 106.014 64.8953 108.306 63.0546 113.804C61.9439 117.13 61.8588 120.08 61.8588 120.111V120.124C61.8453 120.321 60.7929 139.888 62.9471 152.176C65.3073 165.633 74.7662 170.951 80.1988 172.925C87.0466 175.414 95.1664 175.817 111.952 175.817C128.738 175.817 132.935 174.478 132.979 174.465L133.029 174.456C133.109 174.443 141.135 173.198 149.147 166.345C153.299 162.795 155.27 155.95 156.197 150.829C157.204 145.247 157.218 140.448 157.218 140.403C157.218 140.242 157.567 125.21 156.492 116.691C156.053 113.226 154.647 110.303 152.309 107.998C150.379 106.1 148.31 105.079 147.069 104.466C146.962 104.412 146.859 104.363 146.765 104.313C145.806 103.834 141.561 102.554 136.383 102.666C131.994 102.764 125.903 103.951 121.801 109.041C118.384 113.28 116.211 118.858 115.517 125.183C114.76 132.045 115.938 137.171 116.314 138.577L116.328 138.621V138.666C116.355 140.493 115.822 141.956 114.738 143.022C112.839 144.889 109.946 144.839 109.749 144.835C106.282 144.835 104.513 143.138 103.64 141.715C102.699 140.184 102.583 138.671 102.579 138.604V138.541L102.592 138.483C102.601 138.456 103.291 135.842 103.447 131.737C103.591 127.954 103.291 122.094 101.051 115.666C100.075 112.859 98.5612 110.433 96.5458 108.454C94.9335 106.869 92.9987 105.567 90.7952 104.577C87.0287 102.89 83.7414 102.711 83.7056 102.711H83.6742L83.6429 102.702C83.6339 102.702 82.9308 102.55 81.6096 102.55H81.6051Z" fill="#781B1C"/>
<path d="M146.422 153.23C148.523 151.13 148.669 147.872 146.749 145.952C144.828 144.033 141.569 144.179 139.468 146.278C137.367 148.378 137.221 151.636 139.142 153.556C141.062 155.475 144.322 155.329 146.422 153.23Z" fill="#F97575"/>
<path d="M142.483 155.266C141.153 155.266 139.859 154.787 138.882 153.811C137.879 152.808 137.364 151.443 137.431 149.966C137.499 148.502 138.126 147.101 139.209 146.017C141.449 143.779 144.947 143.636 147.007 145.691C148.01 146.693 148.525 148.059 148.458 149.536C148.391 151 147.764 152.401 146.68 153.484C145.497 154.666 143.97 155.261 142.483 155.261V155.266ZM143.401 144.97C142.103 144.97 140.759 145.498 139.72 146.537C138.77 147.486 138.215 148.717 138.157 150.001C138.099 151.273 138.542 152.446 139.397 153.301C141.171 155.073 144.208 154.93 146.16 152.974C147.11 152.025 147.665 150.794 147.723 149.509C147.781 148.238 147.338 147.065 146.483 146.21C145.65 145.377 144.543 144.97 143.397 144.97H143.401Z" fill="#781B1C"/>
<path d="M80.0797 153.555C82.0001 151.636 81.854 148.378 79.7535 146.278C77.6529 144.179 74.3932 144.033 72.4728 145.952C70.5524 147.872 70.6985 151.13 72.799 153.229C74.8996 155.329 78.1592 155.475 80.0797 153.555Z" fill="#F97575"/>
<path d="M76.7367 155.266C75.2498 155.266 73.7226 154.666 72.5402 153.489C71.4608 152.41 70.8294 151.009 70.7622 149.541C70.695 148.063 71.21 146.698 72.2133 145.695C74.2734 143.636 77.7712 143.784 80.0106 146.022C81.0899 147.101 81.7214 148.502 81.7886 149.97C81.8558 151.448 81.3407 152.813 80.3375 153.816C79.3656 154.787 78.0713 155.271 76.7367 155.271V155.266ZM75.8141 144.97C74.672 144.97 73.5613 145.382 72.7283 146.21C71.8729 147.065 71.434 148.238 71.4877 149.509C71.5459 150.794 72.1013 152.025 73.0508 152.974C75.0034 154.926 78.04 155.074 79.8135 153.301C80.6689 152.446 81.1078 151.273 81.0541 150.002C80.9959 148.717 80.4405 147.486 79.491 146.537C78.452 145.498 77.1084 144.97 75.8096 144.97H75.8141Z" fill="#781B1C"/>
<path d="M87.3198 132.023V129.293C87.3198 129.293 87.275 125.747 86.0434 124.834C84.8118 123.921 81.8066 124.01 81.8066 124.01C81.8066 124.01 78.3447 123.921 78.0715 125.738C77.7983 127.556 77.6146 130.197 77.6146 133.295C77.6146 136.392 77.5251 140.305 79.1642 141.854C80.8034 143.403 84.673 142.507 84.673 142.507C84.673 142.507 87.0019 142.145 87.2258 139.177C87.4497 136.209 87.3154 132.023 87.3154 132.023H87.3198Z" fill="#D3D3D3"/>
<path d="M82.4471 124.906C82.4471 124.906 85.3179 124.423 86.1375 125.972C86.9571 127.521 86.8496 129.795 86.8496 129.795C86.8496 129.795 87.0466 137.168 86.5898 138.533C86.133 139.898 85.9539 141.174 84.2206 141.174H81.6141C81.6141 141.174 79.7599 141.358 79.2135 139.898C78.6671 138.439 78.6671 132.615 78.6671 132.615C78.6671 132.615 78.3939 126.245 79.6703 125.515C80.9468 124.786 82.4471 124.906 82.4471 124.906Z" fill="#232323"/>
<path d="M81.4171 141.545C81.2066 141.545 80.8796 141.527 80.5258 141.438C79.7107 141.227 79.1375 140.74 78.8687 140.028C78.3089 138.542 78.3 132.955 78.3 132.624C78.2955 132.498 78.2373 130.94 78.3223 129.32C78.497 126.124 79.0703 125.439 79.4823 125.202C80.7274 124.49 82.1471 124.526 82.4248 124.543C82.8189 124.485 85.5688 124.136 86.4511 125.801C87.2841 127.373 87.2169 129.584 87.208 129.799C87.2303 130.618 87.3916 137.27 86.9303 138.649C86.881 138.801 86.8317 138.949 86.787 139.097C86.4108 140.296 86.0211 141.541 84.2162 141.541H81.6231C81.5873 141.541 81.5156 141.55 81.4126 141.55L81.4171 141.545ZM82.2053 125.264C81.7709 125.264 80.7363 125.322 79.8496 125.833C79.33 126.128 78.8687 128.801 79.03 132.601V132.615C79.03 134.217 79.124 138.627 79.554 139.768C79.9929 140.941 81.5156 140.811 81.5828 140.807H81.6186H84.2252C85.4389 140.807 85.7031 140.144 86.1017 138.873C86.151 138.721 86.1958 138.568 86.2495 138.416C86.6078 137.346 86.5451 131.836 86.4914 129.803V129.79V129.777C86.4914 129.754 86.5809 127.579 85.8196 126.142C85.4747 125.488 84.6238 125.282 83.9699 125.224C83.2041 125.152 82.5188 125.264 82.5099 125.269L82.4651 125.278H82.4203C82.4203 125.278 82.3397 125.269 82.2098 125.269L82.2053 125.264Z" fill="#781B1C"/>
<path d="M82.4472 134.253C83.6789 134.253 84.6775 133.254 84.6775 132.023C84.6775 130.792 83.6789 129.794 82.4472 129.794C81.2154 129.794 80.2168 130.792 80.2168 132.023C80.2168 133.254 81.2154 134.253 82.4472 134.253Z" fill="white"/>
<path d="M82.4472 134.62C81.0141 134.62 79.8496 133.456 79.8496 132.023C79.8496 130.591 81.0141 129.427 82.4472 129.427C83.8804 129.427 85.0448 130.591 85.0448 132.023C85.0448 133.456 83.8804 134.62 82.4472 134.62ZM82.4472 130.156C81.4171 130.156 80.5796 130.994 80.5796 132.023C80.5796 133.053 81.4171 133.89 82.4472 133.89C83.4773 133.89 84.3148 133.053 84.3148 132.023C84.3148 130.994 83.4773 130.156 82.4472 130.156Z" fill="#781B1C"/>
<path d="M131.757 132.023V129.293C131.757 129.293 131.802 125.747 133.033 124.834C134.265 123.921 137.27 124.01 137.27 124.01C137.27 124.01 140.732 123.921 141.005 125.738C141.279 127.556 141.462 130.197 141.462 133.295C141.462 136.392 141.552 140.305 139.913 141.854C138.273 143.403 134.404 142.507 134.404 142.507C134.404 142.507 132.075 142.145 131.851 139.177C131.627 136.209 131.761 132.023 131.761 132.023H131.757Z" fill="#D3D3D3"/>
<path d="M136.63 124.905C136.63 124.905 133.759 124.422 132.939 125.971C132.12 127.52 132.227 129.794 132.227 129.794C132.227 129.794 132.03 137.167 132.487 138.532C132.944 139.897 133.123 141.173 134.856 141.173H137.463C137.463 141.173 139.317 141.357 139.863 139.897C140.41 138.438 140.41 132.614 140.41 132.614C140.41 132.614 140.683 126.244 139.407 125.514C138.13 124.785 136.63 124.905 136.63 124.905Z" fill="#232323"/>
<path d="M137.66 141.545C137.557 141.545 137.481 141.54 137.449 141.536H134.856C133.051 141.536 132.662 140.296 132.285 139.092C132.241 138.944 132.191 138.796 132.142 138.644C131.681 137.265 131.842 130.613 131.864 129.794C131.856 129.579 131.788 127.368 132.621 125.797C133.504 124.131 136.254 124.476 136.648 124.539C136.925 124.525 138.345 124.485 139.59 125.197C140.007 125.434 140.58 126.119 140.75 129.315C140.84 130.936 140.777 132.493 140.772 132.619C140.772 132.95 140.759 138.532 140.204 140.023C139.935 140.735 139.362 141.223 138.547 141.433C138.193 141.523 137.866 141.54 137.655 141.54L137.66 141.545ZM135.635 125.201C135.47 125.201 135.295 125.206 135.111 125.224C134.458 125.282 133.607 125.492 133.262 126.141C132.5 127.578 132.59 129.754 132.59 129.776V129.79V129.803C132.536 131.835 132.474 137.346 132.832 138.416C132.881 138.573 132.93 138.725 132.98 138.872C133.378 140.144 133.642 140.806 134.856 140.806H137.499C137.561 140.815 139.084 140.941 139.523 139.768C139.953 138.622 140.047 134.217 140.047 132.614V132.601C140.208 128.8 139.747 126.128 139.227 125.832C138.072 125.17 136.675 125.268 136.657 125.268H136.612H136.567C136.554 125.268 136.155 125.201 135.631 125.201H135.635Z" fill="#781B1C"/>
<path d="M136.63 134.253C137.861 134.253 138.86 133.254 138.86 132.023C138.86 130.792 137.861 129.794 136.63 129.794C135.398 129.794 134.399 130.792 134.399 132.023C134.399 133.254 135.398 134.253 136.63 134.253Z" fill="white"/>
<path d="M136.63 134.62C135.196 134.62 134.032 133.456 134.032 132.023C134.032 130.591 135.196 129.427 136.63 129.427C138.063 129.427 139.227 130.591 139.227 132.023C139.227 133.456 138.063 134.62 136.63 134.62ZM136.63 130.156C135.6 130.156 134.762 130.994 134.762 132.023C134.762 133.053 135.6 133.89 136.63 133.89C137.66 133.89 138.497 133.053 138.497 132.023C138.497 130.994 137.66 130.156 136.63 130.156Z" fill="#781B1C"/>
<path d="M109.503 138.099C109.503 138.099 106.614 137.992 104.791 141.541C104.518 142.088 105.427 142.996 105.427 142.996C105.427 142.996 105.987 143.502 107.12 143.52C107.617 143.529 108.58 143.529 109.503 143.529H109.476C110.394 143.529 111.357 143.529 111.858 143.52C112.992 143.498 113.551 142.996 113.551 142.996C113.551 142.996 114.461 142.088 114.187 141.541C112.365 137.992 109.476 138.099 109.476 138.099H109.503Z" fill="#FFA300"/>
<path d="M110.161 143.891C109.951 143.891 109.727 143.891 109.489 143.891C108.338 143.891 107.541 143.891 107.116 143.882C105.862 143.86 105.212 143.287 105.185 143.264L105.172 143.251C104.988 143.067 104.092 142.118 104.464 141.375C106.3 137.799 109.162 137.731 109.489 137.731C109.816 137.731 112.678 137.799 114.51 141.371C114.881 142.118 113.99 143.067 113.807 143.251L113.793 143.264C113.766 143.287 113.117 143.86 111.863 143.882C111.527 143.887 110.954 143.891 110.161 143.891ZM109.503 143.166C110.645 143.166 111.433 143.166 111.849 143.157C112.763 143.139 113.238 142.781 113.301 142.727C113.632 142.392 113.945 141.872 113.86 141.702C112.221 138.506 109.731 138.457 109.503 138.461H109.476C109.247 138.457 106.757 138.506 105.114 141.707C105.028 141.877 105.342 142.396 105.673 142.732C105.727 142.776 106.202 143.144 107.124 143.161C107.541 143.17 108.334 143.17 109.471 143.17H109.498L109.503 143.166Z" fill="#781B1C"/>
<path d="M113.547 142.996C113.547 142.996 112.987 143.501 111.854 143.519C111.357 143.528 110.403 143.528 109.485 143.528C108.571 143.528 107.613 143.528 107.116 143.519C105.982 143.497 105.423 142.996 105.423 142.996C105.423 142.996 105.324 142.897 105.203 142.749C105.23 143.479 105.472 144.459 106.377 145.364C106.377 145.364 107.066 146.366 109.489 146.366C111.912 146.366 112.602 145.364 112.602 145.364C113.515 144.45 113.753 143.461 113.775 142.731C113.645 142.893 113.542 142.996 113.542 142.996H113.547Z" fill="#FFA300"/>
<path d="M109.494 146.724C108.428 146.724 107.545 146.541 106.86 146.183C106.403 145.941 106.179 145.69 106.108 145.601C105.114 144.593 104.872 143.501 104.849 142.763L104.813 141.675L105.499 142.521C105.584 142.628 105.66 142.704 105.682 142.731C105.741 142.78 106.215 143.143 107.133 143.156C107.55 143.165 108.343 143.165 109.494 143.165C110.645 143.165 111.437 143.165 111.854 143.156C112.768 143.139 113.247 142.776 113.305 142.731C113.332 142.704 113.412 142.619 113.502 142.503L114.183 141.652L114.151 142.74C114.129 143.488 113.892 144.589 112.888 145.601C112.817 145.69 112.593 145.945 112.136 146.183C111.451 146.541 110.564 146.724 109.503 146.724H109.494ZM105.709 143.582C105.875 144.137 106.184 144.647 106.641 145.099L106.663 145.122L106.681 145.149C106.681 145.149 107.335 145.995 109.494 145.995C111.652 145.995 112.306 145.153 112.311 145.144L112.329 145.117L112.347 145.099C112.857 144.589 113.13 144.056 113.274 143.573C112.951 143.721 112.476 143.868 111.858 143.877C111.437 143.886 110.636 143.886 109.485 143.886C108.329 143.886 107.532 143.886 107.111 143.877C106.497 143.864 106.032 143.725 105.709 143.577V143.582Z" fill="#781B1C"/>
<path d="M166.278 130.797C166.278 130.797 164.912 127.793 162.453 126.701C161.11 126.105 159.547 126.813 158.409 127.578C158.378 128.07 158.356 128.339 158.356 128.339C158.356 128.339 159.211 145.811 155.986 158.309C156.161 161.286 156.721 164.899 158.324 166.573C161.302 169.666 164.272 166.573 164.272 166.573C164.272 166.573 167.367 164.388 168.643 151.187C169.919 137.986 166.274 130.797 166.274 130.797H166.278Z" fill="#232323"/>
<path d="M161.195 168.31C160.071 168.31 159.018 167.809 158.069 166.824C156.694 165.396 155.874 162.54 155.628 158.332V158.274L155.637 158.22C158.812 145.919 158.002 128.532 157.993 128.357V128.335V128.313C157.993 128.313 158.015 128.039 158.046 127.556L158.055 127.377L158.203 127.278C159.883 126.15 161.401 125.837 162.601 126.37C165.123 127.489 166.515 130.439 166.605 130.64C166.677 130.784 167.559 132.583 168.294 135.967C168.983 139.137 169.668 144.361 169.006 151.223C167.783 163.883 164.872 166.56 164.514 166.846C164.325 167.034 162.986 168.31 161.19 168.315L161.195 168.31ZM156.358 158.346C156.595 162.289 157.366 165.042 158.593 166.318C159.399 167.155 160.272 167.581 161.19 167.581C162.771 167.581 163.998 166.327 164.012 166.318L164.034 166.291L164.061 166.269C164.061 166.269 164.809 165.692 165.7 163.543C167.187 159.957 167.926 154.823 168.28 151.147C168.934 144.392 168.262 139.262 167.59 136.146C166.86 132.771 165.96 130.972 165.951 130.954V130.94C165.929 130.904 164.599 128.044 162.301 127.028C161.15 126.517 159.762 127.126 158.754 127.775C158.736 128.084 158.718 128.277 158.714 128.339C158.75 129.083 159.48 146.147 156.349 158.341L156.358 158.346Z" fill="#781B1C"/>
<path d="M158.356 128.34C158.356 128.34 159.211 145.812 155.986 158.31C156.161 161.287 156.721 164.899 158.324 166.574C158.396 166.65 158.467 166.717 158.539 166.788C158.888 166.095 159.166 165.025 159.26 163.391C159.56 158.279 161.598 134.974 158.611 127.444C158.539 127.489 158.467 127.534 158.4 127.583C158.369 128.076 158.347 128.344 158.347 128.344L158.356 128.34Z" fill="white"/>
<path d="M158.651 167.384L158.297 167.052C158.212 166.972 158.136 166.9 158.069 166.824C157.294 166.018 156.689 164.738 156.268 163.015C155.946 161.699 155.731 160.123 155.628 158.328V158.27L155.637 158.216C158.812 145.914 158.002 128.527 157.993 128.353V128.331V128.308C157.993 128.308 158.015 128.035 158.046 127.552L158.055 127.373L158.203 127.274C158.275 127.225 158.346 127.18 158.423 127.131L158.794 126.894L158.956 127.301C161.652 134.087 160.339 153.041 159.78 161.134C159.712 162.092 159.663 162.849 159.627 163.404C159.538 164.94 159.282 166.13 158.866 166.945L158.647 167.379L158.651 167.384ZM156.358 158.346C156.582 162.11 157.298 164.792 158.427 166.135C158.678 165.436 158.835 164.51 158.906 163.364C158.938 162.804 158.991 162.048 159.059 161.085C159.533 154.214 160.743 136.715 158.75 129.038C158.866 132.462 159.175 147.374 156.358 158.346Z" fill="#781B1C"/>
<path d="M52.5254 130.797C52.5254 130.797 53.8914 127.793 56.3502 126.701C57.6938 126.105 59.2568 126.813 60.3944 127.578C60.4258 128.07 60.4481 128.339 60.4481 128.339C60.4481 128.339 59.5927 145.811 62.8173 158.309C62.6427 161.286 62.0828 164.899 60.4795 166.573C57.5012 169.666 54.5319 166.573 54.5319 166.573C54.5319 166.573 51.4371 164.388 50.1607 151.187C48.8843 137.986 52.5299 130.797 52.5299 130.797H52.5254Z" fill="#232323"/>
<path d="M57.6131 168.31C55.8217 168.31 54.4781 167.034 54.29 166.842C53.9317 166.555 51.0206 163.878 49.7979 151.218C49.1351 144.352 49.8203 139.132 50.51 135.963C51.249 132.583 52.1268 130.783 52.1985 130.635C52.2925 130.434 53.6809 127.484 56.2024 126.365C57.4026 125.832 58.9209 126.145 60.6004 127.274L60.7482 127.372L60.7571 127.551C60.7885 128.035 60.8109 128.303 60.8109 128.308V128.33V128.352C60.8019 128.527 59.9913 145.914 63.1666 158.215L63.1801 158.269V158.327C62.9293 162.535 62.1097 165.391 60.7347 166.819C59.7853 167.804 58.7328 168.305 57.6087 168.305L57.6131 168.31ZM52.8523 130.958C52.8523 130.958 51.9477 132.775 51.2132 136.151C50.5369 139.266 49.8696 144.396 50.5234 151.151C51.7685 164.035 54.711 166.251 54.7423 166.273L54.7692 166.295L54.7916 166.322C54.7916 166.322 56.0322 167.585 57.6131 167.585C58.5312 167.585 59.4046 167.159 60.2107 166.322C61.4379 165.046 62.2082 162.289 62.4456 158.35C59.315 146.156 60.045 129.091 60.0809 128.348C60.0764 128.285 60.0629 128.093 60.0405 127.784C59.0329 127.135 57.649 126.522 56.4935 127.036C54.187 128.061 52.8658 130.922 52.8523 130.949V130.962V130.958Z" fill="#781B1C"/>
<path d="M60.4482 128.339C60.4482 128.339 59.5928 145.811 62.8174 158.309C62.6428 161.286 62.0829 164.898 60.4796 166.573C60.4079 166.649 60.3363 166.716 60.2646 166.788C59.9153 166.094 59.6376 165.024 59.5436 163.39C59.2435 158.278 57.2057 134.973 60.193 127.443C60.2646 127.488 60.3363 127.533 60.4035 127.582C60.4348 128.075 60.4572 128.343 60.4572 128.343L60.4482 128.339Z" fill="white"/>
<path d="M60.1571 167.383L59.9376 166.949C59.5211 166.134 59.2658 164.939 59.1763 163.408C59.1449 162.853 59.0912 162.096 59.024 161.138C58.4642 153.045 57.1564 134.096 59.8481 127.305L60.0093 126.897L60.381 127.135C60.4572 127.179 60.5288 127.229 60.6005 127.278L60.7483 127.376L60.7572 127.556C60.7886 128.039 60.811 128.308 60.811 128.312V128.334V128.357C60.802 128.531 59.9914 145.918 63.1667 158.22L63.1802 158.273V158.332C63.0727 160.122 62.8577 161.698 62.5352 163.019C62.1143 164.742 61.5096 166.022 60.7348 166.828C60.6677 166.9 60.5915 166.976 60.5064 167.056L60.1526 167.388L60.1571 167.383ZM60.0586 129.037C58.0656 136.714 59.2748 154.218 59.7495 161.085C59.8167 162.047 59.8705 162.804 59.9018 163.363C59.969 164.509 60.1302 165.436 60.381 166.134C61.5141 164.787 62.2262 162.105 62.4502 158.345C59.6331 147.373 59.9421 132.462 60.0586 129.037Z" fill="#781B1C"/>
<path d="M84.2879 176.766C83.8848 176.74 83.4907 176.708 83.1055 176.668C82.9174 177.111 82.7651 177.711 82.7651 178.494V182.662C82.7651 182.662 82.4919 185.142 84.5835 185.142H88.3455C88.3455 185.142 89.4114 185.872 92.0493 185.872C94.6873 185.872 95.5113 185.142 95.5113 185.142C95.5113 185.142 102.158 186.324 102.158 183.687V178.015C96.1563 177.895 89.9892 177.532 84.2834 176.771L84.2879 176.766Z" fill="#FFA300"/>
<path d="M92.0539 186.234C89.7608 186.234 88.5874 185.697 88.2471 185.505H84.5835C83.9207 185.505 83.3877 185.29 83.0071 184.86C82.2994 184.068 82.38 182.828 82.398 182.64V178.49C82.398 177.765 82.5234 177.102 82.7652 176.52L82.8682 176.27L83.1369 176.296C83.5445 176.337 83.9252 176.372 84.3059 176.395H84.3327C89.5011 177.089 95.5024 177.505 102.167 177.639L102.525 177.648V183.678C102.525 184.197 102.319 184.632 101.92 184.967C100.433 186.212 96.4474 185.652 95.601 185.518C95.2427 185.746 94.2305 186.225 92.0494 186.225L92.0539 186.234ZM83.3474 177.057C83.2041 177.487 83.1325 177.971 83.1325 178.494V182.702C83.1325 182.702 83.0205 183.786 83.5579 184.381C83.7998 184.65 84.1357 184.779 84.588 184.779H88.462L88.5561 184.842C88.5561 184.842 89.5906 185.505 92.0539 185.505C94.5171 185.505 95.2696 184.869 95.2785 184.864L95.4084 184.748L95.5786 184.784C96.8281 185.008 100.312 185.37 101.455 184.417C101.692 184.22 101.799 183.987 101.799 183.687V178.369C95.2561 178.226 89.3533 177.809 84.2521 177.129C83.952 177.111 83.6565 177.084 83.3474 177.057Z" fill="#781B1C"/>
<path d="M84.2878 176.767C84.046 176.753 83.8086 176.731 83.5757 176.713C83.3159 177.492 83.0741 178.893 84.4938 179.408C86.4958 180.137 88.5022 178.862 88.5022 178.862C88.5022 178.862 90.1414 180.227 92.0538 180.227C93.9661 180.227 96.1517 178.951 96.1517 178.951C96.1517 178.951 100.55 180.478 101.929 178.007C96.0039 177.881 89.9219 177.519 84.2878 176.767Z" fill="white"/>
<path d="M92.0539 180.589C90.4147 180.589 88.9905 179.672 88.471 179.296C87.8663 179.618 86.1376 180.388 84.3685 179.748C83.1235 179.296 82.707 178.145 83.231 176.596L83.3205 176.323L83.6072 176.35C83.8714 176.372 84.0953 176.39 84.3103 176.404H84.3372C89.4428 177.089 95.3636 177.505 101.934 177.644L102.538 177.657L102.243 178.185C101.607 179.327 100.312 179.873 98.4986 179.77C97.4641 179.712 96.5459 179.457 96.1876 179.349C95.6547 179.64 93.7737 180.594 92.0494 180.594L92.0539 180.589ZM88.5292 178.414L88.7352 178.584C88.7352 178.584 90.3027 179.864 92.0539 179.864C93.805 179.864 95.9458 178.651 95.9682 178.638L96.1115 178.553L96.2683 178.606C96.3041 178.62 99.6586 179.752 101.19 178.356C94.8844 178.199 89.1875 177.787 84.2476 177.129C84.1133 177.12 83.9789 177.111 83.8356 177.098C83.5669 178.114 83.8266 178.776 84.6149 179.063C86.4197 179.721 88.2829 178.562 88.3008 178.553L88.5247 178.409L88.5292 178.414Z" fill="#781B1C"/>
<path d="M134.78 176.677C135.183 176.65 135.577 176.618 135.962 176.578C136.15 177.021 136.303 177.621 136.303 178.405V182.572C136.303 182.572 136.576 185.052 134.484 185.052H130.722C130.722 185.052 129.656 185.782 127.018 185.782C124.381 185.782 123.556 185.052 123.556 185.052C123.556 185.052 116.91 186.234 116.91 183.597C116.91 181.529 116.91 178.951 116.91 177.926C122.912 177.805 129.079 177.442 134.784 176.681L134.78 176.677Z" fill="#FFA300"/>
<path d="M127.018 186.145C124.837 186.145 123.83 185.666 123.467 185.438C122.62 185.572 118.639 186.131 117.148 184.887C116.745 184.551 116.543 184.117 116.543 183.598V177.568L116.901 177.559C123.565 177.425 129.567 177.004 134.735 176.314H134.762C135.143 176.288 135.523 176.256 135.931 176.211L136.2 176.185L136.303 176.435C136.549 177.017 136.67 177.68 136.67 178.405V182.555C136.688 182.743 136.768 183.983 136.061 184.775C135.68 185.2 135.147 185.42 134.484 185.42H130.821C130.48 185.608 129.307 186.149 127.014 186.149L127.018 186.145ZM123.664 184.663L123.794 184.78C123.794 184.78 124.591 185.415 127.014 185.415C129.437 185.415 130.507 184.757 130.516 184.748L130.606 184.685H130.718H134.48C134.932 184.685 135.268 184.556 135.51 184.287C136.043 183.692 135.935 182.617 135.935 182.608V182.568V178.4C135.935 177.877 135.864 177.393 135.72 176.963C135.411 176.995 135.111 177.017 134.816 177.035C129.715 177.716 123.816 178.132 117.269 178.275V183.593C117.269 183.893 117.376 184.126 117.613 184.323C118.755 185.276 122.24 184.909 123.489 184.69L123.664 184.659V184.663Z" fill="#781B1C"/>
<path d="M134.78 176.677C135.022 176.663 135.259 176.641 135.492 176.623C135.752 177.402 135.994 178.803 134.574 179.318C132.572 180.048 130.566 178.772 130.566 178.772C130.566 178.772 128.926 180.137 127.014 180.137C125.102 180.137 122.916 178.861 122.916 178.861C122.916 178.861 118.518 180.388 117.139 177.917C123.064 177.791 129.146 177.429 134.78 176.677Z" fill="white"/>
<path d="M127.018 180.5C125.294 180.5 123.413 179.547 122.88 179.256C122.038 179.515 118.196 180.549 116.825 178.092L116.53 177.564L117.134 177.55C123.709 177.411 129.63 176.995 134.731 176.315H134.758C134.973 176.297 135.196 176.283 135.461 176.256L135.747 176.229L135.837 176.503C136.356 178.056 135.944 179.202 134.699 179.654C132.935 180.294 131.206 179.529 130.597 179.202C130.082 179.578 128.658 180.496 127.014 180.496L127.018 180.5ZM122.956 178.463L123.1 178.548C123.1 178.548 125.227 179.775 127.014 179.775C128.801 179.775 130.319 178.508 130.333 178.495L130.539 178.325L130.763 178.468C130.763 178.468 132.644 179.636 134.449 178.978C135.237 178.692 135.497 178.029 135.228 177.013C135.08 177.026 134.946 177.035 134.816 177.044C129.876 177.702 124.179 178.114 117.873 178.271C119.405 179.672 122.759 178.535 122.795 178.521L122.952 178.468L122.956 178.463Z" fill="#781B1C"/>
<path d="M158 33.1668C158 27.2591 162.803 22.455 168.709 22.455C174.615 22.455 179.417 27.2629 179.417 33.1668C179.417 39.0707 174.615 43.8786 168.709 43.8786C162.803 43.8786 158 39.0745 158 33.1668ZM165.796 71L160.088 66.3219L197.204 21L202.912 25.6781L165.796 71ZM165.261 33.1668C165.261 35.0724 166.811 36.619 168.713 36.619C170.614 36.619 172.164 35.0686 172.164 33.1668C172.164 31.265 170.614 29.7146 168.713 29.7146C166.811 29.7146 165.261 31.265 165.261 33.1668ZM205 58.9019C205 64.8097 200.193 69.6176 194.287 69.6176C188.381 69.6176 183.579 64.8097 183.579 58.9019C183.579 52.9942 188.381 48.1901 194.287 48.1901C200.193 48.1901 205 52.998 205 58.9019ZM197.743 58.9019C197.743 56.9963 196.193 55.4497 194.291 55.4497C192.39 55.4497 190.84 57.0002 190.84 58.9019C190.84 60.8037 192.39 62.3542 194.291 62.3542C196.193 62.3542 197.743 60.8037 197.743 58.9019Z" fill="#781B1C"/>
</svg>
