<svg width="167" height="166" viewBox="0 0 167 166" fill="none" xmlns="http://www.w3.org/2000/svg">
<path d="M147.602 165.508C147.305 168.073 122.666 170.878 92.3381 167.314C62.0097 163.75 37.481 155.173 37.7783 152.609C38.0756 150.045 62.7138 147.24 93.0422 150.803C123.371 154.367 147.899 162.944 147.602 165.508Z" fill="#E5CF91"/>
<path d="M107.565 153.172C113.423 153.375 118.578 152.781 123.008 151.791V158.441C123.008 158.441 123.219 160.855 120.629 161.422C118.04 161.986 114.558 162.439 111.851 161.422C109.82 161.763 106.103 162.212 104.301 160.632C101.938 160.859 99.458 160.859 99.458 158.938V152.499C102.235 152.847 104.96 153.086 107.565 153.176V153.172Z" fill="#FFA300"/>
<path d="M111.808 161.884C108.108 162.486 105.6 162.228 104.157 161.093C102.344 161.258 100.562 161.27 99.6218 160.413C99.2123 160.041 99.0056 159.54 99.0056 158.93V151.979L99.5126 152.041C102.387 152.401 105.101 152.628 107.581 152.714C112.873 152.898 118.032 152.436 122.911 151.345L123.461 151.224V158.418C123.539 159.396 123.067 161.348 120.727 161.86C118.855 162.267 117.167 162.471 115.665 162.471C114.195 162.471 112.904 162.275 111.808 161.884ZM107.55 153.622C105.187 153.539 102.621 153.332 99.9064 153.004V158.93C99.9064 159.286 100.008 159.544 100.226 159.744C100.944 160.397 102.757 160.319 104.255 160.174L104.45 160.155L104.594 160.284C105.791 161.332 108.205 161.563 111.773 160.968L111.89 160.949L112.003 160.992C114.062 161.762 116.929 161.759 120.528 160.972C122.685 160.503 122.56 158.555 122.552 158.472V152.346C117.759 153.371 112.713 153.798 107.542 153.618L107.55 153.622Z" fill="#781B1C"/>
<path d="M121.027 152.198C119.12 153.384 116.316 154.878 114.776 154.526C112.3 153.963 112.074 153.849 112.074 153.849C112.074 153.849 107.374 155.308 106.006 154.581C104.637 153.853 103.861 153.211 103.861 153.211C103.861 153.211 101.373 154.53 99.458 152.496" fill="#FFA300"/>
<path d="M105.795 154.979C104.82 154.459 104.138 153.986 103.806 153.739C102.734 154.189 100.69 154.463 99.1304 152.808L99.7855 152.186C101.435 153.939 103.564 152.859 103.65 152.812L103.915 152.671L104.145 152.859C104.145 152.859 104.91 153.481 106.216 154.177C106.68 154.424 108.646 154.435 111.937 153.414L112.093 153.321L112.265 153.434C112.358 153.465 112.861 153.622 114.873 154.079C115.938 154.322 118.04 153.516 120.789 151.807L121.265 152.573C118.227 154.459 116.012 155.265 114.675 154.96C113.871 154.776 112.58 154.475 112.066 154.314C111.711 154.42 110.74 154.698 109.644 154.921C108.646 155.124 107.827 155.226 107.175 155.226C106.575 155.226 106.119 155.14 105.799 154.967L105.795 154.979Z" fill="#781B1C"/>
<path d="M159.654 100.807C159.654 100.807 168.775 68.7209 165.285 56.0657C161.794 43.4105 152.447 39.0057 152.447 39.0057C152.447 39.0057 147.155 33.2434 107.624 24.3202C68.0926 15.3931 55.4225 20.8738 55.4225 20.8738C55.4225 20.8738 45.2872 23.6982 40.4437 31.7216C35.6003 39.745 34.6995 39.8546 28.8422 63.1307C22.9848 86.4029 22.4233 97.8141 22.4233 97.8141C22.4233 97.8141 19.4946 116.118 27.8282 124.591C36.1619 133.065 44.6086 136.229 44.6086 136.229L52.9423 139.617C52.9423 139.617 84.7014 151.705 107.565 152.495C130.429 153.286 142.592 141.988 142.592 141.988C142.592 141.988 155.543 130.013 159.654 100.807Z" fill="#232323"/>
<path d="M107.55 152.945C95.6947 152.534 81.4335 149.045 71.5556 146.193C60.8626 143.103 52.8604 140.067 52.7747 140.036L44.4449 136.648C44.1641 136.542 35.7174 133.256 27.5085 124.908C23.1058 120.429 21.8384 113.27 21.5498 108.052C21.2534 102.645 21.9164 98.1387 21.9749 97.7671C22.01 97.1529 22.7353 85.554 28.4055 63.0211C33.7519 41.7714 35.0349 39.6785 38.8449 33.478C39.2271 32.8521 39.6249 32.2067 40.0578 31.4908C42.6121 27.2619 46.6209 24.4805 49.534 22.8962C52.5407 21.2571 54.9702 20.5373 55.2744 20.4512C55.6331 20.3026 58.9011 19.0468 66.6849 18.8043C80.1349 18.3818 96.4278 21.3353 107.721 23.8859C145.143 32.3358 151.971 37.9377 152.712 38.6418C153.137 38.8531 155.313 39.9993 157.871 42.4755C162.528 46.9821 164.712 52.2945 165.722 55.9561C167.188 61.2725 166.685 70.4617 164.224 83.2772C162.454 92.4938 160.254 100.357 160.098 100.908C157.961 116.048 153.414 126.489 149.975 132.58C146.231 139.21 143.033 142.203 142.901 142.328C142.776 142.446 139.738 145.231 133.842 147.957C128.764 150.305 120.59 152.996 109.816 152.996C109.075 152.996 108.318 152.984 107.554 152.957L107.55 152.945ZM66.8253 19.6962C58.8465 19.9349 55.6292 21.2727 55.598 21.2884L55.5395 21.308C55.4381 21.3353 45.5173 24.1832 40.826 31.9524C40.3892 32.6722 39.9915 33.3216 39.6093 33.9475C35.7564 40.2262 34.5904 42.1196 29.279 63.2363C23.5035 86.1838 22.8796 97.7202 22.8718 97.8336V97.8845C22.8601 97.9314 22.1464 102.493 22.4506 108.016C22.7314 113.075 23.9481 119.999 28.1481 124.271C36.3101 132.568 44.6828 135.772 44.7647 135.803L53.1022 139.195C53.1802 139.226 61.1551 142.25 71.813 145.329C81.6363 148.169 95.8195 151.639 107.581 152.045C108.338 152.073 109.082 152.085 109.812 152.085C120.403 152.085 128.437 149.448 133.424 147.148C139.204 144.484 142.253 141.687 142.284 141.659C142.316 141.628 145.537 138.608 149.214 132.087C155.364 121.176 158.043 109.022 159.209 100.748L159.221 100.685C159.244 100.607 161.518 92.5681 163.339 83.0934C165.012 74.3814 166.63 62.6417 164.852 56.1908C163.081 49.7713 159.751 45.5542 157.275 43.1484C154.584 40.5352 152.279 39.432 152.256 39.4203L152.178 39.3812L152.119 39.3225C152.119 39.3225 150.669 37.8516 144.433 35.3323C138.728 33.0282 127.692 29.3235 107.522 24.7661C97.0128 22.3916 82.1472 19.6649 69.3367 19.6649C68.4904 19.6649 67.652 19.6767 66.8253 19.7001V19.6962Z" fill="#781B1C"/>
<path d="M22.4232 97.8141C22.4232 97.8141 22.9848 86.4029 28.8421 63.1307C31.4666 52.7014 33.0967 46.9235 34.5318 42.9998C41.2158 36.815 54.7829 37.1866 62.0519 47.6785C70.37 59.6804 67.4725 81.7712 63.3076 88.5506C59.1427 95.33 66.6848 99.8483 66.6848 99.8483C66.6848 99.8483 76.8201 103.127 77.2724 94.4263C77.0462 85.3897 80.8758 74.9957 80.8758 74.9957C80.8758 74.9957 86.9593 58.1625 100.811 55.565C114.663 52.9675 124.911 59.2931 133.022 67.5395C141.13 75.7859 139.781 88.3276 139.781 88.3276C136.739 121.657 123.562 135.326 123.562 135.326C123.562 135.326 109.484 150.915 86.62 146.51C63.7561 142.105 42.8108 133.292 42.8108 133.292C42.8108 133.292 38.8682 132.048 29.8599 124.932C26.9274 122.612 24.6967 119.013 23.0238 115.211C20.9764 106.886 22.4271 97.8141 22.4271 97.8141H22.4232Z" fill="white"/>
<path d="M86.5344 146.948C64.1735 142.637 43.3765 134.011 42.6511 133.71C42.2923 133.593 38.3107 132.18 29.5754 125.28C26.9119 123.175 24.5682 119.85 22.6067 115.386L22.5911 115.351L22.5833 115.312C20.5905 107.206 21.893 98.2951 21.9749 97.763C22.01 97.1528 22.7354 85.5538 28.4055 63.0131C31.03 52.5761 32.6835 46.7316 34.1069 42.8392L34.1459 42.7375L34.2278 42.6632C37.5932 39.5492 42.694 38.0353 47.8767 38.6026C53.7691 39.2519 58.9362 42.3815 62.4226 47.4162C66.139 52.7795 68.0537 60.8303 67.8119 70.082C67.617 77.5773 65.9596 85.0922 63.69 88.7851C62.6019 90.5572 62.2588 92.3254 62.676 94.0389C63.4326 97.1567 66.4782 99.1792 66.876 99.4334C67.4025 99.5899 71.9222 100.869 74.6715 98.9679C75.9857 98.0564 76.711 96.5269 76.8241 94.4183C76.6058 85.4013 80.4197 74.9407 80.4548 74.839C80.5172 74.6629 82.0341 70.5202 85.2865 65.9862C87.2012 63.3183 89.3188 61.0806 91.5806 59.3359C94.4235 57.1413 97.5003 55.7252 100.733 55.1188C107.203 53.9061 113.434 54.5594 119.253 57.067C124.053 59.1364 128.667 62.4576 133.346 67.2185C137.62 71.5647 139.262 77.0844 139.89 80.9495C140.569 85.1274 140.245 88.2413 140.233 88.3626C138.658 105.646 134.31 117.565 130.94 124.517C127.313 132 124.092 135.423 123.893 135.631C123.687 135.858 120.193 139.652 113.875 142.966C110.131 144.929 106.177 146.306 102.121 147.061C99.6842 147.515 97.2039 147.742 94.7003 147.742C91.9979 147.742 89.272 147.48 86.5344 146.952V146.948ZM100.893 56.0029C97.8084 56.5819 94.8602 57.9393 92.1382 60.0401C89.9466 61.73 87.8915 63.9012 86.0274 66.4948C82.8453 70.927 81.3127 75.105 81.2971 75.148C81.2581 75.2497 77.4988 85.5695 77.7211 94.4105V94.4261V94.4418C77.5963 96.8555 76.7422 98.6276 75.1785 99.7073C71.9105 101.968 66.7629 100.345 66.5445 100.275L66.4938 100.259L66.451 100.231C66.2989 100.141 62.6994 97.9469 61.7986 94.2579C61.3189 92.298 61.6972 90.299 62.9217 88.3118C65.1134 84.744 66.7161 77.4091 66.9111 70.0586C67.149 60.9985 65.2888 53.1394 61.6816 47.9326C58.3435 43.1169 53.4065 40.1204 47.7753 39.5023C42.889 38.9664 38.0924 40.3668 34.918 43.2539C33.5141 47.115 31.8763 52.9242 29.283 63.2361C23.5075 86.1836 22.8836 97.72 22.8758 97.8334V97.8843C22.8563 97.9743 21.4602 106.929 23.449 115.062C25.3482 119.369 27.5983 122.569 30.137 124.572C38.9425 131.527 42.9085 132.845 42.9436 132.857L42.9826 132.873C43.1932 132.959 64.154 141.718 86.706 146.064C91.8575 147.058 96.9817 147.097 101.934 146.177C105.9 145.442 109.765 144.1 113.427 142.183C119.67 138.913 123.195 135.056 123.231 135.017L123.238 135.005C123.27 134.97 126.545 131.523 130.149 124.071C133.475 117.19 137.769 105.399 139.332 88.2726C139.332 88.2413 139.656 85.1509 138.997 81.0942C138.393 77.3583 136.805 72.0263 132.703 67.8522C128.105 63.1735 123.585 59.9188 118.894 57.8963C115.045 56.2376 111.13 55.4122 107.039 55.4122C105.038 55.4122 102.995 55.6078 100.897 56.0029H100.893Z" fill="#781B1C"/>
<path d="M11.161 81.7706C14.6513 80.867 20.7348 75.445 23.7766 72.734C25.2272 71.4392 26.3426 70.7154 27.1147 70.3047C24.7359 80.644 23.5504 88.0337 22.9693 92.5324C17.4123 96.2331 10.7126 97.1329 10.7126 97.1329C10.7126 97.1329 2.15275 97.4732 1.36501 92.0473C0.577273 86.6254 7.67082 82.6704 11.1649 81.7667L11.161 81.7706Z" fill="#232323"/>
<path d="M6.21631 97.0627C3.10045 96.2373 1.2676 94.5278 0.916625 92.1141C0.550054 89.587 1.74336 87.0794 4.36786 84.8692C6.65308 82.9445 9.39456 81.7592 11.048 81.3328C14.433 80.4565 20.5399 75.011 23.4764 72.3939C24.7165 71.2869 25.8708 70.4497 26.9042 69.9059L27.7738 69.4482L27.5515 70.4106C25.1571 80.8164 23.9794 88.2178 23.414 92.5953L23.3867 92.7987L23.2151 92.9121C17.6346 96.6285 11.048 97.5478 10.7673 97.5869H10.7244C10.7049 97.5908 10.5879 97.5947 10.3968 97.5947C9.69874 97.5947 7.99847 97.54 6.21241 97.0666L6.21631 97.0627ZM22.5443 92.2667C23.1059 87.9909 24.229 80.9689 26.4362 71.2243C25.6992 71.7054 24.8959 72.3314 24.0691 73.0668C20.8519 75.9343 14.8658 81.2741 11.2703 82.2051C9.58565 82.6433 6.97285 83.8481 4.94501 85.5577C3.29154 86.9503 1.40409 89.1997 1.80576 91.9811C2.5077 96.8124 10.2096 96.6911 10.6698 96.6794C11.087 96.6207 17.3304 95.6662 22.5443 92.2628V92.2667Z" fill="#781B1C"/>
<path d="M8.681 95.7796C13.4893 94.6921 20.4191 88.1435 24.2642 84.1729C23.6519 87.6154 23.2425 90.4007 22.9656 92.5327C17.4085 96.2334 10.7088 97.1332 10.7088 97.1332C10.7088 97.1332 6.99243 97.2818 4.23145 95.8305C5.52224 96.1121 7.00803 96.1591 8.681 95.7796Z" fill="white"/>
<path d="M4.02479 96.2295L1.05322 94.6687L4.33287 95.3885C5.68996 95.6858 7.12115 95.6701 8.58743 95.3376C13.31 94.2697 20.2358 87.6858 23.9483 83.856L24.974 82.7998L24.7166 84.2511C24.1862 87.2399 23.7494 90.0447 23.4219 92.5914L23.3946 92.7948L23.223 92.9083C17.6425 96.6247 11.0559 97.544 10.7752 97.5831H10.7323C10.705 97.587 10.588 97.5909 10.393 97.5909C9.39467 97.5909 6.4036 97.4775 4.02869 96.2295H4.02479ZM22.5444 92.2667C22.8174 90.1738 23.1645 87.9127 23.5701 85.5186C21.8191 87.279 19.5105 89.4736 17.1161 91.4061C13.7701 94.1054 10.9662 95.721 8.77852 96.2178C8.36905 96.3117 7.95958 96.3821 7.55401 96.4291C9.14509 96.7107 10.4866 96.6872 10.6699 96.6833C11.0871 96.6247 17.3306 95.6701 22.5444 92.2667Z" fill="#781B1C"/>
<path d="M31.0925 102.786C33.8299 102.786 36.049 99.9278 36.049 96.4019C36.049 92.8759 33.8299 90.0176 31.0925 90.0176C28.3551 90.0176 26.136 92.8759 26.136 96.4019C26.136 99.9278 28.3551 102.786 31.0925 102.786Z" fill="#F97575"/>
<path d="M25.6875 96.4016C25.6875 92.6344 28.1131 89.5674 31.0925 89.5674C34.0718 89.5674 36.4975 92.6344 36.4975 96.4016C36.4975 100.169 34.0718 103.236 31.0925 103.236C28.1131 103.236 25.6875 100.169 25.6875 96.4016ZM26.5883 96.4016C26.5883 99.672 28.6084 102.332 31.0925 102.332C33.5766 102.332 35.5966 99.672 35.5966 96.4016C35.5966 93.1312 33.5766 90.471 31.0925 90.471C28.6084 90.471 26.5883 93.1312 26.5883 96.4016Z" fill="#781B1C"/>
<path d="M47.3035 72.2144C47.3035 72.2144 45.962 65.8379 40.6662 68.2125C35.3743 70.5831 35.1598 84.6857 35.1598 84.6857C35.1598 84.6857 34.8089 85.8358 36.9498 85.2725C39.0907 84.7092 39.5392 85.0456 39.5392 85.0456L42.9163 87.5845C42.9163 87.5845 43.9302 88.3708 45.1703 86.3678C46.4104 84.3688 47.8533 75.3127 47.2996 72.2144H47.3035Z" fill="#D3D3D3"/>
<path d="M109.523 89.9275C109.523 89.9275 108.24 81.0435 100.581 85.3036C100.581 85.3036 98.218 86.5163 96.9779 93.9725C95.7377 101.429 96.3032 101.656 96.3032 101.656C96.3032 101.656 96.4163 102.332 97.3171 102.219C98.218 102.105 100.246 100.752 101.595 101.542C102.944 102.332 104.972 104.367 104.972 104.367C104.972 104.367 106.548 105.094 107.113 103.259C107.113 103.259 110.58 92.8889 109.523 89.9275Z" fill="#D3D3D3"/>
<path d="M109.48 91.8249C109.48 91.8249 110.139 87.1501 106.318 85.8709C102.496 84.5917 100.581 87.3066 100.581 87.3066C100.581 87.3066 98.4402 90.2445 98.1048 95.6665C97.5433 98.3774 97.6524 100.298 97.6524 100.298C97.6524 100.298 97.2937 101.433 100.85 100.697C103.057 100.075 104.298 101.992 104.298 101.992L105.425 103.009C105.425 103.009 106.438 103.917 106.832 102.278C107.226 100.639 109.028 97.0239 109.48 91.8249Z" fill="#232323"/>
<path d="M105.124 103.346L103.997 102.329L103.954 102.289L103.923 102.242C103.88 102.176 102.827 100.611 100.975 101.135L100.944 101.143C99.0135 101.542 97.8904 101.484 97.4147 100.952C97.2119 100.729 97.1729 100.463 97.2002 100.267C97.1846 99.9109 97.1417 98.0958 97.6564 95.6078C98.0035 90.135 100.129 87.1658 100.215 87.0484C100.234 87.0171 102.371 84.0792 106.462 85.4484C108.182 86.0235 109.324 87.3301 109.773 89.2274C110.085 90.5614 109.948 91.731 109.929 91.8797C109.593 95.733 108.533 98.7139 107.827 100.689C107.573 101.405 107.371 101.969 107.269 102.387C107.098 103.095 106.782 103.529 106.333 103.67C106.228 103.702 106.123 103.717 106.025 103.717C105.549 103.717 105.171 103.396 105.12 103.35L105.124 103.346ZM100.948 87.5726C100.928 87.6 98.8809 90.487 98.5573 95.6938L98.5495 95.7564C98.0074 98.3696 98.1049 100.251 98.1088 100.271V100.353V100.357C98.218 100.427 98.7601 100.662 100.749 100.255C102.695 99.7153 104.122 100.928 104.645 101.695L105.725 102.669C105.795 102.728 105.974 102.833 106.072 102.802C106.162 102.774 106.298 102.591 106.4 102.172C106.513 101.707 106.719 101.124 106.985 100.38C107.671 98.4479 108.712 95.5256 109.036 91.7858V91.7623C109.044 91.7193 109.605 87.4474 106.181 86.3012C105.499 86.0743 104.886 85.9805 104.341 85.9805C102.125 85.9805 101.01 87.4905 100.952 87.5726H100.948Z" fill="#781B1C"/>
<path d="M47.561 73.5914C47.3582 71.9249 46.7576 69.8163 45.0574 69.2256C45.0574 69.2256 40.9081 68.5489 39.8279 72.5039C38.7477 76.4588 37.9599 80.3004 37.9599 80.3004C37.9599 80.3004 37.4569 83.074 37.6518 83.7194C37.8468 84.3649 38.8179 84.1693 38.8179 84.1693C38.8179 84.1693 40.8574 83.07 42.0546 84.1693C43.2518 85.2686 44.7181 86.2857 44.7181 86.2857C44.7181 86.2857 45.3537 87.8778 47.4401 76.8774C47.6468 75.7938 47.6897 74.6828 47.5571 73.5875L47.561 73.5914Z" fill="#232323"/>
<path d="M44.3944 86.6105C44.0824 86.3875 42.8267 85.4877 41.7582 84.5058C40.8144 83.6374 39.0557 84.5606 39.0401 84.5723L38.9816 84.6036L38.9153 84.6154C38.2562 84.7484 37.4451 84.5684 37.2267 83.8525C37.0161 83.1562 37.4022 80.8951 37.527 80.2105C37.5348 80.1714 38.3303 76.3103 39.3989 72.3866C40.5727 68.0913 45.0885 68.7759 45.1353 68.7837L45.1743 68.7915L45.2094 68.8032C46.7264 69.3314 47.6935 70.9666 48.0094 73.5406C48.1459 74.6634 48.1069 75.8174 47.8885 76.9675C47.1904 80.6408 46.5782 83.3127 46.0712 84.9127C45.5799 86.4579 45.264 86.7826 44.8818 86.8217C44.8623 86.8217 44.8428 86.8217 44.8272 86.8217C44.6439 86.8217 44.4919 86.7317 44.3983 86.6105H44.3944ZM44.952 69.6717C44.5348 69.6169 41.1849 69.2688 40.2685 72.6252C39.2078 76.5176 38.4161 80.3552 38.4083 80.3826C38.1743 81.6658 37.9872 83.2579 38.0886 83.5904C38.1432 83.7704 38.5292 83.7547 38.6852 83.7391C39.0947 83.5357 41.0757 82.6555 42.3665 83.8408C43.2713 84.6701 44.3437 85.4603 44.7804 85.7772C45.0651 85.2374 45.7593 83.3479 47.0033 76.7993C47.206 75.7391 47.2411 74.679 47.1164 73.6502C46.9292 72.1245 46.4027 70.2037 44.952 69.6717Z" fill="#781B1C"/>
<path d="M45.1703 79.7374C46.4151 79.7374 47.4243 78.5236 47.4243 77.0264C47.4243 75.5292 46.4151 74.3154 45.1703 74.3154C43.9254 74.3154 42.9163 75.5292 42.9163 77.0264C42.9163 78.5236 43.9254 79.7374 45.1703 79.7374Z" fill="white"/>
<path d="M42.4678 77.0261C42.4678 75.2814 43.6806 73.8613 45.1703 73.8613C46.6599 73.8613 47.8728 75.2814 47.8728 77.0261C47.8728 78.7708 46.6599 80.1909 45.1703 80.1909C43.6806 80.1909 42.4678 78.7708 42.4678 77.0261ZM43.3686 77.0261C43.3686 78.274 44.1758 79.2872 45.1703 79.2872C46.1647 79.2872 46.9719 78.274 46.9719 77.0261C46.9719 75.7782 46.1647 74.765 45.1703 74.765C44.1758 74.765 43.3686 75.7782 43.3686 77.0261Z" fill="#781B1C"/>
<path d="M106.497 96.289C107.959 96.289 109.145 95.0998 109.145 93.6328C109.145 92.1658 107.959 90.9766 106.497 90.9766C105.035 90.9766 103.849 92.1658 103.849 93.6328C103.849 95.0998 105.035 96.289 106.497 96.289Z" fill="white"/>
<path d="M103.401 93.6325C103.401 91.919 104.789 90.5264 106.497 90.5264C108.205 90.5264 109.593 91.919 109.593 93.6325C109.593 95.3459 108.205 96.7386 106.497 96.7386C104.789 96.7386 103.401 95.3459 103.401 93.6325ZM104.301 93.6325C104.301 94.8491 105.288 95.8349 106.497 95.8349C107.706 95.8349 108.693 94.8452 108.693 93.6325C108.693 92.4198 107.706 91.43 106.497 91.43C105.288 91.43 104.301 92.4198 104.301 93.6325Z" fill="#781B1C"/>
<path d="M67.1335 147.637C67.387 146.561 68.3463 145.626 69.1419 145.012C75.1045 146.799 82.163 148.697 89.3306 150.136C89.3306 150.136 89.9974 156.223 87.1936 156.497C79.9752 158.14 77.8265 156.446 77.8265 156.446C77.8265 156.446 75.2449 156.673 73.5563 156.56C71.8678 156.446 70.538 155.429 70.538 155.429C70.538 155.429 69.7268 156.106 68.0383 155.656C66.3497 155.206 66.6851 153.849 66.6851 153.849C66.6851 153.849 66.6851 149.557 67.1374 147.637H67.1335Z" fill="#FFA300"/>
<path d="M77.7133 156.912C77.1283 156.959 75.0108 157.111 73.525 157.013C72.1523 156.923 71.0097 156.286 70.5223 155.969C70.3975 156.031 70.2376 156.094 70.0387 156.149C69.4108 156.321 68.7011 156.301 67.9212 156.094C66.0688 155.597 66.1819 154.15 66.2365 153.809C66.2365 153.348 66.2599 149.405 66.7006 147.531C66.9852 146.314 68.0382 145.293 68.8727 144.652L69.056 144.511L69.2783 144.577C76.4459 146.725 83.2275 148.446 89.4241 149.694L89.4826 149.706L89.7556 149.843L89.7829 150.089C89.8024 150.261 90.2274 154.314 88.7845 156.094C88.3829 156.591 87.872 156.88 87.2676 156.947C84.9082 157.483 83.0676 157.667 81.6559 157.667C79.2771 157.667 78.115 157.146 77.7133 156.912ZM69.2393 145.512C68.5568 146.064 67.7808 146.862 67.5741 147.742C67.1412 149.588 67.1373 153.809 67.1373 153.852V153.907L67.1256 153.954C67.0905 154.111 66.9774 154.905 68.1551 155.222C69.5668 155.597 70.2298 155.1 70.2493 155.085L70.5262 154.854L70.8108 155.073C70.8108 155.073 72.0509 156.008 73.5874 156.11C75.2214 156.219 77.764 156 77.7913 155.996L77.9629 155.977L78.1033 156.086C78.1228 156.102 80.2676 157.612 87.096 156.055L87.1506 156.047C87.521 156.012 87.8291 155.84 88.0826 155.523C88.5662 154.924 88.8625 153.825 88.9327 152.342C88.9678 151.58 88.9366 150.895 88.9093 150.512C82.8375 149.276 76.2236 147.593 69.2393 145.508V145.512Z" fill="#781B1C"/>
<path d="M85.9298 149.55C85.9298 149.55 81.0981 150.911 79.5226 150.008L77.9472 149.104C77.9472 149.104 74.4569 150.798 73.1037 149.894C71.7505 148.991 70.8497 148.087 70.8497 148.087C70.8497 148.087 67.9444 149.554 67.1333 148.087" fill="#FFA300"/>
<path d="M81.2113 150.766C83.1962 150.766 85.6803 150.09 86.0508 149.984L85.809 149.116C84.5143 149.479 80.9032 150.281 79.745 149.616L77.9628 148.595L77.7483 148.697C76.4887 149.307 74.1801 150.07 73.3534 149.519C72.0587 148.654 71.1774 147.778 71.1696 147.766L70.9395 147.535L70.647 147.684C69.9918 148.012 68.0186 148.752 67.5272 147.868L66.7395 148.306C67.0476 148.857 67.7534 149.44 69.3952 149.08C69.949 148.955 70.4598 148.76 70.764 148.627C71.1189 148.955 71.8676 149.612 72.8542 150.274C74.2152 151.185 77.0659 150.008 77.9277 149.616L79.3004 150.403C79.7684 150.673 80.4547 150.77 81.2152 150.77L81.2113 150.766Z" fill="#781B1C"/>
<path d="M112.697 153.755H111.797V158.449H112.697V153.755Z" fill="#781B1C"/>
<path d="M104.251 153.191H103.35V157.886H104.251V153.191Z" fill="#781B1C"/>
<path d="M78.4621 149.46H77.5613V154.154H78.4621V149.46Z" fill="#781B1C"/>
<path d="M71.2514 147.993H70.3506V152.688H71.2514V147.993Z" fill="#781B1C"/>
<path d="M18.9147 141.399C17.1516 143.857 17.1491 147.157 18.9018 149.607C19.2573 150.106 18.6432 150.72 18.1439 150.365C15.6914 148.609 12.391 148.617 9.9357 150.378C9.43525 150.735 8.82309 150.123 9.18015 149.622C10.9433 147.164 10.9457 143.864 9.19303 141.414C8.83754 140.915 9.45163 140.3 9.95096 140.656C12.4035 142.411 15.7039 142.403 18.1591 140.643C18.6596 140.286 19.2718 140.898 18.9147 141.399Z" fill="white"/>
<path d="M162.447 3.39888C161.53 4.67352 161.528 6.39139 162.44 7.66316C162.627 7.92247 162.306 8.24335 162.047 8.05595C160.775 7.14378 159.057 7.14648 157.783 8.06264C157.523 8.25086 157.203 7.93099 157.391 7.67108C158.307 6.39644 158.31 4.67858 157.398 3.40681C157.211 3.14749 157.531 2.82662 157.791 3.01401C159.063 3.92618 160.78 3.92349 162.055 3.00732C162.315 2.81911 162.635 3.13898 162.447 3.39888Z" fill="white"/>
<path d="M22.1829 30.0019L21.3554 31.1549C20.1799 32.7904 20.1764 34.9946 21.3468 36.6264L22.1707 37.7768C22.4112 38.1095 21.9994 38.5212 21.6667 38.2808L20.5163 37.4569C18.8845 36.2865 16.6803 36.29 15.0448 37.4655L13.8918 38.293C13.5583 38.5345 13.1479 38.1241 13.3894 37.7906L14.2169 36.6376C15.3924 35.0021 15.3959 32.7979 14.2254 31.166L13.4016 30.0156C13.1611 29.6829 13.5728 29.2712 13.9056 29.5116L15.056 30.3355C16.6878 31.5059 18.892 31.5025 20.5275 30.3269L21.6805 29.4994C22.014 29.2579 22.4244 29.6684 22.1829 30.0019Z" fill="white"/>
<path d="M49.3781 91.2544L48.9725 90.9727C48.6059 90.7106 48.5279 90.1943 48.797 89.8304L50.8326 87.0647C51.1056 86.7009 51.5775 86.5914 51.9012 86.8222L52.2716 87.0803C52.6031 87.3151 52.6733 87.808 52.4198 88.1835L50.5012 91.0314C50.2477 91.4109 49.7446 91.5126 49.3742 91.2544H49.3781Z" fill="#FFA300"/>
<path d="M50.817 91.2386L52.72 88.3789C53.0905 87.8195 52.9735 87.0958 52.4938 86.7555L52.1272 86.4973C51.8855 86.3291 51.6047 86.286 51.3161 86.3486C51.0431 86.419 50.7896 86.6068 50.5791 86.8689L48.4849 89.5877C48.0755 90.1197 48.2042 90.8982 48.7462 91.2816L49.1557 91.5672C49.7016 91.9505 50.4504 91.7901 50.8208 91.2307L50.817 91.2386ZM52.0492 87.397C52.2247 87.5183 52.2598 87.7804 52.1272 87.976L50.193 90.8122C50.0604 91.0078 49.7952 91.0625 49.6041 90.9295L49.1986 90.6479C49.0075 90.5149 48.9685 90.241 49.105 90.0493L51.1133 87.264C51.2537 87.0723 51.4994 87.0136 51.6749 87.1349L52.0492 87.3931V87.397Z" fill="#781B1C"/>
<path d="M49.9552 94.2343L49.5301 93.9526C49.1479 93.6983 49.0426 93.1859 49.3 92.8103L51.2187 89.9624C51.4722 89.5869 51.9674 89.4734 52.3223 89.7081L52.7162 89.9702C53.071 90.2089 53.1724 90.694 52.9267 91.0812L51.09 93.9839C50.8482 94.3673 50.3373 94.4885 49.9552 94.2343Z" fill="#FFA300"/>
<path d="M51.4214 94.1878L53.2465 91.2773C53.6013 90.7062 53.4532 89.9825 52.9306 89.6382L52.5406 89.38C52.022 89.0358 51.2927 89.204 50.9145 89.7516L48.9802 92.5878C48.6019 93.1433 48.754 93.9022 49.3195 94.2778L49.7445 94.5594C50.3139 94.9311 51.0704 94.7511 51.4214 94.1878ZM52.5055 90.2954C52.6927 90.4206 52.7434 90.6827 52.6147 90.8822L50.7624 93.7771C50.6337 93.9766 50.3646 94.0391 50.1657 93.9061L49.7445 93.6284C49.5457 93.4954 49.4911 93.2255 49.6237 93.0299L51.5267 90.1702C51.6593 89.9707 51.9206 89.912 52.1078 90.0372L52.5055 90.2993V90.2954Z" fill="#781B1C"/>
<path d="M52.8995 93.5505L52.4823 93.2884C52.104 93.0537 51.9987 92.549 52.2405 92.1656L54.0772 89.263C54.3229 88.8796 54.8026 88.7466 55.1575 88.9696L55.5474 89.216C55.8984 89.439 56.0076 89.9202 55.7697 90.3114L54.007 93.261C53.777 93.6483 53.2739 93.793 52.8956 93.5544L52.8995 93.5505Z" fill="#FFA300"/>
<path d="M54.3346 93.453L56.0855 90.4995C56.4287 89.9205 56.2688 89.2047 55.7541 88.8839L55.3641 88.6413C54.8493 88.3166 54.1357 88.5122 53.773 89.0756L51.9207 91.9704C51.558 92.5337 51.7179 93.277 52.2755 93.6252L52.6928 93.8873C53.2505 94.2354 53.9914 94.0281 54.3307 93.453H54.3346ZM55.3446 89.5489C55.5279 89.6663 55.5825 89.9245 55.4616 90.1279L53.6872 93.0697C53.5624 93.2731 53.3012 93.3435 53.1062 93.2183L52.6928 92.9562C52.4978 92.8349 52.4393 92.5689 52.568 92.3655L54.3931 89.455C54.5179 89.2516 54.7752 89.1851 54.9585 89.2985L55.3524 89.545L55.3446 89.5489Z" fill="#781B1C"/>
<path d="M53.6247 96.4843L53.1918 96.2301C52.8019 95.9993 52.6732 95.4946 52.9072 95.1073L54.6698 92.1577C54.9038 91.7665 55.3913 91.6296 55.7617 91.8448L56.1712 92.0873C56.5378 92.3064 56.6587 92.8032 56.4364 93.1944L54.7439 96.1831C54.5177 96.5821 54.0186 96.7191 53.6286 96.4843H53.6247Z" fill="#FFA300"/>
<path d="M55.0792 96.3712L56.76 93.3746C57.0876 92.7878 56.9004 92.0719 56.3661 91.7472L55.9606 91.5086C55.4224 91.1917 54.701 91.3952 54.3539 91.9702L52.5795 94.912C52.2325 95.4832 52.4196 96.2264 53.0007 96.5707L53.4375 96.8289C54.0146 97.177 54.7595 96.958 55.087 96.3751L55.0792 96.3712ZM55.9723 92.424C56.1672 92.5375 56.2296 92.7996 56.1087 93.0069L54.4046 95.9878C54.2876 96.1951 54.0224 96.2655 53.8196 96.1443L53.3868 95.89C53.184 95.7687 53.1138 95.5027 53.2386 95.2993L54.9895 92.3458C55.1104 92.1423 55.3678 92.068 55.5628 92.1815L55.9723 92.424Z" fill="#781B1C"/>
<path d="M56.5261 95.6511L56.0972 95.4125C55.7072 95.1973 55.5746 94.7044 55.8008 94.3093L57.4933 91.3206C57.7194 90.9254 58.1952 90.769 58.5618 90.9685L58.9673 91.1915C59.3339 91.3949 59.4548 91.8839 59.2403 92.2829L57.6141 95.3107C57.3997 95.7098 56.9122 95.8623 56.5222 95.6472L56.5261 95.6511Z" fill="#FFA300"/>
<path d="M57.9456 95.4985L59.5601 92.4668C59.872 91.8761 59.6927 91.1523 59.1545 90.855L58.7489 90.632C58.2108 90.3387 57.5088 90.5655 57.1774 91.1445L55.4732 94.1254C55.1378 94.7083 55.3289 95.4438 55.9061 95.7606L56.3389 95.9992C56.9122 96.3161 57.6375 96.0931 57.9495 95.5024L57.9456 95.4985ZM58.7801 91.5396C58.9712 91.6452 59.0375 91.9034 58.9244 92.1147L57.2865 95.1347C57.1735 95.346 56.9161 95.4242 56.7133 95.3107L56.2843 95.076C56.0815 94.9626 56.0113 94.7044 56.1283 94.4971L57.8091 91.5005C57.9261 91.2932 58.1796 91.211 58.3707 91.3166L58.7801 91.5435V91.5396Z" fill="#781B1C"/>
<path d="M57.3764 98.5534L56.9279 98.3265C56.5223 98.1191 56.382 97.6106 56.5964 97.2116L58.2226 94.1837C58.441 93.7808 58.9129 93.6321 59.295 93.8277L59.7162 94.0429C60.0984 94.2385 60.2388 94.7236 60.036 95.1304L58.48 98.1935C58.2733 98.6003 57.7819 98.7607 57.3764 98.5534Z" fill="#FFA300"/>
<path d="M58.8232 98.3657L60.3674 95.2987C60.6677 94.7002 60.4571 93.9804 59.8995 93.6948L59.4783 93.4796C58.9246 93.1901 58.2187 93.4131 57.8989 94.0038L56.2611 97.0239C55.9413 97.6067 56.1558 98.3618 56.7485 98.6708L57.197 98.9016C57.7937 99.2067 58.5229 98.9681 58.8232 98.3696V98.3657ZM59.5407 94.3872C59.7435 94.4889 59.8176 94.7471 59.7084 94.9584L58.1407 98.0136C58.0315 98.2248 57.7703 98.3109 57.5597 98.2014L57.1151 97.9745C56.9045 97.8688 56.8265 97.6028 56.9396 97.3916L58.5541 94.3598C58.6672 94.1486 58.9168 94.0703 59.1195 94.1681L59.5446 94.3833L59.5407 94.3872Z" fill="#781B1C"/>
<path d="M60.2309 97.596L59.7941 97.373C59.4003 97.1696 59.2482 96.6806 59.4549 96.2737L61.0108 93.2107C61.2175 92.8038 61.6855 92.6317 62.0599 92.8234L62.4732 93.0347C62.8437 93.2302 62.9958 93.6919 62.8008 94.1065L61.3111 97.2048C61.1161 97.6116 60.6248 97.8033 60.2348 97.596H60.2309Z" fill="#FFA300"/>
<path d="M61.6543 97.3649L63.1284 94.2627C63.4169 93.6525 63.1908 92.964 62.6448 92.6862L62.2353 92.475C61.6894 92.1972 60.9952 92.4554 60.691 93.05L59.1234 96.1053C58.8153 96.6999 59.0415 97.4275 59.6264 97.7248L60.0632 97.9478C60.6482 98.2451 61.3696 97.9635 61.6543 97.3649ZM62.3016 93.3865C62.4966 93.4882 62.5746 93.7385 62.4693 93.9537L60.9679 97.0441C60.8626 97.2593 60.6092 97.3532 60.4025 97.2476L59.9657 97.0246C59.759 96.919 59.681 96.6608 59.7863 96.4495L61.3306 93.3826C61.4398 93.1713 61.6855 93.0774 61.8805 93.1791L62.2938 93.3904L62.3016 93.3865Z" fill="#781B1C"/>
<path d="M61.2213 100.443L60.7689 100.232C60.3595 100.04 60.184 99.5513 60.3829 99.1405L61.8726 96.0422C62.0714 95.6315 62.5433 95.4476 62.9333 95.6276L63.3622 95.8271C63.7483 96.007 63.9121 96.4921 63.7249 96.9068L62.3054 100.036C62.1182 100.451 61.6347 100.631 61.2213 100.439V100.443Z" fill="#FFA300"/>
<path d="M62.6525 100.205L64.0603 97.0711C64.3332 96.4609 64.0915 95.745 63.526 95.479L63.097 95.2795C62.5277 95.0134 61.8296 95.2873 61.5333 95.8897L60.0319 98.9802C59.7394 99.5826 59.9929 100.302 60.6012 100.588L61.0575 100.803C61.6658 101.089 62.3834 100.823 62.6525 100.209V100.205ZM63.1945 96.187C63.3973 96.2809 63.4831 96.5352 63.3856 96.7543L61.9544 99.876C61.8569 100.091 61.5995 100.189 61.3851 100.087L60.9327 99.876C60.7182 99.7743 60.6285 99.52 60.7299 99.3049L62.204 96.2027C62.3054 95.9875 62.555 95.8897 62.7617 95.9875L63.1945 96.1909V96.187Z" fill="#781B1C"/>
<path d="M64.0291 99.3637L63.5768 99.172C63.1751 98.9882 63.0035 98.4953 63.1907 98.0845L64.6102 94.9549C64.7974 94.5403 65.2575 94.3525 65.6358 94.5246L66.0609 94.7046C66.4469 94.8689 66.6146 95.3383 66.4352 95.7569L65.086 98.9178C64.9066 99.3363 64.4347 99.5358 64.0252 99.3637H64.0291Z" fill="#FFA300"/>
<path d="M65.437 99.0667L66.7707 95.902C67.028 95.2839 66.7824 94.5875 66.2169 94.3489L65.7918 94.169C65.2381 93.9108 64.5595 94.1924 64.2788 94.8027L62.8476 97.9244C62.5668 98.5308 62.8203 99.2545 63.4169 99.5283L63.8693 99.72C64.4737 99.9743 65.1757 99.6809 65.4331 99.0628L65.437 99.0667ZM65.9049 95.0648C66.1077 95.1509 66.1974 95.3973 66.0999 95.6164L64.7389 98.7733C64.6453 98.9924 64.3957 99.098 64.1813 99.0081L63.7328 98.8164C63.5222 98.7225 63.4325 98.4604 63.53 98.2452L64.9378 95.1117C65.0353 94.8927 65.2771 94.7949 65.476 94.8848L65.9049 95.0648Z" fill="#781B1C"/>
<path d="M65.1404 102.169L64.6764 101.973C64.2591 101.797 64.0641 101.316 64.2435 100.897L65.5928 97.7365C65.7722 97.3179 66.2362 97.1145 66.6301 97.2827L67.0669 97.4666C67.4607 97.6348 67.644 98.112 67.4763 98.5345L66.2011 101.727C66.0334 102.149 65.5577 102.349 65.1404 102.173V102.169Z" fill="#FFA300"/>
<path d="M66.56 101.867L67.8235 98.6714C68.0653 98.0533 67.7923 97.3492 67.2191 97.1066L66.7823 96.9228C66.2051 96.6802 65.5188 96.9814 65.2536 97.5956L63.8926 100.753C63.6274 101.367 63.9121 102.079 64.5322 102.341L64.9962 102.536C65.6124 102.799 66.3182 102.501 66.5639 101.871L66.56 101.867ZM66.9188 97.8264C67.1255 97.9125 67.223 98.1668 67.1333 98.3858L65.8464 101.57C65.7567 101.793 65.5071 101.895 65.2887 101.805L64.8285 101.609C64.6102 101.515 64.5088 101.265 64.6024 101.042L65.9361 97.8773C66.0296 97.6582 66.2714 97.5487 66.482 97.6387L66.9227 97.8225L66.9188 97.8264Z" fill="#781B1C"/>
<path d="M67.9015 100.953L67.4414 100.78C67.0241 100.628 66.8291 100.155 67.0007 99.7281L68.2759 96.536C68.4436 96.1174 68.896 95.9022 69.2859 96.043L69.7188 96.2034C70.1088 96.3482 70.2959 96.8137 70.14 97.2401L68.9389 100.46C68.779 100.886 68.3149 101.105 67.9015 100.949V100.953Z" fill="#FFA300"/>
<path d="M69.2936 100.596L70.4792 97.3726C70.7092 96.7428 70.4324 96.0582 69.8591 95.8431L69.4262 95.6827C68.853 95.4793 68.1939 95.7766 67.9404 96.3986L66.6536 99.5829C66.404 100.201 66.6847 100.925 67.3009 101.148L67.7611 101.32C68.3772 101.551 69.0636 101.226 69.2936 100.596ZM69.5822 96.5707C69.7889 96.6489 69.8864 96.8915 69.8045 97.1145L68.5917 100.33C68.5059 100.553 68.2641 100.67 68.0457 100.588L67.5895 100.416C67.3711 100.334 67.2697 100.088 67.3555 99.8646L68.619 96.6685C68.7087 96.4455 68.9466 96.3282 69.1533 96.4064L69.59 96.5707H69.5822Z" fill="#781B1C"/>
<path d="M69.1417 103.713L68.6698 103.537C68.2447 103.377 68.0303 102.904 68.1901 102.477L69.3912 99.2577C69.5511 98.8313 70.0035 98.6083 70.4052 98.757L70.8497 98.9252C71.2475 99.0778 71.4542 99.5433 71.3099 99.9697L70.1868 103.217C70.0386 103.651 69.5706 103.878 69.1456 103.713H69.1417Z" fill="#FFA300"/>
<path d="M70.5495 103.338L71.6609 100.087C71.8754 99.4493 71.5634 98.7921 70.9785 98.5613L70.5378 98.397C69.9528 98.1779 69.2821 98.5065 69.0442 99.1324L67.8314 102.348C67.5935 102.974 67.9133 103.674 68.5412 103.913L69.013 104.089C69.6409 104.335 70.3389 103.975 70.5534 103.342L70.5495 103.338ZM70.7172 99.2928C70.9278 99.3711 71.037 99.6214 70.9551 99.8444L69.8164 103.087C69.7384 103.314 69.4927 103.428 69.2704 103.346L68.8024 103.17C68.5801 103.087 68.4671 102.837 68.549 102.614L69.7345 99.3906C69.8164 99.1676 70.0542 99.0503 70.2687 99.1285L70.7133 99.2967L70.7172 99.2928Z" fill="#781B1C"/>
<path d="M71.848 102.359L71.3801 102.207C70.9589 102.07 70.7366 101.608 70.8848 101.182L72.0079 97.9351C72.1561 97.5048 72.6007 97.2622 72.9945 97.3874L73.4352 97.5282C73.8291 97.6573 74.0397 98.1111 73.9032 98.5453L72.858 101.82C72.7216 102.254 72.2653 102.493 71.8441 102.356L71.848 102.359Z" fill="#FFA300"/>
<path d="M73.2207 101.941L74.2502 98.6631C74.4491 98.0254 74.141 97.3487 73.56 97.1609L73.1232 97.0201C72.5422 96.8362 71.8909 97.1922 71.6686 97.8181L70.5299 101.061C70.3037 101.699 70.6313 102.383 71.2552 102.583L71.7232 102.735C72.3472 102.939 73.0179 102.583 73.2168 101.945L73.2207 101.941ZM73.3143 97.9042C73.5249 97.9707 73.6341 98.2132 73.56 98.4401L72.5032 101.711C72.4291 101.937 72.1912 102.063 71.9728 101.992L71.5087 101.84C71.2903 101.769 71.1734 101.527 71.2514 101.3L72.3628 98.0489C72.4408 97.822 72.6708 97.6929 72.8814 97.7633L73.3221 97.9081L73.3143 97.9042Z" fill="#781B1C"/>
<path d="M73.2169 105.067L72.7372 104.911C72.3043 104.77 72.0665 104.304 72.2068 103.874L73.252 100.6C73.3923 100.165 73.833 99.9229 74.2386 100.056L74.6909 100.201C75.0965 100.342 75.3305 100.776 75.2018 101.214L74.2386 104.512C74.1138 104.946 73.6497 105.212 73.2208 105.067H73.2169Z" fill="#FFA300"/>
<path d="M74.613 104.613L75.5606 101.308C75.7478 100.654 75.3968 100.029 74.8041 99.8212L74.3556 99.6765C73.759 99.4848 73.1077 99.8447 72.901 100.482L71.8442 103.753C71.6375 104.39 71.9885 105.075 72.628 105.286L73.1077 105.443C73.7434 105.662 74.4336 105.251 74.613 104.617V104.613ZM74.5779 100.576C74.7924 100.647 74.9094 100.889 74.8431 101.116L73.8642 104.41C73.7979 104.637 73.5562 104.766 73.3339 104.692L72.8581 104.539C72.6319 104.465 72.5071 104.222 72.5773 103.995L73.6069 100.717C73.6771 100.49 73.911 100.361 74.1255 100.432L74.5779 100.58V100.576Z" fill="#781B1C"/>
<path d="M75.8568 103.577L75.381 103.448C74.952 103.33 74.7103 102.884 74.8351 102.446L75.7983 99.1485C75.927 98.7104 76.3559 98.4444 76.7576 98.5539L77.2022 98.6752C77.6038 98.7847 77.8339 99.2268 77.7169 99.6688L76.8395 102.99C76.7225 103.428 76.2818 103.694 75.8529 103.577H75.8568Z" fill="#FFA300"/>
<path d="M77.2101 103.092L78.0719 99.7666C78.2396 99.1172 77.8964 98.46 77.3115 98.2996L76.8708 98.1783C76.2859 98.0179 75.6502 98.413 75.4591 99.0546L74.4803 102.348C74.2892 102.99 74.648 103.651 75.2836 103.827L75.7594 103.956C76.395 104.128 77.0463 103.741 77.214 103.092H77.2101ZM77.1009 99.0546C77.3115 99.1133 77.4324 99.3441 77.3739 99.5749L76.4808 102.892C76.4184 103.123 76.1884 103.26 75.9622 103.201L75.4903 103.072C75.268 103.01 75.1393 102.775 75.2056 102.548L76.1533 99.2424C76.2196 99.0115 76.4457 98.8746 76.6563 98.9294L77.1048 99.0507L77.1009 99.0546Z" fill="#781B1C"/>
<path d="M77.3662 106.213L76.8787 106.08C76.4381 105.962 76.1768 105.509 76.2938 105.066L77.1712 101.745C77.2882 101.307 77.7172 101.041 78.1305 101.151L78.5868 101.276C78.9963 101.397 79.2537 101.816 79.1484 102.262L78.3567 105.606C78.2553 106.048 77.803 106.338 77.3662 106.213Z" fill="#FFA300"/>
<path d="M78.7349 105.689L79.5109 102.34C79.663 101.679 79.2808 101.073 78.6803 100.897L78.224 100.772C77.6196 100.607 76.9878 101.002 76.8123 101.648L75.9193 104.965C75.7438 105.611 76.1299 106.28 76.7811 106.456L77.2686 106.589C77.9159 106.773 78.5867 106.327 78.7349 105.685V105.689ZM78.4931 101.66C78.7115 101.718 78.8402 101.957 78.7856 102.188L77.9783 105.529C77.9237 105.759 77.6897 105.9 77.4597 105.838L76.9761 105.709C76.746 105.646 76.6095 105.407 76.668 105.176L77.5299 101.847C77.5884 101.617 77.8145 101.476 78.0329 101.534L78.4931 101.66Z" fill="#781B1C"/>
<path d="M79.9282 104.59L79.4486 104.488C79.0118 104.394 78.7466 103.96 78.8519 103.518L79.6435 100.173C79.7488 99.7313 80.1622 99.4418 80.5678 99.5278L81.0162 99.6256C81.4218 99.7117 81.6753 100.142 81.5817 100.588L80.8797 103.952C80.7862 104.398 80.3611 104.684 79.9243 104.59H79.9282Z" fill="#FFA300"/>
<path d="M81.2541 104.031L81.9404 100.663C82.073 100.005 81.6987 99.3678 81.1059 99.2427L80.6574 99.1488C80.0647 99.0236 79.4524 99.45 79.2925 100.099L78.4853 103.44C78.3254 104.09 78.7193 104.731 79.3627 104.872L79.8463 104.978C80.4898 105.115 81.1215 104.692 81.2541 104.035V104.031ZM80.9343 100.005C81.1488 100.052 81.2814 100.279 81.2307 100.51L80.5131 103.87C80.4624 104.105 80.2402 104.254 80.014 104.207L79.5343 104.105C79.3081 104.058 79.1678 103.827 79.2223 103.597L79.9984 100.248C80.053 100.017 80.2714 99.8647 80.4819 99.9077L80.9343 100.005Z" fill="#781B1C"/>
<path d="M81.5777 107.141L81.0824 107.035C80.6339 106.941 80.3493 106.503 80.4428 106.057L81.1448 102.693C81.2384 102.247 81.6518 101.958 82.069 102.048L82.5331 102.145C82.9504 102.243 83.2233 102.662 83.1453 103.104L82.537 106.488C82.4551 106.938 82.0261 107.243 81.5816 107.141H81.5777Z" fill="#FFA300"/>
<path d="M82.9192 106.55L83.5119 103.162C83.625 102.493 83.2155 101.906 82.6072 101.762L82.147 101.664C81.5387 101.535 80.9264 101.957 80.7821 102.614L80.0646 105.975C79.9242 106.628 80.3454 107.277 81.0083 107.418L81.5036 107.524C82.1626 107.68 82.8061 107.199 82.9192 106.546V106.55ZM82.459 102.532C82.6774 102.579 82.8217 102.81 82.7788 103.045L82.1509 106.425C82.108 106.659 81.8818 106.808 81.6518 106.761L81.1604 106.655C80.9264 106.605 80.7782 106.374 80.825 106.143L81.5114 102.775C81.5582 102.54 81.7765 102.388 81.9949 102.438L82.459 102.54V102.532Z" fill="#781B1C"/>
<path d="M84.054 105.381L83.5665 105.306C83.1258 105.24 82.8373 104.821 82.9192 104.371L83.5275 100.988C83.6094 100.542 84.0072 100.229 84.4127 100.291L84.8651 100.362C85.2746 100.424 85.5515 100.839 85.4813 101.289L84.9665 104.688C84.9002 105.138 84.4868 105.447 84.0501 105.381H84.054Z" fill="#FFA300"/>
<path d="M85.3448 104.747L85.84 101.343C85.9336 100.678 85.528 100.064 84.9314 99.974L84.479 99.9036C83.8824 99.8097 83.2935 100.279 83.1726 100.925L82.5448 104.305C82.42 104.973 82.849 105.588 83.5002 105.689L83.9877 105.764C84.6389 105.865 85.2473 105.408 85.3409 104.743L85.3448 104.747ZM84.8027 100.749C85.0172 100.78 85.1654 100.999 85.1264 101.238L84.596 104.633C84.5609 104.868 84.3425 105.032 84.1125 104.997L83.6289 104.923C83.3988 104.887 83.2467 104.668 83.2896 104.434L83.8824 101.046C83.9253 100.811 84.132 100.647 84.3464 100.678L84.8027 100.749Z" fill="#781B1C"/>
<path d="M85.8443 107.833L85.3451 107.755C84.8928 107.684 84.5808 107.266 84.651 106.816L85.1657 103.416C85.2359 102.966 85.6298 102.653 86.051 102.72L86.5189 102.79C86.9401 102.857 87.2365 103.275 87.1819 103.725L86.7646 107.136C86.71 107.59 86.3006 107.899 85.8482 107.829L85.8443 107.833Z" fill="#FFA300"/>
<path d="M87.1505 107.175L87.5483 103.76C87.5873 103.428 87.4937 103.115 87.3143 102.876C87.1349 102.63 86.8737 102.45 86.5656 102.403L86.1015 102.332C85.4854 102.239 84.9004 102.7 84.7951 103.361L84.2648 106.757C84.1595 107.418 84.6196 108.04 85.2904 108.146L85.7934 108.224C86.1288 108.275 86.4486 108.189 86.6943 108.001C86.94 107.801 87.1115 107.512 87.1505 107.179V107.175ZM86.4642 103.181C86.6865 103.217 86.8425 103.436 86.8113 103.674L86.3784 107.085C86.3472 107.32 86.1327 107.484 85.8948 107.449L85.3957 107.371C85.1617 107.336 84.9979 107.113 85.0291 106.878L85.5244 103.475C85.5595 103.24 85.7661 103.076 85.9884 103.107L86.4564 103.181H86.4642Z" fill="#781B1C"/>
<path d="M88.2188 105.94L87.7274 105.897C87.2829 105.857 86.9709 105.458 87.0255 105.005L87.4428 101.593C87.4974 101.144 87.8756 100.807 88.2851 100.842L88.7414 100.881C89.1508 100.917 89.4511 101.316 89.4082 101.77L89.0923 105.192C89.0533 105.646 88.6595 105.979 88.2149 105.94H88.2188Z" fill="#FFA300"/>
<path d="M89.4706 105.224L89.767 101.797C89.8216 101.128 89.381 100.541 88.7804 100.49L88.328 100.451C88.0278 100.424 87.7392 100.537 87.513 100.733C87.2868 100.921 87.1269 101.202 87.084 101.535L86.6512 104.946C86.6083 105.279 86.7019 105.599 86.8851 105.85C87.0723 106.092 87.3531 106.253 87.6807 106.28L88.1759 106.323C88.835 106.382 89.4161 105.889 89.4706 105.22V105.224ZM88.6985 101.269C88.9169 101.288 89.0729 101.496 89.0495 101.734L88.718 105.157C88.6946 105.396 88.4879 105.572 88.2578 105.549L87.7704 105.506C87.5403 105.486 87.3726 105.275 87.3999 105.036L87.7977 101.621C87.825 101.382 88.0239 101.206 88.2422 101.226L88.6985 101.265V101.269Z" fill="#781B1C"/>
<path d="M90.1532 108.275L89.6462 108.228C89.1899 108.189 88.8507 107.786 88.8936 107.332L89.2094 103.909C89.2523 103.456 89.6306 103.119 90.0518 103.158L90.5236 103.201C90.9487 103.241 91.2685 103.64 91.2412 104.093L91.0306 107.524C91.0033 107.978 90.6094 108.314 90.1532 108.271V108.275Z" fill="#FFA300"/>
<path d="M91.4205 107.559L91.6155 104.128C91.6506 103.459 91.1748 102.869 90.5587 102.814L90.0907 102.771C89.4707 102.716 88.913 103.213 88.8467 103.878L88.5152 107.301C88.4489 107.966 88.9442 108.56 89.6227 108.619L90.1297 108.666C90.8082 108.725 91.3893 108.232 91.4244 107.563L91.4205 107.559ZM90.4963 103.592C90.7186 103.612 90.8901 103.823 90.8745 104.062L90.6445 107.492C90.6289 107.731 90.4222 107.907 90.1843 107.888L89.6812 107.841C89.4434 107.821 89.2679 107.61 89.2874 107.371L89.5837 103.944C89.6032 103.706 89.8021 103.53 90.0283 103.549L90.5002 103.592H90.4963Z" fill="#781B1C"/>
<path d="M89.744 125.195L87.9657 125.097C85.2983 124.948 83.3563 122.499 83.8164 119.859L85.9808 107.055C86.1875 105.826 87.2833 104.95 88.5234 105.021L91.4013 105.181C92.6415 105.251 93.632 106.241 93.7022 107.485L94.447 120.449C94.6108 123.125 92.4153 125.343 89.7479 125.195H89.744Z" fill="#FFA300"/>
<path d="M89.7128 125.769L87.9345 125.671C86.4994 125.593 85.1657 124.901 84.2727 123.77C83.3797 122.644 83.0092 121.181 83.2549 119.761L85.4192 106.961C85.6766 105.443 87.022 104.363 88.5546 104.449L91.4326 104.61C92.9651 104.696 94.1857 105.916 94.2754 107.454L95.0203 120.418C95.11 121.853 94.5796 123.266 93.5657 124.287C92.5518 125.308 91.1518 125.851 89.7167 125.769H89.7128ZM88.4883 105.595C87.5368 105.544 86.7022 106.213 86.5423 107.152L84.378 119.956C84.1869 121.055 84.4755 122.186 85.1657 123.058C85.856 123.931 86.8894 124.467 87.9969 124.525L89.7752 124.623C90.8827 124.686 91.9668 124.267 92.7507 123.477C93.5345 122.687 93.944 121.595 93.8738 120.484L93.1289 107.516C93.0743 106.562 92.3178 105.807 91.3663 105.752L88.4883 105.591V105.595Z" fill="#781B1C"/>
<path d="M88.9991 122.566C89.9467 122.566 90.7149 121.795 90.7149 120.844C90.7149 119.894 89.9467 119.123 88.9991 119.123C88.0514 119.123 87.2832 119.894 87.2832 120.844C87.2832 121.795 88.0514 122.566 88.9991 122.566Z" fill="white"/>
<path d="M88.8861 122.851C87.7824 122.788 86.9362 121.842 86.9986 120.735C87.061 119.627 88.0047 118.779 89.1083 118.841C90.212 118.904 91.0582 119.85 90.9958 120.957C90.9334 122.065 89.9897 122.913 88.8861 122.851ZM89.0771 119.412C88.2894 119.369 87.6148 119.976 87.5719 120.766C87.529 121.556 88.1334 122.233 88.9211 122.276C89.7089 122.319 90.3835 121.713 90.4264 120.922C90.4693 120.132 89.8649 119.455 89.0771 119.412Z" fill="#781B1C"/>
<path d="M112.846 111.337C112.846 111.337 116.543 110.739 123.367 108.568C130.192 106.397 138.205 104.707 142.421 109.694C146.633 114.682 141.021 120.722 141.021 120.722C141.021 120.722 132.758 130.811 120.684 131.871C108.607 132.931 96.5528 126.129 96.5528 126.129C96.5528 126.129 90.2898 122.995 92.9026 117.405C95.5154 111.815 104.547 112.538 104.547 112.538C104.547 112.538 109.476 112.265 112.846 111.334V111.337Z" fill="#232323"/>
<path d="M92.657 123.105C91.5963 121.282 91.5339 119.271 92.4932 117.217C93.6241 114.796 96.0887 113.145 99.614 112.437C102.094 111.94 104.251 112.069 104.547 112.089C104.953 112.065 109.57 111.772 112.725 110.903L112.772 110.892C112.807 110.884 116.523 110.274 123.227 108.138C130.004 105.982 138.346 104.179 142.76 109.401C144.597 111.58 144.928 114.291 143.712 117.252C142.842 119.369 141.497 120.871 141.356 121.02C141.185 121.227 139.141 123.664 135.643 126.262C132.336 128.718 127.06 131.766 120.715 132.321C117.229 132.626 111.485 132.443 103.935 129.826C99.5516 128.308 96.5294 126.637 96.3344 126.528C96.1823 126.449 94.6419 125.644 93.3979 124.153C93.1132 123.809 92.8637 123.461 92.6531 123.101L92.657 123.105ZM112.943 111.78C109.566 112.707 104.773 112.981 104.571 112.992H104.508C104.422 112.985 95.7572 112.363 93.3082 117.601C92.306 119.744 92.5673 121.755 94.0921 123.574C95.2581 124.967 96.736 125.718 96.7516 125.726L96.7711 125.738C96.892 125.804 108.849 132.458 120.641 131.425C126.764 130.89 131.88 127.936 135.09 125.558C138.584 122.964 140.651 120.468 140.67 120.441L140.69 120.421C140.69 120.421 142.058 118.931 142.893 116.893C143.977 114.24 143.7 111.917 142.078 109.992C138.01 105.176 130.016 106.933 123.504 109.002C117.018 111.064 113.286 111.725 112.943 111.78Z" fill="#781B1C"/>
<path d="M93.3122 123.296C94.5796 125.146 96.549 126.132 96.549 126.132C96.549 126.132 108.603 132.935 120.68 131.875C132.758 130.815 141.017 120.726 141.017 120.726C141.017 120.726 141.813 119.869 142.577 118.539C140.795 120.718 137.94 123.425 133.382 126.32C122.427 133.268 111.032 129.614 111.032 129.614C111.032 129.614 103.927 127.497 97.6097 125.839C95.6872 125.334 94.3028 124.38 93.3044 123.3L93.3122 123.296Z" fill="white"/>
<path d="M92.9417 123.551L93.6436 122.987C94.7238 124.157 96.0965 124.967 97.7305 125.397C103.982 127.04 111.095 129.157 111.165 129.176C111.2 129.188 114.031 130.076 118.141 130.119C121.92 130.154 127.59 129.458 133.144 125.937C137.008 123.484 140.069 120.898 142.234 118.254L142.971 118.766C142.226 120.065 141.458 120.918 141.36 121.027C141.193 121.231 139.149 123.672 135.647 126.269C132.34 128.726 127.064 131.774 120.719 132.329C117.233 132.634 111.489 132.45 103.939 129.833C99.5594 128.315 96.5333 126.645 96.3383 126.536C96.1628 126.446 94.2285 125.432 92.9417 123.555V123.551ZM131.01 128.159C126.14 130.545 121.413 131.054 118.095 131.019C113.86 130.972 111.017 130.076 110.896 130.037C110.837 130.017 104.204 128.046 98.1282 126.434C101.599 128.128 111.173 132.251 120.637 131.422C124.595 131.073 128.136 129.716 131.007 128.159H131.01Z" fill="#781B1C"/>
</svg>
