<svg width="110" height="29" viewBox="0 0 110 29" fill="none" xmlns="http://www.w3.org/2000/svg">
<path d="M0.196289 0.697548H10.4779C11.4126 0.697548 14.2167 0.40995 15.463 4.43633C16.3977 7.02471 17.6439 11.0511 19.5133 17.0907H20.1364C22.0058 10.7635 23.5637 6.44951 24.1868 4.43633C25.433 0.40995 28.5487 0.697548 29.7949 0.697548H39.4535V28.307H29.4834V11.9139H28.8603L23.5637 28.307H16.0861L10.7895 11.9139H9.8548V28.307H0.196289M43.5038 0.697548H53.4739V17.0907H54.4086L60.9514 3.57353C62.1977 0.985146 65.0018 0.697548 65.0018 0.697548H74.3487V28.307H64.3786V11.9139H63.7555L57.2127 25.431C55.9664 28.0194 52.8507 28.307 52.8507 28.307H43.5038M87.746 19.9666V28.307H78.3991V13.9271H108.932C107.686 17.3782 103.324 19.9666 98.3392 19.9666" fill="#0F754E"/>
<path d="M109.556 12.2017C110.802 7.02492 107.063 0.697754 98.9628 0.697754H77.7764C78.3995 6.73732 84.0077 12.2017 89.9274 12.2017" fill="url(#paint0_linear_424_617)"/>
<defs>
<linearGradient id="paint0_linear_424_617" x1="105.817" y1="-3.04102" x2="80.892" y2="-3.04102" gradientUnits="userSpaceOnUse">
<stop stop-color="#1F5CD7"/>
<stop offset="1" stop-color="#02AEFF"/>
</linearGradient>
</defs>
</svg>
