<svg width="60" height="39" viewBox="0 0 60 39" fill="none" xmlns="http://www.w3.org/2000/svg">
<path d="M38.1469 0.225281C26.5315 0.225281 17.1978 8.89891 17.1978 19.5C17.1978 30.1885 26.6234 38.7747 38.1441 38.7747C49.6649 38.7747 59.0989 30.1011 59.0989 19.5C59.0989 8.89891 49.6676 0.225281 38.1469 0.225281ZM38.1469 26.6843C33.8621 26.6843 30.3402 23.4423 30.3402 19.5C30.3402 15.5577 33.8621 12.3157 38.1469 12.3157C42.4317 12.3157 45.955 15.5577 45.955 19.5C45.8589 23.4423 42.4317 26.6843 38.1469 26.6843Z" fill="#8B3FFD"/>
<path d="M17.2024 5.82672V33.8625H9.77569L0.255371 5.82672H17.2024Z" fill="#8B3FFD"/>
</svg>
