<svg width="44" height="41" viewBox="0 0 44 41" fill="none" xmlns="http://www.w3.org/2000/svg">
<path d="M42.6493 15.0097C42.1853 13.4568 40.4739 12.5197 38.7916 12.9481C37.1093 13.3765 36.0942 14.9562 36.5582 16.5091C36.9063 17.6871 37.0803 18.9455 37.0803 20.1771C37.0803 27.9952 30.2061 34.3406 21.7366 34.3406C20.9244 34.3406 20.1413 34.2871 19.3871 34.18C22.9548 33.4303 25.6233 30.4852 25.6233 26.9778C25.6233 22.8813 22.0266 19.5881 17.6178 19.5881C13.18 19.5881 9.61235 22.9081 9.61235 26.9778C9.61235 27.781 9.75738 28.5306 9.98942 29.2535C7.75602 26.7903 6.42178 23.631 6.42178 20.2039C6.42178 13.7781 11.1206 8.15557 17.8208 6.52235C19.5031 6.12074 20.5183 4.51429 20.0542 2.9614C19.6192 1.4085 17.8789 0.471408 16.1965 0.899793C6.71183 3.20236 0.0986328 11.1543 0.0986328 20.2307C0.0986328 31.2616 9.81539 40.2041 21.7366 40.2041C33.6867 40.2041 43.3745 31.2348 43.3745 20.2307C43.3745 18.4368 43.1424 16.6965 42.6493 15.0097Z" fill="#F58A1F"/>
<path d="M35.2543 7.52283C35.5384 4.87423 33.4427 2.5145 30.5734 2.25222C27.7041 1.98995 25.1477 3.92445 24.8636 6.57305C24.5795 9.22166 26.6752 11.5814 29.5445 11.8437C32.4138 12.1059 34.9702 10.1714 35.2543 7.52283Z" fill="#F58A1F"/>
</svg>
