<svg width="60" height="35" viewBox="0 0 60 35" fill="none" xmlns="http://www.w3.org/2000/svg">
<path d="M37.7521 30.6847H21.8569V4.31622H37.7524L37.7521 30.6847Z" fill="#FF5F00"/>
<path d="M22.8636 17.5C22.8636 12.1512 25.5768 7.38643 29.8017 4.31581C26.6036 1.98809 22.6481 0.724749 18.5755 0.730304C8.54308 0.730304 0.410645 8.23825 0.410645 17.5C0.410645 26.7618 8.54308 34.2698 18.5755 34.2698C22.6482 34.2754 26.6038 33.012 29.802 30.6842C25.5773 27.6142 22.8636 22.8491 22.8636 17.5Z" fill="#EB001B"/>
<path d="M59.1965 17.5C59.1965 26.7618 51.0641 34.2697 41.0317 34.2697C36.9585 34.2753 33.0024 33.012 29.8037 30.6842C34.0298 27.6136 36.743 22.8491 36.743 17.5C36.743 12.1509 34.0298 7.38643 29.8037 4.31581C33.0024 1.98816 36.9583 0.724847 41.0314 0.730303C51.0638 0.730303 59.1962 8.23825 59.1962 17.5" fill="#F79E1B"/>
</svg>
