<svg width="60" height="60" viewBox="0 0 60 60" fill="none" xmlns="http://www.w3.org/2000/svg">
<path fill-rule="evenodd" clip-rule="evenodd" d="M30 4.25C15.7773 4.25 4.25 15.7773 4.25 30C4.25 44.2227 15.7773 55.75 30 55.75C44.2227 55.75 55.75 44.2227 55.75 30C55.75 15.7773 44.2227 4.25 30 4.25ZM0.25 30C0.25 13.5682 13.5682 0.25 30 0.25C46.4318 0.25 59.75 13.5682 59.75 30C59.75 46.4318 46.4318 59.75 30 59.75C13.5682 59.75 0.25 46.4318 0.25 30Z" fill="#EC1717"/>
<path fill-rule="evenodd" clip-rule="evenodd" d="M40.4142 19.5858C41.1953 20.3668 41.1953 21.6332 40.4142 22.4142L22.4142 40.4142C21.6332 41.1953 20.3668 41.1953 19.5858 40.4142C18.8047 39.6332 18.8047 38.3668 19.5858 37.5858L37.5858 19.5858C38.3668 18.8047 39.6332 18.8047 40.4142 19.5858Z" fill="#EC1717"/>
<path fill-rule="evenodd" clip-rule="evenodd" d="M19.5858 19.5858C18.8047 20.3668 18.8047 21.6332 19.5858 22.4142L37.5858 40.4142C38.3668 41.1953 39.6332 41.1953 40.4142 40.4142C41.1953 39.6332 41.1953 38.3668 40.4142 37.5858L22.4142 19.5858C21.6332 18.8047 20.3668 18.8047 19.5858 19.5858Z" fill="#EC1717"/>
</svg>
