<svg width="52" height="52" viewBox="0 0 52 52" fill="none" xmlns="http://www.w3.org/2000/svg">
<path fill-rule="evenodd" clip-rule="evenodd" d="M35.9554 11.0013C33.1041 9.10498 29.6811 8 26 8C16.0589 8 8 16.0589 8 26C8 35.9411 16.0589 44 26 44C35.9411 44 44 35.9411 44 26C44 23.9128 43.6447 21.9085 42.9914 20.0444L39.7663 23.4392C39.9198 24.2695 40 25.1254 40 26C40 33.732 33.732 40 26 40C18.268 40 12 33.732 12 26C12 18.268 18.268 12 26 12C28.5255 12 30.8949 12.6687 32.9406 13.8388L35.9554 11.0013ZM38.2538 19.2238C37.6695 18.1694 36.953 17.1984 36.1268 16.3331L39.0396 13.5916C39.808 14.3987 40.5021 15.2772 41.1112 16.216L38.2538 19.2238Z" fill="#CFCFCF"/>
<path d="M20 23L26 29L42 13" stroke="#CFCFCF" stroke-width="4"/>
</svg>
