<svg width="52" height="52" viewBox="0 0 52 52" fill="none" xmlns="http://www.w3.org/2000/svg">
<path fill-rule="evenodd" clip-rule="evenodd" d="M21.8336 8.48462C13.9014 10.3644 8 17.493 8 26C8 35.9411 16.0589 44 26 44C35.9411 44 44 35.9411 44 26C44 17.5259 38.1441 10.4195 30.2583 8.50665V12.6594C35.9081 14.4612 40 19.7528 40 26C40 33.732 33.732 40 26 40C18.268 40 12 33.732 12 26C12 19.7189 16.1363 14.404 21.8336 12.6304V8.48462Z" fill="#EC1717"/>
<path d="M26 24V5" stroke="#EC1717" stroke-width="4"/>
<circle cx="26" cy="32" r="3" fill="#39363A"/>
</svg>
