<svg width="53" height="52" viewBox="0 0 53 52" fill="none" xmlns="http://www.w3.org/2000/svg">
<path d="M18.5996 8V19.5" stroke="#EC1717" stroke-width="4"/>
<path d="M18.5996 24V28" stroke="#EC1717" stroke-width="4"/>
<path d="M18.5996 32V36" stroke="#EC1717" stroke-width="4"/>
<path d="M26.5996 24V28" stroke="#EC1717" stroke-width="4"/>
<path d="M26.5996 32V36" stroke="#EC1717" stroke-width="4"/>
<path d="M34.5996 24V28" stroke="#EC1717" stroke-width="4"/>
<path d="M34.5996 32V36" stroke="#EC1717" stroke-width="4"/>
<path d="M34.5996 8V19.5" stroke="#EC1717" stroke-width="4"/>
<path fill-rule="evenodd" clip-rule="evenodd" d="M30.5996 12H17.5996V16H30.5996V12ZM33.5996 16H38.5996C39.7042 16 40.5996 16.8954 40.5996 18V38C40.5996 39.1046 39.7042 40 38.5996 40H14.5996C13.495 40 12.5996 39.1046 12.5996 38V18C12.5996 16.8954 13.495 16 14.5996 16V12C11.2859 12 8.59961 14.6863 8.59961 18V38C8.59961 41.3137 11.2859 44 14.5996 44H38.5996C41.9133 44 44.5996 41.3137 44.5996 38V18C44.5996 14.6863 41.9133 12 38.5996 12H33.5996V16Z" fill="#EC1717"/>
</svg>
