<svg width="53" height="52" viewBox="0 0 53 52" fill="none" xmlns="http://www.w3.org/2000/svg">
<path d="M21.4004 15L27.4004 21L43.4004 5" stroke="#EC1717" stroke-width="4"/>
<path fill-rule="evenodd" clip-rule="evenodd" d="M33.9004 8H14.4004H12.4004C10.1913 8 8.40039 9.79086 8.40039 12V14V24V33V38C8.40039 41.3137 11.0867 44 14.4004 44H38.4004C41.7141 44 44.4004 41.3137 44.4004 38V33V24V14V12C44.4004 11.5494 44.3259 11.1161 44.1885 10.7119L40.4004 14.5V24C40.4004 25.1046 39.505 26 38.4004 26H14.4004C13.2958 26 12.4004 25.1046 12.4004 24V14C12.4004 13.931 12.4039 13.8627 12.4107 13.7955C12.5131 12.787 13.3649 12 14.4004 12H29.9004L33.9004 8ZM38.4004 30C39.1017 30 39.7748 29.8797 40.4004 29.6586V33H12.4004L12.4004 29.6586C13.0259 29.8797 13.6991 30 14.4004 30H38.4004ZM12.4004 37H40.4004V38C40.4004 39.1046 39.505 40 38.4004 40H14.4004C13.2958 40 12.4004 39.1046 12.4004 38L12.4004 37Z" fill="#EC1717"/>
</svg>
