<svg width="52" height="52" viewBox="0 0 52 52" fill="none" xmlns="http://www.w3.org/2000/svg">
<path d="M33 19L18.8579 33.1421" stroke="#EC1717" stroke-width="3"/>
<path fill-rule="evenodd" clip-rule="evenodd" d="M12 26C12 33.732 18.268 40 26 40C33.732 40 40 33.732 40 26C40 18.268 33.732 12 26 12C18.268 12 12 18.268 12 26ZM26 8C16.0589 8 8 16.0589 8 26C8 35.9411 16.0589 44 26 44C35.9411 44 44 35.9411 44 26C44 16.0589 35.9411 8 26 8Z" fill="#EC1717"/>
<circle cx="21" cy="21" r="3" fill="#EC1717"/>
<circle cx="31" cy="31" r="3" fill="#EC1717"/>
</svg>
