<svg width="64" height="64" viewBox="0 0 64 64" fill="none" xmlns="http://www.w3.org/2000/svg">
<circle cx="32" cy="32" r="32" fill="white"/>
<path d="M62.5876 30.5827C62.5932 30.5827 62.5974 30.5827 62.603 30.5827C62.9928 30.5827 63.3644 30.4193 63.6284 30.1329C63.8967 29.8422 64.0294 29.4524 63.9945 29.0584C62.5918 13.6296 50.3771 1.41005 34.9478 0.0045025C34.5566 -0.026235 34.1627 0.100907 33.8721 0.370558C33.5815 0.638813 33.4194 1.01744 33.4236 1.41284C33.6667 21.9176 36.3714 30.2963 62.5876 30.5827ZM62.5876 33.4162C36.3714 33.7026 33.6681 42.0814 33.425 62.5861C33.4208 62.9815 33.5829 63.3601 33.8735 63.6284C34.1333 63.8673 34.4728 64 34.8221 64C34.864 64 34.9073 63.9986 34.9492 63.9944C50.3785 62.5889 62.5932 50.3707 63.9945 34.9405C64.0294 34.5465 63.8981 34.1567 63.6284 33.8661C63.3588 33.5755 62.983 33.4315 62.5876 33.4162ZM28.9585 0.0114885C13.5781 1.45755 1.40257 13.6743 0.00689118 29.0612C-0.0280358 29.4552 0.10329 29.845 0.372926 30.1356C0.636974 30.4221 1.00999 30.5841 1.39838 30.5841C1.40397 30.5841 1.40956 30.5841 1.41515 30.5841C27.5447 30.2837 30.2425 21.9092 30.4883 1.41843C30.4925 1.02303 30.3291 0.643005 30.0385 0.37475C29.7451 0.106495 29.3525 -0.0248377 28.9585 0.0114885ZM1.41375 33.4148C0.979258 33.3659 0.638371 33.5727 0.371529 33.8633C0.10329 34.1539 -0.0294327 34.5437 0.00549421 34.9377C1.40118 50.3246 13.5781 62.5414 28.9585 63.9874C29.0018 63.9916 29.0466 63.993 29.0899 63.993C29.4391 63.993 29.7772 63.8617 30.0371 63.6228C30.3277 63.3545 30.4911 62.9745 30.4869 62.5791C30.2411 42.0897 27.5447 33.7152 1.41375 33.4148Z" fill="black"/>
</svg>
