<svg width="41" height="40" viewBox="0 0 41 40" fill="none" xmlns="http://www.w3.org/2000/svg">
<path d="M14.3462 6.1543V15.0005" stroke="#4364D5" stroke-width="4"/>
<path d="M14.3462 18.4619V21.5388" stroke="#4364D5" stroke-width="4"/>
<path d="M14.3462 24.6152V27.6922" stroke="#4364D5" stroke-width="4"/>
<path d="M20.5 18.4619V21.5388" stroke="#4364D5" stroke-width="4"/>
<path d="M20.5 24.6152V27.6922" stroke="#4364D5" stroke-width="4"/>
<path d="M26.6538 18.4619V21.5388" stroke="#4364D5" stroke-width="4"/>
<path d="M26.6538 24.6152V27.6922" stroke="#4364D5" stroke-width="4"/>
<path d="M26.6538 6.1543V15.0005" stroke="#4364D5" stroke-width="4"/>
<path fill-rule="evenodd" clip-rule="evenodd" d="M23.5769 9.23047H13.5769V12.3074H23.5769V9.23047ZM25.8846 12.3074H29.7307C30.5804 12.3074 31.2692 12.9962 31.2692 13.8459V29.2305C31.2692 30.0801 30.5804 30.7689 29.7307 30.7689H11.2692C10.4195 30.7689 9.73073 30.0801 9.73073 29.2305V13.8459C9.73073 12.9962 10.4195 12.3074 11.2692 12.3074V9.23047C8.72019 9.23047 6.65381 11.2968 6.65381 13.8459V29.2305C6.65381 31.7795 8.72019 33.8459 11.2692 33.8459H29.7307C32.2797 33.8459 34.3461 31.7795 34.3461 29.2305V13.8459C34.3461 11.2968 32.2797 9.23047 29.7307 9.23047H25.8846V12.3074Z" fill="#4364D5"/>
</svg>
