<svg width="25" height="24" viewBox="0 0 25 24" fill="none" xmlns="http://www.w3.org/2000/svg">
<path d="M20.1798 5.79785V12.5073" stroke="#323232" stroke-width="1.5" stroke-linecap="round" stroke-linejoin="round"/>
<path d="M21.1399 18.2671H15.3799" stroke="#323232" stroke-width="1.5" stroke-linecap="round" stroke-linejoin="round"/>
<path d="M19.2198 16.3477L21.1398 18.2677L19.2198 20.1877" stroke="#323232" stroke-width="1.5" stroke-linecap="round" stroke-linejoin="round"/>
<path d="M11.5399 16.3473H5.77986C4.71906 16.3473 3.85986 15.4881 3.85986 14.4273V5.79785" stroke="#323232" stroke-width="1.5" stroke-linecap="round" stroke-linejoin="round"/>
<path fill-rule="evenodd" clip-rule="evenodd" d="M5.79042 3.86719H18.2503C19.3159 3.86719 20.1808 4.73119 20.1808 5.79775V5.79775C20.1808 6.43807 19.8631 7.03615 19.3331 7.39519L14.1904 10.8809C12.88 11.7689 11.1597 11.7689 9.8493 10.8809L4.70754 7.39615C4.17762 7.03711 3.85986 6.43807 3.85986 5.79871V5.79775C3.85986 4.73119 4.72386 3.86719 5.79042 3.86719Z" stroke="#323232" stroke-width="1.5" stroke-linecap="round" stroke-linejoin="round"/>
</svg>
