<svg width="25" height="24" viewBox="0 0 25 24" fill="none" xmlns="http://www.w3.org/2000/svg">
<path fill-rule="evenodd" clip-rule="evenodd" d="M10.631 13.869C9.46102 12.699 8.57902 11.389 7.99302 10.06C7.87002 9.77897 7.94202 9.44997 8.15902 9.23297L8.97802 8.41397C9.64902 7.74297 9.64902 6.79397 9.06302 6.20797L7.89002 5.03497C7.10902 4.25397 5.84302 4.25397 5.06202 5.03497L4.41002 5.68597C3.66902 6.42697 3.36002 7.49597 3.56002 8.55597C4.05402 11.169 5.57202 14.03 8.02102 16.479C10.47 18.928 13.331 20.446 15.944 20.94C17.004 21.14 18.073 20.831 18.814 20.09L19.465 19.439C20.246 18.658 20.246 17.392 19.465 16.611L18.292 15.438C17.706 14.852 16.756 14.852 16.171 15.438L15.268 16.342C15.051 16.559 14.722 16.632 14.441 16.508C13.112 15.921 11.801 15.038 10.631 13.869Z" stroke="#323232" stroke-width="1.5" stroke-linecap="round" stroke-linejoin="round"/>
<path d="M21.5 9V3H15.5" stroke="#323232" stroke-width="1.5" stroke-linecap="round" stroke-linejoin="round"/>
<path d="M15.5 9L21.5 3" stroke="#323232" stroke-width="1.5" stroke-linecap="round" stroke-linejoin="round"/>
</svg>
