<svg width="172" height="27" viewBox="0 0 172 27" fill="none" xmlns="http://www.w3.org/2000/svg">
<g clip-path="url(#clip0_19_2182)">
<path d="M27.1774 3.49028C25.1682 0.867344 22.6793 0.579971 22.6793 0.579971C22.6793 0.577359 20.6987 0.0104499 14.4999 0C8.30119 0.00783745 6.3205 0.577359 6.3205 0.577359C6.3205 0.577359 3.83168 0.867344 1.82247 3.48766C-0.186739 6.11321 0.00510806 13.5013 0.00510806 13.5013C0.00510806 13.5013 -0.186739 20.8894 1.82247 23.5123C3.83168 26.1353 6.3205 26.4226 6.3205 26.4226C6.3205 26.4226 8.30119 26.9922 14.4999 27C20.6987 26.9922 22.6793 26.4226 22.6793 26.4226C22.6793 26.4226 25.1682 26.1327 27.1774 23.5123C29.1866 20.8894 28.9947 13.5013 28.9947 13.5013C28.9947 13.5013 29.1866 6.11321 27.1774 3.49028Z" fill="#231F20"/>
<path d="M26.1048 15.5528V11.6761C26.1071 9.13323 24.1497 6.98159 21.521 6.63516C21.521 6.63516 21.4743 6.62338 21.3737 6.60217C20.0664 6.33586 18.7941 6.60452 17.7722 7.24082C16.1515 8.24948 15.3727 13.4341 15.7118 15.2582L16.4134 17.9495C16.4391 18.0909 16.4204 18.237 16.3573 18.3666C15.9878 19.1255 15.4265 19.6133 14.5541 19.6133C13.6795 19.6133 13.1182 19.1278 12.751 18.3666C12.6879 18.237 12.6692 18.0909 12.6949 17.9495L13.3965 15.2582C13.7356 13.4341 12.9568 8.24948 11.3361 7.24082C10.3165 6.60688 9.04192 6.33586 7.73461 6.60217C7.63404 6.62338 7.58727 6.63516 7.58727 6.63516C4.95861 6.98159 3.00115 9.13323 3.00349 11.6761V15.5528C3.00349 15.5528 2.86551 20.6526 4.32483 22.4625C5.70465 24.1758 7.36042 24.9394 14.5541 24.8875C21.7479 24.9394 23.4037 24.1758 24.7835 22.4625C26.2405 20.6526 26.1025 15.5528 26.1025 15.5528H26.1048Z" fill="white"/>
<path d="M20.9937 12.7489C20.9937 12.0333 20.4179 11.4531 19.7078 11.4531C18.9976 11.4531 18.4219 12.0333 18.4219 12.7489V15.1837C18.4219 15.8994 18.9976 16.4795 19.7078 16.4795C20.4179 16.4795 20.9937 15.8994 20.9937 15.1837V12.7489Z" fill="#231F20"/>
<path d="M10.6851 12.7489C10.6851 12.0333 10.1094 11.4531 9.39917 11.4531C8.689 11.4531 8.11328 12.0333 8.11328 12.7489V15.1837C8.11328 15.8994 8.689 16.4795 9.39917 16.4795C10.1094 16.4795 10.6851 15.8994 10.6851 15.1837V12.7489Z" fill="#231F20"/>
<path d="M16 19.2373C16 20.0657 15.3283 20.5 14.5 20.5C13.6717 20.5 13 20.0657 13 19.2373C13 18.409 13.6717 17.5 14.5 17.5C15.3283 17.5 16 18.409 16 19.2373Z" fill="#F58020"/>
</g>
<path d="M156.346 20.205L158.146 10.881H162.178L163.636 16.461L167.218 10.881H171.25L169.432 20.205H166.588L167.866 13.635L163.762 20.205H161.872L160.288 13.653L159.028 20.205H156.346Z" fill="#4364D5"/>
<path d="M151.022 7.80304C151.634 7.80304 151.868 7.31703 151.958 6.84903L152.012 6.56104H154.244L154.19 6.88504C153.974 8.36103 153.056 9.81903 151.022 9.81903C148.754 9.81903 147.728 8.45103 148.034 6.84903L148.088 6.56104H150.32L150.266 6.84903C150.158 7.42503 150.428 7.80304 151.022 7.80304ZM144.146 20.205L145.946 10.881H148.808L147.746 16.353L152.822 10.881H155.684L153.866 20.205H151.004L152.066 14.751L147.008 20.205H144.146Z" fill="#4364D5"/>
<path d="M138.748 20.205L139 18.873C138.55 19.557 137.578 20.403 136.084 20.403C133.942 20.403 132.466 18.819 132.466 16.155C132.466 12.789 134.626 10.701 137.29 10.701C138.982 10.701 139.9 11.565 140.26 12.231L140.512 10.881H143.41L141.592 20.205H138.748ZM137.29 17.919C138.73 17.919 139.666 16.623 139.666 15.219C139.666 14.031 138.946 13.167 137.758 13.167C136.264 13.167 135.382 14.481 135.382 15.867C135.382 17.055 136.102 17.919 137.29 17.919Z" fill="#4364D5"/>
<path d="M126.002 18.2431C127.28 18.2431 127.856 17.8291 127.856 17.2171C127.856 16.7491 127.46 16.4791 126.578 16.4791H125.066L125.3 14.5531H126.614C127.712 14.5531 128.234 14.2651 128.234 13.7251C128.234 13.0951 127.676 12.8431 126.686 12.8431C125.426 12.8431 124.814 13.3651 124.49 14.0131H121.664C122.096 12.2311 123.734 10.6471 126.812 10.6471C129.638 10.6471 131.168 11.7451 131.168 13.3291C131.168 14.3191 130.394 15.1651 129.332 15.4171C130.142 15.6331 130.808 16.2631 130.808 17.2711C130.808 19.0351 129.206 20.4391 126.002 20.4391C122.24 20.4391 121.052 18.3151 120.962 17.0191H123.788C123.968 17.5591 124.562 18.2431 126.002 18.2431Z" fill="#4364D5"/>
<path d="M109.662 20.205V10.881H112.578V14.211H116.34V10.881H119.256V20.205H116.34V16.641H112.578V20.205H109.662Z" fill="#343434"/>
<path d="M97.3046 20.205V10.881H100.185V16.407L104.199 10.881H107.097V20.205H104.199V14.679L100.185 20.205H97.3046Z" fill="#343434"/>
<path d="M85.791 20.205V10.881H91.677C93.711 10.881 94.953 11.835 94.953 13.365C94.953 14.499 94.233 15.165 93.531 15.381C94.395 15.615 95.205 16.299 95.205 17.559C95.205 19.143 93.963 20.205 91.731 20.205H85.791ZM90.957 12.915H88.707V14.553H90.957C91.605 14.553 92.055 14.301 92.055 13.743C92.055 13.185 91.623 12.915 90.957 12.915ZM91.119 16.461H88.707V18.171H91.101C91.875 18.171 92.271 17.865 92.271 17.271C92.271 16.785 91.893 16.461 91.119 16.461Z" fill="#343434"/>
<path d="M76.5264 20.205V10.881H84.0145V13.311H79.4424V20.205H76.5264Z" fill="#343434"/>
<path d="M64.3808 20.205V10.881H67.2968V14.211H71.0588V10.881H73.9748V20.205H71.0588V16.641H67.2968V20.205H64.3808Z" fill="#343434"/>
<path d="M52.0234 20.205V10.881H54.9034V16.407L58.9174 10.881H61.8154V20.205H58.9174V14.679L54.9034 20.205H52.0234Z" fill="#343434"/>
<path d="M37 20.205V7.42505H49.168V20.205H46.108V10.107H40.06V20.205H37Z" fill="#343434"/>
<defs>
<clipPath id="clip0_19_2182">
<rect width="29" height="27" fill="white"/>
</clipPath>
</defs>
</svg>
