<svg width="98" height="28" viewBox="0 0 98 28" fill="none" xmlns="http://www.w3.org/2000/svg">
<g clip-path="url(#clip0_19_2118)">
<path d="M27.5643 3.99028C25.5551 1.36734 23.0663 1.07997 23.0663 1.07997C23.0663 1.07736 21.0856 0.51045 14.8868 0.5C8.6881 0.507837 6.70741 1.07736 6.70741 1.07736C6.70741 1.07736 4.21859 1.36734 2.20938 3.98766C0.200171 6.61321 0.392018 14.0013 0.392018 14.0013C0.392018 14.0013 0.200171 21.3894 2.20938 24.0123C4.21859 26.6353 6.70741 26.9226 6.70741 26.9226C6.70741 26.9226 8.6881 27.4922 14.8868 27.5C21.0856 27.4922 23.0663 26.9226 23.0663 26.9226C23.0663 26.9226 25.5551 26.6327 27.5643 24.0123C29.5735 21.3894 29.3816 14.0013 29.3816 14.0013C29.3816 14.0013 29.5735 6.61321 27.5643 3.99028Z" fill="#231F20"/>
<path d="M26.4917 16.0528V12.1761C26.4941 9.63323 24.5366 7.48159 21.9079 7.13516C21.9079 7.13516 21.8612 7.12338 21.7606 7.10217C20.4533 6.83586 19.181 7.10452 18.1591 7.74082C16.5384 8.74948 15.7596 13.9341 16.0987 15.7582L16.8003 18.4495C16.826 18.5909 16.8073 18.737 16.7442 18.8666C16.3747 19.6255 15.8134 20.1133 14.9411 20.1133C14.0664 20.1133 13.5051 19.6278 13.1379 18.8666C13.0748 18.737 13.0561 18.5909 13.0818 18.4495L13.7834 15.7582C14.1225 13.9341 13.3437 8.74948 11.7231 7.74082C10.7034 7.10688 9.42882 6.83586 8.12151 7.10217C8.02095 7.12338 7.97417 7.13516 7.97417 7.13516C5.34551 7.48159 3.38805 9.63323 3.39039 12.1761V16.0528C3.39039 16.0528 3.25241 21.1526 4.71174 22.9625C6.09155 24.6758 7.74732 25.4394 14.9411 25.3875C22.1348 25.4394 23.7906 24.6758 25.1704 22.9625C26.6274 21.1526 26.4894 16.0528 26.4894 16.0528H26.4917Z" fill="white"/>
<path d="M21.3806 13.2489C21.3806 12.5333 20.8049 11.9531 20.0947 11.9531C19.3845 11.9531 18.8088 12.5333 18.8088 13.2489V15.6837C18.8088 16.3994 19.3845 16.9795 20.0947 16.9795C20.8049 16.9795 21.3806 16.3994 21.3806 15.6837V13.2489Z" fill="#231F20"/>
<path d="M11.072 13.2489C11.072 12.5333 10.4963 11.9531 9.78608 11.9531C9.0759 11.9531 8.50018 12.5333 8.50018 13.2489V15.6837C8.50018 16.3994 9.0759 16.9795 9.78608 16.9795C10.4963 16.9795 11.072 16.3994 11.072 15.6837V13.2489Z" fill="#231F20"/>
<path d="M16.3869 19.7373C16.3869 20.5657 15.7152 21 14.8869 21C14.0586 21 13.3869 20.5657 13.3869 19.7373C13.3869 18.909 14.0586 18 14.8869 18C15.7152 18 16.3869 18.909 16.3869 19.7373Z" fill="#F58020"/>
</g>
<path d="M62.942 24.5305L64.242 17.7965H67.154L68.207 21.8265L70.794 17.7965H73.706L72.393 24.5305H70.339L71.262 19.7855L68.298 24.5305H66.933L65.789 19.7985L64.879 24.5305H62.942Z" fill="#4364D5"/>
<path d="M59.0974 15.5735C59.5394 15.5735 59.7084 15.2225 59.7734 14.8845L59.8124 14.6765H61.4244L61.3854 14.9105C61.2294 15.9765 60.5664 17.0295 59.0974 17.0295C57.4594 17.0295 56.7184 16.0415 56.9394 14.8845L56.9784 14.6765H58.5904L58.5514 14.8845C58.4734 15.3005 58.6684 15.5735 59.0974 15.5735ZM54.1314 24.5305L55.4314 17.7965H57.4984L56.7314 21.7485L60.3974 17.7965H62.4644L61.1514 24.5305H59.0844L59.8514 20.5915L56.1984 24.5305H54.1314Z" fill="#4364D5"/>
<path d="M50.2324 24.5305L50.4144 23.5685C50.0894 24.0625 49.3874 24.6735 48.3084 24.6735C46.7614 24.6735 45.6954 23.5295 45.6954 21.6055C45.6954 19.1745 47.2554 17.6665 49.1794 17.6665C50.4014 17.6665 51.0644 18.2905 51.3244 18.7715L51.5064 17.7965H53.5994L52.2864 24.5305H50.2324ZM49.1794 22.8795C50.2194 22.8795 50.8954 21.9435 50.8954 20.9295C50.8954 20.0715 50.3754 19.4475 49.5174 19.4475C48.4384 19.4475 47.8014 20.3965 47.8014 21.3975C47.8014 22.2555 48.3214 22.8795 49.1794 22.8795Z" fill="#4364D5"/>
<path d="M41.0269 23.1136C41.9499 23.1136 42.3659 22.8146 42.3659 22.3726C42.3659 22.0346 42.0799 21.8396 41.4429 21.8396H40.3509L40.5199 20.4486H41.4689C42.2619 20.4486 42.6389 20.2406 42.6389 19.8506C42.6389 19.3956 42.2359 19.2136 41.5209 19.2136C40.6109 19.2136 40.1689 19.5906 39.9349 20.0586H37.8939C38.2059 18.7716 39.3889 17.6276 41.6119 17.6276C43.6529 17.6276 44.7579 18.4206 44.7579 19.5646C44.7579 20.2796 44.1989 20.8906 43.4319 21.0726C44.0169 21.2286 44.4979 21.6836 44.4979 22.4116C44.4979 23.6856 43.3409 24.6996 41.0269 24.6996C38.3099 24.6996 37.4519 23.1656 37.3869 22.2296H39.4279C39.5579 22.6196 39.9869 23.1136 41.0269 23.1136Z" fill="#4364D5"/>
<path d="M90.6841 12.5305V5.79651H92.7901V8.20151H95.507V5.79651H97.6131V12.5305H95.507V9.95651H92.7901V12.5305H90.6841Z" fill="#053640"/>
<path d="M81.7592 12.5305V5.79651H83.8392V9.78751L86.7382 5.79651H88.8312V12.5305H86.7382V8.53951L83.8392 12.5305H81.7592Z" fill="#053640"/>
<path d="M73.4438 12.5305V5.79651H77.6948C79.1638 5.79651 80.0608 6.48551 80.0608 7.59051C80.0608 8.40951 79.5408 8.89051 79.0338 9.04651C79.6578 9.21551 80.2428 9.70951 80.2428 10.6195C80.2428 11.7635 79.3458 12.5305 77.7338 12.5305H73.4438ZM77.1748 7.26551H75.5498V8.44851H77.1748C77.6428 8.44851 77.9678 8.26651 77.9678 7.86351C77.9678 7.46051 77.6558 7.26551 77.1748 7.26551ZM77.2918 9.82651H75.5498V11.0615H77.2788C77.8378 11.0615 78.1238 10.8405 78.1238 10.4115C78.1238 10.0605 77.8508 9.82651 77.2918 9.82651Z" fill="#053640"/>
<path d="M66.7528 12.5305V5.79651H72.1608V7.55151H68.8588V12.5305H66.7528Z" fill="#053640"/>
<path d="M57.981 12.5305V5.79651H60.087V8.20151H62.804V5.79651H64.91V12.5305H62.804V9.95651H60.087V12.5305H57.981Z" fill="#053640"/>
<path d="M49.0562 12.5305V5.79651H51.1362V9.78751L54.0352 5.79651H56.1282V12.5305H54.0352V8.53951L51.1362 12.5305H49.0562Z" fill="#053640"/>
<path d="M38.2059 12.5305V3.30054H46.9939V12.5305H44.7839V5.23754H40.4159V12.5305H38.2059Z" fill="#053640"/>
<defs>
<clipPath id="clip0_19_2118">
<rect width="29" height="27" fill="white" transform="translate(0.386902 0.5)"/>
</clipPath>
</defs>
</svg>
