<?xml version="1.0" encoding="utf-8"?><svg xmlns="http://www.w3.org/2000/svg" xmlns:xlink="http://www.w3.org/1999/xlink"><symbol viewBox="0 0 24 24" id="check" xmlns="http://www.w3.org/2000/svg"><path d="M20 6.5L9 17.5L4 12.5"/></symbol><symbol viewBox="0 0 10 10" id="cross" xmlns="http://www.w3.org/2000/svg"><path fill-rule="evenodd" clip-rule="evenodd" d="M0.46967 0.469548C0.762563 0.176655 1.23744 0.176655 1.53033 0.469548L9.53033 8.46955C9.82322 8.76244 9.82322 9.23731 9.53033 9.53021C9.23744 9.8231 8.76256 9.8231 8.46967 9.53021L0.46967 1.53021C0.176777 1.23731 0.176777 0.762441 0.46967 0.469548Z"/><path fill-rule="evenodd" clip-rule="evenodd" d="M9.53033 0.469548C9.82322 0.762441 9.82322 1.23731 9.53033 1.53021L1.53033 9.53021C1.23744 9.8231 0.762563 9.8231 0.46967 9.53021C0.176777 9.23731 0.176777 8.76244 0.46967 8.46955L8.46967 0.469548C8.76256 0.176655 9.23744 0.176655 9.53033 0.469548Z"/></symbol><symbol viewBox="0 0 10 10" id="drop" xmlns="http://www.w3.org/2000/svg"><path fill-rule="evenodd" clip-rule="evenodd" d="M9.76877 2.23964C10.0771 2.55916 10.0771 3.0772 9.76877 3.39672L5.55824 7.76036C5.24993 8.07988 4.75007 8.07988 4.44176 7.76036L0.231231 3.39672C-0.0770774 3.0772 -0.0770773 2.55916 0.231232 2.23964C0.539539 1.92012 1.03941 1.92012 1.34772 2.23964L5 6.02473L8.65228 2.23964C8.96059 1.92012 9.46046 1.92012 9.76877 2.23964Z"/></symbol><symbol viewBox="0 0 14 17" id="file" xmlns="http://www.w3.org/2000/svg"><path fill-rule="evenodd" clip-rule="evenodd" d="M0.25 2.66667C0.25 1.33162 1.33162 0.25 2.66667 0.25H8.64333C9.28414 0.25 9.899 0.50501 10.352 0.958003L12.7087 3.31467C13.1617 3.76766 13.4167 4.38253 13.4167 5.02333V14.3333C13.4167 15.6684 12.335 16.75 11 16.75H2.66667C1.33162 16.75 0.25 15.6684 0.25 14.3333V2.66667ZM2.66667 1.75C2.16005 1.75 1.75 2.16005 1.75 2.66667V14.3333C1.75 14.84 2.16005 15.25 2.66667 15.25H11C11.5066 15.25 11.9167 14.84 11.9167 14.3333V5.02333C11.9167 4.7808 11.82 4.54734 11.648 4.37533L9.29134 2.01866C9.11933 1.84666 8.88586 1.75 8.64333 1.75H2.66667Z"/><path fill-rule="evenodd" clip-rule="evenodd" d="M8.5 0.25C8.91421 0.25 9.25 0.585786 9.25 1V4.33333C9.25 4.37912 9.28755 4.41667 9.33333 4.41667H12.6667C13.0809 4.41667 13.4167 4.75245 13.4167 5.16667C13.4167 5.58088 13.0809 5.91667 12.6667 5.91667H9.33333C8.45912 5.91667 7.75 5.20755 7.75 4.33333V1C7.75 0.585786 8.08579 0.25 8.5 0.25Z"/></symbol><symbol viewBox="0 0 16 16" id="pen" xmlns="http://www.w3.org/2000/svg"><path fill-rule="evenodd" clip-rule="evenodd" d="M12.7512 1.82307C12.6541 1.72597 12.4959 1.72597 12.3988 1.82307L2.07284 12.1491L2.07143 12.1505C2.02572 12.1959 1.99951 12.2582 1.99951 12.3247V14.2497H3.92451C3.99101 14.2497 4.05331 14.2235 4.09877 14.1778L4.10023 14.1764L14.4272 3.85141C14.4272 3.8514 14.4272 3.85138 14.4272 3.85136C14.5243 3.75425 14.5243 3.59616 14.4272 3.49907L12.7512 1.82307ZM11.3382 0.762414C12.0211 0.0795208 13.1289 0.0795208 13.8118 0.762414L15.4878 2.43841C16.1707 3.12131 16.1707 4.22918 15.4878 4.91207L15.4878 4.91213L5.16225 15.2357C5.16203 15.2359 5.1618 15.2361 5.16158 15.2363C4.8331 15.5662 4.3877 15.7497 3.92451 15.7497H1.24951C0.835298 15.7497 0.499512 15.414 0.499512 14.9997V12.3247C0.499512 11.8616 0.683009 11.4162 1.01282 11.0878C1.01308 11.0875 1.01334 11.0873 1.0136 11.087L11.3382 0.762414Z"/><path fill-rule="evenodd" clip-rule="evenodd" d="M9.46918 2.62934C9.76207 2.33644 10.2369 2.33644 10.5298 2.62934L13.6198 5.71934C13.9127 6.01223 13.9127 6.4871 13.6198 6.78C13.3269 7.07289 12.8521 7.07289 12.5592 6.78L9.46918 3.69C9.17629 3.3971 9.17629 2.92223 9.46918 2.62934Z"/></symbol><symbol viewBox="0 0 20 20" id="plus" xmlns="http://www.w3.org/2000/svg"><path fill-rule="evenodd" clip-rule="evenodd" d="M10 5.25C10.4142 5.25 10.75 5.58579 10.75 6V14C10.75 14.4142 10.4142 14.75 10 14.75C9.58579 14.75 9.25 14.4142 9.25 14V6C9.25 5.58579 9.58579 5.25 10 5.25Z"/><path fill-rule="evenodd" clip-rule="evenodd" d="M5.25 10C5.25 9.58579 5.58579 9.25 6 9.25H14C14.4142 9.25 14.75 9.58579 14.75 10C14.75 10.4142 14.4142 10.75 14 10.75H6C5.58579 10.75 5.25 10.4142 5.25 10Z"/><path fill-rule="evenodd" clip-rule="evenodd" d="M10 1.75C5.44321 1.75 1.75 5.44321 1.75 10C1.75 14.5568 5.44321 18.25 10 18.25C14.5568 18.25 18.25 14.5568 18.25 10C18.25 5.44321 14.5568 1.75 10 1.75ZM0.25 10C0.25 4.61479 4.61479 0.25 10 0.25C15.3852 0.25 19.75 4.61479 19.75 10C19.75 15.3852 15.3852 19.75 10 19.75C4.61479 19.75 0.25 15.3852 0.25 10Z"/></symbol></svg>