<svg width="52" height="52" viewBox="0 0 52 52" fill="none" xmlns="http://www.w3.org/2000/svg">
<path d="M21 15L27 21L43 5" stroke="#4364d5" stroke-width="4"/>
<path fill-rule="evenodd" clip-rule="evenodd" d="M33.5 8H14H12C9.79086 8 8 9.79086 8 12V14V24V33V38C8 41.3137 10.6863 44 14 44H38C41.3137 44 44 41.3137 44 38V33V24V14V12C44 11.5494 43.9255 11.1161 43.7881 10.7119L40 14.5V24C40 25.1046 39.1046 26 38 26H14C12.8954 26 12 25.1046 12 24V14C12 13.931 12.0035 13.8627 12.0103 13.7955C12.1127 12.787 12.9645 12 14 12H29.5L33.5 8ZM38 30C38.7013 30 39.3744 29.8797 40 29.6586V33H12L12 29.6586C12.6256 29.8797 13.2987 30 14 30H38ZM12 37H40V38C40 39.1046 39.1046 40 38 40H14C12.8954 40 12 39.1046 12 38L12 37Z" fill="#4364d5"/>
</svg>
