<svg width="52" height="52" viewBox="0 0 52 52" fill="none" xmlns="http://www.w3.org/2000/svg">
<path fill-rule="evenodd" clip-rule="evenodd" d="M38 8H14C12.8954 8 12 8.89543 12 10V42C12 43.1046 12.8954 44 14 44H38C39.1046 44 40 43.1046 40 42V10C40 8.89543 39.1046 8 38 8ZM14 4C10.6863 4 8 6.68629 8 10V42C8 45.3137 10.6863 48 14 48H38C41.3137 48 44 45.3137 44 42V10C44 6.68629 41.3137 4 38 4H14Z" fill="#39363A"/>
<path fill-rule="evenodd" clip-rule="evenodd" d="M36 16H16V12H36V16Z" fill="#39363A"/>
<path fill-rule="evenodd" clip-rule="evenodd" d="M36 23H16V19H36V23Z" fill="#39363A"/>
<path fill-rule="evenodd" clip-rule="evenodd" d="M36 30H16V26H36V30Z" fill="#39363A"/>
<path d="M29 37C29 35.3431 30.3431 34 32 34C33.6569 34 35 35.3431 35 37C35 38.6569 33.6569 40 32 40C30.3431 40 29 38.6569 29 37Z" fill="#39363A"/>
</svg>
