<svg width="52" height="52" viewBox="0 0 52 52" fill="none" xmlns="http://www.w3.org/2000/svg">
<path fill-rule="evenodd" clip-rule="evenodd" d="M39 15H13C11.3431 15 10 16.3431 10 18V34C10 35.6569 11.3431 37 13 37H39C40.6569 37 42 35.6569 42 34V18C42 16.3431 40.6569 15 39 15ZM13 11C9.13401 11 6 14.134 6 18V34C6 37.866 9.13401 41 13 41H39C42.866 41 46 37.866 46 34V18C46 14.134 42.866 11 39 11H13Z" fill="#39363A"/>
<path fill-rule="evenodd" clip-rule="evenodd" d="M43 33H9V29H43V33Z" fill="#39363A"/>
</svg>
