<svg width="52" height="52" viewBox="0 0 52 52" fill="none" xmlns="http://www.w3.org/2000/svg">
<path d="M10 13.9863L14.9991 22.9219V28.3724L10.0058 37.2904L10 13.9863Z" fill="#5B57A2"/>
<path d="M29.1946 19.6691L33.8789 16.798L43.4657 16.7891L29.1946 25.5317V19.6691Z" fill="#D90751"/>
<path d="M29.1682 13.9328L29.1946 25.7632L24.1838 22.6844V5L29.1682 13.9328Z" fill="#FAB718"/>
<path d="M43.4658 16.7895L33.8786 16.7984L29.1682 13.9328L24.1838 5L43.4658 16.7895Z" fill="#ED6F26"/>
<path d="M29.1946 37.3402V31.6005L24.1838 28.5801L24.1866 46.282L29.1946 37.3402Z" fill="#63B22F"/>
<path d="M33.8672 34.495L14.9988 22.9219L10 13.9863L43.4454 34.4833L33.8672 34.495Z" fill="#1487C9"/>
<path d="M24.1869 46.2808L29.1943 37.3391L33.8669 34.4941L43.4451 34.4824L24.1869 46.2808Z" fill="#017F36"/>
<path d="M10.0059 37.2897L24.2247 28.5795L19.4444 25.6465L14.9991 28.3717L10.0059 37.2897Z" fill="#984995"/>
</svg>
