<svg width="28" height="20" viewBox="0 0 28 20" fill="none" xmlns="http://www.w3.org/2000/svg">
<path fill-rule="evenodd" clip-rule="evenodd" d="M2.99998 0.0996094C1.39835 0.0996094 0.0999756 1.39798 0.0999756 2.99961V16.9996C0.0999756 18.6012 1.39835 19.8996 2.99998 19.8996H25C26.6016 19.8996 27.9 18.6012 27.9 16.9996V2.99961C27.9 1.39798 26.6016 0.0996094 25 0.0996094H2.99998ZM1.89998 2.99961C1.89998 2.3921 2.39246 1.89961 2.99998 1.89961H25C25.6075 1.89961 26.1 2.3921 26.1 2.99961V4.99951H1.89998V2.99961ZM1.89998 7.99951V16.9996C1.89998 17.6071 2.39246 18.0996 2.99998 18.0996H25C25.6075 18.0996 26.1 17.6071 26.1 16.9996V7.99951H1.89998ZM4.99988 11.9995C4.44759 11.9995 3.99988 12.4472 3.99988 12.9995C3.99988 13.5518 4.44759 13.9995 4.99988 13.9995H6.49988V15.4995C6.49988 16.0518 6.94759 16.4995 7.49988 16.4995C8.05216 16.4995 8.49988 16.0518 8.49988 15.4995V13.9995H9.99988C10.5522 13.9995 10.9999 13.5518 10.9999 12.9995C10.9999 12.4472 10.5522 11.9995 9.99988 11.9995H8.49988V10.4995C8.49988 9.94723 8.05216 9.49951 7.49988 9.49951C6.94759 9.49951 6.49988 9.94723 6.49988 10.4995V11.9995H4.99988Z" fill="#39363A"/>
</svg>
