<svg width="28" height="20" viewBox="0 0 28 20" fill="none" xmlns="http://www.w3.org/2000/svg">
<path fill-rule="evenodd" clip-rule="evenodd" d="M3.0001 0.0996094C1.39847 0.0996094 0.100098 1.39798 0.100098 2.99961V16.9996C0.100098 18.6012 1.39847 19.8996 3.0001 19.8996H25.0001C26.6017 19.8996 27.9001 18.6012 27.9001 16.9996V2.99961C27.9001 1.39798 26.6017 0.0996094 25.0001 0.0996094H3.0001ZM1.9001 2.99961C1.9001 2.3921 2.39258 1.89961 3.0001 1.89961H25.0001C25.6076 1.89961 26.1001 2.3921 26.1001 2.99961V16.9996C26.1001 17.6071 25.6076 18.0996 25.0001 18.0996H3.0001C2.39258 18.0996 1.9001 17.6071 1.9001 16.9996V2.99961ZM17.7071 7.70662C18.0976 7.31609 18.0976 6.68293 17.7071 6.29241C17.3166 5.90188 16.6834 5.90188 16.2929 6.29241L10.5 12.0853L7.20711 8.79241C6.81658 8.40188 6.18342 8.40188 5.79289 8.79241C5.40237 9.18293 5.40237 9.81609 5.79289 10.2066L9.79289 14.2066L10.5 14.9137L11.2071 14.2066L17.7071 7.70662Z" fill="#4364d5"/>
</svg>
