<svg width="28" height="20" viewBox="0 0 28 20" fill="none" xmlns="http://www.w3.org/2000/svg">
<path fill-rule="evenodd" clip-rule="evenodd" d="M0.0999756 2.99961C0.0999756 1.39798 1.39835 0.0996094 2.99998 0.0996094H25C26.6016 0.0996094 27.9 1.39798 27.9 2.99961V16.9996C27.9 18.6012 26.6016 19.8996 25 19.8996H2.99998C1.39835 19.8996 0.0999756 18.6012 0.0999756 16.9996V2.99961ZM2.99998 1.89961C2.39246 1.89961 1.89998 2.3921 1.89998 2.99961V4.99966H26.1V2.99961C26.1 2.3921 25.6075 1.89961 25 1.89961H2.99998ZM26.1 7.99966H1.89998V16.9996C1.89998 17.6071 2.39246 18.0996 2.99998 18.0996H25C25.6075 18.0996 26.1 17.6071 26.1 16.9996V7.99966ZM3.99988 12.9995C3.99988 12.4472 4.44759 11.9995 4.99988 11.9995H9.99988C10.5522 11.9995 10.9999 12.4472 10.9999 12.9995C10.9999 13.5518 10.5522 13.9995 9.99988 13.9995H4.99988C4.44759 13.9995 3.99988 13.5518 3.99988 12.9995Z" fill="#39363A"/>
</svg>
