<svg width="27" height="16" viewBox="0 0 27 16" fill="none" xmlns="http://www.w3.org/2000/svg">
<path d="M9.97122 7.99986C9.97122 5.44824 11.1761 3.17526 13.0523 1.71045C11.6321 0.600025 9.87555 -0.00263684 8.06694 8.67271e-06C3.61172 8.67271e-06 0.000244141 3.58161 0.000244141 7.99986C0.000244141 12.4181 3.61172 15.9997 8.06694 15.9997C9.87557 16.0023 11.6322 15.3997 13.0524 14.2893C11.1764 12.8247 9.97122 10.5516 9.97122 7.99986Z" fill="#EB001B"/>
<path d="M26.1056 7.99989C26.1056 12.4181 22.4941 15.9997 18.0389 15.9997C16.2301 16.0024 14.4732 15.3997 13.0527 14.2893C14.9295 12.8245 16.1344 10.5516 16.1344 7.99989C16.1344 5.44814 14.9295 3.17527 13.0527 1.71046C14.4732 0.600051 16.23 -0.00258817 18.0388 8.3555e-06C22.494 8.3555e-06 26.1054 3.58162 26.1054 7.99989H26.1056Z" fill="#F79E1B"/>
<path d="M13.0528 1.71094C11.1766 3.17577 9.97168 5.44875 9.97168 8.00037C9.97168 10.5521 11.1768 12.8252 13.0529 14.2898H13.0532C14.9299 12.825 16.1348 10.5521 16.1348 8.00037C16.1348 5.44863 14.9299 3.17574 13.0532 1.71094" fill="#FF5F00"/>
</svg>
