<svg width="93" height="93" viewBox="0 0 93 93" fill="none" xmlns="http://www.w3.org/2000/svg">
<path d="M57.1564 68.503C54.2659 67.6344 51.6602 66.0087 49.6096 63.7941V61.3267C49.6096 60.3743 49.9879 59.4609 50.6614 58.7874C51.3349 58.114 52.2483 57.7356 53.2007 57.7356C54.1531 57.7356 55.0666 58.114 55.74 58.7874C56.4135 59.4609 56.7918 60.3743 56.7918 61.3267C56.8057 61.5766 56.9148 61.8117 57.0966 61.9837C57.2784 62.1557 57.5192 62.2516 57.7695 62.2516C58.0197 62.2516 58.2605 62.1557 58.4423 61.9837C58.6241 61.8117 58.7332 61.5766 58.7471 61.3267C58.7643 60.5873 58.6335 59.8519 58.3625 59.1637C58.0914 58.4755 57.6855 57.8485 57.1686 57.3194C56.6518 56.7904 56.0344 56.37 55.3527 56.0829C54.671 55.7959 53.9388 55.6481 53.1992 55.6481C52.4596 55.6481 51.7274 55.7959 51.0457 56.0829C50.364 56.37 49.7466 56.7904 49.2298 57.3194C48.7129 57.8485 48.307 58.4755 48.0359 59.1637C47.7649 59.8519 47.6341 60.5873 47.6513 61.3267V64.4901L47.8592 64.7552C50.1691 67.4316 53.203 69.3837 56.596 70.3769C56.9077 70.4434 57.1996 70.5816 57.4486 70.7806C57.2648 71.4765 54.6679 73.2239 50.6369 74.3657L49.5343 70.7775C49.4522 70.5365 49.2794 70.337 49.0527 70.2212C48.8259 70.1054 48.563 70.0825 48.3196 70.1574C48.0762 70.2322 47.8716 70.3989 47.7491 70.6221C47.6266 70.8453 47.5958 71.1075 47.6634 71.353L49.7903 78.2671C47.1512 79.5143 43.6957 78.8847 42.2044 78.4177L44.5031 71.356C44.5722 71.1122 44.544 70.851 44.4245 70.6275C44.3051 70.404 44.1036 70.2356 43.8625 70.1575C43.6214 70.0795 43.3594 70.098 43.1317 70.2091C42.9039 70.3203 42.7281 70.5154 42.6412 70.7534L41.4723 74.3476C37.4895 73.1997 34.9257 71.4674 34.745 70.7836C34.994 70.5846 35.2859 70.4464 35.5976 70.3799C38.9906 69.3867 42.0244 67.4346 44.3344 64.7582L44.5422 64.4931V61.3297C44.5422 59.858 43.9576 58.4465 42.9169 57.4057C41.8762 56.365 40.4647 55.7804 38.9929 55.7804C37.5211 55.7804 36.1096 56.365 35.0689 57.4057C34.0282 58.4465 33.4435 59.858 33.4435 61.3297C33.4435 61.5894 33.5467 61.8385 33.7303 62.0221C33.9139 62.2057 34.1629 62.3089 34.4226 62.3089C34.6823 62.3089 34.9313 62.2057 35.115 62.0221C35.2986 61.8385 35.4017 61.5894 35.4017 61.3297C35.4017 60.8582 35.4946 60.3912 35.6751 59.9555C35.8556 59.5198 36.1201 59.1239 36.4536 58.7904C36.787 58.457 37.1829 58.1925 37.6186 58.012C38.0543 57.8315 38.5213 57.7386 38.9929 57.7386C39.4645 57.7386 39.9314 57.8315 40.3671 58.012C40.8028 58.1925 41.1987 58.457 41.5322 58.7904C41.8656 59.1239 42.1302 59.5198 42.3106 59.9555C42.4911 60.3912 42.584 60.8582 42.584 61.3297V63.7971C40.5318 66.0106 37.9252 67.6352 35.0342 68.503C33.1362 69.0633 32.7566 70.0545 32.7717 70.7866C32.8199 73.2269 37.6221 75.2514 40.8577 76.2094L39.8214 79.3968L40.457 79.8036C41.1801 80.2675 43.4697 80.9634 46.0516 80.9634C47.8773 80.9634 49.8416 80.614 51.4744 79.5746L52.1041 79.1739L51.2003 76.2426C54.7854 75.2032 59.3496 73.1124 59.4008 70.7956C59.437 70.0515 59.0574 69.0603 57.1564 68.503Z" fill="url(#paint0_linear_1_17533)"/>
<path d="M17.4611 33.5076L25.1586 38.7376C24.7726 40.3368 24.7431 42.0013 25.0721 43.6131C25.401 45.225 26.0804 46.7447 27.0621 48.0648C28.0438 49.3848 29.3038 50.4728 30.7528 51.2517C32.2018 52.0306 33.8043 52.4813 35.4469 52.5719C32.0878 53.777 29.7228 56.6541 29.7228 59.9922C29.7367 60.2421 29.8457 60.4771 30.0275 60.6491C30.2094 60.8211 30.4501 60.917 30.7004 60.917C30.9507 60.917 31.1915 60.8211 31.3733 60.6491C31.5551 60.4771 31.6642 60.2421 31.678 59.9922C31.678 56.636 34.992 53.9065 39.029 53.9065C39.1775 53.9055 39.3239 53.8704 39.4568 53.8041C39.5084 53.8147 39.5608 53.8207 39.6135 53.8222H43.307C43.7047 53.9005 44.6808 55.1297 45.3135 56.3528C45.3958 56.5118 45.5203 56.6451 45.6734 56.7381C45.8264 56.8311 46.002 56.8802 46.1811 56.88H46.2052C46.389 56.8757 46.5678 56.8197 46.7213 56.7185C46.8747 56.6173 46.9966 56.4749 47.0729 56.3076C47.6754 54.97 48.6304 53.8252 48.9799 53.8252H52.5951C52.6745 53.8234 52.7534 53.8123 52.8301 53.792C52.9704 53.8692 53.1279 53.9096 53.2881 53.9095C57.3431 53.9095 60.639 56.639 60.639 59.9952C60.639 60.2548 60.7422 60.5039 60.9258 60.6875C61.1094 60.8711 61.3585 60.9743 61.6181 60.9743C61.8778 60.9743 62.1269 60.8711 62.3105 60.6875C62.4941 60.5039 62.5973 60.2548 62.5973 59.9952C62.5973 56.6541 60.2233 53.783 56.8732 52.5719C59.7258 52.3921 62.4031 51.1334 64.3615 49.0513C66.3199 46.9693 67.4125 44.22 67.4176 41.3617C67.4187 40.4793 67.3176 39.5998 67.1163 38.7406L74.8107 33.5106C74.9198 33.4395 75.0136 33.3473 75.0866 33.2394C75.1597 33.1315 75.2104 33.0102 75.236 32.8824C75.2615 32.7547 75.2613 32.6232 75.2354 32.4955C75.2094 32.3679 75.1583 32.2467 75.0849 32.139C75.0116 32.0314 74.9175 31.9395 74.8081 31.8687C74.6988 31.7979 74.5765 31.7496 74.4482 31.7267C74.32 31.7037 74.1885 31.7066 74.0614 31.7351C73.9343 31.7637 73.8142 31.8173 73.7081 31.8928L62.9196 39.2257C62.7047 39.3715 62.5565 39.5967 62.5076 39.8518C62.4587 40.1069 62.5132 40.371 62.659 40.5859C62.8048 40.8009 63.0301 40.9491 63.2852 40.9979C63.5403 41.0468 63.8043 40.9923 64.0193 40.8465L65.3599 39.9427C65.4332 40.4152 65.4704 40.8926 65.4714 41.3707C65.4728 42.8119 65.1385 44.2337 64.495 45.5232C63.8515 46.8128 62.9164 47.9347 61.764 48.8001C60.6115 49.6655 59.2733 50.2505 57.8554 50.5088C56.4375 50.7671 54.979 50.6916 53.5953 50.2883V44.7238C54.4786 45.3488 55.5577 45.6341 56.6345 45.5275C57.7112 45.4209 58.7134 44.9294 59.4569 44.1434C60.2005 43.3573 60.6355 42.3294 60.6822 41.2484C60.7289 40.1674 60.3841 39.1059 59.7111 38.2586L73.7563 28.0396C73.867 27.9668 73.9618 27.8723 74.0349 27.7618C74.108 27.6513 74.158 27.5272 74.1817 27.3968C74.2054 27.2665 74.2025 27.1326 74.173 27.0035C74.1435 26.8743 74.0881 26.7525 74.0101 26.6453C73.9322 26.5382 73.8333 26.448 73.7195 26.3802C73.6056 26.3124 73.4792 26.2684 73.3479 26.2509C73.2166 26.2334 73.0831 26.2427 72.9554 26.2783C72.8278 26.3138 72.7087 26.375 72.6054 26.4579L57.6203 37.3608L57.5781 37.4C57.5499 37.4206 57.5237 37.4438 57.4998 37.4693C57.4757 37.4934 57.4546 37.5205 57.4335 37.5446C57.4124 37.5687 57.4064 37.5747 57.3943 37.5928C57.3882 37.6012 57.3831 37.6103 57.3793 37.6199C57.36 37.6487 57.3428 37.6789 57.3281 37.7103C57.3126 37.7362 57.2995 37.7634 57.2889 37.7916C57.2771 37.8209 57.268 37.8511 57.2618 37.882C57.2495 37.9119 57.2414 37.9433 57.2377 37.9754C57.2377 38.0055 57.2377 38.0357 57.2377 38.0658C57.2377 38.0959 57.2377 38.1291 57.2377 38.1622C57.2377 38.1953 57.2377 38.2225 57.2377 38.2556C57.2377 38.2887 57.2377 38.3159 57.2377 38.346C57.2377 38.3761 57.2377 38.4062 57.2618 38.4364C57.27 38.4681 57.2801 38.4992 57.2919 38.5298C57.2919 38.5569 57.319 38.581 57.3341 38.6081C57.3499 38.6405 57.368 38.6717 57.3883 38.7015C57.3868 38.7094 57.3868 38.7176 57.3883 38.7256C57.3967 38.7381 57.4068 38.7492 57.4185 38.7587C57.4484 38.7977 57.4817 38.834 57.5179 38.8672L57.5811 38.9214C57.5934 38.9333 57.6065 38.9444 57.6203 38.9545C57.9794 39.2047 58.2679 39.5432 58.4581 39.9374C58.6482 40.3315 58.7335 40.7681 58.7058 41.2048C58.678 41.6416 58.5382 42.0638 58.2997 42.4307C58.0612 42.7977 57.7321 43.0969 57.3442 43.2996C56.9564 43.5023 56.5228 43.6016 56.0854 43.5879C55.648 43.5742 55.2215 43.4479 54.8471 43.2213C54.4727 42.9947 54.163 42.6754 53.948 42.2943C53.7329 41.9131 53.6198 41.483 53.6194 41.0454C53.6193 40.9534 53.605 40.8619 53.5773 40.7742V40.5724C53.5777 40.4439 53.5527 40.3167 53.5038 40.1979C53.455 40.0791 53.3831 39.9712 53.2924 39.8802C53.2018 39.7892 53.094 39.7171 52.9754 39.6678C52.8568 39.6186 52.7296 39.5932 52.6012 39.5932H50.2332C50.3236 35.3755 51.3178 32.5737 53.1917 31.2933C53.3334 31.9797 53.6892 32.6034 54.2078 33.0749C54.7263 33.5464 55.3811 33.8413 56.0778 33.9173H56.1893C56.4398 33.9181 56.6811 33.8228 56.8635 33.6511C57.0459 33.4793 57.1556 33.2442 57.1699 32.994C57.1841 32.7439 57.102 32.4978 56.9403 32.3064C56.7786 32.115 56.5497 31.9928 56.3007 31.9651C55.9541 31.9294 55.6339 31.7633 55.4051 31.5004C55.1763 31.2375 55.056 30.8974 55.0686 30.5491C57.3974 30.1665 59.7744 31.3234 59.8045 31.3385C59.8544 31.3642 59.9069 31.3844 59.9612 31.3987H59.9853C60.061 31.4188 60.1389 31.4299 60.2172 31.4319H60.2444H60.2986C60.3387 31.4348 60.379 31.4348 60.4191 31.4319L60.5034 31.4138C60.5477 31.4009 60.591 31.3848 60.633 31.3656C60.6495 31.3609 60.6657 31.3549 60.6812 31.3475H60.6993C60.7311 31.3313 60.7614 31.3121 60.7896 31.2903C60.8149 31.276 60.8391 31.2598 60.862 31.2421C60.8855 31.2215 60.9077 31.1994 60.9282 31.1758C60.9536 31.1539 60.9768 31.1297 60.9975 31.1035C61.0152 31.0837 61.0314 31.0625 61.0457 31.0402C61.0668 31.0071 61.0879 30.9769 61.106 30.9438C61.1241 30.9107 61.106 30.9438 61.106 30.9257C61.1153 30.9072 61.1233 30.8881 61.1301 30.8685C61.1301 30.8353 61.1572 30.8022 61.1693 30.7661C61.1781 30.7376 61.1842 30.7083 61.1873 30.6787C61.196 30.6471 61.202 30.6149 61.2054 30.5823C61.2054 30.5491 61.2054 30.519 61.2054 30.4859C61.2054 30.4527 61.2054 30.4226 61.2054 30.3925C61.2054 30.3624 61.2054 30.3292 61.1903 30.2961C61.178 30.2296 61.1577 30.1649 61.1301 30.1033C61.1301 30.0852 61.1301 30.0671 61.109 30.049C61.0126 29.8562 58.729 25.3854 54.9601 25.3854C51.4774 25.3854 48.9347 26.5573 47.1422 28.9705C47.0582 29.0731 46.9959 29.1918 46.9591 29.3192C46.9224 29.4466 46.9119 29.5802 46.9283 29.7118C46.9447 29.8434 46.9877 29.9703 47.0546 30.0848C47.1216 30.1993 47.2111 30.299 47.3177 30.3779C47.4244 30.4567 47.5459 30.5131 47.675 30.5436C47.8041 30.574 47.938 30.578 48.0687 30.5551C48.1993 30.5322 48.3239 30.4831 48.435 30.4106C48.5461 30.3381 48.6413 30.2438 48.7148 30.1334C50.1097 28.2203 52.1523 27.3165 54.9842 27.3165C56.0477 27.3165 56.9816 27.9191 57.7137 28.6511C56.123 28.377 54.1346 28.3981 52.3571 29.4917C49.7632 31.0914 48.3985 34.4867 48.293 39.5812H47.6091C47.347 30.0219 43.8794 25.3583 37.0075 25.3583C33.2386 25.3583 30.955 29.8291 30.8616 30.0219C30.8523 30.0394 30.8443 30.0575 30.8375 30.0761C30.8375 30.1123 30.8104 30.1454 30.7983 30.1816C30.7906 30.2103 30.7845 30.2395 30.7803 30.269C30.7713 30.3005 30.7653 30.3327 30.7622 30.3654C30.7622 30.3955 30.7622 30.4256 30.7622 30.4588C30.7622 30.4919 30.7622 30.522 30.7622 30.5552C30.7622 30.5883 30.7622 30.6154 30.7803 30.6455C30.7983 30.6757 30.7802 30.7088 30.8013 30.742C30.8113 30.7739 30.8233 30.8051 30.8375 30.8353C30.8442 30.8569 30.8522 30.878 30.8616 30.8986V30.9167C30.8769 30.9459 30.894 30.974 30.9128 31.001C30.9302 31.0284 30.9493 31.0545 30.97 31.0794C30.9866 31.0999 31.0047 31.119 31.0243 31.1366L31.1056 31.218L31.1598 31.2541L31.2683 31.3234L31.3165 31.3415C31.3547 31.3588 31.394 31.3739 31.434 31.3867H31.5003L31.6238 31.4078H31.6841C31.7272 31.4108 31.7705 31.4108 31.8136 31.4078H31.8678L31.9974 31.3776L32.0576 31.3535C32.0878 31.3535 32.1179 31.3355 32.148 31.3204C32.1781 31.3053 34.5582 30.1394 36.8809 30.5281C36.8926 30.8558 36.7857 31.1767 36.5797 31.4319C36.4656 31.5759 36.324 31.6959 36.1631 31.7849C36.0023 31.8738 35.8254 31.93 35.6427 31.95C35.394 31.9778 35.1653 32.0997 35.0037 32.2908C34.842 32.4818 34.7597 32.7276 34.7736 32.9775C34.7875 33.2273 34.8965 33.4624 35.0783 33.6344C35.2601 33.8064 35.5009 33.9023 35.7512 33.9023H35.8627C36.3022 33.8545 36.7278 33.7193 37.1143 33.5046C37.5008 33.2899 37.8404 33 38.1131 32.652C38.4293 32.2499 38.647 31.7795 38.7488 31.2782C40.6227 32.5586 41.6169 35.3484 41.7073 39.5782H39.5984C39.3387 39.5782 39.0897 39.6813 38.906 39.865C38.7224 40.0486 38.6193 40.2976 38.6193 40.5573V41.0393C38.6193 41.4772 38.5064 41.9077 38.2914 42.2892C38.0765 42.6706 37.7667 42.9902 37.3922 43.2171C37.0176 43.4439 36.5909 43.5702 36.1532 43.5839C35.7156 43.5977 35.2818 43.4982 34.8938 43.2953C34.5058 43.0924 34.1766 42.7928 33.9382 42.4255C33.6998 42.0582 33.5602 41.6357 33.5328 41.1987C33.5054 40.7616 33.5912 40.3249 33.7819 39.9308C33.9726 39.5366 34.2618 39.1983 34.6214 38.9485C34.6352 38.9384 34.6483 38.9273 34.6606 38.9154L34.7239 38.8612C34.7601 38.8279 34.7933 38.7917 34.8233 38.7527L34.8534 38.7196C34.8591 38.712 34.8641 38.7039 34.8685 38.6955C34.8888 38.6657 34.9069 38.6345 34.9227 38.6021C34.9381 38.5772 34.9512 38.551 34.9619 38.5237C34.9619 38.4936 34.983 38.4635 34.995 38.4303C35.0071 38.3972 35.0131 38.3701 35.0191 38.34C35.0251 38.3098 35.0191 38.2797 35.0191 38.2496C35.0191 38.2194 35.0191 38.1863 35.0191 38.1562C35.0191 38.1261 35.0191 38.0929 35.0191 38.0598C35.0191 38.0266 35.0191 37.9995 35.0191 37.9694C35.0191 37.9393 35.004 37.9061 34.995 37.876C34.986 37.8459 34.995 37.8157 34.9679 37.7856C34.9408 37.7555 34.9438 37.7314 34.9287 37.7043C34.914 37.6729 34.8968 37.6427 34.8775 37.6139L34.8624 37.5868C34.8624 37.5687 34.8353 37.5567 34.8233 37.5416C34.8028 37.5141 34.7807 37.488 34.757 37.4633L34.6787 37.394L34.6365 37.3548L19.6514 26.4519C19.5487 26.3585 19.4274 26.2881 19.2955 26.2452C19.1635 26.2023 19.024 26.1879 18.8861 26.203C18.7481 26.2181 18.615 26.2624 18.4955 26.3328C18.3759 26.4033 18.2728 26.4983 18.1928 26.6117C18.1127 26.725 18.0577 26.8541 18.0314 26.9903C18.005 27.1265 18.0079 27.2668 18.0399 27.4018C18.0718 27.5368 18.1321 27.6635 18.2167 27.7734C18.3013 27.8834 18.4083 27.9741 18.5307 28.0396L32.5758 38.2586C31.9069 39.1023 31.563 40.158 31.6067 41.2338C31.6504 42.3095 32.0788 43.3339 32.814 44.1205C33.5491 44.9071 34.5422 45.4037 35.6126 45.5199C36.6829 45.6362 37.7595 45.3644 38.6464 44.754V50.2883C37.2644 50.6841 35.8095 50.7534 34.3962 50.4907C32.9829 50.228 31.6499 49.6406 30.5025 48.7748C29.355 47.9089 28.4244 46.7883 27.7841 45.5013C27.1437 44.2143 26.8111 42.7962 26.8125 41.3587C26.8145 40.8805 26.8527 40.4031 26.927 39.9307L28.2677 40.8345C28.4293 40.9447 28.6204 41.0035 28.816 41.0032C29.0256 41.0036 29.2299 40.9367 29.3986 40.8123C29.5674 40.6879 29.6918 40.5127 29.7536 40.3123C29.8153 40.112 29.8111 39.8971 29.7415 39.6993C29.672 39.5015 29.5408 39.3313 29.3673 39.2136L18.5608 31.8898C18.3462 31.758 18.089 31.714 17.8428 31.7669C17.5966 31.8198 17.3803 31.9655 17.2387 32.1738C17.0971 32.382 17.0413 32.6369 17.0827 32.8853C17.1241 33.1337 17.2597 33.3565 17.4611 33.5076ZM51.622 51.8639H48.9769C47.8019 51.8639 46.8138 52.9304 46.142 53.9457C45.4189 52.9123 44.4157 51.8639 43.3221 51.8639H40.5896V41.5424H51.622V51.8639ZM39.6195 29.4947C37.845 28.4011 35.8566 28.38 34.2629 28.6511C34.995 27.9341 35.9289 27.3195 36.9924 27.3195C40.8758 27.3195 45.3376 28.7355 45.6449 39.5842H43.6836C43.5782 34.4897 42.2164 31.0944 39.6195 29.4947Z" fill="url(#paint1_linear_1_17533)"/>
<path d="M22.1097 40.9338C22.2295 40.9859 22.3587 41.0125 22.4893 41.0121C22.7146 41.0111 22.9328 40.9325 23.1068 40.7894C23.2809 40.6464 23.4004 40.4476 23.445 40.2268C23.4896 40.0059 23.4566 39.7764 23.3517 39.577C23.2467 39.3776 23.0762 39.2205 22.8689 39.1322L18.389 37.2583C18.1493 37.158 17.8796 37.157 17.6392 37.2556C17.3988 37.3542 17.2074 37.5443 17.1071 37.784C17.0069 38.0237 17.0059 38.2934 17.1045 38.5338C17.2031 38.7742 17.3932 38.9656 17.6329 39.0659L22.1097 40.9338Z" fill="url(#paint2_linear_1_17533)"/>
<path d="M24.2185 51.8187C24.3724 51.8189 24.5241 51.7828 24.6614 51.7132L26.2611 50.9028C26.4863 50.7821 26.6554 50.5781 26.7323 50.3343C26.8091 50.0906 26.7876 49.8265 26.6724 49.5984C26.5572 49.3703 26.3573 49.1963 26.1156 49.1136C25.8738 49.0308 25.6092 49.0458 25.3784 49.1555L23.7756 49.9659C23.5791 50.0653 23.4219 50.2281 23.3293 50.4279C23.2367 50.6278 23.2142 50.853 23.2654 51.0672C23.3166 51.2814 23.4385 51.4721 23.6114 51.6085C23.7844 51.7448 23.9983 51.8189 24.2185 51.8187Z" fill="url(#paint3_linear_1_17533)"/>
<path d="M29.9126 51.9302C29.7235 51.7526 29.4717 51.6573 29.2125 51.6653C28.9532 51.6732 28.7077 51.7836 28.5298 51.9724L27.647 52.9244C27.4699 53.1138 27.3751 53.3659 27.3836 53.6251C27.3921 53.8844 27.5031 54.1297 27.6922 54.3072C27.8728 54.4783 28.1123 54.5733 28.3611 54.5723C28.4943 54.5733 28.6264 54.5471 28.7491 54.4953C28.8719 54.4435 28.9828 54.3672 29.0751 54.2711L29.9578 53.3311C30.0483 53.2369 30.119 53.1256 30.1658 53.0037C30.2126 52.8817 30.2346 52.7517 30.2304 52.6211C30.2262 52.4906 30.1959 52.3622 30.1413 52.2435C30.0867 52.1249 30.009 52.0183 29.9126 51.9302Z" fill="url(#paint4_linear_1_17533)"/>
<path d="M24.6343 46.4379C24.5579 46.1899 24.3861 45.9824 24.1568 45.8609C23.9274 45.7395 23.6592 45.714 23.4111 45.7902L20.1815 46.7874C19.9578 46.8578 19.7668 47.0062 19.6432 47.2056C19.5197 47.4049 19.4718 47.642 19.5083 47.8737C19.5447 48.1054 19.6632 48.3163 19.842 48.468C20.0209 48.6197 20.2483 48.7022 20.4828 48.7005C20.5847 48.7006 20.6861 48.6864 20.7841 48.6583L24.0107 47.6611C24.2542 47.5797 24.4561 47.4059 24.5728 47.1771C24.6894 46.9483 24.7115 46.6829 24.6343 46.4379Z" fill="url(#paint5_linear_1_17533)"/>
<path d="M22.4894 44.3292C22.6223 44.3366 22.7554 44.3168 22.8804 44.271C23.0054 44.2252 23.1198 44.1544 23.2165 44.0628C23.3133 43.9713 23.3903 43.8611 23.443 43.7388C23.4956 43.6165 23.5228 43.4847 23.5228 43.3516C23.5228 43.2184 23.4956 43.0867 23.443 42.9644C23.3903 42.8421 23.3133 42.7318 23.2165 42.6403C23.1198 42.5488 23.0054 42.478 22.8804 42.4322C22.7554 42.3864 22.6223 42.3666 22.4894 42.3739H18.4524C18.3194 42.3666 18.1864 42.3864 18.0613 42.4322C17.9363 42.478 17.8219 42.5488 17.7252 42.6403C17.6285 42.7318 17.5514 42.8421 17.4988 42.9644C17.4461 43.0867 17.4189 43.2184 17.4189 43.3516C17.4189 43.4847 17.4461 43.6165 17.4988 43.7388C17.5514 43.8611 17.6285 43.9713 17.7252 44.0628C17.8219 44.1544 17.9363 44.2252 18.0613 44.271C18.1864 44.3168 18.3194 44.3366 18.4524 44.3292H22.4894Z" fill="url(#paint6_linear_1_17533)"/>
<path d="M75.145 37.7736C75.0439 37.5342 74.8521 37.3446 74.6116 37.2464C74.371 37.1481 74.1013 37.1492 73.8616 37.2494L69.3847 39.1323C69.1774 39.2206 69.0069 39.3777 68.902 39.5771C68.797 39.7765 68.7641 40.006 68.8087 40.2269C68.8533 40.4478 68.9727 40.6465 69.1468 40.7896C69.3209 40.9326 69.539 41.0113 69.7643 41.0122C69.8949 41.0124 70.0241 40.9858 70.1439 40.9339L74.6208 39.066C74.7404 39.016 74.8489 38.9428 74.9401 38.8506C75.0313 38.7585 75.1034 38.6492 75.1521 38.529C75.2008 38.4089 75.2253 38.2802 75.2241 38.1506C75.2229 38.0209 75.196 37.8928 75.145 37.7736Z" fill="url(#paint7_linear_1_17533)"/>
<path d="M68.478 49.9658L66.8753 49.1554C66.6435 49.0379 66.3747 49.0173 66.1278 49.0981C65.8809 49.1789 65.6762 49.3545 65.5587 49.5862C65.4413 49.8179 65.4207 50.0868 65.5015 50.3337C65.5822 50.5806 65.7578 50.7853 65.9895 50.9028L67.5923 51.7132C67.7294 51.7831 67.8812 51.8192 68.0351 51.8186C68.2554 51.8188 68.4693 51.7447 68.6422 51.6084C68.8152 51.472 68.9371 51.2813 68.9883 51.0671C69.0395 50.8529 69.017 50.6277 68.9244 50.4278C68.8318 50.228 68.6745 50.0652 68.478 49.9658Z" fill="url(#paint8_linear_1_17533)"/>
<path d="M62.3381 51.9302C62.1493 52.1081 62.0389 52.3536 62.031 52.6129C62.0231 52.8721 62.1184 53.1239 62.2959 53.313L63.1786 54.253C63.3593 54.4295 63.6011 54.5294 63.8537 54.5318C64.1062 54.5342 64.3499 54.4389 64.5339 54.2658C64.7178 54.0928 64.8278 53.8553 64.8408 53.6031C64.8538 53.3509 64.7688 53.1034 64.6036 52.9123L63.7209 51.9724C63.543 51.7836 63.2975 51.6732 63.0382 51.6653C62.779 51.6573 62.5272 51.7526 62.3381 51.9302Z" fill="url(#paint9_linear_1_17533)"/>
<path d="M72.0722 46.7876L68.8426 45.7904C68.7197 45.7524 68.5906 45.739 68.4626 45.7509C68.3345 45.7628 68.2101 45.7999 68.0964 45.8599C67.9827 45.9199 67.8819 46.0017 67.7998 46.1007C67.7177 46.1996 67.6559 46.3138 67.6179 46.4366C67.5799 46.5595 67.5665 46.6886 67.5784 46.8166C67.5904 46.9446 67.6274 47.0691 67.6874 47.1828C67.7474 47.2965 67.8292 47.3973 67.9282 47.4794C68.0271 47.5615 68.1413 47.6233 68.2641 47.6613L71.4937 48.6585C71.5916 48.6869 71.6931 48.7011 71.795 48.7006C72.0295 48.7024 72.2569 48.6199 72.4358 48.4682C72.6146 48.3164 72.733 48.1056 72.7695 47.8739C72.806 47.6422 72.7581 47.4051 72.6346 47.2057C72.511 47.0064 72.32 46.858 72.0963 46.7876H72.0722Z" fill="url(#paint10_linear_1_17533)"/>
<path d="M73.8014 42.3799H69.7644C69.6314 42.3725 69.4984 42.3924 69.3733 42.4381C69.2483 42.4839 69.1339 42.5548 69.0372 42.6463C68.9405 42.7378 68.8634 42.848 68.8108 42.9703C68.7581 43.0926 68.731 43.2244 68.731 43.3575C68.731 43.4907 68.7581 43.6224 68.8108 43.7447C68.8634 43.867 68.9405 43.9773 69.0372 44.0688C69.1339 44.1603 69.2483 44.2311 69.3733 44.2769C69.4984 44.3227 69.6314 44.3425 69.7644 44.3352H73.8014C73.9343 44.3425 74.0674 44.3227 74.1924 44.2769C74.3174 44.2311 74.4318 44.1603 74.5285 44.0688C74.6253 43.9773 74.7023 43.867 74.755 43.7447C74.8076 43.6224 74.8348 43.4907 74.8348 43.3575C74.8348 43.2244 74.8076 43.0926 74.755 42.9703C74.7023 42.848 74.6253 42.7378 74.5285 42.6463C74.4318 42.5548 74.3174 42.4839 74.1924 42.4381C74.0674 42.3924 73.9343 42.3725 73.8014 42.3799Z" fill="url(#paint11_linear_1_17533)"/>
<path d="M43.1683 23.1981C42.9087 23.1981 42.6596 23.3013 42.476 23.4849C42.2924 23.6685 42.1892 23.9176 42.1892 24.1772C42.1892 24.4369 42.2924 24.686 42.476 24.8696C42.6596 25.0532 42.9087 25.1564 43.1683 25.1564H48.7659C49.0256 25.1564 49.2746 25.0532 49.4583 24.8696C49.6419 24.686 49.745 24.4369 49.745 24.1772C49.745 23.9176 49.6419 23.6685 49.4583 23.4849C49.2746 23.3013 49.0256 23.1981 48.7659 23.1981H43.1683Z" fill="url(#paint12_linear_1_17533)"/>
<path d="M43.8371 22.1588H48.1272C48.9577 22.0924 49.7327 21.7156 50.2979 21.1034C50.8631 20.4912 51.177 19.6886 51.177 18.8554C51.177 18.0222 50.8631 17.2196 50.2979 16.6074C49.7327 15.9952 48.9577 15.6184 48.1272 15.552C47.3318 15.552 46.5967 16.0069 45.949 16.5522C45.4428 16.0822 44.774 15.552 43.8401 15.552C43.0096 15.6184 42.2345 15.9952 41.6693 16.6074C41.1041 17.2196 40.7903 18.0222 40.7903 18.8554C40.7903 19.6886 41.1041 20.4912 41.6693 21.1034C42.2345 21.7156 43.0096 22.0924 43.8401 22.1588H43.8371ZM43.8371 17.5103C44.1203 17.5103 44.4667 17.8386 44.8011 18.161C44.9909 18.3387 45.1717 18.5105 45.3434 18.643C45.5163 18.7757 45.7281 18.8477 45.946 18.8479C46.1076 18.8409 46.266 18.8 46.4108 18.7279C46.5556 18.6557 46.6836 18.5539 46.7865 18.4291C47.6632 17.5976 48.0157 17.5253 48.1272 17.5253C48.4729 17.5417 48.7991 17.6906 49.038 17.941C49.2769 18.1915 49.4101 18.5243 49.4101 18.8705C49.4101 19.2166 49.2769 19.5495 49.038 19.7999C48.7991 20.0504 48.4729 20.1993 48.1272 20.2156H43.8371C43.4913 20.1993 43.1652 20.0504 42.9263 19.7999C42.6874 19.5495 42.5541 19.2166 42.5541 18.8705C42.5541 18.5243 42.6874 18.1915 42.9263 17.941C43.1652 17.6906 43.4913 17.5417 43.8371 17.5253V17.5103Z" fill="url(#paint13_linear_1_17533)"/>
<path d="M45.967 14.6632C46.2305 14.6638 46.4883 14.5862 46.7076 14.4403C46.927 14.2943 47.0982 14.0865 47.1994 13.8433C47.3007 13.6 47.3275 13.3322 47.2764 13.0737C47.2254 12.8152 47.0988 12.5776 46.9127 12.3911C46.7266 12.2046 46.4893 12.0774 46.2309 12.0258C45.9725 11.9742 45.7046 12.0004 45.4611 12.1011C45.2177 12.2018 45.0095 12.3724 44.8631 12.5915C44.7166 12.8105 44.6384 13.0681 44.6384 13.3316C44.6384 13.6842 44.7783 14.0225 45.0274 14.2721C45.2765 14.5218 45.6144 14.6624 45.967 14.6632Z" fill="url(#paint14_linear_1_17533)"/>
<path d="M67.8876 58.0099C67.624 58.0093 67.3661 58.087 67.1467 58.2331C66.9272 58.3791 66.7561 58.5871 66.6549 58.8305C66.5538 59.074 66.5271 59.342 66.5784 59.6005C66.6297 59.8591 66.7566 60.0967 66.943 60.2831C67.1294 60.4695 67.367 60.5964 67.6255 60.6477C67.8841 60.699 68.1521 60.6723 68.3956 60.5712C68.639 60.47 68.8469 60.2989 68.993 60.0794C69.1391 59.86 69.2168 59.6021 69.2162 59.3385C69.2162 58.9861 69.0762 58.6482 68.827 58.399C68.5779 58.1499 68.24 58.0099 67.8876 58.0099Z" fill="url(#paint15_linear_1_17533)"/>
<path d="M66.5801 62.0499C65.513 62.0524 64.4691 62.3608 63.572 62.9386C62.675 63.5163 61.9624 64.3392 61.5187 65.3096L54.4209 62.4807V60.2332C54.4282 60.1003 54.4084 59.9672 54.3626 59.8422C54.3168 59.7172 54.246 59.6028 54.1545 59.5061C54.063 59.4093 53.9527 59.3323 53.8304 59.2796C53.7081 59.227 53.5764 59.1998 53.4432 59.1998C53.3101 59.1998 53.1783 59.227 53.056 59.2796C52.9337 59.3323 52.8235 59.4093 52.732 59.5061C52.6404 59.6028 52.5696 59.7172 52.5238 59.8422C52.478 59.9672 52.4582 60.1003 52.4656 60.2332V63.1435C52.466 63.3367 52.5234 63.5255 52.6306 63.6863C52.7377 63.847 52.89 63.9726 53.0682 64.0473L61.0186 67.2136C61.0186 67.3462 60.9976 67.4788 60.9976 67.6143C60.997 68.7169 61.3234 69.7949 61.9356 70.7119C62.5478 71.6289 63.4182 72.3438 64.4368 72.766C65.4553 73.1882 66.5762 73.2988 67.6576 73.0839C68.739 72.8689 69.7324 72.338 70.5121 71.5584C71.2917 70.7787 71.8226 69.7854 72.0376 68.7039C72.2525 67.6225 72.1419 66.5016 71.7197 65.4831C71.2975 64.4645 70.5826 63.5941 69.6656 62.9819C68.7486 62.3697 67.6706 62.0433 66.568 62.0439L66.5801 62.0499ZM66.5801 71.2356C65.865 71.2356 65.1661 71.0236 64.5716 70.6263C63.977 70.2291 63.5137 69.6644 63.24 69.0038C62.9664 68.3432 62.8948 67.6163 63.0343 66.9151C63.1738 66.2138 63.5181 65.5696 64.0237 65.064C64.5293 64.5584 65.1735 64.2141 65.8748 64.0746C66.5761 63.9351 67.303 64.0067 67.9636 64.2803C68.6242 64.554 69.1888 65.0173 69.586 65.6118C69.9833 66.2064 70.1953 66.9053 70.1953 67.6204C70.1953 68.5792 69.8144 69.4987 69.1364 70.1767C68.4584 70.8547 67.5389 71.2356 66.5801 71.2356Z" fill="url(#paint16_linear_1_17533)"/>
<path d="M30.2109 67.5328L39.0321 64.0531C39.2137 63.9813 39.3697 63.8569 39.4802 63.6959C39.5908 63.5349 39.6508 63.3446 39.6527 63.1493V60.2391C39.6527 59.9794 39.5495 59.7304 39.3659 59.5467C39.1823 59.3631 38.9332 59.26 38.6736 59.26C38.4139 59.26 38.1648 59.3631 37.9812 59.5467C37.7976 59.7304 37.6944 59.9794 37.6944 60.2391V62.4835L29.0992 65.8788L19.9045 52.1108C19.8331 52.0038 19.7413 51.9119 19.6344 51.8404C19.5274 51.7688 19.4075 51.7191 19.2813 51.6939C19.0265 51.643 18.7619 51.6955 18.5458 51.8397C18.3297 51.9839 18.1797 52.2081 18.1288 52.4629C18.078 52.7177 18.1304 52.9823 18.2746 53.1984L27.2374 66.6019L26.9663 66.7103C26.7549 66.7944 26.5794 66.9494 26.4699 67.1487C26.3604 67.3481 26.3237 67.5793 26.3661 67.8027C26.4085 68.0262 26.5274 68.2279 26.7023 68.3733C26.8772 68.5186 27.0973 68.5985 27.3248 68.5993C27.4476 68.5996 27.5694 68.5761 27.6833 68.53L28.3491 68.2679L29.8825 70.5636C29.9516 70.6756 30.0425 70.7726 30.1499 70.8487C30.2573 70.9249 30.379 70.9785 30.5076 71.0066C30.6362 71.0346 30.7691 71.0364 30.8985 71.0119C31.0278 70.9874 31.1508 70.9371 31.2603 70.8639C31.3697 70.7907 31.4633 70.6963 31.5353 70.5861C31.6074 70.476 31.6566 70.3525 31.6798 70.2229C31.7031 70.0933 31.7 69.9604 31.6707 69.8321C31.6414 69.7037 31.5865 69.5826 31.5094 69.476L30.2109 67.5328Z" fill="url(#paint17_linear_1_17533)"/>
<defs>
<linearGradient id="paint0_linear_1_17533" x1="46.1" y1="368.093" x2="46.1" y2="-291.281" gradientUnits="userSpaceOnUse">
<stop stop-color="#38B218"/>
<stop offset="1" stop-color="#38B218"/>
</linearGradient>
<linearGradient id="paint1_linear_1_17533" x1="46.1902" y1="464.934" x2="46.1902" y2="-462.734" gradientUnits="userSpaceOnUse">
<stop stop-color="#38B218"/>
<stop offset="1" stop-color="#38B218"/>
</linearGradient>
<linearGradient id="paint2_linear_1_17533" x1="20.2509" y1="84.4491" x2="20.2509" y2="-15.3011" gradientUnits="userSpaceOnUse">
<stop stop-color="#38B218"/>
<stop offset="1" stop-color="#38B218"/>
</linearGradient>
<linearGradient id="paint3_linear_1_17533" x1="25.0098" y1="83.0991" x2="25.0098" y2="11.2657" gradientUnits="userSpaceOnUse">
<stop stop-color="#38B218"/>
<stop offset="1" stop-color="#38B218"/>
</linearGradient>
<linearGradient id="paint4_linear_1_17533" x1="28.8083" y1="87.5501" x2="28.8083" y2="11.8188" gradientUnits="userSpaceOnUse">
<stop stop-color="#38B218"/>
<stop offset="1" stop-color="#38B218"/>
</linearGradient>
<linearGradient id="paint5_linear_1_17533" x1="22.0905" y1="82.1984" x2="22.0905" y2="5.27259" gradientUnits="userSpaceOnUse">
<stop stop-color="#38B218"/>
<stop offset="1" stop-color="#38B218"/>
</linearGradient>
<linearGradient id="paint6_linear_1_17533" x1="20.4738" y1="66.5414" x2="20.4738" y2="15.536" gradientUnits="userSpaceOnUse">
<stop stop-color="#38B218"/>
<stop offset="1" stop-color="#38B218"/>
</linearGradient>
<linearGradient id="paint7_linear_1_17533" x1="72.0098" y1="84.5518" x2="72.0098" y2="-15.434" gradientUnits="userSpaceOnUse">
<stop stop-color="#38B218"/>
<stop offset="1" stop-color="#38B218"/>
</linearGradient>
<linearGradient id="paint8_linear_1_17533" x1="67.2357" y1="83.2255" x2="67.2357" y2="11.1016" gradientUnits="userSpaceOnUse">
<stop stop-color="#38B218"/>
<stop offset="1" stop-color="#38B218"/>
</linearGradient>
<linearGradient id="paint9_linear_1_17533" x1="63.4377" y1="87.0498" x2="63.4377" y2="12.3744" gradientUnits="userSpaceOnUse">
<stop stop-color="#38B218"/>
<stop offset="1" stop-color="#38B218"/>
</linearGradient>
<linearGradient id="paint10_linear_1_17533" x1="70.1803" y1="82.2049" x2="70.1803" y2="5.26464" gradientUnits="userSpaceOnUse">
<stop stop-color="#38B218"/>
<stop offset="1" stop-color="#38B218"/>
</linearGradient>
<linearGradient id="paint11_linear_1_17533" x1="71.7858" y1="66.5473" x2="71.7858" y2="15.542" gradientUnits="userSpaceOnUse">
<stop stop-color="#38B218"/>
<stop offset="1" stop-color="#38B218"/>
</linearGradient>
<linearGradient id="paint12_linear_1_17533" x1="45.9708" y1="47.367" x2="45.9708" y2="-3.63826" gradientUnits="userSpaceOnUse">
<stop stop-color="#38B218"/>
<stop offset="1" stop-color="#38B218"/>
</linearGradient>
<linearGradient id="paint13_linear_1_17533" x1="45.9886" y1="97.0941" x2="45.9886" y2="-74.9899" gradientUnits="userSpaceOnUse">
<stop stop-color="#38B218"/>
<stop offset="1" stop-color="#38B218"/>
</linearGradient>
<linearGradient id="paint14_linear_1_17533" x1="45.9713" y1="44.8697" x2="45.9713" y2="-24.4975" gradientUnits="userSpaceOnUse">
<stop stop-color="#38B218"/>
<stop offset="1" stop-color="#38B218"/>
</linearGradient>
<linearGradient id="paint15_linear_1_17533" x1="67.8859" y1="90.8796" x2="67.8859" y2="21.5124" gradientUnits="userSpaceOnUse">
<stop stop-color="#38B218"/>
<stop offset="1" stop-color="#38B218"/>
</linearGradient>
<linearGradient id="paint16_linear_1_17533" x1="62.3138" y1="231.878" x2="62.3138" y2="-132.537" gradientUnits="userSpaceOnUse">
<stop stop-color="#38B218"/>
<stop offset="1" stop-color="#38B218"/>
</linearGradient>
<linearGradient id="paint17_linear_1_17533" x1="28.8917" y1="290.545" x2="28.8917" y2="-213.559" gradientUnits="userSpaceOnUse">
<stop stop-color="#38B218"/>
<stop offset="1" stop-color="#38B218"/>
</linearGradient>
</defs>
</svg>
